<svg width="20" height="20" viewBox="0 0 20 20" fill="none" xmlns="http://www.w3.org/2000/svg">
<path d="M17 9H5.14L8.77 4.64C8.93974 4.43578 9.0214 4.1725 8.99702 3.90808C8.97264 3.64365 8.84422 3.39974 8.64 3.23C8.43578 3.06026 8.1725 2.9786 7.90808 3.00298C7.64365 3.02736 7.39974 3.15578 7.23 3.36L2.23 9.36C2.19636 9.40772 2.16628 9.45786 2.14 9.51C2.14 9.56 2.14 9.59 2.07 9.64C2.02467 9.75466 2.00094 9.87671 2 10C2.00094 10.1233 2.02467 10.2453 2.07 10.36C2.07 10.41 2.07 10.44 2.14 10.49C2.16628 10.5421 2.19636 10.5923 2.23 10.64L7.23 16.64C7.32402 16.7529 7.44176 16.8437 7.57485 16.9059C7.70793 16.9681 7.85309 17.0002 8 17C8.23365 17.0005 8.46009 16.9191 8.64 16.77C8.74126 16.6861 8.82496 16.583 8.88631 16.4666C8.94766 16.3503 8.98546 16.2229 8.99754 16.092C9.00961 15.961 8.99573 15.8289 8.95669 15.7033C8.91764 15.5777 8.8542 15.4611 8.77 15.36L5.14 11H17C17.2652 11 17.5196 10.8946 17.7071 10.7071C17.8946 10.5196 18 10.2652 18 10C18 9.73478 17.8946 9.48043 17.7071 9.29289C17.5196 9.10536 17.2652 9 17 9Z" fill="#094B95"/>
</svg>
