<svg width="56" height="48" fill="none" xmlns="http://www.w3.org/2000/svg"><g filter="url(#filter0_d_16720_21396)" fill="#57A9FF"><path fill-rule="evenodd" clip-rule="evenodd" d="M47.249 8.031a2.856 2.856 0 01-1.13 4.609l-9.185 3.343-3.27 7.462-5.017 1.826a1 1 0 01-1.312-1.187l1.293-5.078-6 2.183a5.659 5.659 0 01-6.1-1.515 4.81 4.81 0 01-1.005-1.684l-1.618-4.446a1.001 1.001 0 01.6-1.282l2.994-1.09 2.969 2.405 6.806-2.482-4.9-3.521a1 1 0 01.241-1.752L27.628 4l8.114 4.015 2.708-.986a10.259 10.259 0 017.9.345c.34.157.646.38.899.657zM27.512 6.173l-2.433.886 4.467 3.212 3.6-1.31-5.634-2.788zm7.934 8.221l9.99-3.635v.001a.854.854 0 00.337-1.376.844.844 0 00-.268-.196 8.271 8.271 0 00-6.367-.278l-19.052 6.939-2.965-2.405-.989.36 1.225 3.367a3.658 3.658 0 003.542 2.383c.3-.008.597-.068.876-.178l7.95-2.894a1 1 0 011.31 1.182l-1.293 5.078 2.434-.886 3.27-7.462z"/><path d="M10.009 33.907H48v2H10.009v.009h-2v-.009H8v-2h.009V5.916h2v27.991z"/><path d="M23.146 24.33L14.7 27.438l.69 1.877 8.447-3.109-.69-1.877zm-9.841-.672l3.783-1.392.691 1.877-3.783 1.392-.69-1.877z"/></g><defs><filter id="filter0_d_16720_21396" x="0" y="0" width="56" height="47.916" filterUnits="userSpaceOnUse" color-interpolation-filters="sRGB"><feFlood flood-opacity="0" result="BackgroundImageFix"/><feColorMatrix in="SourceAlpha" values="0 0 0 0 0 0 0 0 0 0 0 0 0 0 0 0 0 0 127 0" result="hardAlpha"/><feOffset dy="4"/><feGaussianBlur stdDeviation="4"/><feComposite in2="hardAlpha" operator="out"/><feColorMatrix values="0 0 0 0 0.341176 0 0 0 0 0.662745 0 0 0 0 1 0 0 0 0.25 0"/><feBlend in2="BackgroundImageFix" result="effect1_dropShadow_16720_21396"/><feBlend in="SourceGraphic" in2="effect1_dropShadow_16720_21396" result="shape"/></filter></defs></svg>