<svg xmlns="http://www.w3.org/2000/svg" viewBox="0 0 63 33" class="Icon_icon__w6Pjo" preserveAspectRatio=""><path fill="#628EBA" d="M.5 3.6v27.3h5.8V18.8h8.2v-5.5H6.3V7.2h9.8V1.6H2.5c-1.4 0-2 .6-2 2zm17.7.1V31H24V1.7h-3.8c-1.4 0-2 .6-2 2zm22.3 12.5c1.4-.6 3.4-2.2 3.4-6.9 0-4-2.8-7.7-8.6-7.7h-6.4c-1.4 0-2 .6-2 2V31h8.8c4.8 0 8.4-2.8 8.4-8.3 0-4-2.2-5.9-3.6-6.5zm-5.6 9.7h-2.6v-7.3h2.6c2 0 3.4 1.2 3.4 3.6 0 2.5-1.4 3.7-3.4 3.7zm0-12.1h-2.6V6.7h2.6c2-.2 3.4 1 3.4 3.4 0 2.5-1.4 3.7-3.4 3.7zM55.1 1c-7.2 0-8.4 5.7-8.4 7.9v22h5.8V21h5.4v10h5.6V9c0-2.3-1.2-8-8.4-8zm2.4 14.6h-5.2V9.5c0-1.2.4-3.2 2.6-3.2s2.6 2 2.6 3.2v6.1z"/></svg>