<svg xmlns="http://www.w3.org/2000/svg" xmlns:xlink="http://www.w3.org/1999/xlink" viewBox="0 0 94 27" class="Icon_icon__w6Pjo" preserveAspectRatio=""><path fill="#D7E9F9" d="M10.6 0H4.5C2.2 0 .4 1.8.4 4.1v18.8c0 2.3 1.8 4.1 4.1 4.1h6.1c2.3 0 4.1-1.8 4.1-4.1V4.1c0-2.3-1.9-4.1-4.1-4.1z"/><g transform="translate(-13)"><defs><path id="a__zMfGImis" d="M26.8 22.9V12.6c-4.2 1.1-12.7 3.8-12.7 6.9v3.4c0 1.8 1.5 3.3 3.3 3.3h6.1c1.8 0 3.3-1.5 3.3-3.3z"/></defs><use xlink:href="#a__zMfGImis" overflow="visible" fill="#628eba"/><clipPath id="b__zMfGImis"><use xlink:href="#a__zMfGImis" overflow="visible"/></clipPath><path clip-path="url(#b__zMfGImis)" fill="#628EBA" d="M14.1 12.6h12.7v13.5H14.1z"/></g><path d="M7.5 13.1c-.4 0-.7.1-.7.2v.4c0 .1.3.2.7.2.4 0 .7-.1.7-.2v-.4c0-.1-.3-.2-.7-.2z"/><g transform="translate(-13)"><defs><path id="c__zMfGImis" d="M19.6 6.7v.1s.2-.1.2-.2l.2-.3V6s-.3-.4-.4-.6c-.1-.2-.1-.5-.1-.7l-.2-.1-.2-.1v.3c.2.3.3.6.3.6l.3.4v.1s0 .1.1.3c0 .3-.2.6-.2.5zm-2 6.4l-.1.1h.3c.1-.1-.1-.1-.2-.1zm-.1-.2c-.1-.1-.1-.1 0 0-.1 0-.1 0 0 0zm3.1-3.4c-.1.1-.1.1-.1.2h-.1v.7l-.4.6c-.2.3-.4.3-.4.4v.5s0 .4-.2.6c0 0 0 .1-.1.1s-.5.1-.5.1 0 .1-.1.2c1.2-.3 2.5-.5 3.9-.7l-2-2.7zM18.4 11v-1c0-.2 0-.3.1-.4 0-.1.2-.2.2-.2v-.2l.1-.1s0-.1.1-.3c0-.1.4-1 .6-1.3l-.1-.3h-.2l-.2-.1V7s-.1 0-.1-.1l-.1-.2c-.1 0-.1-.3-.1-.3v-.7l-.1-.1c0-.1-.1-.4-.1-.4s-.5 0-.5-.2c0 0-.2-.5-.3-.8v-.7s.5-.8.7-.9c.1-.1.6-.3.8-.4h.9v-.7c0-.1 0 0 .1-.2 0-.1.1-.2.2-.3h-3.1C15.5 1 14 2.5 14 4.3v10.4c.9-.4 2-.7 3.2-1v-.1s.1-.2.1-.3h-.2v-.2s-.1 0-.1-.1v-.4c0-.1.2-.1.2-.1l.6-.1c.2-.1.5-.6.5-.6s.1-.7.1-.8zm5.1.8c0 .1-.2.3-.4.4 1.2-.1 2.4-.3 3.7-.4V4.1c0-1.8-1.5-3.3-3.3-3.3h-2l.1.1c.1.2.1.4.1.4v1s.1.2.2.2c0 0 .2.3.3.4.1.1.2.3.3.5.5.4.5.6.5.6 0 .2.3 1.4.4 1.8v.9c0 .1-.1.4-.1.4v.2s.2.5-.3.9c-.6.5-1.5.9-1.6 1l-.2-.4h-.4l1.5 2.8c.1.2.1.3.3.3.1 0 .3-.1.6-.2.2-.1.4-.4.5-.5h.1v.1c-.1.1-.2.4-.3.5z"/></defs><use xlink:href="#c__zMfGImis" overflow="visible" fill="#628eba"/><clipPath id="d__zMfGImis"><use xlink:href="#c__zMfGImis" overflow="visible"/></clipPath><path clip-path="url(#d__zMfGImis)" fill="#628EBA" d="M14.1.8h12.7v13.6H14.1z"/></g><path fill="#D7E9F9" d="M11.8 24.4h1.7v-.1c-.6 0-1.2 0-1.7.1-.3-.1-.7-.1-1-.1 0-.2 0-.4.1-.7h-.1c0 .2 0 .5-.1.7-2.4-.2-4.7-.9-6.3-1.8.8-1.5 1.9-3.1 3.3-4.6l.2-.2c1 .5 2.4.9 4 1.1-.2.5-.4 1.1-.5 1.7h.1c.1-.6.3-1.2.5-1.7.6.1 1.2.1 1.8.1v-.1c-.6 0-1.2 0-1.8-.1.5-1.4 1.1-2.7 1.8-3.7v-.2c-.7 1-1.4 2.4-1.9 3.9-1.5-.2-2.9-.6-4-1.1 1.4-1.4 2.9-2.6 4.3-3.5.3.3 1.1.5 1.6.6v-.1c-.7-.1-1.2-.3-1.5-.5.5-.3 1-.5 1.5-.7v-.1c-.5.2-1.1.5-1.6.8-.1-.1-.1-.2-.1-.2 0-.3.5-.6 1.3-.8-.4-.1-.7-.1-1 0-.3.2-.5.4-.5.6 0 .1 0 .2.1.3-1.4.8-2.9 2.1-4.3 3.5-1-.5-1.6-1-1.6-1.5s.4-.9 1.2-1.3c-.3.1-.5.2-.8.3-.3.3-.5.6-.5.9 0 .5.6 1.1 1.6 1.6 0 .1-.1.1-.2.2C6 19.2 4.8 20.8 4 22.4c-1.8-1-3-2.1-3-2.9v.4c.3.7 1.4 1.7 3 2.5-.6 1.2-1 2.4-1.1 3.3H3c0-.9.4-2.1 1.1-3.3h.1c1.9 1 4.2 1.6 6.3 1.8 0 .6-.1 1.2-.1 1.8 0-.5 0-1.1.1-1.7.6.1.9.1 1.3.1z"/><path fill="#D7E9F9" d="M3.6 23.3c0 .2-.2.4-.4.4H3c-.2 0-.4-.2-.4-.4v-2.6c0-.2.2-.4.4-.4h.2c.2 0 .4.2.4.4v2.6zm1.8 0c0 .2-.2.4-.4.4h-.2c-.2 0-.4-.2-.4-.4v-2.6c0-.2.2-.4.4-.4H5c.2 0 .4.2.4.4v2.6zm3.7 0c0 .2-.2.4-.4.4h-.2c-.2 0-.4-.2-.4-.4v-.9h-.9v.9c0 .2-.2.4-.4.4h-.2c-.2 0-.4-.2-.4-.4v-2.6c0-.2.2-.4.4-.4h.2c.2 0 .4.2.4.4v.9h.9v-.9c0-.2.2-.4.4-.4h.2c.2 0 .4.2.4.4v2.6zm2.9-1.7c.2 0 .4.2.4.4s-.2.4-.4.4h-1v.9c0 .2-.2.4-.4.4h-.2c-.2 0-.4-.2-.4-.4v-2.6c0-.2.2-.4.4-.4H12c.2 0 .4.2.4.4s-.2.4-.4.4h-1v.5h1z"/><path fill="#628EBA" d="M10.6 0H4.5C2.2 0 .4 1.8.4 4.1v18.8c0 2.3 1.8 4.1 4.1 4.1h6.1c2.3 0 4.1-1.8 4.1-4.1V4.1c0-2.3-1.9-4.1-4.1-4.1zm3.6 22.9c0 2-1.7 3.7-3.7 3.7H4.4c-2 0-3.7-1.7-3.7-3.7V4.1C.7 2.1 2.4.4 4.4.4h6.1c2 0 3.7 1.7 3.7 3.7v18.8zM25.5.8h-.7c-1.8 0-3.3 1.5-3.3 3.3v18.8c0 1.8 1.5 3.3 3.3 3.3h.7c1.8 0 3.3-1.5 3.3-3.3V4.1C28.7 2.3 27.3.8 25.5.8zM39 .8h-.7C36.5.8 35 2.3 35 4.1v18.8c0 1.8 1.5 3.3 3.3 3.3h.7c1.8 0 3.3-1.5 3.3-3.3V4.1c0-1.8-1.4-3.3-3.3-3.3zm27.2 0h-.7c-1.8 0-3.3 1.5-3.3 3.3v6.4h-6.3V4.1c0-1.8-1.5-3.3-3.3-3.3H52c-1.8 0-3.3 1.5-3.3 3.3v18.8c0 1.8 1.5 3.3 3.3 3.3h.7c1.8 0 3.3-1.5 3.3-3.3v-6.4h6.3v6.4c0 1.8 1.5 3.3 3.3 3.3h.7c1.8 0 3.3-1.5 3.3-3.3V4.1C69.5 2.3 68.1.8 66.2.8zm24.5 5.9c1.6 0 3-1.3 3-3s-1.3-3-3-3H79.1c-1.8 0-3.3 1.5-3.3 3.3v18.8c0 1.8 1.5 3.3 3.3 3.3h.7c1.8 0 3.3-1.5 3.3-3.3v-6.4h7.6c1.6 0 3-1.3 3-3s-1.3-3-3-3h-7.6V6.7h7.6z"/></svg>