<svg xmlns="http://www.w3.org/2000/svg" viewBox="0 0 191.48 30" class="stub__logo">
                    <title>Ресурс 4</title>
                    <g>
                        <path d="M36.41,2.72l-4.62,22.8H24L27.62,7.6h-.2L19.28,25.52H12L11.3,7.6h-.23L7.43,25.52H0L4.62,2.72H17.55L18,15.19h.16L23.51,2.72h12.9" fill="#fff"/>
                        <path d="M91.46,3.11,90.26,9A20.44,20.44,0,0,0,83.55,7.8a9.35,9.35,0,0,0-2.47.26q-1.43.39-1.43,1.43t2,1.37l2.18.39a11.23,11.23,0,0,1,3.88,1.37A4.63,4.63,0,0,1,90,16.76a7.91,7.91,0,0,1-.78,3.37,8.87,8.87,0,0,1-1.92,2.75A11.11,11.11,0,0,1,82,25.42a22.09,22.09,0,0,1-4.82.49,35.22,35.22,0,0,1-5-.31,33.25,33.25,0,0,1-4.2-.9l1.2-5.8a18.4,18.4,0,0,0,3.88,1.17,20.43,20.43,0,0,0,3.68.36,7.46,7.46,0,0,0,3.45-.59,1.36,1.36,0,0,0,.78-1.2,1,1,0,0,0-.59-.94,5.23,5.23,0,0,0-1.27-.39l-2.54-.62q-3.61-.91-4.74-2.2a4.89,4.89,0,0,1-1.12-3.34,7.49,7.49,0,0,1,2.9-6Q77,2.33,83.35,2.33q1.92,0,4,.18a38.31,38.31,0,0,1,4.15.6" fill="#fff"/>
                        <path d="M118.23,2.72l-1.37,6.74h-7.69l-3.26,16.06H97.19l3.26-16.06H92.76l1.37-6.74h24.1" fill="#fff"/>
                        <path d="M132.46,9.23a1.66,1.66,0,0,0-.36-1.11,2.88,2.88,0,0,0-2.31-.78h-2.25l-.91,4.4h2.05a4.54,4.54,0,0,0,2.78-.75,2.17,2.17,0,0,0,1-1.76Zm-1.69,9a1.94,1.94,0,0,0-.26-1,1.75,1.75,0,0,0-1-.83,5.19,5.19,0,0,0-1.51-.18h-2.31l-.94,4.66H127a4.29,4.29,0,0,0,3-.91,2.32,2.32,0,0,0,.81-1.76ZM141.09,7.83a5.55,5.55,0,0,1-1.6,3.89,7.17,7.17,0,0,1-4,2.17l0,.13a3.87,3.87,0,0,1,3.13,1.4,4.27,4.27,0,0,1,1,2.83,6.26,6.26,0,0,1-2.34,4.85,10.79,10.79,0,0,1-7.39,2.41h-14.3l4.62-22.8h14.14a7.5,7.5,0,0,1,5.28,1.66,4.54,4.54,0,0,1,1.5,3.45" fill="#fff"/>
                        <path d="M165.32,2.72l-1.07,5.37H153.08l-.68,3.29h10.68l-1,5.21H151.35l-.72,3.55H162l-1.11,5.37H141l4.62-22.8h19.7" fill="#fff"/>
                        <path d="M191.48,2.72l-1.37,6.74h-7.69l-3.26,16.06h-8.73l3.26-16.06H166l1.37-6.74h24.1" fill="#fff"/>
                        <path d="M52.2,0a15,15,0,1,0,15,15,15,15,0,0,0-15-15" fill="#fff"/>
                        <path d="M59.34,25,52.2,21,45.05,25l1.65-8-6.07-5.54,8.17-.92L52.2,3l3.4,7.48,8.17.92L57.69,17ZM52.2,0a15,15,0,1,0,15,15,15,15,0,0,0-15-15" fill="#f14624"/>
                    </g>
                </svg>