<svg width="56" height="54" fill="none" xmlns="http://www.w3.org/2000/svg"><g filter="url(#filter0_d_16720_21471)" fill-rule="evenodd" clip-rule="evenodd" fill="#57A9FF"><path d="M24.615 20.821l-1.323 5.583 4.948-2.973 4.934 2.947-1.3-5.567 4.392-3.757-5.775-.491-2.241-5.241-2.239 5.255-5.767.489 4.371 3.755zm5.54 1.428l-1.918-1.145-1.904 1.144.509-2.147-1.678-1.441 2.215-.189.874-2.05.872 2.038 2.207.187-1.683 1.439.506 2.164z"/><path d="M21.724 29.343a11.5 11.5 0 006.389 1.938 11.512 11.512 0 0011.5-11.5 11.5 11.5 0 10-17.89 9.562zm1.111-17.46a9.5 9.5 0 015.278-1.602 9.511 9.511 0 019.5 9.5 9.5 9.5 0 11-14.778-7.899z"/><path d="M8 4h40v31.241H32.034l1.129 4.368h1.685v1.964H21.153v-1.964h1.685l1.128-4.368H8V4zm18 31.241l-1.134 4.368h6.273l-1.129-4.368H26zm13.311-8.048h6.726V5.963H9.963v21.23h6.859c.469.702 1.002 1.36 1.592 1.963H9.963v4.122h36.074v-4.122h-8.318c.59-.604 1.123-1.26 1.592-1.963z"/></g><defs><filter id="filter0_d_16720_21471" x="0" y="0" width="56" height="53.573" filterUnits="userSpaceOnUse" color-interpolation-filters="sRGB"><feFlood flood-opacity="0" result="BackgroundImageFix"/><feColorMatrix in="SourceAlpha" values="0 0 0 0 0 0 0 0 0 0 0 0 0 0 0 0 0 0 127 0" result="hardAlpha"/><feOffset dy="4"/><feGaussianBlur stdDeviation="4"/><feComposite in2="hardAlpha" operator="out"/><feColorMatrix values="0 0 0 0 0.341176 0 0 0 0 0.662745 0 0 0 0 1 0 0 0 0.25 0"/><feBlend in2="BackgroundImageFix" result="effect1_dropShadow_16720_21471"/><feBlend in="SourceGraphic" in2="effect1_dropShadow_16720_21471" result="shape"/></filter></defs></svg>