<svg xmlns="http://www.w3.org/2000/svg" viewBox="0 0 70 27" class="Icon_icon__w6Pjo" preserveAspectRatio=""><path fill="#628EBA" d="M9.1 25.6c0-.6.1-1.2.1-1.2s-.1-.3-.2-.5 0-.2 0-.3c0 0 0-.3-.1-.5-.2-.3-.6-1.1-.6-1.1l.1-.2-.3-.8s-2-1.5-2.8-2.2c-.8-.8-2.4-3.3-2.5-3.4-.1 0-.4.1-.4.1l-.2-.6c-.1-.2-.3-.8-.5-1.4-.2-.6-.4-1.1-.4-1.3 0-.3 0-.8.1-1.2.1-.3.6-.8.5-.8l-.1-.2s-.4.2-.8-.1c-.5-.4-.1-1.4.7-3.4.8-2 1.2-2.4 1.3-2.5.2-.1.3-.2.3-.2h.9l.1-.1h.8s.5 0 .3-1.3c0 0-.2-.4-.2-.5 0-.1.1-.2.1-.2.3-.3.3-.2.3-1L6 .4l.2-.4H2.4C1.5 0 .7.8.7 1.7v23.6c0 .9.8 1.7 1.7 1.7h7.1c-.1 0-.4-.5-.4-1.4z"/><path fill="#D7E9F9" d="M3.9 25.5h-1l-.6-2.7v2.7h-.6v-3.4h1.1l.4 2.2v-2.2h.7zM6 23.1c0 .3-.1.6-.6.6.4 0 .6.2.6.7v.3c0 .6-.3.8-1 .8H4v-3.4h1c.5 0 1 .2 1 .7v.3zm1.4 2.4v-.9H7l-.2.9h-.7l.6-3.4h1.1l.5 3.4z"/><path fill="#628EBA" d="M5 22.6h-.1v.9H5c.1 0 .2-.1.2-.2v-.5c0-.1 0-.2-.2-.2zM5 24h-.1v1H5c.1 0 .2 0 .2-.2V24H5zm2 .1h.3l-.1-1.4z"/><path fill="#D7E9F9" d="M10 15.7c-1.1 0-2.1-.9-2.1-2.1 0-.9.6-1.6 1.4-1.9.1-.1.1-.2.1-.2s-.1-.3-.4-.7c-.3-.4-.6-1.4-.7-1.7-.1-.3-.3-1.8-.4-1.8-.1 0-.1 0-.3.1-.3.1-.5.6-.6.8-.1.2-.5 1.4-.6 1.4l.1.1s.3.2.4.3c.1.1.8 2.6.8 2.6l-.2.3s0 .2.1.6c.1.3.2.8.3 1.2l.5 2 .6 1.2c.3.6.6 2.8.6 2.8s.5.8.5 1.1c.1.3-.1 1-.1 1s0 .5.1.7c0 .1.1.3.1.4s.1.4.1.5c0 .1.5 1.6.5 1.7 0 .2-.3.7-.4.7l-.2.2c.9 0 1.7-.8 1.7-1.7V14.6c-.4.7-1.1 1.1-1.9 1.1zM10.1 0H7.5c.1 0 .6.4.7.5.1.1.1.3 0 .6l-.2.6v.2l.1.1s-.3.6-.4.6c0 0-.5.8-.6.9-.1.1-.1.3-.1.3.1.1.4.3.4.3h.2l.4.3s0 .1.2.3c.2.1.6.5.9.8.3.3.3 1.1.3 1.7 0 .6.3 1.9.3 2 .1.1.5 1.1.5 1.3.1.3.1.8.1.8l.4.5c.4.2.7.5.9.8v-11C11.8.8 11 0 10.1 0z"/><path fill="#628EBA" d="M34.3 27h-7.7L22 5.8V27h-5V0h8.9l3.3 17.5.1-17.5h5zM51.5 7.5v-2c0-4.1-3.6-5.5-7.6-5.5h-7.6v27h7.6c5 0 7.6-1.4 7.6-6v-2.4c0-4.3-1.5-5.6-4.8-5.8v-.1c4-.7 4.8-2.6 4.8-5.2zM45 21.9c0 1.1-.5 1.3-1.5 1.3h-.8v-8.5h.8c1 0 1.5.2 1.5 1.3v5.9zm0-12.4c0 1.3-.5 1.7-1.5 1.7h-.8V3.9h.8c1 0 1.5.4 1.5 1.7v3.9zM65.5 0H57l-4.8 27h5.7l1-7.3H62l.7 7.3h6.7L65.5 0zm-6 15.8l1-11.1 1 11.1h-2z"/></svg>