<svg width="40" height="40" viewBox="0 0 40 40" fill="none" xmlns="http://www.w3.org/2000/svg"><path d="M35.8104 33.58L29.3604 23.29H31.8904C32.2704 23.29 32.6104 23.08 32.7804 22.75C32.9504 22.42 32.9204 22.01 32.7004 21.71L21.6104 6.29C22.6404 5.71 23.3404 4.63 23.3404 3.37C23.3404 1.51 21.8304 0 19.9804 0C18.1304 0 16.6104 1.51 16.6104 3.37C16.6104 4.63 17.3104 5.72 18.3404 6.29L7.26042 21.7C7.04042 22 7.01042 22.41 7.18042 22.74C7.35042 23.07 7.70042 23.28 8.07042 23.28H10.6004L4.15042 33.58C3.96042 33.89 3.95042 34.28 4.12042 34.6C4.29042 34.92 4.63042 35.12 5.00042 35.12H15.8304V39.01C15.8304 39.56 16.2804 40.01 16.8304 40.01H23.1404C23.6904 40.01 24.1404 39.56 24.1404 39.01V35.12H34.9704C35.3304 35.12 35.6704 34.92 35.8504 34.6C36.0304 34.28 36.0204 33.89 35.8204 33.58H35.8104ZM19.9804 2C20.7304 2 21.3404 2.61 21.3404 3.37C21.3404 4.13 20.7304 4.74 19.9804 4.74C19.2304 4.74 18.6104 4.13 18.6104 3.37C18.6104 2.61 19.2204 2 19.9804 2ZM10.0304 21.29L19.9804 7.44L25.3904 14.97C23.8504 18.77 20.1504 21.29 16.0204 21.29H10.0304ZM11.7604 25.21C12.5404 28.52 14.6004 31.34 17.3904 33.11H6.81042L11.7604 25.21ZM22.1304 38H17.8204V35.11H22.1304V38ZM24.2304 33.11C18.6004 33.11 13.9604 28.79 13.4504 23.28H16.0104C20.5404 23.28 24.6404 20.75 26.7204 16.83L29.9204 21.28H27.5304C27.1704 21.28 26.8304 21.48 26.6504 21.8C26.4704 22.12 26.4804 22.51 26.6804 22.82L33.1304 33.11H24.2104H24.2304ZM16.1104 18.74C15.9204 18.55 15.8204 18.29 15.8204 18.03C15.8204 17.77 15.9204 17.51 16.1104 17.32C16.4804 16.95 17.1504 16.95 17.5204 17.32C17.7104 17.51 17.8204 17.77 17.8204 18.03C17.8204 18.29 17.7104 18.55 17.5204 18.74C17.3404 18.92 17.0804 19.03 16.8204 19.03C16.5604 19.03 16.3004 18.92 16.1104 18.74ZM26.8304 28.68C26.8304 28.68 26.9104 28.77 26.9504 28.83C26.9904 28.88 27.0204 28.94 27.0404 29C27.0704 29.06 27.0904 29.12 27.1004 29.19C27.1004 29.25 27.1204 29.32 27.1204 29.38C27.1204 29.64 27.0104 29.9 26.8304 30.09C26.6404 30.28 26.3804 30.38 26.1204 30.38C25.8604 30.38 25.6004 30.28 25.4104 30.09C25.2304 29.9 25.1204 29.65 25.1204 29.38C25.1204 29.32 25.1204 29.25 25.1404 29.19C25.1404 29.12 25.1704 29.06 25.2004 29C25.2204 28.94 25.2504 28.88 25.2904 28.83C25.3204 28.77 25.3704 28.72 25.4104 28.68C25.7804 28.3 26.4504 28.3 26.8304 28.68ZM20.6804 25.92C20.8604 26.1 20.9704 26.36 20.9704 26.62C20.9704 26.88 20.8604 27.15 20.6804 27.33C20.4904 27.52 20.2304 27.62 19.9704 27.62C19.7104 27.62 19.4504 27.52 19.2604 27.33C19.0804 27.15 18.9704 26.89 18.9704 26.62C18.9704 26.35 19.0804 26.1 19.2604 25.92C19.6304 25.54 20.3104 25.54 20.6804 25.92ZM19.2604 13.3C19.0804 13.11 18.9704 12.85 18.9704 12.59C18.9704 12.33 19.0804 12.07 19.2604 11.88C19.6304 11.51 20.3104 11.51 20.6804 11.88C20.8604 12.07 20.9704 12.33 20.9704 12.59C20.9704 12.85 20.8604 13.11 20.6804 13.3C20.4904 13.48 20.2304 13.59 19.9704 13.59C19.7104 13.59 19.4504 13.48 19.2604 13.3Z" fill="#99EA5A"/></svg>
