<svg xmlns="http://www.w3.org/2000/svg" viewBox="0 0 40 45" class="Icon_icon__w6Pjo" preserveAspectRatio=""><path fill="#628EBA" d="M10.2 27v7.2l1.9-1.5v-5.1l2.2 3.4 2-1.6v-8.9L14.4 22v5.7L12 23.9 9.2 26s1 0 1 1zm7.9-6v7.2l2-1.5v-3.3l2.2-1.7V25l1.9-1.4v-9l-1.9 1.5v3.3l-2.2 1.7v-3.3L17.2 20s.9 0 .9 1zm7.7-5.8v7.2l5.5-4.2c-.1-1.4 0-2.3 0-2.3l-3.5 2.7v-6.7l-2.9 2.2c-.1 0 .9.1.9 1.1zm10.9-8.5c-1.3-.4-2.3-1.4-2.9-3L32.5 0l-3 2.5c-1 .8-2.1 1.4-3.3 1.4-1.6 0-3.2-.8-4.2-1.8L20 .2v2c0 .1 2.4 3.2 6.1 3.2 2.8 0 5.7-2.9 5.7-2.9 1.3 5.7 6 6.1 6 6.1l1.9-.9-3-1zM12.1 38.4c3.4.9 5.7 1 7.2 1.7 0 0 .5.5.7.8.2-.3.7-.8.7-.8 1.5-.8 3.7-.9 7.2-1.7 4.3-1.1 9-5 9-11 0-4.3-2.4-5.9-2.4-11.4 0-3.7 1.4-6.6 1.4-6.6s-3.2-.7-4.7-4.7c0 0-2.1 2-5.1 2-3.7 0-6.1-2.6-6.1-2.6s-2.4 2.6-6.1 2.6c-2.9 0-5.1-2-5.1-2-1.5 4.1-4.7 4.7-4.7 4.7s1.4 2.9 1.4 6.6c0 5.5-2.4 7.1-2.4 11.4-.1 6.1 4.6 9.9 9 11zm23.3-11c0 5.1-4 8.5-7.8 9.5-2.7.7-6 1.1-7.1 1.7-.3.1-.5.4-.5.4l-.5-.5c-1-.6-4.3-1-7.1-1.7-.1-.1-.2-.1-.3-.1l21.4-16.2c.8 2.7 1.9 4.3 1.9 6.9zm-1.5-17.1c-.4 1.3-.9 3.4-.9 5.7 0 1 0 1.9.2 2.6L10.1 36c-2.9-1.5-5.4-4.4-5.5-8.3L31 7.7c1 1.3 2 2.1 2.9 2.6zM7.1 16c0-2.4-.5-4.4-.9-5.7 1-.6 2.3-1.6 3.3-3.3 1.1.6 2.6 1.3 4.4 1.3 2.7 0 4.9-1.2 6.1-2.1 1.2.9 3.4 2.1 6.1 2.1.4 0 .8-.1 1.2-.1l-22.5 17c.7-2.6 2.3-4.7 2.3-9.2zm6.8-10.7c3.7 0 6.1-3.2 6.1-3.2v-2L18.1 2c-1 1-2.6 1.8-4.2 1.8-1.2 0-2.3-.6-3.3-1.4L7.6 0l.6 2.4s2.8 2.9 5.7 2.9zM37.3 16c0-2.1.5-3.9 1.1-5.4l1.3-3-1.9.9s-1.9 3.4-1.9 7.5c0 2.2.8 3.9 1.6 5.8-.8-1.9-1.6-3.7-1.6-5.8 0 5.2 2.4 6.7 2.4 11.4 0 4.8-3 9.8-8.5 11.9-.5.2-1 .4-1.6.5-3.1.8-5.2 1-6.8 1.6-.2.2-1.5 1.6-1.5 1.6s-1.3-1.5-1.5-1.6c-1.5-.6-3.7-.8-6.8-1.6-.2 0-.3-.1-.5-.1-.2-.1-.4-.1-.6-.2h-.1c-5.7-2-8.8-7.1-8.8-12 0-4.3 2-5.9 2.4-9.9v-1.5C4 12 2.1 8.6 2.1 8.6s4.7-.4 6-6.2L7.6 0 6.2 3.7c-.6 1.6-1.5 2.6-2.9 3l-3 .9 1.3 3c.6 1.5 1.1 3.4 1.1 5.4 0 5.1-2.5 6.1-2.5 11.4 0 1.6.2 3.2.7 4.5.1-.3.4-.7.6-.9-.2.2-.5.5-.6.8 1.6 4.7 5.8 8 10.3 9.2 2.9.8 4.2.8 6.4 1.4.5.4 2.4 2.6 2.4 2.6s2-2.2 2.2-2.5c2.1-.6 3.5-.7 6.4-1.4 5.8-1.5 11.1-6.6 11.1-13.7 0-2.6-.5-4.1-1.1-5.6-.6-1.6-1.3-3.2-1.3-5.8zm-31 21.4c1.3.9 2.6 1.5 4 2-1.3-.5-2.7-1.2-4-2z"/></svg>