<svg width="506" height="453" viewBox="0 0 506 453" fill="none" xmlns="http://www.w3.org/2000/svg">
<g clip-path="url(#clip0_412_10383)">
<path d="M139.434 342.422V324.898C139.434 318.195 135.178 313.806 127.872 313.806C124.219 313.806 120.247 314.963 117.516 318.774C115.389 315.575 112.339 313.806 107.763 313.806C104.713 313.806 101.663 314.691 99.2517 317.889V314.384H92.8679V342.422H99.2517V326.94C99.2517 321.972 101.983 319.624 106.238 319.624C110.494 319.624 112.622 322.244 112.622 326.94V342.422H119.006V326.94C119.006 321.972 122.056 319.624 125.993 319.624C130.249 319.624 132.376 322.244 132.376 326.94V342.422H139.434ZM234.126 314.384H223.771V305.912H217.387V314.384H211.606V319.931H217.387V332.792C217.387 339.223 220.118 343 227.424 343C230.154 343 233.204 342.115 235.332 340.958L233.488 335.684C231.644 336.841 229.516 337.148 227.991 337.148C224.941 337.148 223.735 335.378 223.735 332.486V319.931H234.091V314.384H234.126ZM288.318 313.772C284.665 313.772 282.217 315.541 280.692 317.855V314.35H274.309V342.388H280.692V326.6C280.692 321.938 282.82 319.284 286.792 319.284C287.998 319.284 289.523 319.59 290.765 319.863L292.609 314.01C291.332 313.772 289.523 313.772 288.318 313.772ZM206.428 316.698C203.378 314.657 199.122 313.772 194.547 313.772C187.241 313.772 182.383 317.277 182.383 322.823C182.383 327.484 186.035 330.138 192.419 330.989L195.469 331.295C198.803 331.874 200.647 332.758 200.647 334.221C200.647 336.263 198.2 337.726 193.944 337.726C189.688 337.726 186.319 336.263 184.191 334.8L181.141 339.461C184.475 341.809 189.05 342.966 193.625 342.966C202.137 342.966 207.031 339.155 207.031 333.915C207.031 328.947 203.059 326.327 196.994 325.443L193.944 325.136C191.213 324.83 189.086 324.252 189.086 322.516C189.086 320.475 191.213 319.318 194.583 319.318C198.236 319.318 201.888 320.781 203.733 321.666L206.428 316.698ZM376.272 313.772C372.619 313.772 370.172 315.541 368.647 317.855V314.35H362.263V342.388H368.647V326.6C368.647 321.938 370.774 319.284 374.747 319.284C375.952 319.284 377.477 319.59 378.719 319.863L380.563 314.078C379.322 313.772 377.513 313.772 376.272 313.772ZM294.701 328.403C294.701 336.875 300.801 343 310.235 343C314.491 343 317.541 342.115 320.591 339.802L317.541 334.834C315.094 336.603 312.682 337.454 309.916 337.454C304.738 337.454 301.085 333.949 301.085 328.403C301.085 323.129 304.738 319.624 309.916 319.352C312.647 319.352 315.094 320.237 317.541 321.972L320.591 317.004C317.541 314.657 314.491 313.806 310.235 313.806C300.801 313.772 294.701 319.931 294.701 328.403ZM353.751 328.403V314.384H347.367V317.889C345.239 315.269 342.189 313.806 338.217 313.806C329.989 313.806 323.606 319.931 323.606 328.403C323.606 336.875 329.989 343 338.217 343C342.473 343 345.523 341.537 347.367 338.917V342.422H353.751V328.403ZM330.308 328.403C330.308 323.435 333.642 319.352 339.139 319.352C344.317 319.352 347.97 323.163 347.97 328.403C347.97 333.371 344.317 337.454 339.139 337.454C333.678 337.148 330.308 333.337 330.308 328.403ZM253.916 313.772C245.404 313.772 239.304 319.624 239.304 328.369C239.304 337.148 245.404 342.966 254.235 342.966C258.491 342.966 262.747 341.809 266.116 339.155L263.066 334.766C260.619 336.535 257.569 337.692 254.555 337.692C250.582 337.692 246.646 335.923 245.724 330.989H267.322C267.322 330.104 267.322 329.526 267.322 328.641C267.606 319.624 262.109 313.772 253.916 313.772ZM253.916 319.046C257.888 319.046 260.619 321.394 261.222 325.749H246.007C246.61 321.972 249.341 319.046 253.916 319.046ZM412.517 328.403V303.292H406.133V317.889C404.005 315.269 400.955 313.806 396.983 313.806C388.755 313.806 382.372 319.931 382.372 328.403C382.372 336.875 388.755 343 396.983 343C401.239 343 404.289 341.537 406.133 338.917V342.422H412.517V328.403ZM389.075 328.403C389.075 323.435 392.408 319.352 397.905 319.352C403.083 319.352 406.736 323.163 406.736 328.403C406.736 333.371 403.083 337.454 397.905 337.454C392.408 337.148 389.075 333.337 389.075 328.403ZM175.36 328.403V314.384H168.977V317.889C166.849 315.269 163.799 313.806 159.827 313.806C151.599 313.806 145.215 319.931 145.215 328.403C145.215 336.875 151.599 343 159.827 343C164.082 343 167.132 341.537 168.977 338.917V342.422H175.36V328.403ZM151.634 328.403C151.634 323.435 154.968 319.352 160.465 319.352C165.643 319.352 169.296 323.163 169.296 328.403C169.296 333.371 165.643 337.454 160.465 337.454C154.968 337.148 151.634 333.337 151.634 328.403Z" fill="black"/>
<path d="M300.559 94.1694H204.418V264.45H300.559V94.1694Z" fill="#FF5A00"/>
<path d="M210.82 179.309C210.82 144.714 227.317 114.008 252.632 94.1693C234.002 79.7281 210.5 71.0002 184.865 71.0002C124.137 71.0002 75 119.441 75 179.309C75 239.177 124.137 287.618 184.865 287.618C210.5 287.618 234.002 278.891 252.632 264.449C227.282 244.891 210.82 213.905 210.82 179.309Z" fill="#EB001B"/>
<path d="M430.264 179.309C430.264 239.177 381.127 287.618 320.4 287.618C294.765 287.618 271.263 278.89 252.632 264.449C278.267 244.575 294.445 213.905 294.445 179.309C294.445 144.713 277.947 114.008 252.632 94.169C271.227 79.7278 294.729 71 320.364 71C381.127 71 430.264 119.757 430.264 179.309Z" fill="#F79E1B"/>
</g>
<defs>
<clipPath id="clip0_412_10383">
<rect width="506" height="452.424" fill="white"/>
</clipPath>
</defs>
</svg>
