<svg width="512" height="461" viewBox="0 0 512 461" fill="none" xmlns="http://www.w3.org/2000/svg">
<path d="M134 291.001C167.137 291.001 194 264.138 194 231.001C194 197.864 167.137 171.001 134 171.001C100.863 171.001 74 197.864 74 231.001C74 264.138 100.863 291.001 134 291.001Z" fill="#988430"/>
<path d="M134 289.081C166.076 289.081 192.079 263.078 192.079 231.001C192.079 198.924 166.076 172.921 134 172.921C101.923 172.921 75.9196 198.924 75.9196 231.001C75.9196 263.078 101.923 289.081 134 289.081Z" fill="#7A6A2A"/>
<path d="M134 287.852C165.398 287.852 190.851 262.399 190.851 231.001C190.851 199.603 165.398 174.15 134 174.15C102.602 174.15 77.1485 199.603 77.1485 231.001C77.1485 262.399 102.602 287.852 134 287.852Z" fill="#BA9F33"/>
<path fill-rule="evenodd" clip-rule="evenodd" d="M100.233 224.595C99.8942 224.287 99.5359 223.974 99.203 223.66C98.8703 223.347 98.5311 223.039 98.1918 222.726L97.1806 221.766C97.0142 221.599 96.8415 221.459 96.6751 221.292C96.5086 221.145 96.3167 220.985 96.1502 220.838C94.8126 219.564 93.4623 218.297 92.1439 217.023C93.5134 218.278 94.8511 219.519 96.2206 220.793L96.6943 221.266C96.8606 221.433 97.0334 221.574 97.1999 221.74L98.2111 222.674C98.5502 222.982 98.8831 223.295 99.2222 223.634C99.5616 223.974 99.8942 224.281 100.233 224.595ZM82.4478 224.402C82.4478 224.402 87.3183 224.908 89.699 225.247C91.9006 225.561 98.7934 226.617 98.7934 226.617L82.4478 224.402ZM82.4478 224.402C83.8174 224.518 85.1871 224.665 86.5567 224.812C87.2542 224.882 87.9262 224.959 88.5982 225.023L89.6286 225.138C89.9678 225.19 90.3007 225.234 90.6398 225.286L94.7167 225.938L96.7583 226.278C97.4303 226.393 98.096 226.521 98.7999 226.636C98.1278 226.566 97.4303 226.47 96.7583 226.374L94.7167 226.086L90.6398 225.484C90.3007 225.433 89.9678 225.369 89.6286 225.318L88.5982 225.196C87.9262 225.126 87.2287 225.03 86.5567 224.953C85.1871 224.786 83.8174 224.614 82.4478 224.402ZM98.3135 227.884C98.3135 227.884 93.1103 229.202 91.3503 229.708C89.6222 230.182 84.3872 231.775 84.3872 231.775L98.3135 227.884Z" fill="#CFB66C"/>
<path fill-rule="evenodd" clip-rule="evenodd" d="M98.3135 227.884C97.1616 228.223 96.0093 228.556 94.8381 228.863L91.363 229.798C90.2047 230.137 89.059 230.47 87.907 230.809L86.1791 231.282C85.6093 231.449 85.0205 231.589 84.4317 231.756C85.0015 231.564 85.5903 231.366 86.1599 231.199L87.8878 230.649C89.0461 230.29 90.1919 229.951 91.3438 229.593C92.5214 229.305 93.6733 228.991 94.851 228.709C95.9582 228.428 97.1359 228.147 98.3135 227.884ZM85.1166 234.981C85.6862 234.77 92.291 231.692 93.827 230.969C94.5951 230.61 96.8286 229.817 96.8286 229.817L85.1166 234.981Z" fill="#CFB66C"/>
<path fill-rule="evenodd" clip-rule="evenodd" d="M85.1166 234.981C85.6222 234.79 86.0955 234.553 86.582 234.329L88.0155 233.657L90.902 232.269C91.862 231.814 92.7964 231.308 93.7819 230.88C94.2877 230.668 94.7932 230.489 95.2988 230.329L96.0667 230.086C96.3292 230.016 96.5723 229.939 96.8348 229.875C95.8748 230.329 94.8636 230.72 93.9036 231.168C92.9436 231.641 91.9643 232.032 90.9724 232.461L88.0412 233.753C87.0555 234.15 86.0957 234.572 85.1166 234.981ZM85.7564 237.67C85.7564 237.67 91.7339 234.163 93.7947 233.037C94.8701 232.435 98.358 230.707 98.358 230.707L85.7564 237.67Z" fill="#CFB66C"/>
<path fill-rule="evenodd" clip-rule="evenodd" d="M85.7564 237.67C86.7678 237.049 87.7979 236.415 88.8219 235.775L90.3581 234.841C90.8827 234.534 91.3883 234.239 91.9195 233.932C92.4443 233.618 92.9499 233.311 93.4812 233.017C93.7371 232.857 93.9996 232.722 94.2747 232.607L95.0876 232.198C96.1627 231.673 97.2445 231.142 98.3771 230.681C97.3467 231.334 96.2908 231.884 95.2348 232.46C94.7099 232.748 94.1787 233.017 93.6541 233.305C93.1292 233.593 92.6236 233.906 92.0924 234.188C91.5676 234.495 91.062 234.79 90.5307 235.071L88.95 235.935L85.7564 237.67ZM98.3132 231.474C98.3132 231.474 94.5948 234.329 93.3915 235.244C92.1885 236.159 88.6428 238.719 88.6428 238.719L98.3132 231.474Z" fill="#CFB66C"/>
<path fill-rule="evenodd" clip-rule="evenodd" d="M119.651 254.495L117.75 250.892L118.851 246.386L126.749 243.34L123.389 236.447L125.046 229.484L128.163 223.25L137.795 221.74L144.873 214.988L160.157 216.146L163.158 232.485L157.379 253.061L154.09 263.711L140.746 264.216L134.557 259.922L127.299 256.895L119.651 254.495Z" fill="#E2CC85"/>
<path fill-rule="evenodd" clip-rule="evenodd" d="M143.049 254.38C143.049 254.38 141.206 255.225 138.057 255.033C137.148 253.81 130.767 253.234 130.767 253.234C130.767 253.234 129.974 252.991 128.566 253.573C127.151 254.149 125.807 254.079 124.553 254.386C123.299 254.693 122.057 253.068 121.097 252.729C120.137 252.37 118.863 251.506 118.863 251.506L116.175 251.244L110.78 248.959L102.204 240.415L99.8746 244.063L99.1576 248.575L101.75 253.926L108.732 260.287L122.345 263.743L130.415 261.369L140.521 257.093L143.049 254.38Z" fill="#F1D789"/>
<path fill-rule="evenodd" clip-rule="evenodd" d="M94.691 224.185L96.4189 218.949L98.4733 215.577L105.104 215.02L103.113 220.825L97.571 230.693L99.8749 239.493L95.7982 241.535L94.5438 239.615L93.5326 235.205L93.4686 230.252L94.691 224.185Z" fill="#F4ECB4"/>
<path fill-rule="evenodd" clip-rule="evenodd" d="M102.128 254.021L100.854 252.242C100.854 252.242 100.515 251.398 100.707 250.662C100.899 249.913 100.873 249.868 100.777 249.586C100.681 249.305 99.8621 248.332 99.9132 247.5C99.9643 246.655 99.8428 246.374 100.463 245.702C101.116 245.049 100.918 243.922 100.918 243.922L101.763 244.447L101.955 244.153C101.955 244.153 102.268 244.396 102.268 244.774C102.339 244.249 102.057 241.823 102.697 241.266C103.337 240.709 104.476 243.858 104.476 243.858L103.779 239.295L101.98 234.617L98.7867 230.342L98.5948 225.631V225.222C98.5948 225.222 97.1292 227.474 96.7197 229.254C96.4315 230.476 97.1292 231.961 96.982 233.721C96.8669 235.468 96.7197 235.333 97.1485 236.025C97.5772 236.716 98.6141 238.143 98.2043 239.174C97.8459 240.057 96.6236 239.436 96.6236 239.436C96.6236 239.436 96.3804 240.153 96.0477 240.415C95.9323 239.986 95.8044 239.717 95.5739 239.455C95.5547 239.622 95.5036 239.846 95.5036 239.846C95.5036 239.846 95.2924 239.174 95.0748 238.329C94.7868 237.202 94.4731 235.718 94.1916 234.924C94.0765 235.378 93.7821 236.767 93.7821 236.767L93.9483 238.905L94.7421 241.836L95.51 243.756L96.2588 246.105L96.9052 247.686L97.43 248.889L97.8845 251.596L100.086 253.925L101.264 254.45L102.128 254.021Z" fill="#F3E19D"/>
<path fill-rule="evenodd" clip-rule="evenodd" d="M95.843 219.916C95.843 219.916 94.2623 222.604 93.8014 225.311C93.3406 228.018 92.9375 230.885 93.2255 234.572C93.5135 238.29 94.0704 240.575 94.5182 242.2C95.2863 244.908 97.2767 248.677 97.2767 248.677L97.3471 248.53C97.0142 247.896 96.7455 247.231 96.5536 246.54C96.291 245.509 96.1952 244.287 95.9519 243.736C95.7407 243.186 95.3759 242.706 95.2031 242.028C95.0366 241.375 95.0111 240.351 94.5056 239.583C94.2942 239.269 94.0319 238.456 93.9551 237.644C93.859 236.421 94.0062 235.052 93.8847 233.925C93.6735 232.05 93.5263 230.776 93.7182 229.797C93.9103 228.818 94.9215 226.034 95.5422 223.82C95.9519 222.399 95.7086 221.208 96.4511 219.973C97.1999 218.751 97.6544 217.669 97.8206 216.927C98.0127 216.242 95.843 219.916 95.843 219.916Z" fill="#F2E8B0"/>
<path fill-rule="evenodd" clip-rule="evenodd" d="M103.35 218.834C103.35 218.834 102.537 219.077 102.147 219.506C101.756 219.916 101.596 220.255 101.071 220.946C100.547 221.637 100.521 222.201 100.092 223.064C99.6636 223.909 98.7228 225.183 98.6075 225.637C98.4924 226.092 98.2938 228.229 98.0572 229.241C97.8458 230.252 98.3003 231.493 98.3003 231.493L98.8508 231.378C98.8508 231.378 98.8508 232.095 99.4011 232.581C99.9516 233.055 100.054 230.969 100.054 230.969L102.121 223.986L105.238 221.868L105.577 220.159L103.35 218.834Z" fill="#F5EEC0"/>
<path fill-rule="evenodd" clip-rule="evenodd" d="M104.86 222.002C104.86 222.002 103.395 222.098 102.678 222.623C102.39 222.834 102.268 223.013 101.961 223.276C101.385 223.749 100.802 224.191 100.521 224.812C100.207 225.433 99.8681 226.373 99.6377 228.153C99.5418 228.902 99.5418 229.593 99.4714 230.194C99.3754 231.007 99.2282 231.66 99.305 232.114C99.401 233.049 100.361 233.535 100.457 234.591L102.447 233.58L104.322 226.188L108.303 223.692L106.051 221.17L104.86 222.002Z" fill="#E6DB9D"/>
<path fill-rule="evenodd" clip-rule="evenodd" d="M94.3646 271.756C94.3711 271.686 94.3839 271.609 94.3903 271.538C94.6783 269.042 94.7294 267.148 94.9408 265.964C95.2543 264.287 95.4654 263.66 95.4143 263.033C95.3439 262.022 95.2671 261.285 95.3632 260.511C95.5104 259.481 96.5151 258.258 96.4894 257.414C96.4704 256.741 96.1311 256.306 95.8367 255.897C95.5423 255.487 95.312 255.148 95.312 255.148C95.312 255.148 97.3023 253.778 97.2832 248.262C97.3215 248.274 97.36 248.287 97.3983 248.313L98.3776 251.097L99.0496 251.91L101.622 256.703L104.931 259.916L109.827 263.206L112.893 266.546L113.2 275.449L109.187 280.652L108.528 281.842C103.331 279.231 98.5439 275.826 94.3646 271.756Z" fill="#E5CB7A"/>
<path fill-rule="evenodd" clip-rule="evenodd" d="M106.614 280.275C106.614 280.275 106.685 279.168 107.593 278.451C107.741 278.694 107.837 278.924 107.805 279.104C107.971 278.816 109.123 276.947 111.734 276.46C114.345 275.987 114.979 274.08 114.979 274.08L120.521 269.043L126.864 263.206L134.576 260.499L138.179 259.616C138.179 259.616 138.249 259.878 138.109 260.461C138.781 260.409 140.266 260.07 141.808 259.526C142.429 259.283 143.011 259.187 143.325 259.507C143.779 259.936 143.85 260.941 143.875 261.542C144.624 261.376 145.488 260.659 146.179 260.729C147.286 260.844 148.266 262.15 149.392 262.15C150.877 262.15 151.549 261.235 152.586 260.518C153.206 260.089 154.102 259.558 154.608 259.2C155.811 258.317 168.547 254.425 168.547 254.425L173.014 254.72L173.731 259.513L173.347 272.051C173.302 272.096 173.251 272.141 173.206 272.192L152.899 282.797L124.752 287.104C118.448 286.073 112.361 283.98 106.755 280.915L106.614 280.275Z" fill="#D8C173"/>
<path fill-rule="evenodd" clip-rule="evenodd" d="M96.0735 273.35C96.4703 272.511 96.8351 271.814 96.8991 271.564C96.9502 272.07 97.0399 273.177 97.2254 274.355C96.8351 274.022 96.4511 273.689 96.0735 273.35Z" fill="#F1D789"/>
<path fill-rule="evenodd" clip-rule="evenodd" d="M116.63 285.151L120.272 284.14L120.579 284.236C120.579 284.236 120.745 284.332 120.745 284.665C121.2 284.403 121.59 284.454 121.872 284.275C122.019 284.582 122.16 285.612 122.806 285.74C123.478 285.887 124.195 285.446 124.925 284.895C125.642 284.326 126.461 283.603 127.082 283.315C127.306 283.731 127.51 284.166 127.683 284.608C128.496 283.955 129.917 281.318 131.933 281.363C132.515 279.987 133.494 278.803 134.736 277.977C136.611 276.703 137.782 276.608 139.248 276.723C139.83 275.967 140.547 275.328 141.366 274.828C141.61 274.924 142.282 275.334 143.113 274.944C143.958 274.553 144.912 273.049 146.16 272.857C146.832 272.761 147.523 272.908 148.099 273.267C148.099 273.267 151.747 269.644 154.262 268.441C154.166 268.147 153.968 267.052 156.925 264.627C157.091 264.774 156.976 265.184 157.091 265.203C157.142 265.203 157.859 264.895 158.768 264.192C159.894 263.347 161.245 262.464 162.058 262.22C163.594 261.766 165.226 262.694 165.226 262.694C165.366 262.598 165.52 262.528 165.68 262.483C166.07 262.412 166.352 262.368 166.563 262.291C166.544 262.796 166.826 263.66 166.563 264.409C166.864 264.582 167.19 264.716 167.523 264.819C167.357 265.177 166.998 266.092 166.397 266.527C166.902 266.771 166.966 267.052 167.69 267.295C167.395 267.705 166.921 268.403 166.71 268.832C166.499 269.286 165.731 271.18 165.392 271.897C165.033 272.614 164.547 273.939 164.317 274.201C164.086 274.463 163.242 275.59 162.589 276.14C163.165 275.929 165.52 275.206 166.518 274.937C166.218 275.372 164.714 277.612 163.261 279.763C149.213 288.185 132.221 290.15 116.624 285.164L116.63 285.151Z" fill="#E0CD81"/>
<path fill-rule="evenodd" clip-rule="evenodd" d="M105.103 221.74C105.103 221.74 104.258 221.74 104.092 221.855C103.926 221.971 104.937 222.214 105.244 222.329C105.551 222.444 106.223 222.982 106.396 223.404C106.563 223.814 112.463 226.188 112.463 226.188L116.636 225.977L118.076 223.987L115.337 221.587L117.257 215.929L114.716 216.339L108.598 219.987L105.532 221.164L105.103 221.74Z" fill="#DFC57C"/>
<path fill-rule="evenodd" clip-rule="evenodd" d="M114.269 223.616C114.39 223.814 114.608 223.936 114.845 223.923C115.709 223.923 116.502 224.134 116.835 224.575C117.392 225.273 118.928 227.507 118.928 227.507L122.595 228.825L122.832 224.505L118.819 221.721L114.256 223.398V223.609L114.269 223.616Z" fill="#E5CC7C"/>
<path fill-rule="evenodd" clip-rule="evenodd" d="M113.552 225.216C113.552 225.216 114.224 225.267 115.069 224.953C115.914 224.64 117.303 223.974 117.904 224.236C118.749 224.595 118.576 225.721 119.485 226.732C120.035 227.353 121.047 227.334 121.623 228.006C122.199 228.678 124.163 228.364 124.163 228.364L124.912 232.396L121.911 236.243L120.931 241.017H116.874L113.168 239.545L111.344 235.129L112.259 230.662L113.552 225.216Z" fill="#D2C281"/>
<path fill-rule="evenodd" clip-rule="evenodd" d="M121.398 225.408C121.501 225.44 121.603 225.453 121.706 225.459C121.59 225.555 121.347 225.766 121.443 226.323C121.539 226.88 121.853 227.578 121.59 228C121.801 228.23 121.955 228.499 122.045 228.793C122.211 229.267 122.256 229.709 123.337 229.773C123.184 229.869 123.037 229.984 122.909 230.112C122.909 230.112 123.658 230.765 124.035 231.366C124.425 231.347 125.449 231.027 125.449 231.027L125.661 231.174L126.115 230.982C126.115 230.982 125.686 230.816 126 229.779C126.288 228.864 126.557 228.915 126.576 228.845C126.595 228.774 126.787 227.814 126.787 227.424C126.934 226.918 127.05 225.389 127.05 225.389L126.742 222.003L124.995 220.947L123.581 219.578L122.243 222.099L121.36 222.982L121.289 225.165L121.398 225.408Z" fill="#E2C270"/>
<path fill-rule="evenodd" clip-rule="evenodd" d="M125.603 222.572C125.603 222.572 125.91 223.455 126.032 224.134C126.07 223.999 126.096 223.865 126.102 223.724C126.102 223.724 126.345 225.062 126.39 225.618C126.486 225.599 126.582 225.567 126.601 225.67C126.621 225.772 126.845 226.847 126.793 227.449C127.197 226.783 127.76 226.22 128.425 225.817C128.816 225.574 129.27 225.311 129.744 225.292C130.493 225.273 131.036 225.766 131.926 225.766C134.083 225.766 136.035 224.185 137.469 223.698C138.525 223.34 139.44 223.078 140.08 222.495C140.393 222.233 140.944 221.65 141.449 220.787C142.121 219.634 142.819 218.63 143.517 218.508C143.203 218.566 142.877 218.591 142.557 218.578C142.557 218.578 142.768 218.367 143.133 218.073C143.497 217.778 143.926 217.42 144.547 217.42C145.654 217.42 146.204 217.586 146.832 217.586C147.452 217.567 147.811 217.42 147.811 217.42C147.811 217.42 148.464 217.874 149.929 217.874C151.395 217.894 152.374 218.022 153.142 218.086C153.91 218.15 156.483 217.874 157.219 217.894C157.699 217.913 158.173 218.028 158.608 218.233L156.227 211.321L147.683 203.852L142.595 207.455L134.774 215.282L127.203 218.086L125.622 219.865V222.572H125.603Z" fill="#CCB360"/>
<path fill-rule="evenodd" clip-rule="evenodd" d="M142.595 218.611C142.595 218.611 142.806 218.4 143.164 218.105C143.523 217.811 143.958 217.452 144.585 217.452C145.693 217.452 146.243 217.619 146.87 217.619C147.491 217.6 147.849 217.452 147.849 217.452C147.849 217.452 148.502 217.907 149.968 217.907C151.433 217.926 152.412 218.054 153.181 218.118C153.948 218.182 156.521 217.907 157.257 217.926C157.737 217.945 158.211 218.06 158.646 218.265L157.571 215.148L156.317 212.767L152.745 208.857C152.745 208.857 148.457 206.336 148.425 206.316C148.406 206.297 146.941 205.907 146.941 205.907L143.056 208.256L139.529 217.376L139.459 219.295L141.737 220.371C142.307 219.411 142.94 218.643 143.536 218.547C142.998 218.611 142.588 218.611 142.595 218.611Z" fill="#D5B457"/>
<path fill-rule="evenodd" clip-rule="evenodd" d="M142.544 219.263C142.204 219.282 141.923 219.212 141.846 218.975C141.552 218.162 141.321 218.04 141.078 218.04C140.835 218.04 140.508 218.565 140.31 218.61C140.112 218.655 139.881 218.008 139.881 218.008L139.67 217.913C139.67 217.913 138.416 218.725 137.532 219.692C136.649 220.658 135.203 222.284 134.55 222.572C133.897 222.86 131.664 222.962 130.902 223.129C130.14 223.295 129.289 223.845 129.174 223.973C129.059 224.101 129.513 224.236 129.584 224.364C129.654 224.479 128.835 224.434 128.765 224.556C128.713 224.652 128.956 225.208 129.078 225.49C129.289 225.388 129.513 225.33 129.75 225.324C130.499 225.304 131.043 225.797 131.932 225.797C134.089 225.797 136.041 224.216 137.475 223.73C138.531 223.372 139.446 223.109 140.086 222.527C140.393 222.264 140.95 221.682 141.456 220.818C141.827 220.223 142.185 219.666 142.544 219.263Z" fill="#D2B257"/>
<path fill-rule="evenodd" clip-rule="evenodd" d="M111.632 267.314C111.632 267.314 111.44 266.598 109.661 264.742C109.155 264.217 108.848 263.782 108.509 263.468C107.664 262.674 107.171 262.457 106.57 262.002C105.251 261.023 103.811 261.023 102.704 259.82C101.597 258.617 100.304 256.313 99.4079 253.964C98.5247 251.615 98.2816 250.866 98.2816 250.803C98.2816 250.738 98.5247 250.278 98.8319 250.348C99.1391 250.418 99.1456 251.02 99.2224 251.161C99.376 251.398 99.5551 251.622 99.7472 251.833C100.202 252.358 100.854 252.985 101.187 253.919C101.117 253.126 100.848 252.242 100.848 252.242C100.848 252.242 102.557 253.318 104.016 254.444C105.482 255.57 106.083 255.961 106.512 256.678C106.941 257.394 107.952 259.289 108.432 259.846C108.912 260.402 115.536 262.489 115.536 262.489L118.685 264.838L120.246 268.268L119.024 270.188L116.675 270.694L112.861 268.985L111.632 267.314Z" fill="#D2B159"/>
<path fill-rule="evenodd" clip-rule="evenodd" d="M103.152 255.507C103.152 255.507 103.945 256.78 105.891 257.983C107.638 259.039 110.403 260.006 112.873 260.575C114.288 260.915 115.709 261.177 116.982 261.196C120.406 261.247 122.768 260.262 125.693 259.942C127.273 259.775 129.219 259.647 131.235 259.174C133.827 258.553 135.363 257.855 137.449 256.87C138.966 256.172 140.355 255.647 141.475 254.975C143.056 254.041 144.214 253.004 145.552 252.697C145.386 253.151 145.213 253.971 143.894 254.815C144.592 254.796 145.552 254.745 145.552 254.745C145.552 254.745 144.617 255.295 142.979 256.543C141.968 257.311 140.63 258.611 139.261 259.475C138.377 260.031 137.417 260.435 136.784 260.767C135.248 261.612 134.627 262.041 133.616 263.071C133.974 263.052 134.006 263.071 134.006 263.071C134.006 263.071 132.733 263.238 131.824 263.724C131.632 263.724 131.299 263.654 130.717 263.82C130.262 263.967 129.661 264.294 129.04 264.473C128.157 264.735 127.869 264.62 127.869 264.62L128.016 264.915C128.016 264.915 126.864 264.895 126.48 264.934C126.55 264.953 126.531 264.985 126.531 264.985C126.461 264.998 126.397 265.017 126.339 265.055C126.153 265.177 125.949 265.266 125.738 265.318C125.622 265.337 125.526 265.337 125.379 265.369C125.43 265.484 125.808 266.137 125.981 266.521C125.833 266.617 123.651 268.268 123.651 268.268C123.721 268.377 123.773 268.486 123.817 268.607C123.888 268.818 123.914 269.132 123.984 269.279C124.15 269.574 124.246 269.619 124.246 269.619C124.246 269.619 123.984 269.67 123.529 269.785C123.139 269.881 122.666 270.047 121.993 270.143C121.789 270.169 121.577 270.188 121.373 270.195C121.469 270.406 121.897 271.225 121.11 272.166C120.323 273.107 120.08 273.241 119.837 273.843C119.715 273.753 119.587 273.67 119.446 273.599C119.184 273.484 118.825 273.311 118.697 273.075C118.627 273.388 118.525 273.689 118.41 273.99C118.166 274.643 117.808 275.283 117.737 275.769C117.475 275.475 116.989 274.905 116.317 275.02C115.645 275.135 115.114 276.051 114.998 276.313C114.998 276.147 114.883 276.019 114.851 276.217C114.832 276.428 114.461 278.662 112.406 280.467C112.387 280.012 112.387 279.001 112.336 278.668C112.144 278.86 111.907 279.142 110.512 279.743C109.142 280.345 109.36 280.947 109.36 280.947C109.36 280.947 109.245 279.987 109.981 278.975C110.729 277.964 111.184 277.491 111.184 277.414C111.171 277.337 111.139 277.26 111.088 277.203C110.992 277.107 110.8 276.991 110.8 276.908C110.915 276.857 112.073 276.307 112.003 275.161C111.933 274.131 111.497 273.599 111.19 273.222C111.139 273.171 111.645 272.812 111.581 272.697C111.529 272.626 110.909 272.172 110.832 271.929C110.851 271.782 110.883 271.641 110.928 271.5C110.998 271.289 111.043 271.142 111.024 270.995C110.973 270.751 110.71 270.079 110.633 270.015C110.704 270.035 111.184 270.015 111.184 270.015C111.184 270.015 110.794 269.394 110.729 269.1C110.665 268.806 110.518 268.044 110.441 267.897C110.608 267.916 111.017 267.948 111.017 267.897C111.037 267.75 110.659 267.507 110.825 267.321C110.941 267.34 111.165 267.436 111.376 267.711C111.261 267.398 111.069 266.796 110.659 266.553C110.851 266.483 111.504 266.31 112.08 266.649C112.656 266.988 112.848 267.462 112.848 267.462C112.848 267.462 113.187 267.724 113.712 268.115C114.313 268.588 115.081 269.267 116.304 269.747C116.566 269.894 117.238 269.894 117.725 269.798C117.936 269.747 118.141 269.663 118.326 269.555C118.397 269.516 118.467 269.484 118.537 269.459C118.435 269.247 118.313 269.049 118.179 268.857C118.345 268.857 118.537 268.876 118.537 268.876C118.537 268.876 118.653 268.614 118.128 268.108C118.243 267.993 118.39 267.916 118.39 267.718C118.224 267.699 117.936 267.455 117.865 267.359C117.961 267.289 118.109 267.065 118.275 267.001C118.128 266.886 117.769 266.399 117.603 266.348C117.763 266.291 117.91 266.22 118.057 266.137C118.057 266.137 117.245 265.926 116.982 265.747C116.72 265.555 116.329 265.222 116.099 265.126C115.856 265.03 115.427 264.979 115.254 264.787C115.421 264.838 115.683 264.787 115.875 264.787C116.022 264.787 116.086 264.806 116.138 264.806C116.118 264.735 116.118 264.595 116.496 264.543C116.675 264.518 116.854 264.46 117.021 264.377C117.021 264.377 116.662 264.358 116.253 263.967C115.843 263.577 115.504 263.27 115.273 263.219C115.03 263.167 114.576 263.385 114.294 263.366C113.904 263.315 113.737 263.122 113.737 263.122C113.737 263.122 112.445 263.238 109.584 261.491C107.107 259.974 106.032 258.636 106.032 258.636C105.802 258.553 105.578 258.451 105.36 258.322C104.425 257.836 103.139 256.825 103.177 255.507H103.152Z" fill="#C2A44D"/>
<path fill-rule="evenodd" clip-rule="evenodd" d="M138.877 197.235C139.101 197.305 139.299 197.439 139.453 197.625C139.907 198.15 140.202 199.142 139.165 200.198C139.574 200.345 139.741 200.39 140.099 200.345C139.741 200.774 138.928 201.683 138.877 202.483C138.826 203.135 139.235 203.327 139.235 203.327C139.235 203.327 138.614 204.044 138.583 205.247C138.877 204.915 139.197 204.614 139.543 204.332C140.259 203.756 141.251 203.11 141.923 202.7C141.917 202.873 141.936 203.04 141.994 203.206C141.994 203.206 143.248 202.175 144.298 202.636C144.771 202.847 144.56 203.519 144.56 203.519C144.56 203.519 145.213 203.276 145.667 203.731C146.122 204.185 146.768 205.363 147.101 205.823C147.248 206.035 147.626 206.444 148.01 207.078C148.541 207.961 148.982 208.895 149.328 209.862C149.347 209.356 149.475 208.569 150.909 209.068C152.342 209.574 153.974 210.63 155.344 212.716C156.714 214.803 157.053 217.151 157.744 218.047C158.442 218.911 159.165 220.351 159.21 220.953C159.255 221.555 158.998 223.494 160.432 228.748C160.842 227.116 161.463 223.494 161.463 223.494L161.802 220.3L162.192 210.419L151.869 201.843L143.799 195.987L138.544 196.492L138.877 197.235Z" fill="#CAA13E"/>
<path fill-rule="evenodd" clip-rule="evenodd" d="M158.051 211.941C158.051 211.941 157.904 210.981 155.479 209.349C153.053 207.737 151.159 207.737 149.411 206.367C148.074 205.292 146.672 202.815 145.763 201.996C144.88 201.189 144.733 198.86 144.733 198.86L147.715 196.364L152.151 189.957L155.901 185.829L157.699 188.325L160.195 191.257L161.584 197.138L162.09 205.753L158.051 211.941Z" fill="#B59544"/>
<path fill-rule="evenodd" clip-rule="evenodd" d="M161.046 222.265C161.116 220.959 160.956 219.647 160.572 218.399C159.932 216.409 158.537 212.876 157.884 211.551C157.622 210.086 157.814 209.971 158.095 209.804C158.377 209.638 159.433 209.036 160.015 206.924C160.598 204.812 162.396 204.742 162.396 204.742L163.503 203.929L165.18 208.134L166.646 211.929L167.1 214.834L167.439 217.311L166.646 222.547L162.716 226.099L161.046 222.265Z" fill="#C89D3A"/>
<path fill-rule="evenodd" clip-rule="evenodd" d="M106.186 280.595V280.486C106.269 280.435 106.339 280.371 106.397 280.294C106.467 280.198 106.512 280.083 106.563 280.051C106.659 280 107.12 279.859 107.357 279.904C107.594 279.949 108.24 280.211 108.579 280.198C109.277 280.179 110.096 279.641 111.383 279.891C113.322 280.249 113.783 281.568 114.909 282.317C115.677 282.841 116.471 282.611 116.586 282.611H116.848C116.899 282.611 117.258 282.201 117.45 282.221C117.84 282.24 117.878 282.56 118.122 282.579C118.698 282.649 119.799 282.285 120.355 282.432C120.688 282.534 120.95 282.797 121.053 283.129C121.168 283.488 121.072 283.942 120.791 284.205C120.189 284.755 119.619 285.28 119.498 285.741C119.645 285.856 119.786 285.971 119.926 286.099C115.127 284.883 110.506 283.027 106.186 280.595Z" fill="#CEB052"/>
<path fill-rule="evenodd" clip-rule="evenodd" d="M157.885 261.196C157.885 261.196 159.401 259.174 159.926 258.175C160.451 257.145 158.269 244.089 158.269 244.089L162.659 229.708L162.544 225.03C162.544 225.03 162.755 220.71 163.261 218.835C163.862 219.91 165.737 221.215 166.147 221.9C166.339 220.582 166.992 217.791 166.896 214.822C167.254 215.372 168.118 220.94 168.118 220.94L168.982 224.684L170.109 228.665L171.363 232.87L172.112 235.775L172.541 236.473L172.899 237.695L173.238 239.014L174.218 242.111L174.793 244.652L175.248 249.267C175.35 249.619 175.421 249.977 175.459 250.342C175.478 250.847 175.389 251.135 175.389 251.225C175.389 251.315 175.555 252.332 175.485 253.1C175.389 253.868 175.389 254.47 174.787 255.02C174.185 255.571 173.808 258.867 173.808 258.867L172.733 258.15C172.733 258.15 172.944 257.171 172.438 256.275C171.933 255.379 170.953 255.199 170.397 255.34C169.846 255.455 168.739 255.628 168.374 255.942C168.035 256.249 167.203 257.215 166.435 257.65C165.475 258.226 163.913 258.271 163.075 258.463C162.23 258.655 161.296 259.231 160.317 259.897C159.542 260.409 158.729 260.838 157.885 261.196Z" fill="#CCA847"/>
<path fill-rule="evenodd" clip-rule="evenodd" d="M157.885 282.412C157.885 282.412 157.949 282.457 158.07 282.521C164.969 279.289 171.146 274.706 176.246 269.049C176.189 267.084 176.118 265.068 176.041 264.325C175.875 262.745 175.99 261.132 175.945 260.197C175.901 259.263 175.376 255.468 175.133 254.489C174.87 253.509 174.365 253.023 174.288 253.023C174.218 253.042 173.814 254.866 173.814 255.327C173.814 255.788 173.718 256.889 173.718 257.17C173.648 257.151 173.622 256.978 173.622 256.908C173.526 257.151 173.411 257.58 173.36 257.625C173.309 257.67 173.43 257.215 173.36 257.119C173.289 257.023 173.168 257.068 173.194 256.825C173.206 256.684 173.225 256.537 173.264 256.396C173.264 256.396 172.97 256.825 172.758 257.913C172.547 258.988 172.547 259.02 172.464 259.116C172.394 259.231 172.009 259.621 171.99 259.769C171.971 260.031 172.349 260.293 172.381 260.441C172.4 260.684 172.041 261.81 171.926 262.361C171.811 262.911 171.856 263.993 171.734 264.543C171.638 265.049 171.542 265.337 171.21 265.554C171.453 265.606 171.683 265.669 171.683 265.669C171.683 265.669 172.022 267.103 171.158 268.332C170.851 268.761 170.768 268.953 170.441 269.343C169.789 270.06 169.283 270.879 169.238 271.41C169.206 271.25 169.181 271.097 169.168 270.937C169.168 270.937 168.157 272.114 167.734 272.78C167.184 273.644 166.416 273.593 166.198 273.81C165.981 274.028 165.936 274.412 166.006 274.726C165.814 274.777 165.456 274.841 165.213 275.589C165.097 275.98 164.803 276.358 164.349 276.62C163.894 276.882 163.337 276.959 163.056 277.03C163.299 277.1 163.395 277.1 163.51 277.177C163.363 277.42 162.697 277.797 161.949 278.284C161.2 278.738 160.841 279.41 160.656 279.846C160.464 280.255 160.182 280.517 159.721 280.562C159.913 280.677 160.195 280.953 160.342 281.036C160.131 281.087 159.766 281.087 159.12 281.638C158.429 282.194 158.198 282.361 157.885 282.412Z" fill="#C39D3C"/>
<path fill-rule="evenodd" clip-rule="evenodd" d="M144.374 286.912C144.745 286.649 145.148 286.438 145.57 286.278C147.087 285.677 148.687 285.561 149.321 285.369C149.922 285.177 150.396 284.915 151.145 284.768C151.126 284.941 151.106 285.101 151.093 285.248C148.885 285.933 146.639 286.489 144.374 286.912Z" fill="#D2BA6B"/>
<path fill-rule="evenodd" clip-rule="evenodd" d="M172.304 247.078C172.304 247.078 171.997 248.755 171.44 249.817C170.883 250.88 170.288 252.339 170.288 252.339C170.294 252.006 170.333 251.679 170.403 251.36C169.706 251.769 168.003 252.748 167.523 253.184C167.069 253.593 166.301 254.31 166.102 254.649C166.557 253.311 167.037 252.108 167.113 251.552C166.416 252.057 163.152 254.745 161.456 256.524L156.163 260.806C155.555 261.132 154.921 261.427 154.281 261.689C153.373 262.079 152.291 262.406 151.498 262.72C151.709 262.15 152.048 261.644 152.528 261.158C153.033 260.684 154.55 259.039 154.781 258.278C154.992 257.484 155.043 257.004 154.762 256.339C154.499 256.409 153.897 256.435 153.488 256.55C153.078 256.665 152.643 257.1 152.643 257.1C152.643 257.1 152.95 255.321 153.622 253.644C153.117 253.663 152.253 253.811 152.253 253.811C152.253 253.811 153.456 251.788 155.517 250.387C154.883 250.521 154.269 250.713 153.673 250.956C152.47 251.462 151.152 252.211 150.166 252.614C150.717 251.846 154.602 246.303 156.912 241.139C159.216 235.987 160.073 234.662 160.579 231.897C160.842 230.528 160.771 228.505 160.842 226.694C160.912 224.895 161.136 223.289 160.989 222.208C161.59 222.956 163.843 225.062 163.92 229.772C163.99 234.483 161.763 240.838 159.408 244.268C159.984 244.435 161.475 244.627 163.011 241.964C164.547 239.302 164.528 238.56 165.078 237.452C165.149 238.009 165.129 238.201 165.129 238.201C165.129 238.201 167.363 235.494 168.419 232.083C168.63 233.548 169.264 234.841 168.272 237.529C167.389 239.955 166.237 240.55 166.237 240.55C166.237 240.55 166.806 240.454 167.651 239.948C167.798 240.307 167.766 240.716 168.01 240.864C168.253 241.011 168.579 241.254 168.63 241.484C168.893 241.094 169.302 240.601 169.424 240.23C169.328 240.998 169.258 244.358 169.616 246.067C170.365 245.996 171.133 245.952 171.658 244.601C171.299 245.92 171.299 246.719 171.542 247.846C171.939 247.564 172.304 247.078 172.304 247.078Z" fill="#C0993A"/>
<path fill-rule="evenodd" clip-rule="evenodd" d="M147.075 193.561C147.075 193.561 146.326 193.874 145.052 193.874C143.945 193.874 144.259 193.446 142.531 193.446C139.868 193.446 130.582 194.981 128.95 194.962C127.894 194.943 132.521 195.417 132.521 195.417L144.355 195.583L146.735 195.391L147.619 193.593L147.075 193.561Z" fill="#A88F33"/>
<path fill-rule="evenodd" clip-rule="evenodd" d="M116.387 216.698C116.387 216.698 114.87 217.85 114.23 218.739C113.59 219.629 113.251 220.205 112.521 220.922C112.694 220.928 112.86 220.902 113.027 220.851C113.027 220.851 113.027 221.043 112.912 221.094C113.116 221.069 113.321 221.139 113.462 221.286C113.251 221.402 112.668 221.984 113.123 222.675C113.462 223.2 114.179 223.245 114.179 223.245C114.179 223.245 114.012 223.718 114.704 223.673C116.188 223.603 117.852 222.957 118.614 223.117C119.382 223.309 119.817 223.379 120.361 224.32C120.937 225.254 121.436 225.395 121.436 225.395C121.436 225.395 121.776 224.531 121.699 223.238C121.98 222.541 122.134 221.805 122.153 221.056L121.648 217.338L119.446 214.554L116.592 216.134L116.387 216.698Z" fill="#E3C571"/>
<path fill-rule="evenodd" clip-rule="evenodd" d="M119.094 216.146C119.094 216.146 119.305 216.652 120.201 216.697C120.105 216.908 120.105 216.94 120.131 217.106C120.15 217.273 120.182 217.516 120.182 217.516C120.278 217.471 120.368 217.401 120.445 217.324C120.496 217.535 120.394 217.874 120.445 218.117C120.477 218.265 120.522 218.412 120.592 218.546C120.605 218.514 120.624 218.482 120.643 218.45C120.662 218.399 120.835 218.975 121.315 219.41C121.315 219.346 121.334 219.276 121.366 219.218C121.373 219.34 121.411 219.455 121.482 219.558C121.443 219.538 121.411 219.519 121.386 219.487C121.386 219.487 121.437 221.023 121.693 221.817C121.737 221.765 121.776 221.708 121.808 221.65C121.808 221.599 121.789 222.079 121.737 222.418C121.667 222.757 121.718 223.231 121.718 223.231C121.891 223.09 122.083 222.982 122.288 222.892C122.576 222.777 123.056 222.418 123.344 221.618C123.51 221.17 123.645 220.703 123.734 220.23C123.83 220.409 123.894 220.607 123.926 220.806C123.946 221.049 124.4 220.921 124.4 220.921L124.496 219.865L125.072 217.465L125.597 215.98L128.118 212.05L132.682 208.537L136.662 209.452L140.022 204.889L134.237 201.414L128.758 201.99L123.785 208.869L119.805 215.11L119.094 216.146Z" fill="#D8B65B"/>
<path fill-rule="evenodd" clip-rule="evenodd" d="M147.779 206.188C147.779 206.188 147.44 206.259 146.46 206.764C145.481 207.27 144.803 207.436 144.419 208.179C144.035 208.921 144.009 209.516 144.009 209.516C144.009 209.516 144.681 209.228 145.065 209.126C145.475 209.03 145.929 209.056 145.878 209.222C145.833 209.337 145.769 209.44 145.686 209.529C145.686 209.529 146.454 209.51 146.435 209.888C146.416 210.265 146.288 210.681 146.147 210.867C146 211.059 145.398 211.34 145.334 211.564C145.168 212.019 145.405 212.038 145.315 212.409C145.245 212.767 144.924 213.465 143.881 214.694C142.806 215.916 142.345 216.78 142.345 216.78C142.345 216.78 141.821 215.801 141.552 214.956C141.36 215.052 140.329 215.628 140.329 215.628L137.942 207.308L137.993 206.752C137.993 206.752 138.205 206.489 138.256 206.003C137.897 205.888 137.846 205.792 137.372 205.331C136.899 204.87 136.509 204.32 135.715 203.942C135.6 203.731 135.453 203.436 134.87 203.321C134.288 203.206 133.936 203.11 133.936 203.11C133.936 203.11 134.243 202.995 134.39 202.751C134.032 202.803 133.737 202.918 132.95 202.899C132.157 202.88 132.067 202.847 131.632 202.918C131.197 202.988 130.672 203.18 130.48 202.508C130.268 202.342 129.808 202.489 129.424 203.059C129.04 203.628 128.899 204.089 128.15 204.313C128.099 204.64 127.984 204.96 127.811 205.247C127.6 205.606 127.254 205.964 126.8 206.502C126.083 207.347 126.198 208.736 125.053 209.791C123.901 210.848 125.245 206.86 125.245 206.86L127.088 202.444L132.342 197.311L140.496 196.761L141.289 200.985L145.27 202.355L147.779 206.188Z" fill="#D3AE4D"/>
<path fill-rule="evenodd" clip-rule="evenodd" d="M149.065 207.116L145.635 202.175L143.235 200.332C143.235 200.332 141.526 197.189 141.411 197.087C141.315 197.017 139.702 196.844 138.672 196.773L138.864 197.247C139.088 197.318 139.286 197.452 139.44 197.638C139.894 198.162 140.189 199.154 139.152 200.21C139.562 200.357 139.728 200.402 140.086 200.357C139.728 200.786 138.915 201.695 138.864 202.495C138.813 203.148 139.222 203.34 139.222 203.34C139.222 203.34 138.601 204.057 138.569 205.26C138.864 204.927 139.184 204.626 139.529 204.345C140.246 203.769 141.238 203.122 141.91 202.713C141.904 202.885 141.923 203.052 141.981 203.218C141.981 203.218 143.235 202.188 144.285 202.642C144.758 202.854 144.547 203.526 144.547 203.526C144.547 203.526 145.2 203.282 145.654 203.737C146.109 204.191 146.761 205.369 147.088 205.823C147.235 206.034 147.613 206.444 147.997 207.078C148.528 207.961 148.969 208.895 149.315 209.861C149.334 209.471 149.411 208.927 150.083 208.927L149.065 207.116Z" fill="#CAA13E"/>
<path fill-rule="evenodd" clip-rule="evenodd" d="M97.6866 221.158C97.6866 221.158 97.4434 220.556 97.6866 219.379C97.9299 218.201 98.3073 217.651 98.4355 215.923C98.5634 214.195 99.6897 212.038 99.6897 212.038L102.807 210.624L105.008 211.225L105.661 214.175L102.877 215.711C102.877 215.711 102.73 216.364 101.943 216.883C101.155 217.401 100.067 217.817 99.805 218.348C99.6514 218.675 99.5363 219.02 99.4659 219.379C99.4659 219.379 98.6721 219.212 98.1922 219.737C97.6866 220.275 97.7121 220.748 97.6866 221.158Z" fill="#F4EFC8"/>
<path fill-rule="evenodd" clip-rule="evenodd" d="M103.984 220.37C103.984 220.37 103.721 220.536 103.529 220.946C103.337 220.639 102.877 218.789 102.857 217.132C102.838 215.474 102.736 215.058 103.12 214.488C103.504 213.919 105.008 213.311 104.797 212.28C104.585 211.301 103.689 210.892 102.595 211.173C101.827 211.365 101.257 212.997 100.457 213.817C99.8558 214.437 99.1391 214.341 98.9405 214.68C98.6782 215.135 98.9215 215.596 98.8446 215.884C98.8254 215.98 98.5821 216.504 98.1469 217.138C97.2637 218.412 95.7662 220.204 95.5741 221.817C95.6445 220.901 95.5934 220.882 95.8366 219.877L95.6894 219.634L96.6495 216.485L97.2701 213.893L98.6589 209.554L101.104 205.119L103.484 202.456L105.961 202.623L106.249 206.341L107.67 213.324L110.653 216.991L105.872 220.204L103.984 220.37Z" fill="#EBCC73"/>
<path fill-rule="evenodd" clip-rule="evenodd" d="M105.469 221.689C105.469 221.689 105.059 221.785 104.918 221.708C104.778 221.631 104.63 221.541 104.675 221.445C104.72 221.349 104.989 221.183 104.989 221.106C105.002 220.959 104.893 220.831 104.746 220.818C104.522 220.786 104.458 220.933 104.458 220.933C104.458 220.933 104.246 220.767 104.067 220.742C104.17 220.729 104.272 220.722 104.381 220.722C104.112 220.601 103.831 220.517 103.536 220.479C103.779 220.332 104.253 219.903 104.567 219.903C104.88 219.903 105.072 219.852 105.021 219.692C104.97 219.532 104.733 219.282 104.47 219.186C104.567 219.071 104.637 218.898 104.4 218.418C104.157 217.945 104.253 217.625 104.33 217.51C104.4 217.362 104.643 217.1 104.758 216.934C104.874 216.767 104.97 216.543 105.168 216.428C105.264 216.358 105.578 216.236 105.885 216.121C106.224 216.005 106.506 215.858 106.698 216.005C106.909 216.153 106.813 216.345 106.813 216.345C106.813 216.345 107.485 216.102 108.086 216.415C108.688 216.703 110.154 216.889 110.154 216.889L110.678 217.945L107.197 220.921L105.757 221.638L105.469 221.689Z" fill="#E5C66B"/>
<path fill-rule="evenodd" clip-rule="evenodd" d="M110.288 216.818C110.288 216.818 109.213 217.535 108.97 217.798C109.117 217.817 109.36 217.913 109.258 218.06C109.142 218.207 108.445 218.713 108.055 219.186C107.645 219.66 107.261 220.262 107.12 220.556C106.973 220.819 105.866 221.586 105.488 221.682C106.282 221.682 107.888 220.703 108.49 220.703C108.47 220.991 108.656 221.324 108.995 221.356C109.334 221.388 110.314 221.567 111.638 220.754C112.957 219.961 112.522 219.366 113.078 218.975C114.134 218.278 114.563 217.657 115.146 217.266C115.728 216.876 116.029 216.793 116.029 216.793C116.029 216.793 116.048 216.505 116.221 216.53C116.317 216.543 116.4 216.607 116.432 216.697C116.432 216.697 117.443 215.98 118.736 215.782C118.704 215.769 118.685 215.743 118.666 215.711C118.666 215.711 118.762 215.66 118.781 215.615C118.781 215.615 118.851 215.519 118.896 215.564C118.941 215.609 119.011 215.974 119.107 216.121C119.318 216.025 119.728 215.11 119.728 215.11L120.707 212.307V209.746L119.939 209.894L114.179 212.338L110.685 215.961L110.288 216.818Z" fill="#E6BD62"/>
<path fill-rule="evenodd" clip-rule="evenodd" d="M126.877 204.242C127.191 204.165 127.485 204.044 127.76 203.884C127.645 204.197 127.645 204.537 127.139 205.273C126.634 206.009 126.615 206.117 126.205 206.885C125.795 207.679 125.751 208.825 125.36 209.33C125.533 209.247 125.719 209.189 125.911 209.164C125.911 209.164 125.52 209.503 125.36 209.861C125.2 210.22 124.906 210.969 124.189 211.423C123.472 211.877 122.557 212.172 121.578 213.247C120.599 214.303 119.587 215.647 119.082 216.127C119.344 215.672 119.703 214.757 119.799 214.156C119.895 213.554 119.78 212.837 119.946 212.037C120.112 211.237 120.112 210.668 120.906 209.279C121.699 207.89 123.063 203.065 123.063 203.065L125.994 202.13L126.877 204.242Z" fill="#B6933F"/>
<path fill-rule="evenodd" clip-rule="evenodd" d="M124.758 202.47C124.758 202.47 123.875 203.744 123.632 204.87C123.389 205.997 123.613 205.901 123.465 206.451C123.376 206.79 123.376 207.142 123.465 207.482C123.773 206.989 124.189 206.573 124.688 206.278C125.52 205.773 126.205 205.414 126.608 204.985C127.018 204.531 127.357 203.782 128.24 203.206C127.881 203.155 127.376 202.995 127.28 203.014C127.638 202.605 128.72 201.984 129.802 201.235C130.877 200.467 130.813 200.16 132.56 199.392C131.984 199.488 131.715 199.341 131.241 199.392C131.433 198.982 132.105 198.79 132.777 198.118C133.449 197.446 132.349 196.461 132.349 196.461L127.229 199.558L124.758 202.47Z" fill="#C49937"/>
<path fill-rule="evenodd" clip-rule="evenodd" d="M110.864 200.153L110.979 199.225L112.445 196.876L113.981 192.748V187.11L113.866 183.846L114.109 181.708L114.288 181.03L114.487 180.767L115.741 181.42L117.469 183.769L117.629 188.3L115.952 195.456L111.152 200.691L110.864 200.153Z" fill="#DFC068"/>
<path fill-rule="evenodd" clip-rule="evenodd" d="M114.678 180.505C114.678 180.505 113.91 180.525 113.744 183.718C113.577 186.912 113.5 188.595 113.385 190.176C113.27 191.757 112.995 192.717 112.86 193.651C112.726 194.585 112.649 195.853 112.208 196.633C112.015 196.992 111.606 198.118 110.646 198.963C109.571 199.897 107.958 200.544 107.715 200.595C107.286 200.691 105.123 200.909 104.239 201.389C103.926 201.555 103.395 201.747 102.799 202.304C101.622 203.36 100.06 205.254 98.9339 207.539C97.2058 210.944 95.4779 220.569 95.4779 220.569L95.8682 219.917C95.8682 219.917 95.9195 219.053 96.7835 217.536C97.6282 216.019 97.3851 214.323 98.5627 211.417C99.017 210.31 99.5931 208.876 100.291 207.648C101.398 205.657 102.736 203.949 104.086 203.014C106.287 201.497 108.719 201.171 108.719 201.171L111.331 199.443C111.331 199.443 111.785 198.56 112.387 197.548C113.232 196.134 114.307 194.547 114.544 192.249C114.902 188.845 114.038 186.611 114.089 184.589C114.14 182.566 114.159 181.081 114.563 180.723C114.966 180.365 114.678 180.505 114.678 180.505Z" fill="#A88F33"/>
<path fill-rule="evenodd" clip-rule="evenodd" d="M114.678 195.75C114.678 195.75 115.83 192.915 116.355 190.399C116.451 189.894 116.643 189.388 116.694 188.985C116.937 186.604 117.001 185.625 116.694 184.326C116.451 183.366 115.523 182.502 115.037 181.83C114.563 181.132 114.339 180.87 114.435 180.723C114.531 180.575 114.909 180.332 115.28 180.364C116.073 180.39 116.822 180.735 117.347 181.324C118.096 182.188 118.685 185.119 118.685 185.119L119.312 188.985L120.893 193.855L114.678 195.75Z" fill="#C99E3D"/>
<path fill-rule="evenodd" clip-rule="evenodd" d="M125.507 192.799C125.507 192.799 125.296 192.895 124.905 192.799C124.937 193.119 124.79 193.439 124.515 193.612C124.105 193.445 120.291 193.778 120.291 193.778C120.291 193.778 118.512 193.465 117.961 191.116C117.571 189.554 118.249 187.397 118.032 185.983C117.692 183.897 117.219 183.487 117.168 182.841C117.116 182.194 117.072 182.028 117.072 181.618C116.86 181.567 116.733 181.503 116.521 181.503C116.47 181.311 116.572 181.145 116.355 180.805C116.47 180.857 117.27 180.953 118.198 181.836C118.966 182.553 118.966 182.815 119.081 182.962C119.229 183.109 120.4 184.114 120.905 185.119C121.411 186.124 122.39 189.324 122.614 189.849C122.684 190.06 122.825 190.277 123.19 190.764C123.747 191.449 124.573 192.601 125.507 192.799Z" fill="#B58634"/>
<path fill-rule="evenodd" clip-rule="evenodd" d="M119.215 183.001C119.804 183.948 120.329 184.934 120.796 185.952C121.372 187.244 121.711 188.3 122.428 189.164C122.038 188.038 121.353 185.824 120.943 185.036C120.483 184.211 119.554 183.315 119.215 183.001Z" fill="#A88F33"/>
<path fill-rule="evenodd" clip-rule="evenodd" d="M112.611 198.963C112.611 198.963 111.632 199.206 109.808 200.166C109.206 200.479 108.636 200.735 108.08 200.979C106.64 201.631 105.097 202.233 103.875 202.559C103.971 202.675 104.022 202.726 104.022 202.726C104.022 202.726 104.022 203.199 104.285 203.475C104.137 203.622 102.198 204.94 102.768 209.356C103.158 209.209 103.613 209.017 103.676 209.017C103.792 209.036 103.824 209.356 103.964 209.356C104.105 209.356 104.585 209.164 105.091 208.511C105.072 208.774 104.777 211.417 106.345 213.19C106.633 212.851 107.376 211.724 107.376 211.724L107.395 211.366C107.395 211.366 107.465 210.111 107.869 208.966C108.272 207.82 109.072 206.976 109.072 206.976L113.225 201.043L112.611 198.963Z" fill="#E6C367"/>
<path fill-rule="evenodd" clip-rule="evenodd" d="M108.726 207.673C108.534 207.807 108.329 207.91 108.105 207.98C108.035 207.737 107.939 206.905 108.515 206.085C109.187 205.106 110.653 203.833 111.056 202.822C111.318 202.169 111.203 200.543 113.532 198.45C115.862 196.358 116.777 195.647 116.777 195.647L120.547 193.753L125.18 195.577L122.877 204.601L121.091 208.825L113.987 207.487L108.726 207.673Z" fill="#DCBA5A"/>
<path fill-rule="evenodd" clip-rule="evenodd" d="M111.44 205.222L112.323 204.115V203.327C112.323 203.327 113.302 203.065 114.358 201.99C115.414 200.915 116.88 198.847 118.173 198.969C119.465 199.116 119.593 201.772 119.638 202.521C119.683 203.27 119.849 204.966 120.112 205.881C120.4 206.796 116.963 210.252 116.963 210.252L114.64 212.032L111.44 205.222Z" fill="#E9CE77"/>
<path fill-rule="evenodd" clip-rule="evenodd" d="M114.173 214.438C114.173 214.438 114.89 213.312 114.365 213.069C114.672 212.371 115.248 211.629 115.248 211.629C115.248 211.629 115.658 210.617 116.976 209.376C118.294 208.134 119.114 207.309 119.325 206.47C119.459 205.926 119.529 205.369 119.536 204.813C119.677 204.928 119.83 205.03 119.99 205.12C120.202 205.216 121.213 206.054 121.065 207.731C120.918 209.408 120.298 210.112 120.298 210.112C120.298 210.112 119.696 210.714 119.267 211.027C118.813 211.334 118.646 211.699 117.878 211.725C117.955 211.661 118.045 211.609 118.141 211.577C118.141 211.577 117.347 211.481 116.918 211.865C116.49 212.249 115.581 213.446 115.126 213.811C114.678 214.106 114.179 214.438 114.173 214.438Z" fill="#CDAE50"/>
<path fill-rule="evenodd" clip-rule="evenodd" d="M146.454 195.551C145.309 195.135 144.099 194.898 142.883 194.853C140.842 194.783 137.865 194.905 134.941 194.924C131.792 194.943 128.938 193.849 124.982 193.65C124.33 193.26 122.678 191.564 117.514 195.167C117.821 195.148 121.264 194.373 122.454 195.865C123.658 197.349 123.318 199.871 123.152 200.473C122.838 201.81 121.834 203.762 121.424 205.132C121.014 206.502 121.11 207.218 120.822 208.178C120.534 209.138 119.888 209.618 120.266 210.719C120.771 210.412 121.034 210.412 121.878 208.517C122.723 206.623 122.55 205.273 123.945 203.673C125.315 202.06 127.594 199.858 128.458 199.301C129.322 198.745 136.202 195.173 143.408 198.585C145.155 198.405 146.454 195.551 146.454 195.551Z" fill="#D2A83E"/>
<path fill-rule="evenodd" clip-rule="evenodd" d="M120.42 194.233C120.413 194.163 120.394 194.086 120.368 194.022C120.298 193.881 120.215 193.747 120.106 193.632C120.106 193.632 118.397 193.318 117.533 193.421C116.016 193.587 114.647 195.462 114.007 196.422C113.367 197.382 112.567 198.867 111.703 199.635C111.709 199.558 111.696 199.481 111.651 199.424C111.651 199.424 111.703 199.494 111.6 199.59C111.498 199.686 111.504 199.737 111.549 199.782L111.696 199.929C111.747 199.929 113.085 199.328 114.909 197.625C116.848 195.846 118.333 194.937 119.114 194.624C119.543 194.438 119.978 194.31 120.42 194.233Z" fill="#C29637"/>
<path fill-rule="evenodd" clip-rule="evenodd" d="M153.564 186.93C153.564 186.93 153.251 187.321 152.867 187.743C152.003 188.658 150.877 189.682 149.917 190.745C149.008 191.756 147.977 192.543 146.819 193.861C145.661 195.18 144.323 196.645 143.984 197.074C143.677 197.503 143.433 198.2 143.433 198.559C143.267 198.444 143.075 198.316 143.075 198.316C143.158 198.469 143.254 198.61 143.369 198.745C143.613 199.084 143.99 199.513 144.182 199.775C144.419 200.108 144.592 200.485 144.688 200.882C144.803 200.901 145.552 201.049 146.486 199.513C147.421 197.977 148.643 196.3 148.643 196.3L150.582 193.413L151.804 190.969L153.34 188.229L153.564 186.93Z" fill="#AC8132"/>
<path fill-rule="evenodd" clip-rule="evenodd" d="M155.555 184.972C155.555 184.972 154.377 185.932 153.923 186.508C153.468 187.084 152.387 188.595 152.387 188.595L152.777 188.544L154.749 186.796L155.516 185.427L155.555 184.972Z" fill="#A88F33"/>
<path fill-rule="evenodd" clip-rule="evenodd" d="M155.197 262.124C155.197 262.124 155.178 261.33 155.626 260.85C156.08 260.377 157.238 259.672 158.365 257.055C159.491 254.437 159.619 253.842 159.619 253.842C159.619 253.842 157.597 255.57 156.355 255.98C156.65 255.378 156.809 254.949 156.957 254.642C156.79 254.495 156.093 254.335 156.022 254.252C156.413 253.861 156.624 252.914 157.411 252.281C158.422 251.512 160.265 250.194 161.699 249.016C163.133 247.839 165.949 245.106 166.314 244.306C166.525 244.613 166.576 244.812 166.576 244.812C166.576 244.812 165.162 246.655 164.419 247.833C163.766 248.844 163.818 249.413 163.818 249.413L165.155 248.837C165.155 248.837 165.545 250.271 163.785 252.46C164.554 252.165 164.861 252.344 165.302 252.101C164.585 252.556 163.594 253.176 162.659 254.885C161.744 256.594 160.502 258.585 158.41 259.826C156.362 261.138 155.19 262.124 155.197 262.124Z" fill="#A67A2E"/>
<path fill-rule="evenodd" clip-rule="evenodd" d="M149.93 196.563C149.93 196.563 149.136 198.22 149.015 199.513C148.995 199.827 148.919 200.063 148.919 200.428C148.899 201.58 148.989 202.873 148.727 203.475C148.631 203.231 148.579 203.065 148.483 202.969C148.336 203.379 148.074 204.646 147.863 205.126C147.767 204.819 147.556 203.737 147.575 202.463C147.594 201.19 147.626 200.947 147.626 200.684C147.575 201.075 147.319 201.599 147.216 201.907C147.069 201.644 146.909 201.305 146.711 201.023C146.595 201.215 146.448 201.497 146.32 201.644C146.301 201.529 146.25 201.215 146.224 200.78C146.205 200.275 146.173 199.628 146.205 199.487C146.256 199.225 146.659 198.195 147.523 197.254C148.554 196.127 149.61 193.964 149.924 193.292C150.237 192.62 151.555 189.836 151.555 189.836H152.567L151.101 193.177C151.101 193.177 150.218 195.001 149.764 195.673C149.309 196.345 148.343 198.265 147.92 199.014C148.228 198.604 148.49 198.393 148.804 198.003C149.098 197.74 149.936 196.563 149.93 196.563Z" fill="#8C6228"/>
<path fill-rule="evenodd" clip-rule="evenodd" d="M155.574 184.844C155.408 185.35 155.145 185.824 154.806 186.233C154.204 186.95 152.912 187.91 152.285 188.678C151.708 189.427 150.556 191.462 151.081 193.881C151.273 193.356 151.638 192.32 152.598 191.142C153.558 189.964 154.588 188.62 155.094 187.571C155.6 186.515 155.664 185.676 155.664 185.676L155.856 185.433L155.74 184.883L155.574 184.844Z" fill="#CBA94C"/>
<path fill-rule="evenodd" clip-rule="evenodd" d="M175.235 249.241C175.235 249.241 174.845 248.185 174.73 247.219C174.614 246.252 174.921 246.067 174.563 244.966C174.352 244.294 173.961 244.39 173.865 244.294C173.77 244.198 173.699 243.187 173.718 242.636C173.737 242.086 173.699 241.363 173.603 241.055C173.456 240.94 173.36 240.844 173.149 240.121C172.905 239.404 172.79 239.046 172.675 238.828C172.56 238.611 172.221 238.419 172.221 238.207C172.221 237.779 172.611 237.555 172.611 237.44C172.592 237.196 172.304 237.388 172.221 237.324C172.125 237.209 172.464 236.512 172.336 236.409C172.285 236.358 171.946 236.768 171.862 236.652C171.766 236.537 171.651 235.379 171.472 234.611C171.305 233.862 171.133 233.318 171.113 233.094C171.094 232.883 169.776 229.113 169.456 228.198C169.2 227.43 168.982 226.643 168.803 225.849C168.707 225.395 168.637 224.46 168.592 224.556C168.547 224.652 168.573 225.132 168.496 225.113C168.426 225.094 168.189 223.436 168.105 223.174C168.035 222.912 167.632 222.022 167.529 221.375C167.433 220.723 167.222 219.027 167.075 217.868C166.928 216.71 166.864 216.236 166.864 215.948C166.889 215.238 166.851 214.534 166.749 213.83C166.557 212.607 166.173 211.123 165.833 210.259C165.181 208.627 163.453 204.454 163.146 203.411C163.146 203.148 163.485 203.296 163.485 203.296C163.485 203.296 164.329 205.414 164.95 207.04C165.552 208.672 166.128 210.105 166.269 210.252C166.384 210.4 167.299 212 167.702 214.624C168.105 217.247 168.253 219.66 168.496 221.273C168.611 222.041 168.707 222.854 168.95 223.673C169.213 224.556 169.622 225.472 170.153 226.867C170.608 228.044 170.947 229.024 171.133 229.868C171.344 230.943 171.344 231.763 171.472 232.294C171.587 232.748 171.766 233.663 172.169 234.982C172.573 236.3 173.181 238.003 173.584 239.059C174.377 241.177 174.736 242.943 174.857 243.884C174.966 244.876 175.331 248.236 175.235 249.241Z" fill="#A88F33"/>
<path fill-rule="evenodd" clip-rule="evenodd" d="M155.618 184.729L155.567 184.845C155.567 184.845 155.714 184.896 155.682 185.088C155.682 185.357 155.67 185.619 155.631 185.881C155.58 186.221 155.484 186.483 155.465 186.694C155.465 187.149 155.535 187.673 154.889 188.973C154.697 189.331 154.582 189.645 154.479 189.856C154.236 190.381 154.185 190.457 153.974 190.701C154.313 190.509 155.535 189.741 156.156 189.856C155.727 190.099 155.081 190.573 154.671 191.193C154.767 191.213 155.177 191.289 155.823 191.193C156.898 191.027 158.108 190.643 159.164 190.72C160.322 190.79 159.862 189.331 159.862 189.331L158.53 186.4L156.009 184.621L155.618 184.729Z" fill="#BE9C44"/>
<path fill-rule="evenodd" clip-rule="evenodd" d="M162.204 206.694C162.204 206.694 161.078 205.568 160.624 201.702C160.169 197.818 160.265 192.102 160.265 192.102L159.35 189.869C159.35 189.869 159.158 188.384 158.678 187.827C158.198 187.27 157.264 186.342 156.835 185.888C156.406 185.433 155.92 184.813 155.632 184.71C155.779 184.467 156.425 183.097 158.921 183.078C161.417 183.059 162.185 184.448 162.448 184.953C162.71 185.459 163.881 187.641 164.323 191.801C164.732 195.955 164.752 196.269 164.681 197.702C164.63 198.496 164.368 200.345 163.913 202.317C163.491 203.987 163.036 205.85 162.204 206.694Z" fill="#A17C34"/>
<path fill-rule="evenodd" clip-rule="evenodd" d="M158.672 210.003C159.049 210.029 159.421 209.945 159.747 209.76C160.105 209.741 161.405 209.907 162.409 208.634C162.48 208.921 162.653 209.709 162.198 210.413C162.441 210.169 162.8 210.073 162.851 210.003C162.87 210.361 163.209 211.469 161.776 214.157C162.166 213.728 162.621 213.747 163.03 213.702C163.049 214.208 163.325 215.904 162.601 216.819C162.128 217.44 161.347 217.248 161.347 217.248C161.36 217.113 161.36 216.972 161.347 216.838C161.328 216.576 161.232 216.313 161.296 216.141C160.918 215.968 160.579 215.731 160.285 215.443C159.44 214.649 158.345 213.286 158.262 212.275C158.166 211.149 159.177 210.905 159.177 210.905C159.094 210.829 159.024 210.739 158.966 210.643C158.915 210.477 158.864 210.214 158.672 210.003Z" fill="#8C6228"/>
<path fill-rule="evenodd" clip-rule="evenodd" d="M151.184 197.785C151.184 197.785 151.132 197.714 150.876 198.028C150.928 197.714 150.972 197.427 150.992 197.145C151.113 196.882 151.273 196.639 151.465 196.428C151.318 196.716 151.222 196.979 151.222 196.979C151.222 196.979 151.581 196.306 152.105 195.903C152.464 195.615 152.918 195.474 153.117 195.206C153.328 194.918 153.283 194.867 153.328 194.815C153.328 194.815 153.801 194.502 154.531 193.593C154.627 193.478 154.774 193.35 154.87 193.235C155.037 193.164 155.42 192.991 155.881 192.761C156.355 192.499 156.892 192.14 157.219 191.993C157.872 191.705 158.557 191.731 158.876 191.276C159.12 191.206 159.382 190.483 159.331 189.862C159.689 190.009 161.532 191.155 162.166 193.657C162.62 195.436 161.808 198.169 161.468 199.494C161.129 200.819 161.078 201.798 160.605 202.399C160.003 203.199 158.064 204.319 157.584 204.876C157.174 205.331 155.952 206.489 156.003 207.321C156.054 207.942 156.816 208.281 156.982 208.396C157.149 208.511 157.148 208.659 157.456 208.588C157.763 208.518 157.885 208.377 158.012 208.377C158.16 208.396 158.16 208.428 158.224 208.428C158.275 208.428 158.32 208.422 158.371 208.409C158.371 208.409 158.32 209.292 156.252 209.561C156.105 209.58 155.958 209.631 155.779 209.657C156.022 209.542 156.169 209.542 156.432 209.183C156.137 209.132 155.305 209.087 155.094 209.017C155.164 208.902 155.388 208.588 155.568 208.441C155.734 208.294 155.549 208.249 155.401 208.326C155.152 208.499 154.908 208.678 154.684 208.876C154.441 209.087 154.23 209.382 153.84 209.644C153.724 209.254 153.744 208.518 154.198 207.987C154.083 208.006 153.859 208.345 153.641 208.275C153.603 207.923 153.628 207.564 153.712 207.218C153.827 206.783 154.46 206.015 154.46 206.015L157.507 200.569L158.16 196.441L151.184 197.785Z" fill="#92723A"/>
<path fill-rule="evenodd" clip-rule="evenodd" d="M151.017 198.022C151.017 198.022 150.851 198.137 151.184 198.361C151.133 198.432 151.017 198.675 150.87 198.835C150.704 199.027 150.531 199.149 150.461 199.309C150.314 199.648 150.198 199.885 150.198 200.025C150.198 200.166 150.147 201.101 149.744 201.702C149.597 201.913 149.43 202.278 149.315 202.515C149.072 202.944 148.861 203.283 148.809 203.475C148.714 203.814 148.643 204.749 148.643 204.749C148.643 204.749 148.854 204.486 148.938 204.39C148.822 204.633 148.694 204.896 148.509 205.088C148.624 204.992 148.963 204.749 149.539 204.243C150.333 203.571 151.581 202.445 153.091 201.555C152.637 201.722 152.246 201.722 151.933 201.766C152.176 201.523 154.358 198.963 155.504 198.72C155.574 198.63 155.606 198.521 155.6 198.406L154.621 198.31L152.63 198.739L152.342 197.203L151.017 198.022Z" fill="#B18E3E"/>
<path fill-rule="evenodd" clip-rule="evenodd" d="M154.185 206.758C154.185 206.758 153.923 207.02 153.68 207.673C153.494 207.481 153.334 207.257 153.206 207.02C152.848 206.419 152.297 205.651 151.004 206.086C150.985 205.676 150.953 205.465 151.004 205.171C151.216 205.12 151.868 204.601 152.521 203.833C152.976 203.308 153.405 202.707 153.699 201.939C153.891 201.792 154.224 201.548 154.659 201.267C155.28 200.838 156.029 200.256 156.144 199.609C155.849 199.724 155.229 200.019 154.3 199.968C154.659 199.801 155.216 199.628 155.145 198.912C155.292 198.816 155.408 198.745 155.408 198.745C155.299 198.707 155.184 198.694 155.068 198.694C155.049 198.623 155.017 198.528 154.857 198.579C154.697 198.63 154.665 198.63 154.646 198.694C154.576 198.713 154.352 198.694 154.192 198.809C154.032 198.924 153.571 199.315 153.398 199.379C153.469 199.264 153.564 199.091 153.564 199.091C153.564 199.091 153.091 199.142 152.752 199.283C152.131 199.494 151.414 199.884 150.685 200.262C150.755 200.147 150.78 200.07 150.832 200.051C150.883 200.031 150.998 200 150.998 199.98C150.998 199.961 150.947 199.788 150.979 199.718C151.197 199.257 151.452 198.816 151.747 198.4C152.086 197.945 152.157 197.292 152.157 197.292L153.641 196.544L157.814 195.584L160.521 195.75L160.182 197.625L158.582 200.896L157.213 203.878L155.651 205.702L154.185 206.758Z" fill="#543E26"/>
<path fill-rule="evenodd" clip-rule="evenodd" d="M160.95 198.649C160.95 198.649 159.318 200.665 158.864 200.979C159.158 200.358 160.95 196.659 161.603 195.628C161.456 195.513 161.264 195.513 161.718 193.708C161.328 194.617 161.193 195.097 160.873 195.34C160.553 195.584 160.515 195.507 160.297 195.507C160.336 195.43 160.355 195.347 160.348 195.264C160.348 195.264 158.979 195.097 158.045 195.097C157.11 195.097 155.261 195.603 154.23 196.012C153.417 196.352 152.956 196.352 152.668 196.563C152.374 196.806 152.214 197.068 152.067 197.139C151.952 197.209 151.395 197.382 151.273 197.568C151.158 197.76 150.966 197.977 150.966 198.022C150.966 198.067 150.915 198.137 151.062 198.092C151.113 198.073 151.472 197.881 151.875 197.638C152.425 197.324 153.097 196.966 153.584 196.755C154.973 196.204 155.408 196.3 156.028 196.179C156.681 196.063 157.609 195.788 158.23 195.788C158.851 195.769 160.029 195.788 160.297 195.84C160.182 195.936 160.086 196.051 160.131 196.46C160.131 196.576 160.035 196.703 159.939 196.985C159.651 197.779 159.094 199.103 158.787 199.769C158.358 200.678 157.878 201.446 157.635 201.926C157.392 202.406 156.867 203.654 156.342 204.326C155.817 204.998 155.549 205.401 155.382 205.548C155.216 205.696 154.044 206.559 154.128 206.867C154.339 206.796 155.689 206.291 156.669 205.19C157.648 204.089 157.846 203.411 158.608 202.809C159.369 202.208 159.977 201.196 160.336 200.364C160.643 199.583 160.579 199.34 160.95 198.649Z" fill="#806031"/>
<path fill-rule="evenodd" clip-rule="evenodd" d="M125.795 213.721C125.795 213.721 125.584 214.605 125.097 215.04C124.624 215.468 123.779 215.833 123.683 216.556C123.568 217.273 124.528 217.632 124.528 217.632C124.528 217.632 124.003 218.496 124.003 219.149C124.003 219.821 123.984 219.942 124.054 220.588C123.977 220.64 123.913 220.704 123.862 220.78C123.862 220.78 123.913 221.401 124.387 221.792C124.86 222.182 125.27 222.412 125.513 222.316C125.552 222.393 125.584 222.476 125.609 222.56C125.609 222.56 125.967 221.644 126.211 220.851C126.454 220.038 126.665 220.153 126.761 219.052C126.857 217.952 127.913 216.07 127.913 216.07L128.63 214.464L127.459 213.548L125.795 213.721Z" fill="#B6903C"/>
<path fill-rule="evenodd" clip-rule="evenodd" d="M127.984 215.302C127.741 215.552 127.517 215.814 127.312 216.096C127.005 216.525 126.762 216.909 126.301 217.075C125.84 217.242 125.552 217.242 125.584 217.696C125.616 218.15 126.038 218.349 126.281 218.579C126.544 218.822 126.755 219.232 126.64 219.686C126.787 219.616 127.05 219.539 127.293 219.014C127.536 218.49 129.232 215.296 129.232 215.296L127.984 215.302Z" fill="#685026"/>
<path fill-rule="evenodd" clip-rule="evenodd" d="M134.672 207.935C134.672 207.935 134.819 207.545 134.672 207.263C134.525 206.975 133.642 206.873 133.207 206.546C132.752 206.207 132.195 205.97 131.741 206.118C131.811 205.951 132.08 205.593 131.856 205.516C131.645 205.446 130.845 205.804 130.634 205.97C130.423 206.137 129.936 206.329 129.84 206.444C129.744 206.559 129.578 206.783 129.482 206.687C129.386 206.617 129.335 206.444 129.175 206.54C129.014 206.636 128.208 207.289 128.061 207.673C127.914 208.057 127.587 208.895 126.595 209.855C125.603 210.815 125.175 211.436 125.469 211.795C125.763 212.153 125.898 211.891 125.942 212.204C125.981 212.511 125.962 212.818 125.891 213.119C125.776 213.625 125.584 214.099 125.84 214.195C126.512 214.406 127.159 214.003 127.306 214.124C127.594 214.386 127.139 215.327 127.831 215.513C128.528 215.705 129.219 215.347 129.219 215.347L131.76 213.977L134.205 212.684L135.459 210.207L134.787 208.14L134.672 207.935Z" fill="#D4B968"/>
<path fill-rule="evenodd" clip-rule="evenodd" d="M132.272 213.849C132.272 213.849 131.843 213.197 132.368 212.627C132.892 212.057 133.641 211.814 133.929 211.456C133.871 211.385 133.801 211.334 133.718 211.309C133.91 210.963 134.204 210.681 134.563 210.509C134.416 210.362 134.223 210.246 134.012 210.246C133.539 210.246 133.244 210.534 132.809 210.534C132.38 210.534 132.335 210.323 132.335 210.323C132.335 210.323 133.052 210.253 132.988 209.933C132.918 209.593 132.796 209.593 132.796 209.593C132.796 209.593 134.185 209.017 134.428 208.71C134.671 208.403 134.64 208.038 134.691 207.897C134.857 207.897 135.817 207.392 136.207 207.609C136.598 207.827 136.323 208.403 136.323 208.403C136.323 208.403 137.5 207.52 138.095 206.656C138.62 206.707 138.863 206.297 139.248 206.297C139.721 206.297 140.47 206.95 140.617 208.333C140.713 209.126 140.86 209.587 140.713 210.995C140.643 211.789 140.662 213.491 140.905 214.336C141.072 215.008 141.456 214.937 141.456 214.937C141.398 215.142 141.276 215.322 141.116 215.462C140.854 215.705 140.822 216.345 140.854 216.589C140.892 216.768 140.944 216.941 141.001 217.113C141.001 217.113 140.694 217.472 140.611 217.715C140.54 217.958 140.22 218.125 139.99 218.125C139.76 218.125 139.875 218.105 139.561 218.125C139.248 218.144 139.151 218.195 138.96 218.125C138.767 218.054 138.62 217.977 138.697 217.357C138.767 216.736 136.297 215.289 136.297 215.289L132.265 213.849H132.272Z" fill="#CCA849"/>
<path fill-rule="evenodd" clip-rule="evenodd" d="M127.638 219.98C127.638 219.98 128.522 221.158 132.15 221.158C133.878 221.158 134.48 220.991 134.838 220.895C135.229 220.799 136.681 220.223 138.147 218.495C139.466 216.934 139.177 216.294 139.177 216.294L138.409 216.178L135.913 216.518L128.528 219.666L127.638 219.98Z" fill="#585136"/>
<path fill-rule="evenodd" clip-rule="evenodd" d="M130.352 220.274C130.352 220.274 127.203 220.972 127.203 218.982C127.203 217.043 129.142 215.001 129.628 214.643C130.134 214.284 131.337 213.875 131.337 213.875H134.243L134.793 215.34L134.55 218.508L130.352 220.274Z" fill="#252211"/>
<path fill-rule="evenodd" clip-rule="evenodd" d="M133.251 214.47C133.251 214.47 132.649 213.913 131.28 214.662C129.91 215.411 128.803 216.966 128.733 218.38C128.662 219.635 129.763 220.563 131.472 220.614C132.746 220.665 133.513 220.518 133.898 220.422C133.801 220.307 133.296 219.673 133.296 219.673L133.251 214.47Z" fill="#C3B378"/>
<path fill-rule="evenodd" clip-rule="evenodd" d="M132.662 214.777C132.662 214.777 132.515 214.662 132.086 214.892C131.727 215.084 131.203 215.59 130.793 215.948C130.53 216.159 130.364 216.256 130.217 216.422C129.615 217.139 129.11 218.316 129.404 218.899C129.699 219.481 130.658 220.153 133.103 219.692L132.655 214.771L132.662 214.777Z" fill="#E6D89C"/>
<path fill-rule="evenodd" clip-rule="evenodd" d="M131.862 215.98C131.862 215.98 131.471 216.582 131.471 217.542C131.471 218.521 132.028 220.083 134.063 220.204C135.625 220.3 136.674 217.951 137.807 217.036C138.671 216.339 139.196 216.319 139.196 216.319C139.196 216.319 138.313 215.359 135.951 214.118C133.622 212.864 131.01 212.697 129.59 214.623C130.262 214.572 132.425 214.022 132.425 214.022L133.481 214.361L131.862 215.98Z" fill="#252211"/>
<path fill-rule="evenodd" clip-rule="evenodd" d="M134.915 217.253C134.844 217.106 134.8 216.914 135.081 216.863C135.363 216.812 135.491 216.844 135.587 217.055C135.683 217.266 135.779 217.445 135.638 217.528C135.484 217.612 135.107 217.535 134.915 217.253ZM134.454 215.884C134.454 215.884 134.358 215.954 134.403 215.813C134.422 215.647 134.55 215.359 134.857 215.423C135.164 215.487 135.1 215.833 135.049 215.929C134.998 216.025 134.742 216.191 134.544 216.12C134.454 216.101 134.403 216.012 134.428 215.922C134.435 215.909 134.447 215.896 134.454 215.884Z" fill="#6F674D"/>
<path fill-rule="evenodd" clip-rule="evenodd" d="M108.176 216.505C108.176 216.505 108.944 217.081 109.833 217.062C110.716 217.043 111.849 216.128 112.374 215.545C112.681 215.206 112.95 214.848 113.238 214.566C113.481 214.323 113.648 214.208 113.763 214.041C113.929 213.849 114.102 213.491 114.192 213.369C113.98 213.536 113.667 213.824 113.347 214.022C113.04 214.214 112.368 214.572 112.093 214.675C111.83 214.771 109.11 216.211 109.11 216.211L108.176 216.505Z" fill="#AC924C"/>
<path fill-rule="evenodd" clip-rule="evenodd" d="M109.347 209.331C109.347 209.331 109.775 209.042 110.601 208.857C111.395 208.665 113.001 208.518 113.001 208.518L114.319 209.094L114.844 211.084L113.884 213.151L112.662 213.919L111.273 211.686L109.347 209.331Z" fill="#9F8E57"/>
<path fill-rule="evenodd" clip-rule="evenodd" d="M107.619 211.11L107.164 211.449C107.164 211.449 107.28 211.238 107.376 210.585C107.472 209.932 107.977 208.352 108.713 207.436C109.449 206.521 109.43 206.573 109.43 206.573C109.296 206.547 109.149 206.585 109.04 206.669C109.136 206.451 109.757 205.683 110.377 205.299C110.998 204.915 111.241 204.793 111.894 205.107C112.547 205.421 112.707 205.581 113.187 205.561C113.667 205.542 114.07 205.037 114.07 205.037C114.07 205.037 114.166 205.344 113.808 206.067C113.449 206.79 112.029 208.249 112.029 208.249L109.078 210.265L107.619 211.11Z" fill="#EAC970"/>
<path fill-rule="evenodd" clip-rule="evenodd" d="M109.808 209.088C109.808 209.088 111.945 209.376 112.592 208.78C112.611 208.851 112.688 208.851 112.688 208.896C112.681 208.934 112.668 208.966 112.637 208.992C112.707 208.979 112.777 208.973 112.848 208.973C112.931 208.998 113.02 209.017 113.11 209.024C113.18 209.024 113.251 209.017 113.321 209.005C113.308 209.1 113.257 209.19 113.174 209.248C113.27 209.248 113.366 209.267 113.366 209.344C113.366 209.421 113.385 209.657 113.27 209.702C113.174 209.728 113.072 209.721 112.982 209.683C112.989 209.869 113.04 210.048 113.129 210.208C113.321 210.566 113.731 210.976 114.281 210.861C114.281 210.861 114.569 211.558 113.347 213.113C113.18 213.324 113.008 213.619 112.796 213.862C112.713 214.048 112.649 214.24 112.605 214.438C112.605 214.438 114.672 213.644 115.267 211.827C115.868 210.003 115.984 208.204 115.868 206.528C115.849 206.054 115.773 205.715 115.657 205.472C115.369 204.87 114.55 204.966 114.217 205.305C113.744 205.779 112.944 206.963 111.836 207.782C110.717 208.582 110.665 208.729 109.808 209.088Z" fill="#D7BC6B"/>
<path fill-rule="evenodd" clip-rule="evenodd" d="M107.242 211.712C107.242 211.712 106.832 211.955 106.621 212.864C106.409 213.798 106.813 214.931 107.049 215.289C107.286 215.648 107.817 216.627 108.925 216.678C109.2 216.678 109.469 216.621 109.718 216.512C110.102 216.333 110.467 216.109 110.793 215.84C111.267 215.481 111.658 215.168 111.606 215.142C111.491 215.091 108.675 212.761 108.675 212.761L107.619 211.577L107.242 211.712Z" fill="#585136"/>
<path fill-rule="evenodd" clip-rule="evenodd" d="M109.904 215.577C109.904 215.577 110.48 215.526 110.819 215.314C111.158 215.103 108.828 212.793 108.828 212.793L108.995 215.289L109.904 215.577Z" fill="#453A25"/>
<path fill-rule="evenodd" clip-rule="evenodd" d="M107.427 211.532C107.427 211.532 107.139 212.088 107.139 212.229C107.088 212.703 107.235 214.201 107.35 214.674C107.466 215.18 108.099 215.948 108.912 215.948C109.418 215.948 110.115 215.64 110.115 215.557C110.115 215.461 109.399 215.365 109.2 215.001C109.085 214.808 109.034 214.328 109.008 213.849C108.989 213.541 108.989 213.196 109.104 213.08C109.367 212.793 109.411 211.954 109.411 211.954L110.346 210.226H109.117L107.651 211.141L107.427 211.532Z" fill="#84754B"/>
<path fill-rule="evenodd" clip-rule="evenodd" d="M107.069 212.07C107.069 212.07 108.029 210.797 108.893 210.509C109.757 210.221 110.147 210.393 110.147 210.393L109.642 211.686L108.925 212.48L108.976 212.889C108.976 212.889 108.861 213.965 109.578 214.713C110.294 215.462 110.832 215.43 111.139 215.43C111.446 215.43 112.342 215.168 112.797 214.092C113.206 213.081 113.546 211.789 112.726 210.489C111.927 209.197 110.525 209.145 110.25 209.145C109.974 209.145 107.843 209.254 107.069 212.07Z" fill="#252211"/>
<path fill-rule="evenodd" clip-rule="evenodd" d="M131.715 216.39C131.356 216.224 131.696 215.219 132.054 214.905C132.412 214.592 132.867 214.233 133.667 214.189C133.955 214.17 134.237 214.355 134.192 214.547C134.121 214.905 133.616 215.411 133.161 215.769C132.534 216.262 132.124 216.576 131.715 216.39Z" fill="#F7F7E7"/>
<path fill-rule="evenodd" clip-rule="evenodd" d="M112.304 210.886C112.566 210.867 112.905 211.078 112.976 211.36C113.046 211.667 112.809 212.294 112.304 212.294C111.894 212.294 111.683 211.789 111.683 211.641C111.689 211.52 111.721 211.405 111.779 211.302C111.798 211.27 111.843 210.931 112.304 210.886Z" fill="#F8F6DE"/>
<path fill-rule="evenodd" clip-rule="evenodd" d="M108.515 211.11C108.515 211.11 107.843 211.417 107.536 212.07C107.312 212.55 107.248 213.088 107.344 213.606C107.395 213.849 107.632 214.451 107.798 214.662C107.965 214.873 108.189 215.02 108.355 215.001C108.522 214.982 108.861 214.547 108.861 214.284C108.861 214.022 108.88 212.915 109.2 212.313C109.475 211.711 108.515 211.11 108.515 211.11Z" fill="#D4C38B"/>
<path fill-rule="evenodd" clip-rule="evenodd" d="M108.611 211.059C108.495 211.129 108.303 211.225 108.348 211.347C108.399 211.462 108.802 211.539 108.95 211.82C109.116 212.109 109.116 212.422 109.065 212.569C109.193 212.512 109.308 212.428 109.404 212.326C109.615 212.083 109.878 211.756 110.102 211.756C110.249 211.756 110.39 211.827 110.531 211.827C110.742 211.827 110.959 211.756 110.985 211.539C111.036 211.251 110.575 210.982 110.313 211.033C110.364 210.841 110.428 210.56 110.217 210.361C110.006 210.163 109.334 210.508 109.186 210.604C109.039 210.701 108.611 211.059 108.611 211.059Z" fill="#E2D59D"/>
<path fill-rule="evenodd" clip-rule="evenodd" d="M124.042 231.456L125.482 231.034L125.891 231.321C125.891 231.321 126.179 231.942 126.64 232.019C126.493 232.326 126.115 232.595 126.134 232.813C126.154 233.03 126.346 233.203 126.346 233.203C126.346 233.203 125.053 235.341 127.6 237.491C126.999 237.734 126.23 238.067 125.821 238.259C126.109 238.33 126.73 238.451 126.992 238.688C127.254 238.925 127.254 238.995 127.498 239.142C127.741 239.29 127.888 239.482 127.837 239.571C127.671 239.475 127.12 239.181 127.024 239.456C126.928 239.731 124.624 239.622 124.624 239.622L120.739 240.371C120.739 240.371 120.886 239.981 120.477 239.622C120.003 239.193 119.421 239.642 118.8 239.168C117.987 238.547 117.955 237.83 117.693 237.555C117.955 237.389 118.487 237.146 119.76 236.979C119.709 236.883 119.549 236.589 119.645 236.326C119.76 235.987 120.247 235.77 120.099 235.366C120.31 235.315 120.407 235.315 120.944 234.649C121.45 233.977 121.757 233.837 122.147 233.786C122.538 233.734 122.768 233.786 123.485 233.114C123.991 232.64 123.824 232.23 123.824 232.23C123.824 232.23 124.157 232.128 124.042 231.456Z" fill="#CBAC5A"/>
<path fill-rule="evenodd" clip-rule="evenodd" d="M119.798 231.672C119.817 231.577 119.894 231.525 120.419 231.577C120.944 231.628 124.265 231.269 125.168 231.218C126.083 231.148 129.296 231.199 130.857 231.525C132.419 231.852 134.006 232.242 134.768 232.44C135.536 232.652 135.779 232.729 135.747 232.831C135.728 232.927 135.555 233.023 135.459 232.997C135.363 232.978 132.816 232.204 132.035 232.037C131.254 231.871 128.528 231.436 127.043 231.461C125.654 231.481 125.104 231.442 123.926 231.577C122.748 231.724 120.809 231.916 120.227 231.839C119.644 231.768 119.766 231.768 119.798 231.672Z" fill="#D6BC6F"/>
<path fill-rule="evenodd" clip-rule="evenodd" d="M127.612 239.282C127.612 239.282 129.603 240.357 130.32 241.682C130.844 242.661 130.012 243.148 130.012 243.148C130.012 243.148 131.139 243.148 130.992 243.769C130.921 244.159 129.052 245.202 127.798 245.759C126.524 246.316 126.576 246.284 125.955 246.38C125.353 246.476 123.702 246.188 123.363 246.674C123.023 247.161 123.171 247.653 123.267 247.73C123.363 247.8 124.15 247.897 124.15 247.897C124.15 247.897 123.984 248.351 122.352 248.402C120.72 248.453 120.31 248.569 120.214 248.741C120.118 248.908 120.521 248.812 121.27 248.933C122.019 249.048 123.068 249.125 123.068 249.125C123.068 249.125 122.729 249.42 121.846 249.65C120.835 249.913 119.254 250.156 118.78 250.444C119.024 250.61 119.382 250.853 119.548 250.873C119.139 250.969 118.569 251.186 118.473 251.263C118.621 251.359 118.812 251.474 118.812 251.474C118.812 251.474 117.993 252.453 117.52 252.697C117.046 252.94 114.307 254.213 113.366 253.97C111.017 253.349 110.723 250.776 110.153 250.584C109.289 250.29 108.88 250.873 108.112 250.469C108.451 250.226 108.636 250.079 108.995 249.919C108.604 249.727 106.595 248.453 106.595 248.453C106.384 247.993 106.153 247.551 105.897 247.116C105.507 246.444 104.937 245.554 104.508 244.767C103.574 243.039 103.529 242.245 102.684 241.26C102.832 241.068 103.337 241.093 103.337 241.093L110.415 243.423L122.966 243.788L126.23 239.128L127.612 239.282Z" fill="#DFC677"/>
<path fill-rule="evenodd" clip-rule="evenodd" d="M109.02 246.387C109.097 246.47 109.187 246.541 109.283 246.598C109.526 246.765 109.884 246.957 110.128 247.251C110.224 247.104 110.467 246.842 110.895 247.251C111.324 247.661 111.855 247.366 112.188 247.462C112.527 247.578 112.547 247.629 112.547 247.629C112.547 247.629 112.739 247.462 113.167 247.289C113.43 247.194 113.744 247.123 114.083 247.027C114.39 246.957 114.735 246.861 114.966 246.861C115.177 247.008 115.945 247.821 119.024 246.618C121.929 245.491 122.595 245.363 123.081 245.542C123.132 245.427 123.177 245.203 123.926 245.235C123.926 244.928 123.305 243.866 123.305 243.866L119.881 242.694H118.006L112.387 243.725L109.264 245.498L109.02 246.387Z" fill="#C4A859"/>
<path fill-rule="evenodd" clip-rule="evenodd" d="M107.146 244.422C107.146 244.422 107.216 244.947 107.99 245.497C108.758 246.048 109.001 246.38 109.001 246.38C109.001 246.38 109.149 246.189 109.264 245.99C109.379 245.779 109.475 245.536 109.673 245.465C110.064 245.299 110.947 245.613 111.139 245.561C111.306 245.51 111.254 245.171 111.427 245.171C111.837 245.152 112.099 245.433 112.24 245.433C112.381 245.433 112.745 245.414 112.79 245.337C112.835 245.261 112.861 244.454 113.411 244.064C114.013 243.635 114.749 243.82 114.947 243.917C114.947 244.064 114.966 244.422 115.357 244.441C115.747 244.46 115.786 244.39 116.125 244.512C116.464 244.633 116.874 244.492 117.059 245.062C117.225 245.011 117.616 244.966 117.513 244.409C117.706 244.262 117.872 244.166 118.282 243.597C118.378 243.449 118.544 243.289 118.672 243.072C119.011 243.072 119.421 243.001 119.965 243.481C119.798 243.597 119.702 243.673 119.658 243.789C119.798 243.929 119.926 244.083 120.048 244.243C120.195 244.435 120.291 244.672 120.477 244.716C120.886 244.832 121.552 244.665 122.301 244.716C123.017 244.768 123.619 245.024 123.881 245.19C123.977 245.139 123.978 245.12 124.221 245.171C124.464 245.222 124.65 245.241 124.387 244.928C124.534 244.998 124.694 245.139 124.841 244.998C124.989 244.857 125.104 244.64 125.513 244.589C125.923 244.537 126.07 244.608 126.23 244.179C126.441 243.654 125.706 243.654 125.706 243.654C125.706 243.654 126.045 243.341 126.422 242.937C126.877 242.508 127.401 241.958 127.53 241.28C127.741 240.025 126.518 239.865 126.518 239.865L120.585 241.689L113.334 241.331L107.146 244.422Z" fill="#927D49"/>
<path fill-rule="evenodd" clip-rule="evenodd" d="M101.814 227.283C101.814 227.283 101.622 227.526 101.5 228.096C101.379 228.665 101.43 228.601 101.334 229.011C101.238 229.421 100.048 233.478 100.496 234.848C100.944 236.217 101.718 236.723 102.204 237.83C102.3 238.074 102.396 238.221 102.448 238.432C102.614 239.149 102.467 239.705 102.659 240.422C102.729 240.665 102.902 240.947 103.164 241.235C103.74 241.837 104.681 242.406 105.084 242.816C105.654 243.417 106.473 244.64 107.51 244.755C108.067 244.825 108.848 244.589 109.5 244.205C110.076 243.846 110.435 243.341 111.036 243.053C111.465 242.841 111.92 242.758 112.329 242.662C113.174 242.496 113.942 242.47 114.396 242.566C115.094 242.713 116.745 243.219 117.66 243.219C118.377 243.206 119.088 243.11 119.779 242.925C121.168 242.515 122.844 241.817 123.952 241.504C124.604 241.312 125.123 241.261 125.66 241.145C126.576 240.934 127.337 240.64 127.779 240.089C127.491 239.75 127.126 239.226 125.187 239.245C122.985 239.296 120.438 240.518 119.184 240.71C117.929 240.902 117.385 241.069 115.99 240.563C114.62 240.051 114.576 239.718 114.576 239.718C114.576 239.718 113.136 238.713 112.534 236.147C111.932 233.581 112.534 231.712 114.096 229.933C114.505 229.478 114.403 229.069 114.403 229.069C114.403 229.069 115.433 227.68 115.152 226.381C114.844 225.088 112.848 225.35 112.848 225.35L101.814 227.283Z" fill="#6E6342"/>
<path fill-rule="evenodd" clip-rule="evenodd" d="M103.479 231.602C103.395 231.762 103.35 231.942 103.363 232.127C103.382 232.39 103.459 232.729 104.246 233.497C104.918 234.169 104.771 234.911 104.771 234.911C104.771 234.911 105.11 234.982 106.026 234.553C106.742 234.214 106.986 234.815 106.986 234.815C107.197 234.706 107.421 234.636 107.658 234.604C107.869 234.585 108.074 234.521 108.259 234.412C108.259 234.412 109.104 235.276 109.84 235.686C110.512 236.044 110.896 236.287 111.229 236.044C111.536 235.833 111.536 235.391 111.517 235.199C111.44 235.02 111.344 234.854 111.229 234.694C111.018 234.386 110.672 234.022 110.653 233.734C110.602 233.062 111.158 232.268 111.043 232.076C110.928 231.884 110.493 231.833 109.411 232.223C108.285 232.588 103.472 231.602 103.479 231.602Z" fill="#39331F"/>
<path fill-rule="evenodd" clip-rule="evenodd" d="M106.019 235.942C106.019 235.942 105.468 235.417 105.66 232.877C105.897 232.87 106.127 232.896 106.358 232.947C106.358 232.941 106.658 234.912 106.019 235.942Z" fill="#292311"/>
<path fill-rule="evenodd" clip-rule="evenodd" d="M102.077 225.343C102.153 225.285 102.224 225.221 102.288 225.151C102.096 225.51 101.206 226.949 101.929 229.209C102.646 231.462 104.451 233.138 106.678 233.221C108.905 233.305 110.07 232.21 111.408 230.578C111.933 229.925 112.534 229.113 113.065 228.562C113.859 227.698 114.486 227.455 114.486 226.623C114.486 224.914 112.739 224.146 110.166 223.378C107.594 222.61 105.27 222.706 104.067 223.231C102.896 223.794 102.39 224.396 102.077 225.343Z" fill="#252211"/>
<path fill-rule="evenodd" clip-rule="evenodd" d="M110.338 236.71L110.53 236.614C110.53 236.614 110.581 235.846 110.889 235.865C111.196 235.917 111.343 236.32 111.317 236.467C111.298 236.614 111.222 236.857 110.908 236.826C110.498 236.838 110.338 236.71 110.338 236.71Z" fill="#3F3824"/>
<path fill-rule="evenodd" clip-rule="evenodd" d="M109.475 233.446C109.475 233.446 109.667 233.376 109.904 233.613C110.096 233.613 110.935 233.517 111.197 233.683C111.459 233.85 111.536 233.99 111.536 233.99C111.536 233.99 110.557 234.202 110.019 233.99C109.475 233.805 109.475 233.446 109.475 233.446Z" fill="#2D2815"/>
<path fill-rule="evenodd" clip-rule="evenodd" d="M113.795 233.593C113.795 233.542 113.27 233.184 112.72 233.069C112.624 233.049 112.604 233.12 112.528 233.12C112.477 233.101 112.457 232.954 112.457 232.954L112.144 233.12C112.144 233.12 112.092 233.19 112.259 233.312C112.406 233.427 112.649 233.523 112.713 233.721C112.777 233.92 112.784 233.984 112.809 234.009C112.828 234.029 113.168 234.009 113.334 233.913C113.501 233.817 113.814 233.657 113.795 233.593Z" fill="#82764F"/>
<path fill-rule="evenodd" clip-rule="evenodd" d="M108.893 235.564C108.893 235.564 108.989 234.892 109.642 234.866C110.313 234.815 110.435 235.468 110.435 235.468L110.045 235.858C110.051 235.846 109.757 235.436 108.893 235.564Z" fill="#2D2816"/>
<path fill-rule="evenodd" clip-rule="evenodd" d="M113.117 232.678C113.117 232.678 112.758 233.068 111.965 233.183C111.894 233.087 111.754 232.895 111.965 232.582C112.176 232.268 112.419 232.172 112.662 232.268C112.88 232.306 113.059 232.466 113.117 232.678Z" fill="#574F35"/>
<path fill-rule="evenodd" clip-rule="evenodd" d="M114.582 233.157C114.601 233.061 114.53 233.042 114.582 232.991C114.633 232.94 114.895 232.844 114.94 232.895C114.959 232.914 114.94 232.991 114.94 233.087C114.94 233.183 114.94 233.279 114.889 233.35C114.818 233.446 114.626 233.497 114.53 233.465C114.434 233.433 114.415 233.298 114.415 233.273C114.466 233.253 114.582 233.202 114.582 233.157ZM116.239 232.108C116.239 232.057 116.406 231.961 116.502 231.961C116.649 231.961 116.649 232.076 116.668 232.108C116.719 232.127 116.719 232.089 116.764 232.178C116.809 232.268 116.879 232.421 116.835 232.517C116.79 232.614 116.591 232.684 116.546 232.665C116.476 232.614 116.258 232.178 116.239 232.108Z" fill="#82764F"/>
<path fill-rule="evenodd" clip-rule="evenodd" d="M112.905 233.382C112.905 233.382 113.117 233.433 113.411 233.67C113.315 233.74 113.168 233.817 113.168 233.817C113.168 233.817 113.149 233.593 112.905 233.382Z" fill="#6E6342"/>
<path fill-rule="evenodd" clip-rule="evenodd" d="M112.426 231.244C112.375 231.193 112.573 231.078 112.688 231.097C112.803 231.116 112.854 231.193 112.976 231.212C113.098 231.232 113.123 231.161 113.168 231.116C113.213 231.072 113.379 231.097 113.411 231.116C113.43 231.136 113.443 231.161 113.462 231.187C113.469 231.11 113.501 231.04 113.559 230.995C113.635 230.937 113.731 230.924 113.821 230.944C113.84 231.014 113.936 231.251 113.917 231.302C113.898 231.353 113.61 231.417 113.559 231.372C113.61 231.488 113.821 231.731 113.847 231.782C113.872 231.833 113.635 231.948 113.539 231.929C113.405 231.916 112.573 231.43 112.426 231.244ZM113.699 229.632C113.68 229.58 113.648 229.542 113.603 229.516C113.533 229.497 113.315 229.516 113.315 229.632C113.315 229.747 113.507 230.4 113.725 230.739C113.968 231.078 114.135 231.36 114.301 231.436C114.41 231.488 114.538 231.443 114.589 231.34C114.608 231.289 114.659 230.931 114.64 230.086C114.621 229.241 114.589 228.428 114.544 228.377C114.499 228.326 114.301 228.326 114.237 228.428C114.173 228.531 113.718 229.484 113.699 229.632Z" fill="#585136"/>
<path fill-rule="evenodd" clip-rule="evenodd" d="M112.835 234.604C112.835 234.604 112.495 234.393 112.162 234.533C111.855 234.681 111.874 235.25 111.874 235.25C112.015 235.308 112.175 235.289 112.303 235.199C112.514 235.058 112.783 234.815 112.835 234.604Z" fill="#574F35"/>
<path fill-rule="evenodd" clip-rule="evenodd" d="M113.475 235.372C113.456 235.18 113.283 235.18 113.283 235.084C113.309 234.988 113.398 234.918 113.494 234.918C113.59 234.918 113.686 235.033 113.808 235.11C113.923 235.18 114.096 235.302 114.115 235.449C114.134 235.596 113.923 235.999 113.686 235.999C113.45 235.999 113.526 235.564 113.475 235.372ZM115.35 235.11C115.35 235.11 114.96 235.225 114.992 235.11C115.024 234.994 115.107 234.963 115.235 234.963C115.299 234.898 115.382 234.854 115.478 234.847C115.529 234.847 115.581 234.86 115.626 234.898C115.626 234.898 115.888 234.783 115.965 234.847C116.041 234.911 115.984 234.918 116.035 234.994C116.099 235.084 116.138 235.18 116.15 235.283C116.15 235.359 115.862 235.526 115.626 235.494C115.35 235.436 115.395 235.154 115.35 235.11ZM117.61 234.668C117.61 234.668 117.725 234.738 117.629 234.815C117.558 234.886 117.219 235.007 116.931 235.027C116.643 235.027 116.381 235.078 116.381 234.975C116.381 234.873 116.624 234.687 116.771 234.636C116.829 234.559 116.918 234.521 117.014 234.521C117.129 234.521 117.584 234.47 117.712 234.451C117.827 234.431 117.923 234.502 117.859 234.598C117.827 234.668 117.61 234.668 117.61 234.668ZM118.282 231.673C118.282 231.673 118.134 231.98 117.974 231.98C117.808 231.961 117.808 231.91 117.808 231.865C117.808 231.795 117.974 231.622 117.955 231.577C117.904 231.577 117.789 231.577 117.808 231.462C117.808 231.366 117.974 231.251 118.115 231.27C118.224 231.18 118.365 231.129 118.506 231.123C118.672 231.123 118.813 231.174 118.813 231.27C118.813 231.366 118.621 231.577 118.55 231.628C118.473 231.705 118.377 231.756 118.282 231.673ZM116.067 237.414C116.067 237.414 115.875 237.433 115.875 237.529C115.875 237.58 115.926 237.58 115.99 237.548C116.029 237.548 116.067 237.542 116.105 237.529C116.125 237.548 116.125 237.644 116.272 237.644C116.393 237.625 116.509 237.587 116.611 237.529C116.726 237.478 116.822 237.433 116.822 237.337C116.771 237.171 116.675 237.094 116.534 237.094C116.457 237.087 116.387 237.107 116.323 237.145C116.323 237.145 116.272 237.049 116.112 237.145C115.952 237.241 115.965 237.241 116.016 237.292C116.099 237.363 116.067 237.414 116.067 237.414ZM114.973 238.419C114.973 238.367 115.216 238.271 115.28 238.303C115.35 238.323 115.542 238.694 115.542 238.732C115.542 238.783 115.299 238.899 115.203 238.899C115.107 238.899 114.941 238.732 114.941 238.706C114.941 238.687 115.056 238.655 115.056 238.636C115.088 238.591 114.973 238.47 114.973 238.419ZM114.205 237.004C114.256 236.985 114.256 236.934 114.32 236.889C114.365 236.863 114.416 236.851 114.467 236.87C114.499 236.806 114.563 236.767 114.633 236.755C114.749 236.735 114.845 236.755 114.826 236.806C114.826 236.953 114.921 237.049 114.921 237.164C114.921 237.279 114.851 237.427 114.614 237.523C114.371 237.593 114.038 237.593 113.993 237.574C113.949 237.554 113.897 237.363 113.942 237.26C113.987 237.158 114.121 237.049 114.205 237.004Z" fill="#82764F"/>
<path fill-rule="evenodd" clip-rule="evenodd" d="M114.51 237.068C114.51 237.068 114.345 237.164 114.345 237.216C114.332 237.26 114.326 237.311 114.326 237.363C114.326 237.388 114.535 237.344 114.567 237.311C114.58 237.292 114.51 237.12 114.51 237.068Z" fill="#6E6342"/>
<path fill-rule="evenodd" clip-rule="evenodd" d="M113.065 236.614C113.161 236.633 113.328 236.614 113.456 236.665C113.552 236.716 113.622 236.812 113.526 236.928C113.43 237.043 113.334 237.222 113.117 237.19C112.873 237.171 112.643 237.043 112.643 236.947C112.636 236.825 112.675 236.697 112.758 236.608C112.854 236.524 112.905 236.576 113.065 236.614Z" fill="#585136"/>
<path fill-rule="evenodd" clip-rule="evenodd" d="M112.95 236.71C112.95 236.71 112.643 236.953 112.56 237.068C112.464 237.184 111.984 237.785 111.843 237.913C111.894 237.83 111.946 237.747 112.009 237.67C111.818 237.791 111.677 237.977 111.6 238.195C111.485 238.553 112.253 238.752 112.752 238.892C113.251 239.033 113.45 239.084 113.45 239.084C113.264 238.803 113.104 238.508 112.976 238.201C112.784 237.747 112.688 237.695 112.809 237.484C112.906 237.273 113.053 237.126 113.053 236.959C113.002 236.806 112.95 236.71 112.95 236.71Z" fill="#574F35"/>
<path fill-rule="evenodd" clip-rule="evenodd" d="M101.884 237.478C101.954 237.49 102.025 237.49 102.095 237.478C102.242 237.458 103.753 236.902 105.34 237.004C106.524 237.074 107.702 237.266 108.847 237.58C110.838 238.105 113.314 239.142 114.914 239.737C115.343 239.903 115.759 240.191 116.067 240.306C117.289 240.78 117.34 240.78 118.057 240.908C118.902 241.023 119.766 240.742 120.668 240.55C121.775 240.306 123.67 240.191 125.327 239.948C125.865 239.871 126.396 239.756 126.908 239.59C126.908 239.59 125.59 240.908 122.422 241.388C121.142 241.58 119.842 241.599 118.556 241.439C117.545 241.343 116.879 241.196 116.374 241.049C115.798 240.882 114.626 240.447 113.18 240.089C112.169 239.826 111.042 239.634 109.756 239.391C106.569 238.802 103.113 238.13 101.884 237.478Z" fill="#252211"/>
<path fill-rule="evenodd" clip-rule="evenodd" d="M98.3132 231.474C97.5451 232.127 96.7329 232.748 95.9329 233.349L93.533 235.193C92.7201 235.794 91.9202 236.415 91.1074 237.017C90.2945 237.618 89.4753 238.188 88.6113 238.745C89.3794 238.092 90.1923 237.49 91.0115 236.901C91.8241 236.313 92.669 235.73 93.4562 235.129L95.8561 233.286C96.6818 232.684 97.4747 232.063 98.3132 231.474ZM94.0706 238.271C94.0706 238.271 94.9346 237.554 96.0097 236.543C97.3474 235.289 98.9923 233.689 99.5169 233.401L94.0706 238.271Z" fill="#CFB66C"/>
<path fill-rule="evenodd" clip-rule="evenodd" d="M94.0706 238.271C94.4994 237.842 94.9533 237.427 95.4078 237.017L96.1053 236.416C96.3164 236.224 96.5597 236.006 96.7773 235.795C97.2061 235.366 97.622 234.912 98.051 234.476C98.2622 234.259 98.4862 234.048 98.7228 233.856C98.8381 233.753 98.9725 233.664 99.1133 233.593C99.2286 233.523 99.3565 233.401 99.523 233.382C99.4269 233.529 99.3116 233.593 99.2093 233.721C99.094 233.817 98.9982 233.932 98.8957 234.028C98.6845 234.24 98.4412 234.438 98.2236 234.63C97.7692 235.02 97.2893 235.398 96.8349 235.801C96.3804 236.204 95.9517 236.646 95.4972 237.056C94.9981 237.478 94.5441 237.881 94.0706 238.271ZM99.875 234.387C99.875 234.387 96.7069 237.485 96.0606 237.99L99.875 234.387Z" fill="#CFB66C"/>
<path fill-rule="evenodd" clip-rule="evenodd" d="M99.875 234.387C99.5934 234.713 99.286 235.027 98.9597 235.321L97.9997 236.237C97.6861 236.544 97.3981 236.857 97.0654 237.171C96.726 237.465 96.4124 237.747 96.054 238.016L96.9886 237.101C97.302 236.793 97.6413 236.531 97.9676 236.217L98.902 235.302C99.222 234.982 99.5358 234.668 99.875 234.387ZM100.016 236.07C99.7212 236.883 99.3821 237.677 98.9852 238.451C98.1724 240.083 96.9436 242.118 96.4124 243.161L100.016 236.07Z" fill="#CFB66C"/>
<path fill-rule="evenodd" clip-rule="evenodd" d="M100.016 236.07C100.016 236.428 99.9196 236.742 99.8043 237.049C99.6892 237.363 99.5612 237.663 99.414 237.964C99.2668 238.259 99.1004 238.566 98.9403 238.847C98.7803 239.129 98.5819 239.417 98.4347 239.711L97.4557 241.44C97.1163 242.015 96.7836 242.598 96.4253 243.148C96.6683 242.527 97.0012 241.945 97.3085 241.369C97.6476 240.793 97.9613 240.217 98.2683 239.622C98.4219 239.327 98.5563 239.02 98.678 238.713C98.8252 238.399 98.966 238.111 99.0875 237.83C99.2347 237.523 99.35 237.228 99.4972 236.947C99.6571 236.639 99.7916 236.352 100.016 236.07Z" fill="#CFB66C"/>
<path fill-rule="evenodd" clip-rule="evenodd" d="M103.478 244.031C103.478 244.031 102.518 245.305 102.614 246.918C102.87 246.066 103.203 244.78 103.478 244.031ZM104.387 245.305C104.387 245.305 104.048 248.761 103.766 250.463C104.163 248.498 104.24 248.658 104.387 245.305ZM110.748 250.661C110.748 250.661 109.308 254.885 109.283 256.057C109.59 254.854 110.192 252.39 110.748 250.661Z" fill="#DEC270"/>
<path fill-rule="evenodd" clip-rule="evenodd" d="M114.109 243.768C114.109 243.768 116.438 247.615 118.186 250.892C117.712 249.241 116.624 246.213 114.109 243.768Z" fill="#CBAF59"/>
<path fill-rule="evenodd" clip-rule="evenodd" d="M120.368 249.427C121.648 251.686 122.8 254.016 123.824 256.409C123.632 254.758 123.107 251.936 120.368 249.427Z" fill="#E3C677"/>
<path fill-rule="evenodd" clip-rule="evenodd" d="M138.775 255.097C139.165 254.854 139.933 253.535 140.599 253.202C141.271 252.863 141.77 252.793 142.378 252.127C142.979 251.429 143.146 251.001 144.464 250.45C146.308 249.657 145.04 248.626 145.04 248.626C145.245 248.428 145.463 248.242 145.693 248.076C146.167 247.717 146.724 247.282 146.672 246.514C146.602 245.221 146.365 243.353 145.303 242.265C146.333 242.054 148.304 241.906 149.527 241.593C150.941 241.234 151.594 240.729 151.594 240.729C151.594 240.729 150.781 239.34 152.1 237.945C153.418 236.549 154.5 235.711 155.293 234.149C154.378 234.034 152.989 233.548 149.437 234.898C149.629 234.988 149.815 235.09 149.994 235.205C149.994 235.205 147.811 235.807 147.011 236.479C145.623 237.65 145.45 238.617 143.946 239.334C142.442 240.05 140.925 239.858 139.677 240.441C138.429 241.023 138.237 241.516 137.783 241.734C137.879 241.849 137.764 242.041 137.949 242.207C137.834 242.374 137.156 243.481 136.464 243.481C136.535 243.743 137.117 243.935 137.117 243.935C137.117 243.935 136.688 244.249 135.6 244.325C136.151 244.901 136.675 245.529 138.122 246.444C138.007 246.687 137.52 247.045 137.712 247.5C137.923 247.954 138.48 248.575 140.695 249.081C139.568 249.132 138.25 249.388 136.471 249.151C134.691 248.94 134.403 248.812 133.303 249.081C133.418 249.196 133.732 249.196 134 249.509C133.712 249.529 131.882 249.298 131.261 250.111C130.608 250.956 130.327 252.345 130.378 253.273C130.039 253.439 129.706 253.727 129.872 254.329C130.039 254.93 130.903 255.122 131.453 255.5C132.004 255.909 132.055 256.05 132.58 255.954C133.13 255.839 133.949 255.282 134.423 255.282C134.896 255.282 135.236 255.641 135.236 255.641C135.236 255.641 136.528 255.02 136.656 255.135C136.772 255.25 136.675 255.999 136.804 256.114C136.938 256.204 138.391 255.34 138.775 255.097Z" fill="#ECD592"/>
<path fill-rule="evenodd" clip-rule="evenodd" d="M166.998 216.242C160.931 200.575 145.929 197.669 145.929 197.669H103.132L103.299 213.631H111.824V249.273H103.132V265.202H144.745C154.774 265.202 162.812 255.122 162.812 255.122C175.689 236.857 166.998 216.242 166.998 216.242ZM144.969 244.389C144.969 244.389 141.705 249.1 138.153 249.1H131.049L130.883 213.676H140.003C140.003 213.676 144.227 214.559 147.177 222.917C147.177 222.911 151.088 234.879 144.969 244.389Z" fill="white" fill-opacity="0.8"/>
<path d="M241.392 261H228.818L228.901 254.506H241.392C245.693 254.506 249.278 253.61 252.145 251.818C255.013 249.998 257.164 247.461 258.597 244.208C260.059 240.926 260.79 237.094 260.79 232.71V229.028C260.79 225.582 260.376 222.521 259.549 219.847C258.722 217.144 257.508 214.869 255.909 213.022C254.31 211.147 252.352 209.727 250.036 208.762C247.747 207.797 245.114 207.314 242.136 207.314H228.57V200.779H242.136C246.079 200.779 249.677 201.441 252.931 202.765C256.185 204.061 258.983 205.949 261.327 208.431C263.699 210.885 265.518 213.863 266.787 217.365C268.055 220.839 268.689 224.755 268.689 229.111V232.71C268.689 237.066 268.055 240.995 266.787 244.497C265.518 247.972 263.685 250.936 261.286 253.39C258.915 255.844 256.047 257.733 252.683 259.056C249.347 260.352 245.583 261 241.392 261ZM233.078 200.779V261H225.096V200.779H233.078ZM327.049 228.987V232.792C327.049 237.314 326.483 241.368 325.353 244.952C324.222 248.537 322.596 251.584 320.472 254.093C318.349 256.602 315.799 258.518 312.821 259.842C309.87 261.165 306.562 261.827 302.894 261.827C299.337 261.827 296.07 261.165 293.092 259.842C290.142 258.518 287.577 256.602 285.399 254.093C283.248 251.584 281.58 248.537 280.394 244.952C279.209 241.368 278.616 237.314 278.616 232.792V228.987C278.616 224.465 279.195 220.426 280.353 216.869C281.539 213.284 283.207 210.237 285.358 207.728C287.508 205.191 290.059 203.261 293.009 201.937C295.987 200.614 299.255 199.952 302.812 199.952C306.479 199.952 309.788 200.614 312.738 201.937C315.716 203.261 318.267 205.191 320.39 207.728C322.54 210.237 324.181 213.284 325.312 216.869C326.47 220.426 327.049 224.465 327.049 228.987ZM319.149 232.792V228.904C319.149 225.32 318.777 222.149 318.032 219.392C317.315 216.634 316.254 214.318 314.847 212.443C313.441 210.568 311.718 209.148 309.677 208.183C307.665 207.218 305.376 206.735 302.812 206.735C300.33 206.735 298.083 207.218 296.07 208.183C294.085 209.148 292.375 210.568 290.941 212.443C289.535 214.318 288.446 216.634 287.674 219.392C286.902 222.149 286.516 225.32 286.516 228.904V232.792C286.516 236.404 286.902 239.603 287.674 242.388C288.446 245.145 289.549 247.475 290.983 249.378C292.444 251.253 294.167 252.673 296.153 253.638C298.165 254.603 300.413 255.085 302.894 255.085C305.486 255.085 307.789 254.603 309.801 253.638C311.814 252.673 313.51 251.253 314.889 249.378C316.295 247.475 317.357 245.145 318.074 242.388C318.79 239.603 319.149 236.404 319.149 232.792ZM383.506 231.014V253.059C382.761 254.162 381.575 255.403 379.949 256.781C378.322 258.132 376.074 259.318 373.207 260.338C370.367 261.331 366.699 261.827 362.205 261.827C358.538 261.827 355.16 261.193 352.072 259.925C349.011 258.629 346.35 256.754 344.089 254.3C341.856 251.818 340.119 248.812 338.878 245.283C337.665 241.726 337.058 237.7 337.058 233.206V228.532C337.058 224.038 337.582 220.026 338.63 216.496C339.705 212.967 341.277 209.975 343.345 207.521C345.413 205.04 347.949 203.165 350.955 201.896C353.96 200.6 357.407 199.952 361.295 199.952C365.9 199.952 369.746 200.752 372.835 202.351C375.95 203.923 378.377 206.101 380.114 208.886C381.879 211.671 383.009 214.842 383.506 218.399H375.523C375.165 216.221 374.448 214.235 373.372 212.443C372.324 210.651 370.822 209.217 368.864 208.142C366.906 207.039 364.383 206.487 361.295 206.487C358.51 206.487 356.097 206.997 354.057 208.017C352.017 209.038 350.335 210.499 349.011 212.402C347.687 214.304 346.695 216.607 346.033 219.309C345.399 222.011 345.082 225.058 345.082 228.449V233.206C345.082 236.68 345.482 239.782 346.281 242.512C347.108 245.242 348.28 247.572 349.797 249.502C351.313 251.404 353.119 252.852 355.215 253.845C357.338 254.837 359.682 255.334 362.246 255.334C365.086 255.334 367.389 255.099 369.153 254.631C370.918 254.134 372.297 253.555 373.29 252.893C374.282 252.204 375.04 251.556 375.564 250.949V237.466H361.626V231.014H383.506ZM434.999 254.506V261H403.11V254.506H434.999ZM404.723 200.779V261H396.741V200.779H404.723ZM430.78 226.671V233.165H403.11V226.671H430.78ZM434.585 200.779V207.314H403.11V200.779H434.585Z" fill="black" fill-opacity="0.8"/>
</svg>
