<svg width="506" height="453" viewBox="0 0 506 453" fill="none" xmlns="http://www.w3.org/2000/svg">
<path d="M0 39.5217C0 28.7402 8.74018 20 19.5217 20H485.478C496.26 20 505 28.7402 505 39.5217V102.478C505 113.26 496.26 122 485.478 122H19.5223C8.74042 122 0 113.26 0 102.478V39.5217Z" fill="#33ABE0"/>
<path d="M117.572 76.4705L99.7308 70.5831C99.7308 70.5831 97.5986 69.7069 98.2851 67.7202C98.4265 67.3105 98.7116 66.9619 99.5645 66.3628C103.518 63.5721 172.734 38.3756 172.734 38.3756C172.734 38.3756 174.688 37.7086 175.841 38.1523C176.126 38.2417 176.383 38.4062 176.584 38.6289C176.786 38.8517 176.926 39.1248 176.989 39.4202C177.114 39.942 177.166 40.4788 177.144 41.0151C177.139 41.4791 177.083 41.9092 177.041 42.5836C176.62 49.4724 164.004 100.886 164.004 100.886C164.004 100.886 163.249 103.894 160.545 103.997C159.88 104.019 159.218 103.905 158.598 103.662C157.978 103.419 157.413 103.052 156.935 102.583C151.629 97.96 133.287 85.4756 129.234 82.73C129.142 82.6669 129.065 82.5847 129.008 82.4889C128.95 82.3931 128.914 82.2859 128.901 82.1747C128.844 81.8853 129.155 81.5268 129.155 81.5268C129.155 81.5268 161.093 52.7746 161.943 49.7562C162.009 49.5224 161.76 49.407 161.426 49.5094C159.305 50.2998 122.532 73.8192 118.474 76.415C118.182 76.5045 117.873 76.5235 117.572 76.4705Z" fill="white"/>
<path d="M208.816 51.5312V88.5H203.992V51.5312H208.816ZM220.699 51.5312V55.543H192.134V51.5312H220.699ZM234.333 89.0078C232.421 89.0078 230.686 88.6862 229.128 88.043C227.588 87.3828 226.259 86.4603 225.142 85.2754C224.042 84.0905 223.195 82.6855 222.603 81.0605C222.011 79.4355 221.714 77.6582 221.714 75.7285V74.6621C221.714 72.4277 222.044 70.4388 222.705 68.6953C223.365 66.9349 224.262 65.4453 225.396 64.2266C226.53 63.0078 227.817 62.0853 229.255 61.459C230.694 60.8327 232.184 60.5195 233.724 60.5195C235.688 60.5195 237.38 60.8581 238.802 61.5352C240.241 62.2122 241.417 63.1602 242.332 64.3789C243.246 65.5807 243.923 67.0026 244.363 68.6445C244.803 70.2695 245.023 72.0469 245.023 73.9766V76.084H224.507V72.25H240.326V71.8945C240.258 70.6758 240.004 69.4909 239.564 68.3398C239.141 67.1888 238.464 66.2409 237.533 65.4961C236.602 64.7513 235.332 64.3789 233.724 64.3789C232.658 64.3789 231.676 64.6074 230.779 65.0645C229.882 65.5046 229.111 66.1647 228.468 67.0449C227.825 67.9251 227.326 69 226.97 70.2695C226.615 71.5391 226.437 73.0033 226.437 74.6621V75.7285C226.437 77.0319 226.615 78.2591 226.97 79.4102C227.343 80.5443 227.876 81.543 228.57 82.4062C229.281 83.2695 230.136 83.9466 231.134 84.4375C232.15 84.9284 233.301 85.1738 234.587 85.1738C236.246 85.1738 237.651 84.8353 238.802 84.1582C239.953 83.4811 240.96 82.5755 241.824 81.4414L244.667 83.7012C244.075 84.5983 243.322 85.4531 242.408 86.2656C241.494 87.0781 240.368 87.7383 239.031 88.2461C237.71 88.7539 236.145 89.0078 234.333 89.0078ZM255.611 49.5V88.5H250.888V49.5H255.611ZM274.552 89.0078C272.639 89.0078 270.904 88.6862 269.347 88.043C267.807 87.3828 266.478 86.4603 265.361 85.2754C264.261 84.0905 263.414 82.6855 262.822 81.0605C262.229 79.4355 261.933 77.6582 261.933 75.7285V74.6621C261.933 72.4277 262.263 70.4388 262.923 68.6953C263.583 66.9349 264.481 65.4453 265.615 64.2266C266.749 63.0078 268.035 62.0853 269.474 61.459C270.913 60.8327 272.403 60.5195 273.943 60.5195C275.906 60.5195 277.599 60.8581 279.021 61.5352C280.46 62.2122 281.636 63.1602 282.55 64.3789C283.464 65.5807 284.141 67.0026 284.582 68.6445C285.022 70.2695 285.242 72.0469 285.242 73.9766V76.084H264.726V72.25H280.544V71.8945C280.477 70.6758 280.223 69.4909 279.783 68.3398C279.36 67.1888 278.682 66.2409 277.751 65.4961C276.82 64.7513 275.551 64.3789 273.943 64.3789C272.876 64.3789 271.895 64.6074 270.998 65.0645C270.1 65.5046 269.33 66.1647 268.687 67.0449C268.044 67.9251 267.544 69 267.189 70.2695C266.833 71.5391 266.656 73.0033 266.656 74.6621V75.7285C266.656 77.0319 266.833 78.2591 267.189 79.4102C267.561 80.5443 268.095 81.543 268.789 82.4062C269.5 83.2695 270.354 83.9466 271.353 84.4375C272.369 84.9284 273.52 85.1738 274.806 85.1738C276.465 85.1738 277.87 84.8353 279.021 84.1582C280.172 83.4811 281.179 82.5755 282.042 81.4414L284.886 83.7012C284.294 84.5983 283.541 85.4531 282.626 86.2656C281.712 87.0781 280.587 87.7383 279.25 88.2461C277.929 88.7539 276.363 89.0078 274.552 89.0078ZM308.525 61.0273H312.791V87.916C312.791 90.3366 312.3 92.4017 311.318 94.1113C310.336 95.821 308.965 97.1159 307.205 97.9961C305.461 98.8932 303.447 99.3418 301.162 99.3418C300.214 99.3418 299.097 99.1895 297.81 98.8848C296.541 98.597 295.288 98.0977 294.052 97.3867C292.833 96.6927 291.809 95.7533 290.98 94.5684L293.443 91.7754C294.594 93.1634 295.796 94.1283 297.048 94.6699C298.318 95.2116 299.57 95.4824 300.806 95.4824C302.296 95.4824 303.582 95.2031 304.666 94.6445C305.749 94.0859 306.587 93.2565 307.179 92.1562C307.789 91.0729 308.093 89.7357 308.093 88.1445V67.0703L308.525 61.0273ZM289.609 75.0684V74.5352C289.609 72.4362 289.854 70.5319 290.345 68.8223C290.853 67.0957 291.572 65.6146 292.503 64.3789C293.451 63.1432 294.594 62.1953 295.931 61.5352C297.268 60.8581 298.775 60.5195 300.451 60.5195C302.177 60.5195 303.684 60.8242 304.97 61.4336C306.274 62.026 307.374 62.8978 308.271 64.0488C309.185 65.1829 309.904 66.554 310.429 68.1621C310.954 69.7702 311.318 71.5898 311.521 73.6211V75.957C311.335 77.9714 310.971 79.7826 310.429 81.3906C309.904 82.9987 309.185 84.3698 308.271 85.5039C307.374 86.638 306.274 87.5098 304.97 88.1191C303.667 88.7116 302.143 89.0078 300.4 89.0078C298.758 89.0078 297.268 88.6608 295.931 87.9668C294.611 87.2728 293.477 86.2995 292.529 85.0469C291.581 83.7943 290.853 82.3216 290.345 80.6289C289.854 78.9193 289.609 77.0658 289.609 75.0684ZM294.306 74.5352V75.0684C294.306 76.4395 294.442 77.7259 294.712 78.9277C295 80.1296 295.432 81.1875 296.007 82.1016C296.6 83.0156 297.353 83.735 298.267 84.2598C299.181 84.7676 300.273 85.0215 301.542 85.0215C303.1 85.0215 304.386 84.6914 305.402 84.0312C306.417 83.3711 307.222 82.4993 307.814 81.416C308.423 80.3327 308.897 79.1562 309.236 77.8867V71.7676C309.05 70.8366 308.762 69.9395 308.373 69.0762C308 68.196 307.509 67.4173 306.9 66.7402C306.307 66.0462 305.571 65.4961 304.691 65.0898C303.811 64.6836 302.778 64.4805 301.593 64.4805C300.307 64.4805 299.198 64.7513 298.267 65.293C297.353 65.8177 296.6 66.5456 296.007 67.4766C295.432 68.3906 295 69.457 294.712 70.6758C294.442 71.8776 294.306 73.1641 294.306 74.5352ZM324.623 65.3438V88.5H319.925V61.0273H324.496L324.623 65.3438ZM333.205 60.875L333.179 65.2422C332.79 65.1576 332.417 65.1068 332.062 65.0898C331.723 65.056 331.334 65.0391 330.894 65.0391C329.811 65.0391 328.854 65.2083 328.025 65.5469C327.195 65.8854 326.493 66.3594 325.917 66.9688C325.342 67.5781 324.885 68.306 324.546 69.1523C324.225 69.9818 324.013 70.8958 323.912 71.8945L322.591 72.6562C322.591 70.9974 322.752 69.4401 323.074 67.9844C323.412 66.5286 323.929 65.2422 324.623 64.125C325.317 62.9909 326.197 62.1107 327.263 61.4844C328.347 60.8411 329.633 60.5195 331.123 60.5195C331.461 60.5195 331.85 60.5618 332.291 60.6465C332.731 60.7142 333.035 60.7904 333.205 60.875ZM352.73 83.8027V69.6602C352.73 68.5768 352.51 67.6374 352.07 66.8418C351.647 66.0293 351.003 65.403 350.14 64.9629C349.277 64.5228 348.21 64.3027 346.941 64.3027C345.756 64.3027 344.715 64.5059 343.818 64.9121C342.938 65.3184 342.244 65.8516 341.736 66.5117C341.245 67.1719 341 67.8828 341 68.6445H336.302C336.302 67.6628 336.556 66.6895 337.064 65.7246C337.572 64.7598 338.3 63.888 339.248 63.1094C340.212 62.3138 341.363 61.6875 342.701 61.2305C344.055 60.7565 345.561 60.5195 347.22 60.5195C349.218 60.5195 350.978 60.8581 352.501 61.5352C354.042 62.2122 355.244 63.2363 356.107 64.6074C356.987 65.9616 357.427 67.6628 357.427 69.7109V82.5078C357.427 83.4219 357.503 84.3952 357.656 85.4277C357.825 86.4603 358.07 87.349 358.392 88.0938V88.5H353.492C353.255 87.9583 353.069 87.2389 352.933 86.3418C352.798 85.4277 352.73 84.5814 352.73 83.8027ZM353.542 71.8438L353.593 75.1445H348.845C347.508 75.1445 346.315 75.2546 345.265 75.4746C344.216 75.6777 343.335 75.9909 342.625 76.4141C341.914 76.8372 341.372 77.3704 341 78.0137C340.627 78.64 340.441 79.3763 340.441 80.2227C340.441 81.0859 340.636 81.873 341.025 82.584C341.414 83.2949 341.998 83.862 342.777 84.2852C343.572 84.6914 344.546 84.8945 345.697 84.8945C347.136 84.8945 348.405 84.5898 349.505 83.9805C350.606 83.3711 351.477 82.6263 352.121 81.7461C352.781 80.8659 353.136 80.0111 353.187 79.1816L355.193 81.4414C355.074 82.1523 354.753 82.9395 354.228 83.8027C353.703 84.666 353.001 85.4954 352.121 86.291C351.257 87.0697 350.225 87.7214 349.023 88.2461C347.838 88.7539 346.501 89.0078 345.011 89.0078C343.149 89.0078 341.516 88.6439 340.111 87.916C338.723 87.1882 337.639 86.2148 336.861 84.9961C336.099 83.7604 335.718 82.3809 335.718 80.8574C335.718 79.3848 336.006 78.0898 336.582 76.9727C337.157 75.8385 337.986 74.8991 339.07 74.1543C340.153 73.3926 341.457 72.8171 342.98 72.4277C344.503 72.0384 346.205 71.8438 348.083 71.8438H353.542ZM369.488 66.4863V88.5H364.765V61.0273H369.234L369.488 66.4863ZM368.523 73.7227L366.339 73.6465C366.356 71.7676 366.602 70.0326 367.076 68.4414C367.55 66.8333 368.252 65.4368 369.183 64.252C370.114 63.0671 371.274 62.153 372.662 61.5098C374.05 60.8496 375.658 60.5195 377.486 60.5195C378.772 60.5195 379.957 60.7057 381.041 61.0781C382.124 61.4336 383.063 62.0007 383.859 62.7793C384.654 63.5579 385.272 64.5566 385.712 65.7754C386.153 66.9941 386.373 68.4668 386.373 70.1934V88.5H381.675V70.4219C381.675 68.9831 381.43 67.832 380.939 66.9688C380.465 66.1055 379.788 65.4792 378.908 65.0898C378.028 64.6836 376.995 64.4805 375.81 64.4805C374.422 64.4805 373.263 64.7259 372.332 65.2168C371.401 65.7077 370.656 66.3848 370.097 67.248C369.539 68.1113 369.132 69.1016 368.878 70.2188C368.641 71.319 368.523 72.487 368.523 73.7227ZM386.322 71.1328L383.173 72.0977C383.19 70.5911 383.436 69.1439 383.91 67.7559C384.401 66.3678 385.103 65.1322 386.017 64.0488C386.948 62.9655 388.091 62.1107 389.445 61.4844C390.799 60.8411 392.348 60.5195 394.091 60.5195C395.564 60.5195 396.867 60.7142 398.001 61.1035C399.153 61.4928 400.117 62.0938 400.896 62.9062C401.692 63.7018 402.292 64.7259 402.699 65.9785C403.105 67.2311 403.308 68.7207 403.308 70.4473V88.5H398.585V70.3965C398.585 68.8561 398.34 67.6628 397.849 66.8164C397.375 65.9531 396.698 65.3522 395.818 65.0137C394.955 64.6582 393.922 64.4805 392.72 64.4805C391.688 64.4805 390.774 64.6582 389.978 65.0137C389.182 65.3691 388.514 65.86 387.972 66.4863C387.431 67.0957 387.016 67.7982 386.728 68.5938C386.457 69.3893 386.322 70.2357 386.322 71.1328Z" fill="white"/>
<rect x="29" y="190.879" width="172.237" height="121.548" rx="15.9257" transform="rotate(-9.10643 29 190.879)" fill="url(#paint0_linear_266_420)"/>
<rect x="50.1291" y="196.661" width="174.725" height="124.036" rx="17.1699" fill="url(#paint1_linear_266_420)" stroke="#F4F4F6" stroke-width="2.48838"/>
<path fill-rule="evenodd" clip-rule="evenodd" d="M62.5193 236.089C62.5193 233.615 64.5246 231.61 66.9984 231.61H88.2945C90.7682 231.61 92.7735 233.615 92.7735 236.089V238.51H87.2002V241.164H92.7735V246.737H87.2004V249.391H92.7735V252.077C92.7735 254.551 90.7682 256.556 88.2945 256.556H66.9984C64.5246 256.556 62.5193 254.551 62.5193 252.077V249.391H68.3578V246.737H62.5193V241.164H68.3578V238.51H62.5193V236.089ZM72.3386 234.529H74.9925V253.371H72.3386V234.529ZM83.2194 234.529H80.5655V253.371H83.2194V234.529Z" fill="white"/>
<rect x="62.5193" y="278.849" width="4.5116" height="8.22703" fill="white"/>
<rect x="70.4807" y="278.849" width="4.5116" height="8.22703" fill="white"/>
<rect x="78.4424" y="278.849" width="4.5116" height="8.22703" fill="white"/>
<rect x="86.4041" y="278.849" width="4.5116" height="8.22703" fill="white"/>
<rect x="99.6736" y="278.849" width="4.5116" height="8.22703" fill="white"/>
<rect x="107.635" y="278.849" width="4.5116" height="8.22703" fill="white"/>
<rect x="115.597" y="278.849" width="4.5116" height="8.22703" fill="white"/>
<rect x="123.559" y="278.849" width="4.5116" height="8.22703" fill="white"/>
<rect x="62.519" y="292.649" width="35.562" height="4.5116" fill="white"/>
<rect x="105.778" y="292.649" width="35.562" height="4.5116" fill="white"/>
<rect x="62.519" y="304.326" width="50.6892" height="3.45005" fill="white"/>
<path d="M147.576 258.015L141.605 274.602H226.264V245.012C226.264 239.481 226.264 237.713 223.743 236.121C217.506 236.785 216.684 239.004 214.189 239.004L160.448 254.697C157.953 254.697 158.231 255.052 156.467 258.963C154.703 262.873 147.576 252.484 147.576 258.015Z" fill="#0099B5"/>
<path d="M226.264 304.518V290.526L148.19 291.459L148.19 296.656C148.19 300.268 136.778 303.029 139.408 305.584C138.448 311.847 138.722 317.31 138.722 322.107H208.426C212.146 322.107 217.596 319.065 220.227 316.51C222.857 313.956 226.264 308.13 226.264 304.518Z" fill="#1EB53A"/>
<path d="M141.605 272.214H226.264V276.434H141.605V272.214ZM141.605 296.126H226.264V300.345H141.605V296.126Z" fill="#CE1126"/>
<path d="M147.444 286.545V298.487H226.264V274.603H147.444V286.545Z" fill="#EEEEEE"/>
<path d="M199.712 265.845C199.712 264.716 200.108 263.624 200.829 262.761C201.55 261.899 202.55 261.323 203.651 261.135C202.973 261.019 202.278 261.053 201.615 261.236C200.951 261.419 200.335 261.747 199.81 262.195C199.284 262.643 198.862 263.202 198.572 263.833C198.283 264.463 198.133 265.15 198.133 265.845C198.133 266.54 198.283 267.226 198.572 267.857C198.862 268.487 199.284 269.046 199.81 269.494C200.335 269.943 200.951 270.27 201.615 270.453C202.278 270.636 202.973 270.671 203.651 270.554C202.55 270.366 201.55 269.79 200.829 268.928C200.108 268.066 199.712 266.973 199.712 265.845ZM206.808 269.371L206.595 268.711L206.383 269.371H205.695L206.251 269.78L206.039 270.439L206.595 270.031L207.15 270.439L206.938 269.78L207.494 269.371H206.808ZM210.902 269.371L210.69 268.711L210.477 269.371H209.791L210.347 269.78L210.135 270.439L210.69 270.031L211.246 270.439L211.034 269.78L211.59 269.371H210.902ZM210.69 264.889L210.477 265.549H209.791L210.347 265.958L210.135 266.618L210.69 266.209L211.246 266.618L211.034 265.958L211.59 265.549H210.902L210.69 264.889ZM214.997 269.371L214.785 268.711L214.573 269.371H213.887L214.441 269.78L214.229 270.439L214.785 270.031L215.341 270.439L215.129 269.78L215.684 269.371H214.997ZM214.785 264.889L214.573 265.549H213.887L214.441 265.958L214.229 266.618L214.785 266.209L215.341 266.618L215.129 265.958L215.684 265.549H214.997L214.785 264.889ZM214.785 261.068L214.573 261.728H213.887L214.441 262.136L214.229 262.796L214.785 262.387L215.341 262.796L215.129 262.136L215.684 261.728H214.997L214.785 261.068ZM219.093 269.371L218.881 268.711L218.669 269.371H217.981L218.537 269.78L218.325 270.439L218.881 270.031L219.436 270.439L219.223 269.78L219.78 269.371H219.093ZM218.881 264.889L218.669 265.549H217.981L218.537 265.958L218.325 266.618L218.881 266.209L219.436 266.618L219.223 265.958L219.78 265.549H219.093L218.881 264.889ZM218.881 261.068L218.669 261.728H217.981L218.537 262.136L218.325 262.796L218.881 262.387L219.436 262.796L219.223 262.136L219.78 261.728H219.093L218.881 261.068ZM223.187 269.371L222.975 268.711L222.763 269.371H222.077L222.633 269.78L222.421 270.439L222.975 270.031L223.531 270.439L223.319 269.78L223.875 269.371H223.187ZM222.975 264.889L222.763 265.549H222.077L222.633 265.958L222.421 266.618L222.975 266.209L223.531 266.618L223.319 265.958L223.875 265.549H223.187L222.975 264.889ZM222.975 261.068L222.763 261.728H222.077L222.633 262.136L222.421 262.796L222.975 262.387L223.531 262.796L223.319 262.136L223.875 261.728H223.187L222.975 261.068Z" fill="white"/>
<path d="M138.639 252.467C138.639 242.477 146.809 234.417 156.797 234.552L224.008 235.458L138.64 319.453L138.639 252.467Z" fill="url(#paint2_linear_266_420)"/>
<path d="M274.096 238.752C266.133 238.752 259.87 236.36 255.306 231.577C250.742 226.794 248.476 219.997 248.476 211.249V174.935H259.712V211.249C259.712 216.818 261.003 221.161 263.615 224.245C266.227 227.329 269.721 228.871 274.096 228.871C278.471 228.871 281.901 227.329 284.513 224.245C287.157 221.161 288.479 216.818 288.479 211.249V174.935H299.715V211.249C299.715 219.934 297.418 226.699 292.854 231.514C288.29 236.329 282.027 238.752 274.127 238.752H274.096Z" fill="#04777C"/>
<path d="M308.716 237.839V229.752L332.542 199.637H309.629V190.197H345.572V198.284L321.746 228.399H346.012V237.839H308.716Z" fill="#04777C"/>
<path d="M248.779 319.809V256.905H260.015V285.666L284.722 256.905H297.752L271.22 287.901L299.074 319.809H286.044L259.984 290.166V319.809H248.748H248.779Z" fill="#04777C"/>
<path d="M314.841 320.721C309.995 320.721 306.092 319.337 303.102 316.536C300.143 313.736 298.664 310.211 298.664 305.9C298.664 301.589 300.238 298.096 303.417 295.295C306.595 292.495 311.002 291.079 316.635 291.079H328.784V288.844C328.784 286.138 327.934 284.061 326.266 282.551C324.598 281.04 322.301 280.316 319.342 280.316C317.076 280.316 315.188 280.851 313.708 281.89C312.229 282.928 311.253 284.219 310.781 285.698H300.175C301.245 281.449 303.48 277.988 306.816 275.313C310.152 272.638 314.338 271.317 319.311 271.317C325.542 271.317 330.389 272.89 333.883 276.005C337.376 279.121 339.107 283.4 339.107 288.844V319.84H330.106L329.193 313.987H328.753C327.714 315.781 325.983 317.354 323.497 318.707C321.01 320.061 318.115 320.721 314.81 320.721H314.841ZM317.076 311.722C320.664 311.722 323.528 310.778 325.605 308.921C327.714 307.064 328.753 304.547 328.753 301.369V299.134H317.076C311.694 299.134 308.987 301.243 308.987 305.428C308.987 307.285 309.68 308.795 311.065 309.959C312.449 311.124 314.464 311.722 317.076 311.722Z" fill="#04777C"/>
<path d="M366.993 320.722C361.359 320.722 356.827 319.368 353.365 316.662C349.903 313.956 347.731 310.369 346.755 305.869H357.992C358.464 307.474 359.502 308.795 361.044 309.771C362.618 310.746 364.569 311.25 366.961 311.25C372.941 311.25 375.963 309.613 375.963 306.309C375.963 304.704 375.019 303.477 373.13 302.627C371.242 301.778 368.976 301.117 366.301 300.614C363.625 300.11 360.95 299.449 358.243 298.631C355.537 297.813 353.239 296.302 351.382 294.037C349.525 291.771 348.549 288.845 348.549 285.194C348.549 281.198 350.123 277.862 353.302 275.219C356.481 272.576 360.887 271.254 366.521 271.254C372.155 271.254 376.624 272.513 379.897 275.03C383.202 277.548 385.31 280.946 386.286 285.194H375.05C373.854 282.205 370.99 280.694 366.521 280.694C361.737 280.694 359.345 282.205 359.345 285.194C359.345 286.579 360.006 287.712 361.359 288.561C362.713 289.442 364.412 290.04 366.426 290.355C368.472 290.701 370.675 291.205 373.036 291.897C375.396 292.589 377.599 293.376 379.645 294.288C381.691 295.201 383.391 296.68 384.712 298.725C386.034 300.771 386.727 303.32 386.727 306.309C386.727 310.557 385.059 314.019 381.691 316.694C378.323 319.368 373.413 320.69 366.961 320.69L366.993 320.722Z" fill="#04777C"/>
<path d="M411.937 320.722C406.303 320.722 401.771 319.368 398.309 316.662C394.847 313.956 392.675 310.369 391.699 305.869H402.935C403.408 307.474 404.446 308.795 405.988 309.771C407.562 310.746 409.513 311.25 411.905 311.25C417.885 311.25 420.907 309.613 420.907 306.309C420.907 304.704 419.963 303.477 418.074 302.627C416.186 301.778 413.92 301.117 411.244 300.614C408.569 300.11 405.894 299.449 403.187 298.631C400.481 297.813 398.183 296.302 396.326 294.037C394.469 291.771 393.493 288.845 393.493 285.194C393.493 281.198 395.067 277.862 398.246 275.219C401.425 272.576 405.831 271.254 411.465 271.254C417.099 271.254 421.568 272.513 424.841 275.03C428.146 277.548 430.254 280.946 431.23 285.194H419.994C418.798 282.205 415.934 280.694 411.465 280.694C406.681 280.694 404.289 282.205 404.289 285.194C404.289 286.579 404.95 287.712 406.303 288.561C407.657 289.442 409.356 290.04 411.37 290.355C413.416 290.701 415.619 291.205 417.98 291.897C420.34 292.589 422.543 293.376 424.589 294.288C426.635 295.201 428.335 296.68 429.656 298.725C430.978 300.771 431.671 303.32 431.671 306.309C431.671 310.557 430.003 314.019 426.635 316.694C423.267 319.368 418.357 320.69 411.905 320.69L411.937 320.722Z" fill="#04777C"/>
<path d="M453.734 320.721C448.887 320.721 444.984 319.337 441.994 316.536C439.036 313.736 437.557 310.211 437.557 305.9C437.557 301.589 439.13 298.096 442.309 295.295C445.488 292.495 449.894 291.079 455.528 291.079H467.677V288.844C467.677 286.138 466.827 284.061 465.159 282.551C463.491 281.04 461.193 280.316 458.235 280.316C455.969 280.316 454.08 280.851 452.601 281.89C451.122 282.928 450.146 284.219 449.674 285.698H439.067C440.137 281.449 442.372 277.988 445.708 275.313C449.044 272.638 453.23 271.317 458.203 271.317C464.435 271.317 469.282 272.89 472.775 276.005C476.269 279.121 478 283.4 478 288.844V319.84H468.999L468.086 313.987H467.645C466.607 315.781 464.876 317.354 462.389 318.707C459.903 320.061 457.007 320.721 453.703 320.721H453.734ZM455.969 311.722C459.557 311.722 462.421 310.778 464.498 308.921C466.607 307.064 467.645 304.547 467.645 301.369V299.134H455.969C450.587 299.134 447.88 301.243 447.88 305.428C447.88 307.285 448.572 308.795 449.957 309.959C451.342 311.124 453.356 311.722 455.969 311.722Z" fill="#04777C"/>
<defs>
<linearGradient id="paint0_linear_266_420" x1="29" y1="195.126" x2="196.46" y2="312.427" gradientUnits="userSpaceOnUse">
<stop stop-color="#284492"/>
<stop offset="1" stop-color="#1180C5"/>
</linearGradient>
<linearGradient id="paint1_linear_266_420" x1="51.3733" y1="202.151" x2="218.833" y2="319.453" gradientUnits="userSpaceOnUse">
<stop stop-color="#254D9C"/>
<stop offset="1" stop-color="#0C93D6"/>
</linearGradient>
<linearGradient id="paint2_linear_266_420" x1="138.64" y1="234.307" x2="182.611" y2="278.755" gradientUnits="userSpaceOnUse">
<stop stop-color="white"/>
<stop offset="1" stop-color="#CBCBCB"/>
</linearGradient>
</defs>
</svg>
