<svg width="512" height="461" viewBox="0 0 512 461" fill="none" xmlns="http://www.w3.org/2000/svg">
<path d="M198 231C198 264.138 171.138 291 138 291C104.863 291 78 264.138 78 231C78 197.862 104.863 171 138 171C171.138 171 198 197.862 198 231Z" fill="#1B5AFE"/>
<path d="M148.173 263.246H128.025V222.555C128.657 205.903 141.72 201.938 148.173 202.037H168.569V222.555H148.173V263.246Z" fill="white"/>
<path d="M127.975 201.938H107.826V222.111C123.411 222.388 127.753 208.778 127.975 201.938Z" fill="white"/>
<path d="M251.566 200.779V261H243.708V200.779H251.566ZM270.923 200.779V207.314H224.392V200.779H270.923ZM314.31 200.779H322.251V241.519C322.251 246.041 321.244 249.805 319.232 252.811C317.219 255.816 314.544 258.077 311.208 259.594C307.899 261.083 304.301 261.827 300.413 261.827C296.332 261.827 292.637 261.083 289.328 259.594C286.047 258.077 283.441 255.816 281.511 252.811C279.608 249.805 278.657 246.041 278.657 241.519V200.779H286.557V241.519C286.557 244.663 287.136 247.255 288.294 249.295C289.452 251.335 291.065 252.852 293.133 253.845C295.229 254.837 297.655 255.334 300.413 255.334C303.198 255.334 305.624 254.837 307.692 253.845C309.788 252.852 311.415 251.335 312.573 249.295C313.731 247.255 314.31 244.663 314.31 241.519V200.779ZM366.879 245.779C366.879 244.373 366.658 243.132 366.217 242.057C365.803 240.954 365.059 239.961 363.983 239.079C362.936 238.197 361.474 237.356 359.599 236.556C357.752 235.756 355.408 234.943 352.568 234.116C349.59 233.233 346.902 232.255 344.503 231.179C342.104 230.076 340.05 228.822 338.34 227.415C336.631 226.009 335.321 224.396 334.411 222.576C333.501 220.756 333.046 218.675 333.046 216.331C333.046 213.987 333.528 211.823 334.494 209.837C335.459 207.852 336.837 206.129 338.63 204.667C340.449 203.178 342.614 202.02 345.123 201.193C347.632 200.366 350.431 199.952 353.519 199.952C358.041 199.952 361.874 200.821 365.017 202.558C368.188 204.267 370.601 206.515 372.256 209.3C373.91 212.057 374.737 215.007 374.737 218.151H366.796C366.796 215.89 366.313 213.891 365.348 212.153C364.383 210.389 362.922 209.01 360.964 208.017C359.006 206.997 356.525 206.487 353.519 206.487C350.679 206.487 348.335 206.915 346.488 207.769C344.641 208.624 343.262 209.782 342.352 211.244C341.47 212.705 341.028 214.373 341.028 216.248C341.028 217.517 341.29 218.675 341.814 219.722C342.366 220.743 343.207 221.694 344.337 222.576C345.495 223.459 346.957 224.272 348.722 225.017C350.514 225.761 352.651 226.478 355.132 227.167C358.551 228.132 361.502 229.208 363.983 230.393C366.465 231.579 368.506 232.916 370.105 234.405C371.732 235.867 372.931 237.535 373.703 239.41C374.503 241.257 374.903 243.353 374.903 245.697C374.903 248.151 374.406 250.37 373.414 252.356C372.421 254.341 371.001 256.037 369.153 257.443C367.306 258.849 365.086 259.938 362.494 260.71C359.93 261.455 357.063 261.827 353.892 261.827C351.107 261.827 348.363 261.441 345.661 260.669C342.986 259.897 340.546 258.739 338.34 257.195C336.162 255.651 334.411 253.748 333.087 251.487C331.791 249.199 331.143 246.551 331.143 243.546H339.085C339.085 245.614 339.484 247.392 340.284 248.881C341.084 250.343 342.173 251.556 343.551 252.521C344.958 253.486 346.543 254.203 348.308 254.672C350.1 255.113 351.961 255.334 353.892 255.334C356.676 255.334 359.034 254.948 360.964 254.176C362.894 253.403 364.356 252.301 365.348 250.867C366.369 249.433 366.879 247.737 366.879 245.779ZM401.373 261H388.8L388.882 254.506H401.373C405.675 254.506 409.259 253.61 412.127 251.818C414.994 249.998 417.145 247.461 418.579 244.208C420.04 240.926 420.771 237.094 420.771 232.71V229.028C420.771 225.582 420.358 222.521 419.53 219.847C418.703 217.144 417.49 214.869 415.891 213.022C414.291 211.147 412.334 209.727 410.017 208.762C407.729 207.797 405.096 207.314 402.118 207.314H388.551V200.779H402.118C406.061 200.779 409.659 201.441 412.913 202.765C416.166 204.061 418.965 205.949 421.309 208.431C423.68 210.885 425.5 213.863 426.768 217.365C428.037 220.839 428.671 224.755 428.671 229.111V232.71C428.671 237.066 428.037 240.995 426.768 244.497C425.5 247.972 423.666 250.936 421.267 253.39C418.896 255.844 416.029 257.733 412.665 259.056C409.328 260.352 405.564 261 401.373 261ZM393.06 200.779V261H385.077V200.779H393.06Z" fill="black" fill-opacity="0.8"/>
</svg>
