<svg width="216" height="53" viewBox="0 0 216 53" fill="none" xmlns="http://www.w3.org/2000/svg">
<path fill-rule="evenodd" clip-rule="evenodd" d="M46.0046 28.2979C46.0046 36.6458 44.0972 42.8665 40.2847 46.9203C36.4723 50.9742 30.5832 53 22.6425 53C15.2239 53 9.59434 50.9731 5.75706 46.9203C1.91864 42.8676 -0.00112745 36.7553 4.96748e-07 28.5833V1.16618C0.0022564 0.523248 0.522241 0.00326298 1.16405 0.00100708H14.616C15.2589 0.00326298 15.7789 0.523248 15.7812 1.16618V29.1822C15.7812 32.5187 16.3981 35.087 17.6547 36.8985C19.9162 39.8966 24.1799 40.4933 27.178 38.2317C27.628 37.8922 28.0341 37.4986 28.386 37.0587C29.6143 35.3589 30.2257 32.8537 30.2223 29.5431V24.297H46.0046V28.2968V28.2979Z" fill="#1F3E79"/>
<path fill-rule="evenodd" clip-rule="evenodd" d="M44.7851 21.2337H30.2244V1.22044C30.2266 0.547057 30.7714 0.0022571 31.4437 0.00112915H33.6229C33.6274 6.83425 39.1679 12.3714 46.001 12.3714H46.0044V21.2337H44.7839H44.7851Z" fill="#1F3E79"/>
<path fill-rule="evenodd" clip-rule="evenodd" d="M36.7248 0.00112795H44.7851C45.4585 0.00338385 46.0033 0.548184 46.0044 1.22044V9.29093C40.879 9.29093 36.7236 5.13556 36.7236 0.0101516V0L36.7248 0.00112795Z" fill="#F4821F"/>
<path fill-rule="evenodd" clip-rule="evenodd" d="M80.93 32.96C86.2719 32.96 88.8498 30.0203 88.8498 25.7027V15.2983H85.0269V25.599C85.0269 27.8464 83.1831 29.6691 80.9097 29.6691C78.6362 29.6691 76.7925 27.8464 76.7925 25.599V15.2983H73V25.7361C73 30.0002 75.5779 32.9667 80.9198 32.9667L80.9266 32.96H80.93ZM111.923 32.6456V29.3949H103.451L111.74 18.2548V15.2883H98.5559V18.5424H106.845L98.5559 29.6491V32.6322L111.923 32.6456ZM129.782 32.96C132.85 33.0302 135.696 31.3781 137.123 28.6926L133.903 27.1575C133.104 28.6892 131.514 29.6591 129.772 29.6792C126.588 29.522 124.136 26.8465 124.295 23.6994C124.44 20.7697 126.808 18.4287 129.772 18.2849C131.511 18.315 133.097 19.2815 133.903 20.8065L137.123 19.2447C135.696 16.5625 132.847 14.9171 129.782 15.004C124.768 14.8569 120.583 18.7531 120.431 23.7095C120.282 28.6658 124.224 32.8028 129.237 32.9533C129.417 32.96 129.599 32.96 129.779 32.9533L129.782 32.96ZM162.429 32.6456L155.666 15.295H150.984L144.194 32.6456H148.457L149.563 29.7059H157.09L158.17 32.6456H162.432H162.429ZM156.062 26.4552H150.588L153.325 18.9872L156.062 26.4552ZM187.66 37L181.219 26.0438C183.594 25.4786 185.214 23.3048 185.062 20.8935C185.177 17.9103 182.826 15.402 179.808 15.2883C179.595 15.2816 179.382 15.285 179.168 15.3017H170.954V32.6523H174.693V26.4853H177.43L183.37 36.9967H187.66V37ZM178.614 23.2346H174.693V18.5524H178.6C179.909 18.4153 181.08 19.3551 181.219 20.646C181.357 21.9369 180.407 23.0974 179.101 23.2346C178.935 23.2513 178.769 23.2513 178.603 23.2346H178.617H178.614ZM201.683 32.6523C207.184 32.6523 211 29.2176 211 23.9904C211 18.7631 207.177 15.3017 201.683 15.3017H194.761V32.6523H201.683ZM201.683 29.4016H198.499V18.5558H201.683C204.511 18.3484 206.974 20.4487 207.184 23.2446C207.201 23.4921 207.201 23.7429 207.184 23.9904C207.306 26.8565 205.056 29.2778 202.157 29.3982C201.998 29.4049 201.835 29.4049 201.673 29.3982H201.683V29.4016Z" fill="#1F3E79"/>
<path fill-rule="evenodd" clip-rule="evenodd" d="M216 13.9596V13.9969C216 15.6553 214.658 16.9969 213.003 17C211.345 17 210.003 15.6584 210 14.0031C210 12.3447 211.342 11.0031 212.997 11H215.997V13.9596H216Z" fill="#1F3E79"/>
</svg>
