<svg width="506" height="453" viewBox="0 0 506 453" fill="none" xmlns="http://www.w3.org/2000/svg">
<path d="M0.5 39.5217C0.5 28.7402 9.24018 20 20.0217 20H485.978C496.76 20 505.5 28.7402 505.5 39.5217V102.478C505.5 113.26 496.76 122 485.978 122H20.0223C9.24042 122 0.5 113.26 0.5 102.478V39.5217Z" fill="#33ABE0"/>
<path d="M118.072 76.4705L100.231 70.5831C100.231 70.5831 98.0986 69.7069 98.7851 67.7202C98.9265 67.3105 99.2116 66.9619 100.065 66.3628C104.018 63.5721 173.234 38.3756 173.234 38.3756C173.234 38.3756 175.188 37.7086 176.341 38.1523C176.626 38.2417 176.883 38.4062 177.084 38.6289C177.286 38.8517 177.426 39.1248 177.489 39.4202C177.614 39.942 177.666 40.4788 177.644 41.0151C177.639 41.4791 177.583 41.9092 177.541 42.5836C177.12 49.4724 164.504 100.886 164.504 100.886C164.504 100.886 163.749 103.894 161.045 103.997C160.38 104.019 159.718 103.905 159.098 103.662C158.478 103.419 157.913 103.052 157.435 102.583C152.129 97.96 133.787 85.4756 129.734 82.73C129.642 82.6669 129.565 82.5847 129.508 82.4889C129.45 82.3931 129.414 82.2859 129.401 82.1747C129.344 81.8853 129.655 81.5268 129.655 81.5268C129.655 81.5268 161.593 52.7746 162.443 49.7562C162.509 49.5224 162.26 49.407 161.926 49.5094C159.805 50.2998 123.032 73.8192 118.974 76.415C118.682 76.5045 118.373 76.5235 118.072 76.4705Z" fill="white"/>
<path d="M209.316 51.5312V88.5H204.492V51.5312H209.316ZM221.199 51.5312V55.543H192.634V51.5312H221.199ZM234.833 89.0078C232.921 89.0078 231.186 88.6862 229.628 88.043C228.088 87.3828 226.759 86.4603 225.642 85.2754C224.542 84.0905 223.695 82.6855 223.103 81.0605C222.511 79.4355 222.214 77.6582 222.214 75.7285V74.6621C222.214 72.4277 222.544 70.4388 223.205 68.6953C223.865 66.9349 224.762 65.4453 225.896 64.2266C227.03 63.0078 228.317 62.0853 229.755 61.459C231.194 60.8327 232.684 60.5195 234.224 60.5195C236.188 60.5195 237.88 60.8581 239.302 61.5352C240.741 62.2122 241.917 63.1602 242.832 64.3789C243.746 65.5807 244.423 67.0026 244.863 68.6445C245.303 70.2695 245.523 72.0469 245.523 73.9766V76.084H225.007V72.25H240.826V71.8945C240.758 70.6758 240.504 69.4909 240.064 68.3398C239.641 67.1888 238.964 66.2409 238.033 65.4961C237.102 64.7513 235.832 64.3789 234.224 64.3789C233.158 64.3789 232.176 64.6074 231.279 65.0645C230.382 65.5046 229.611 66.1647 228.968 67.0449C228.325 67.9251 227.826 69 227.47 70.2695C227.115 71.5391 226.937 73.0033 226.937 74.6621V75.7285C226.937 77.0319 227.115 78.2591 227.47 79.4102C227.843 80.5443 228.376 81.543 229.07 82.4062C229.781 83.2695 230.636 83.9466 231.634 84.4375C232.65 84.9284 233.801 85.1738 235.087 85.1738C236.746 85.1738 238.151 84.8353 239.302 84.1582C240.453 83.4811 241.46 82.5755 242.324 81.4414L245.167 83.7012C244.575 84.5983 243.822 85.4531 242.908 86.2656C241.994 87.0781 240.868 87.7383 239.531 88.2461C238.21 88.7539 236.645 89.0078 234.833 89.0078ZM256.111 49.5V88.5H251.388V49.5H256.111ZM275.052 89.0078C273.139 89.0078 271.404 88.6862 269.847 88.043C268.307 87.3828 266.978 86.4603 265.861 85.2754C264.761 84.0905 263.914 82.6855 263.322 81.0605C262.729 79.4355 262.433 77.6582 262.433 75.7285V74.6621C262.433 72.4277 262.763 70.4388 263.423 68.6953C264.083 66.9349 264.981 65.4453 266.115 64.2266C267.249 63.0078 268.535 62.0853 269.974 61.459C271.413 60.8327 272.903 60.5195 274.443 60.5195C276.406 60.5195 278.099 60.8581 279.521 61.5352C280.96 62.2122 282.136 63.1602 283.05 64.3789C283.964 65.5807 284.641 67.0026 285.082 68.6445C285.522 70.2695 285.742 72.0469 285.742 73.9766V76.084H265.226V72.25H281.044V71.8945C280.977 70.6758 280.723 69.4909 280.283 68.3398C279.86 67.1888 279.182 66.2409 278.251 65.4961C277.32 64.7513 276.051 64.3789 274.443 64.3789C273.376 64.3789 272.395 64.6074 271.498 65.0645C270.6 65.5046 269.83 66.1647 269.187 67.0449C268.544 67.9251 268.044 69 267.689 70.2695C267.333 71.5391 267.156 73.0033 267.156 74.6621V75.7285C267.156 77.0319 267.333 78.2591 267.689 79.4102C268.061 80.5443 268.595 81.543 269.289 82.4062C270 83.2695 270.854 83.9466 271.853 84.4375C272.869 84.9284 274.02 85.1738 275.306 85.1738C276.965 85.1738 278.37 84.8353 279.521 84.1582C280.672 83.4811 281.679 82.5755 282.542 81.4414L285.386 83.7012C284.794 84.5983 284.041 85.4531 283.126 86.2656C282.212 87.0781 281.087 87.7383 279.75 88.2461C278.429 88.7539 276.863 89.0078 275.052 89.0078ZM309.025 61.0273H313.291V87.916C313.291 90.3366 312.8 92.4017 311.818 94.1113C310.836 95.821 309.465 97.1159 307.705 97.9961C305.961 98.8932 303.947 99.3418 301.662 99.3418C300.714 99.3418 299.597 99.1895 298.31 98.8848C297.041 98.597 295.788 98.0977 294.552 97.3867C293.333 96.6927 292.309 95.7533 291.48 94.5684L293.943 91.7754C295.094 93.1634 296.296 94.1283 297.548 94.6699C298.818 95.2116 300.07 95.4824 301.306 95.4824C302.796 95.4824 304.082 95.2031 305.166 94.6445C306.249 94.0859 307.087 93.2565 307.679 92.1562C308.289 91.0729 308.593 89.7357 308.593 88.1445V67.0703L309.025 61.0273ZM290.109 75.0684V74.5352C290.109 72.4362 290.354 70.5319 290.845 68.8223C291.353 67.0957 292.072 65.6146 293.003 64.3789C293.951 63.1432 295.094 62.1953 296.431 61.5352C297.768 60.8581 299.275 60.5195 300.951 60.5195C302.677 60.5195 304.184 60.8242 305.47 61.4336C306.774 62.026 307.874 62.8978 308.771 64.0488C309.685 65.1829 310.404 66.554 310.929 68.1621C311.454 69.7702 311.818 71.5898 312.021 73.6211V75.957C311.835 77.9714 311.471 79.7826 310.929 81.3906C310.404 82.9987 309.685 84.3698 308.771 85.5039C307.874 86.638 306.774 87.5098 305.47 88.1191C304.167 88.7116 302.643 89.0078 300.9 89.0078C299.258 89.0078 297.768 88.6608 296.431 87.9668C295.111 87.2728 293.977 86.2995 293.029 85.0469C292.081 83.7943 291.353 82.3216 290.845 80.6289C290.354 78.9193 290.109 77.0658 290.109 75.0684ZM294.806 74.5352V75.0684C294.806 76.4395 294.942 77.7259 295.212 78.9277C295.5 80.1296 295.932 81.1875 296.507 82.1016C297.1 83.0156 297.853 83.735 298.767 84.2598C299.681 84.7676 300.773 85.0215 302.042 85.0215C303.6 85.0215 304.886 84.6914 305.902 84.0312C306.917 83.3711 307.722 82.4993 308.314 81.416C308.923 80.3327 309.397 79.1562 309.736 77.8867V71.7676C309.55 70.8366 309.262 69.9395 308.873 69.0762C308.5 68.196 308.009 67.4173 307.4 66.7402C306.807 66.0462 306.071 65.4961 305.191 65.0898C304.311 64.6836 303.278 64.4805 302.093 64.4805C300.807 64.4805 299.698 64.7513 298.767 65.293C297.853 65.8177 297.1 66.5456 296.507 67.4766C295.932 68.3906 295.5 69.457 295.212 70.6758C294.942 71.8776 294.806 73.1641 294.806 74.5352ZM325.123 65.3438V88.5H320.425V61.0273H324.996L325.123 65.3438ZM333.705 60.875L333.679 65.2422C333.29 65.1576 332.917 65.1068 332.562 65.0898C332.223 65.056 331.834 65.0391 331.394 65.0391C330.311 65.0391 329.354 65.2083 328.525 65.5469C327.695 65.8854 326.993 66.3594 326.417 66.9688C325.842 67.5781 325.385 68.306 325.046 69.1523C324.725 69.9818 324.513 70.8958 324.412 71.8945L323.091 72.6562C323.091 70.9974 323.252 69.4401 323.574 67.9844C323.912 66.5286 324.429 65.2422 325.123 64.125C325.817 62.9909 326.697 62.1107 327.763 61.4844C328.847 60.8411 330.133 60.5195 331.623 60.5195C331.961 60.5195 332.35 60.5618 332.791 60.6465C333.231 60.7142 333.535 60.7904 333.705 60.875ZM353.23 83.8027V69.6602C353.23 68.5768 353.01 67.6374 352.57 66.8418C352.147 66.0293 351.503 65.403 350.64 64.9629C349.777 64.5228 348.71 64.3027 347.441 64.3027C346.256 64.3027 345.215 64.5059 344.318 64.9121C343.438 65.3184 342.744 65.8516 342.236 66.5117C341.745 67.1719 341.5 67.8828 341.5 68.6445H336.802C336.802 67.6628 337.056 66.6895 337.564 65.7246C338.072 64.7598 338.8 63.888 339.748 63.1094C340.712 62.3138 341.863 61.6875 343.201 61.2305C344.555 60.7565 346.061 60.5195 347.72 60.5195C349.718 60.5195 351.478 60.8581 353.001 61.5352C354.542 62.2122 355.744 63.2363 356.607 64.6074C357.487 65.9616 357.927 67.6628 357.927 69.7109V82.5078C357.927 83.4219 358.003 84.3952 358.156 85.4277C358.325 86.4603 358.57 87.349 358.892 88.0938V88.5H353.992C353.755 87.9583 353.569 87.2389 353.433 86.3418C353.298 85.4277 353.23 84.5814 353.23 83.8027ZM354.042 71.8438L354.093 75.1445H349.345C348.008 75.1445 346.815 75.2546 345.765 75.4746C344.716 75.6777 343.835 75.9909 343.125 76.4141C342.414 76.8372 341.872 77.3704 341.5 78.0137C341.127 78.64 340.941 79.3763 340.941 80.2227C340.941 81.0859 341.136 81.873 341.525 82.584C341.914 83.2949 342.498 83.862 343.277 84.2852C344.072 84.6914 345.046 84.8945 346.197 84.8945C347.636 84.8945 348.905 84.5898 350.005 83.9805C351.106 83.3711 351.977 82.6263 352.621 81.7461C353.281 80.8659 353.636 80.0111 353.687 79.1816L355.693 81.4414C355.574 82.1523 355.253 82.9395 354.728 83.8027C354.203 84.666 353.501 85.4954 352.621 86.291C351.757 87.0697 350.725 87.7214 349.523 88.2461C348.338 88.7539 347.001 89.0078 345.511 89.0078C343.649 89.0078 342.016 88.6439 340.611 87.916C339.223 87.1882 338.139 86.2148 337.361 84.9961C336.599 83.7604 336.218 82.3809 336.218 80.8574C336.218 79.3848 336.506 78.0898 337.082 76.9727C337.657 75.8385 338.486 74.8991 339.57 74.1543C340.653 73.3926 341.957 72.8171 343.48 72.4277C345.003 72.0384 346.705 71.8438 348.583 71.8438H354.042ZM369.988 66.4863V88.5H365.265V61.0273H369.734L369.988 66.4863ZM369.023 73.7227L366.839 73.6465C366.856 71.7676 367.102 70.0326 367.576 68.4414C368.05 66.8333 368.752 65.4368 369.683 64.252C370.614 63.0671 371.774 62.153 373.162 61.5098C374.55 60.8496 376.158 60.5195 377.986 60.5195C379.272 60.5195 380.457 60.7057 381.541 61.0781C382.624 61.4336 383.563 62.0007 384.359 62.7793C385.154 63.5579 385.772 64.5566 386.212 65.7754C386.653 66.9941 386.873 68.4668 386.873 70.1934V88.5H382.175V70.4219C382.175 68.9831 381.93 67.832 381.439 66.9688C380.965 66.1055 380.288 65.4792 379.408 65.0898C378.528 64.6836 377.495 64.4805 376.31 64.4805C374.922 64.4805 373.763 64.7259 372.832 65.2168C371.901 65.7077 371.156 66.3848 370.597 67.248C370.039 68.1113 369.632 69.1016 369.378 70.2188C369.141 71.319 369.023 72.487 369.023 73.7227ZM386.822 71.1328L383.673 72.0977C383.69 70.5911 383.936 69.1439 384.41 67.7559C384.901 66.3678 385.603 65.1322 386.517 64.0488C387.448 62.9655 388.591 62.1107 389.945 61.4844C391.299 60.8411 392.848 60.5195 394.591 60.5195C396.064 60.5195 397.367 60.7142 398.501 61.1035C399.653 61.4928 400.617 62.0938 401.396 62.9062C402.192 63.7018 402.792 64.7259 403.199 65.9785C403.605 67.2311 403.808 68.7207 403.808 70.4473V88.5H399.085V70.3965C399.085 68.8561 398.84 67.6628 398.349 66.8164C397.875 65.9531 397.198 65.3522 396.318 65.0137C395.455 64.6582 394.422 64.4805 393.22 64.4805C392.188 64.4805 391.274 64.6582 390.478 65.0137C389.682 65.3691 389.014 65.86 388.472 66.4863C387.931 67.0957 387.516 67.7982 387.228 68.5938C386.957 69.3893 386.822 70.2357 386.822 71.1328Z" fill="white"/>
<path fill-rule="evenodd" clip-rule="evenodd" d="M30.8028 236.5H45.3711C51.8828 236.5 57.0412 236.5 61.0766 237.042C65.2288 237.602 68.591 238.778 71.2446 241.428C73.8946 244.082 75.0708 247.444 75.6306 251.596C75.9495 253.98 76.0806 256.755 76.1337 259.968C76.18 260.237 76.1848 260.512 76.1479 260.783C76.1727 262.788 76.1727 264.956 76.1727 267.302V267.698C76.1727 274.21 76.1727 279.369 75.6306 283.404C75.0708 287.556 73.8946 290.918 71.2446 293.572C68.591 296.222 65.2288 297.398 61.0766 297.958C57.0377 298.5 51.8828 298.5 45.3711 298.5H30.8028C24.2911 298.5 19.1327 298.5 15.0974 297.958C10.9451 297.398 7.58296 296.222 4.92936 293.572C2.2793 290.918 1.10307 287.556 0.543302 283.404C0.00124459 279.365 0.00124458 274.21 0.00124458 267.698V267.302C0.00124458 264.956 0.00124447 262.788 0.0260445 260.783C-0.0119409 260.512 -0.00835662 260.237 0.0366731 259.968C0.0933588 256.755 0.224445 253.98 0.543302 251.596C1.10307 247.444 2.2793 244.082 4.92936 241.428C7.58296 238.778 10.9451 237.602 15.0974 237.042C19.1362 236.5 24.2911 236.5 30.8028 236.5ZM5.32262 263.071C5.31553 264.446 5.31553 265.92 5.31553 267.5C5.31553 274.256 5.32262 279.053 5.81153 282.699C6.28982 286.259 7.1897 288.314 8.68833 289.813C10.187 291.312 12.2418 292.211 15.8059 292.69C19.448 293.179 24.245 293.186 31.0012 293.186H45.1727C51.9289 293.186 56.7295 293.179 60.3715 292.69C63.9321 292.211 65.987 291.312 67.4856 289.813C68.9842 288.314 69.8841 286.259 70.3624 282.695C70.8513 279.053 70.8584 274.256 70.8584 267.5C70.8584 265.92 70.8584 264.446 70.8513 263.071H5.32262ZM70.7663 257.757H5.40764C5.4785 255.677 5.59896 253.881 5.81153 252.301C6.28982 248.741 7.1897 246.686 8.68833 245.187C10.187 243.688 12.2418 242.789 15.8059 242.31C19.448 241.821 24.245 241.814 31.0012 241.814H45.1727C51.9289 241.814 56.7295 241.821 60.3715 242.31C63.9321 242.789 65.987 243.688 67.4856 245.187C68.9842 246.686 69.8841 248.741 70.3624 252.305C70.575 253.881 70.6954 255.677 70.7663 257.757ZM14.1727 281.671C14.1727 280.967 14.4526 280.291 14.9509 279.793C15.4492 279.294 16.1251 279.014 16.8298 279.014H31.0012C31.706 279.014 32.3818 279.294 32.8801 279.793C33.3784 280.291 33.6584 280.967 33.6584 281.671C33.6584 282.376 33.3784 283.052 32.8801 283.55C32.3818 284.049 31.706 284.329 31.0012 284.329H16.8298C16.1251 284.329 15.4492 284.049 14.9509 283.55C14.4526 283.052 14.1727 282.376 14.1727 281.671ZM37.2012 281.671C37.2012 280.967 37.4812 280.291 37.9795 279.793C38.4778 279.294 39.1537 279.014 39.8584 279.014H45.1727C45.8774 279.014 46.5532 279.294 47.0516 279.793C47.5499 280.291 47.8298 280.967 47.8298 281.671C47.8298 282.376 47.5499 283.052 47.0516 283.55C46.5532 284.049 45.8774 284.329 45.1727 284.329H39.8584C39.1537 284.329 38.4778 284.049 37.9795 283.55C37.4812 283.052 37.2012 282.376 37.2012 281.671Z" fill="black"/>
<path fill-rule="evenodd" clip-rule="evenodd" d="M30.8028 236.5H45.3711C51.8828 236.5 57.0412 236.5 61.0766 237.042C65.2288 237.602 68.591 238.778 71.2446 241.428C73.8946 244.082 75.0708 247.444 75.6306 251.596C75.9495 253.98 76.0806 256.755 76.1337 259.968C76.18 260.237 76.1848 260.512 76.1479 260.783C76.1727 262.788 76.1727 264.956 76.1727 267.302V267.698C76.1727 274.21 76.1727 279.369 75.6306 283.404C75.0708 287.556 73.8946 290.918 71.2446 293.572C68.591 296.222 65.2288 297.398 61.0766 297.958C57.0377 298.5 51.8828 298.5 45.3711 298.5H30.8028C24.2911 298.5 19.1327 298.5 15.0974 297.958C10.9451 297.398 7.58296 296.222 4.92936 293.572C2.2793 290.918 1.10307 287.556 0.543302 283.404C0.00124459 279.365 0.00124458 274.21 0.00124458 267.698V267.302C0.00124458 264.956 0.00124447 262.788 0.0260445 260.783C-0.0119409 260.512 -0.00835662 260.237 0.0366731 259.968C0.0933588 256.755 0.224445 253.98 0.543302 251.596C1.10307 247.444 2.2793 244.082 4.92936 241.428C7.58296 238.778 10.9451 237.602 15.0974 237.042C19.1362 236.5 24.2911 236.5 30.8028 236.5ZM5.32262 263.071C5.31553 264.446 5.31553 265.92 5.31553 267.5C5.31553 274.256 5.32262 279.053 5.81153 282.699C6.28982 286.259 7.1897 288.314 8.68833 289.813C10.187 291.312 12.2418 292.211 15.8059 292.69C19.448 293.179 24.245 293.186 31.0012 293.186H45.1727C51.9289 293.186 56.7295 293.179 60.3715 292.69C63.9321 292.211 65.987 291.312 67.4856 289.813C68.9842 288.314 69.8841 286.259 70.3624 282.695C70.8513 279.053 70.8584 274.256 70.8584 267.5C70.8584 265.92 70.8584 264.446 70.8513 263.071H5.32262ZM70.7663 257.757H5.40764C5.4785 255.677 5.59896 253.881 5.81153 252.301C6.28982 248.741 7.1897 246.686 8.68833 245.187C10.187 243.688 12.2418 242.789 15.8059 242.31C19.448 241.821 24.245 241.814 31.0012 241.814H45.1727C51.9289 241.814 56.7295 241.821 60.3715 242.31C63.9321 242.789 65.987 243.688 67.4856 245.187C68.9842 246.686 69.8841 248.741 70.3624 252.305C70.575 253.881 70.6954 255.677 70.7663 257.757ZM14.1727 281.671C14.1727 280.967 14.4526 280.291 14.9509 279.793C15.4492 279.294 16.1251 279.014 16.8298 279.014H31.0012C31.706 279.014 32.3818 279.294 32.8801 279.793C33.3784 280.291 33.6584 280.967 33.6584 281.671C33.6584 282.376 33.3784 283.052 32.8801 283.55C32.3818 284.049 31.706 284.329 31.0012 284.329H16.8298C16.1251 284.329 15.4492 284.049 14.9509 283.55C14.4526 283.052 14.1727 282.376 14.1727 281.671ZM37.2012 281.671C37.2012 280.967 37.4812 280.291 37.9795 279.793C38.4778 279.294 39.1537 279.014 39.8584 279.014H45.1727C45.8774 279.014 46.5532 279.294 47.0516 279.793C47.5499 280.291 47.8298 280.967 47.8298 281.671C47.8298 282.376 47.5499 283.052 47.0516 283.55C46.5532 284.049 45.8774 284.329 45.1727 284.329H39.8584C39.1537 284.329 38.4778 284.049 37.9795 283.55C37.4812 283.052 37.2012 282.376 37.2012 281.671Z" fill="url(#paint0_linear_228_13577)"/>
<path d="M155.807 271.027V237.33H166.088V271.027C166.088 289.702 156.884 298.5 133.503 298.5C110.286 298.5 101 289.702 101 271.027V237.33H111.862V271.027C111.862 283.145 117.251 288.125 133.834 288.125C150.417 288.125 155.807 283.145 155.807 271.027Z" fill="url(#paint1_linear_228_13577)"/>
<path d="M232.89 297.67H179.659C176.508 297.67 173.689 295.844 173.689 292.275C173.689 290.698 174.435 289.204 175.845 287.793L215.893 247.373H174.435V237.33H227.169C230.237 237.33 233.139 239.156 233.139 242.725C233.139 244.302 232.393 245.796 230.983 247.207L190.935 287.627H232.89V297.67Z" fill="url(#paint2_linear_228_13577)"/>
<path d="M284.443 280.904H260.232V270.695H284.443C291.822 270.695 296.217 266.048 296.217 259.242C296.217 252.27 291.822 247.871 284.443 247.871H252.521V297.67H242.074V237.33H284.443C298.373 237.33 306.498 245.713 306.498 258.91C306.498 271.94 298.373 280.904 284.443 280.904Z" fill="url(#paint3_linear_228_13577)"/>
<path d="M380.766 297.67H368.081L359.043 282.481H330.52L335.495 273.932H353.985L340.553 251.357L313.191 297.67H301.168L335.827 239.903C337.07 237.828 338.646 236.5 340.967 236.5C343.289 236.5 344.781 237.828 346.025 239.903L380.766 297.67Z" fill="url(#paint4_linear_228_13577)"/>
<path d="M408.317 297.67H397.787V274.762L365.782 237.33H379.96L403.425 265.135L426.973 237.33H440.405L408.317 274.762V297.67Z" fill="url(#paint5_linear_228_13577)"/>
<path d="M487.261 297.67H442.073V287.129H487.261C492.899 287.129 496.05 283.975 496.05 279.244C496.05 274.098 492.899 271.442 487.261 271.442H459.568C448.208 271.442 441.161 264.222 441.161 254.262C441.161 244.551 447.711 237.33 459.734 237.33H503.015V247.871H459.734C454.925 247.871 452.105 250.693 452.105 255.258C452.105 259.823 455.007 262.562 459.651 262.562H487.261C499.45 262.562 506 268.288 506 279.991C506 290.117 499.864 297.67 487.261 297.67Z" fill="url(#paint6_linear_228_13577)"/>
<defs>
<linearGradient id="paint0_linear_228_13577" x1="38.0387" y1="214.835" x2="38.0387" y2="315.193" gradientUnits="userSpaceOnUse">
<stop stop-color="#B6119D"/>
<stop offset="1" stop-color="#D50931"/>
</linearGradient>
<linearGradient id="paint1_linear_228_13577" x1="303.247" y1="214.835" x2="303.247" y2="315.193" gradientUnits="userSpaceOnUse">
<stop stop-color="#B6119D"/>
<stop offset="1" stop-color="#D50931"/>
</linearGradient>
<linearGradient id="paint2_linear_228_13577" x1="303.247" y1="214.835" x2="303.247" y2="315.193" gradientUnits="userSpaceOnUse">
<stop stop-color="#B6119D"/>
<stop offset="1" stop-color="#D50931"/>
</linearGradient>
<linearGradient id="paint3_linear_228_13577" x1="303.247" y1="214.835" x2="303.247" y2="315.193" gradientUnits="userSpaceOnUse">
<stop stop-color="#B6119D"/>
<stop offset="1" stop-color="#D50931"/>
</linearGradient>
<linearGradient id="paint4_linear_228_13577" x1="303.247" y1="214.835" x2="303.247" y2="315.193" gradientUnits="userSpaceOnUse">
<stop stop-color="#B6119D"/>
<stop offset="1" stop-color="#D50931"/>
</linearGradient>
<linearGradient id="paint5_linear_228_13577" x1="303.247" y1="214.835" x2="303.247" y2="315.193" gradientUnits="userSpaceOnUse">
<stop stop-color="#B6119D"/>
<stop offset="1" stop-color="#D50931"/>
</linearGradient>
<linearGradient id="paint6_linear_228_13577" x1="303.247" y1="214.835" x2="303.247" y2="315.193" gradientUnits="userSpaceOnUse">
<stop stop-color="#B6119D"/>
<stop offset="1" stop-color="#D50931"/>
</linearGradient>
</defs>
</svg>
