<svg width="512" height="461" viewBox="0 0 512 461" fill="none" xmlns="http://www.w3.org/2000/svg">
<path d="M224.5 231C224.5 264.138 197.638 291 164.5 291C131.363 291 104.5 264.138 104.5 231C104.5 197.862 131.363 171 164.5 171C197.638 171 224.5 197.862 224.5 231Z" fill="#0055D5"/>
<path fill-rule="evenodd" clip-rule="evenodd" d="M137.086 214.073C137.086 214.073 130.824 209.081 130.393 221.41C129.962 230.964 129.974 249.518 134.409 258.284C136.283 261.581 138.786 260.57 143.443 257.285C147.494 254.301 162.15 240.833 168.355 234.924C174.56 229.015 187.144 212.064 189.764 223.581C190.799 228.422 192.08 232.532 191.103 243.271C190.799 246.58 189.38 249.089 182.907 244.607C178.018 241.472 173.373 238.105 173.373 238.105C173.373 238.105 172.476 236.503 170.357 239.103C168.693 241.182 167.854 241.693 170.521 243.271C173.198 244.851 186.737 254.162 191.929 255.613C196.213 256.855 198.658 256.833 198.785 248.438C198.762 241.774 198.378 222.699 195.945 214.572C194.106 209.51 191.405 207.211 185.573 212.9C179.74 218.589 161.347 236.375 151.289 244.433C144.619 249.425 141.766 253.93 139.252 245.605C137.482 239.301 135.189 219.68 142.43 223.418C146.958 225.578 149.217 225.566 147.447 226.925C145.678 228.271 140.591 232.927 140.591 232.927C140.591 232.927 139.019 234.193 139.752 236.933C140.486 238.848 140.486 239.8 144.432 236.097C148.379 232.393 151.289 229.595 151.289 229.595C151.289 229.595 151.917 228.608 153.792 230.431C155.666 232.253 155.969 232.764 155.969 232.764C155.969 232.764 156.469 234.123 158.472 231.766C160.486 229.409 161.778 227.969 157.971 225.763C154.176 223.534 137.086 214.073 137.086 214.073Z" fill="white"/>
<path d="M277.954 206.115L258.018 261H249.87L272.825 200.779H278.078L277.954 206.115ZM294.664 261L274.687 206.115L274.562 200.779H279.815L302.853 261H294.664ZM293.63 238.707V245.242H259.797V238.707H293.63ZM316.088 200.779L330.564 223.858L345.04 200.779H354.347L335.321 230.6L354.801 261H345.413L330.564 237.466L315.716 261H306.327L325.808 230.6L306.782 200.779H316.088ZM396.12 245.779C396.12 244.373 395.9 243.132 395.459 242.057C395.045 240.954 394.301 239.961 393.225 239.079C392.177 238.197 390.716 237.356 388.841 236.556C386.994 235.756 384.65 234.943 381.81 234.116C378.832 233.233 376.143 232.255 373.744 231.179C371.346 230.076 369.291 228.822 367.582 227.415C365.872 226.009 364.563 224.396 363.653 222.576C362.743 220.756 362.288 218.675 362.288 216.331C362.288 213.987 362.77 211.823 363.735 209.837C364.7 207.852 366.079 206.129 367.871 204.667C369.691 203.178 371.856 202.02 374.365 201.193C376.874 200.366 379.673 199.952 382.761 199.952C387.283 199.952 391.116 200.821 394.259 202.558C397.43 204.267 399.843 206.515 401.497 209.3C403.152 212.057 403.979 215.007 403.979 218.151H396.038C396.038 215.89 395.555 213.891 394.59 212.153C393.625 210.389 392.164 209.01 390.206 208.017C388.248 206.997 385.767 206.487 382.761 206.487C379.921 206.487 377.577 206.915 375.73 207.769C373.882 208.624 372.504 209.782 371.594 211.244C370.711 212.705 370.27 214.373 370.27 216.248C370.27 217.517 370.532 218.675 371.056 219.722C371.608 220.743 372.449 221.694 373.579 222.576C374.737 223.459 376.199 224.272 377.963 225.017C379.756 225.761 381.892 226.478 384.374 227.167C387.793 228.132 390.744 229.208 393.225 230.393C395.707 231.579 397.747 232.916 399.347 234.405C400.973 235.867 402.173 237.535 402.945 239.41C403.744 241.257 404.144 243.353 404.144 245.697C404.144 248.151 403.648 250.37 402.655 252.356C401.663 254.341 400.243 256.037 398.395 257.443C396.548 258.849 394.328 259.938 391.736 260.71C389.172 261.455 386.304 261.827 383.133 261.827C380.348 261.827 377.605 261.441 374.903 260.669C372.228 259.897 369.788 258.739 367.582 257.195C365.403 255.651 363.653 253.748 362.329 251.487C361.033 249.199 360.385 246.551 360.385 243.546H368.326C368.326 245.614 368.726 247.392 369.526 248.881C370.325 250.343 371.415 251.556 372.793 252.521C374.199 253.486 375.785 254.203 377.55 254.672C379.342 255.113 381.203 255.334 383.133 255.334C385.918 255.334 388.276 254.948 390.206 254.176C392.136 253.403 393.597 252.301 394.59 250.867C395.61 249.433 396.12 247.737 396.12 245.779Z" fill="black" fill-opacity="0.8"/>
</svg>
