<svg width="506" height="453" viewBox="0 0 506 453" fill="none" xmlns="http://www.w3.org/2000/svg">
<path d="M0 39.5217C0 28.7402 8.74018 20 19.5217 20H485.478C496.26 20 505 28.7402 505 39.5217V102.478C505 113.26 496.26 122 485.478 122H19.5223C8.74042 122 0 113.26 0 102.478V39.5217Z" fill="#33ABE0"/>
<path d="M117.572 76.4705L99.7308 70.5831C99.7308 70.5831 97.5986 69.7069 98.2851 67.7202C98.4265 67.3105 98.7116 66.9619 99.5645 66.3628C103.518 63.5721 172.734 38.3756 172.734 38.3756C172.734 38.3756 174.688 37.7086 175.841 38.1523C176.126 38.2417 176.383 38.4062 176.584 38.6289C176.786 38.8517 176.926 39.1248 176.989 39.4202C177.114 39.942 177.166 40.4788 177.144 41.0151C177.139 41.4791 177.083 41.9092 177.041 42.5836C176.62 49.4724 164.004 100.886 164.004 100.886C164.004 100.886 163.249 103.894 160.545 103.997C159.88 104.019 159.218 103.905 158.598 103.662C157.978 103.419 157.413 103.052 156.935 102.583C151.629 97.96 133.287 85.4756 129.234 82.73C129.142 82.6669 129.065 82.5847 129.008 82.4889C128.95 82.3931 128.914 82.2859 128.901 82.1747C128.844 81.8853 129.155 81.5268 129.155 81.5268C129.155 81.5268 161.093 52.7746 161.943 49.7562C162.009 49.5224 161.76 49.407 161.426 49.5094C159.305 50.2998 122.532 73.8192 118.474 76.415C118.182 76.5045 117.873 76.5235 117.572 76.4705Z" fill="white"/>
<path d="M208.816 51.5312V88.5H203.992V51.5312H208.816ZM220.699 51.5312V55.543H192.134V51.5312H220.699ZM234.333 89.0078C232.421 89.0078 230.686 88.6862 229.128 88.043C227.588 87.3828 226.259 86.4603 225.142 85.2754C224.042 84.0905 223.195 82.6855 222.603 81.0605C222.011 79.4355 221.714 77.6582 221.714 75.7285V74.6621C221.714 72.4277 222.044 70.4388 222.705 68.6953C223.365 66.9349 224.262 65.4453 225.396 64.2266C226.53 63.0078 227.817 62.0853 229.255 61.459C230.694 60.8327 232.184 60.5195 233.724 60.5195C235.688 60.5195 237.38 60.8581 238.802 61.5352C240.241 62.2122 241.417 63.1602 242.332 64.3789C243.246 65.5807 243.923 67.0026 244.363 68.6445C244.803 70.2695 245.023 72.0469 245.023 73.9766V76.084H224.507V72.25H240.326V71.8945C240.258 70.6758 240.004 69.4909 239.564 68.3398C239.141 67.1888 238.464 66.2409 237.533 65.4961C236.602 64.7513 235.332 64.3789 233.724 64.3789C232.658 64.3789 231.676 64.6074 230.779 65.0645C229.882 65.5046 229.111 66.1647 228.468 67.0449C227.825 67.9251 227.326 69 226.97 70.2695C226.615 71.5391 226.437 73.0033 226.437 74.6621V75.7285C226.437 77.0319 226.615 78.2591 226.97 79.4102C227.343 80.5443 227.876 81.543 228.57 82.4062C229.281 83.2695 230.136 83.9466 231.134 84.4375C232.15 84.9284 233.301 85.1738 234.587 85.1738C236.246 85.1738 237.651 84.8353 238.802 84.1582C239.953 83.4811 240.96 82.5755 241.824 81.4414L244.667 83.7012C244.075 84.5983 243.322 85.4531 242.408 86.2656C241.494 87.0781 240.368 87.7383 239.031 88.2461C237.71 88.7539 236.145 89.0078 234.333 89.0078ZM255.611 49.5V88.5H250.888V49.5H255.611ZM274.552 89.0078C272.639 89.0078 270.904 88.6862 269.347 88.043C267.807 87.3828 266.478 86.4603 265.361 85.2754C264.261 84.0905 263.414 82.6855 262.822 81.0605C262.229 79.4355 261.933 77.6582 261.933 75.7285V74.6621C261.933 72.4277 262.263 70.4388 262.923 68.6953C263.583 66.9349 264.481 65.4453 265.615 64.2266C266.749 63.0078 268.035 62.0853 269.474 61.459C270.913 60.8327 272.403 60.5195 273.943 60.5195C275.906 60.5195 277.599 60.8581 279.021 61.5352C280.46 62.2122 281.636 63.1602 282.55 64.3789C283.464 65.5807 284.141 67.0026 284.582 68.6445C285.022 70.2695 285.242 72.0469 285.242 73.9766V76.084H264.726V72.25H280.544V71.8945C280.477 70.6758 280.223 69.4909 279.783 68.3398C279.36 67.1888 278.682 66.2409 277.751 65.4961C276.82 64.7513 275.551 64.3789 273.943 64.3789C272.876 64.3789 271.895 64.6074 270.998 65.0645C270.1 65.5046 269.33 66.1647 268.687 67.0449C268.044 67.9251 267.544 69 267.189 70.2695C266.833 71.5391 266.656 73.0033 266.656 74.6621V75.7285C266.656 77.0319 266.833 78.2591 267.189 79.4102C267.561 80.5443 268.095 81.543 268.789 82.4062C269.5 83.2695 270.354 83.9466 271.353 84.4375C272.369 84.9284 273.52 85.1738 274.806 85.1738C276.465 85.1738 277.87 84.8353 279.021 84.1582C280.172 83.4811 281.179 82.5755 282.042 81.4414L284.886 83.7012C284.294 84.5983 283.541 85.4531 282.626 86.2656C281.712 87.0781 280.587 87.7383 279.25 88.2461C277.929 88.7539 276.363 89.0078 274.552 89.0078ZM308.525 61.0273H312.791V87.916C312.791 90.3366 312.3 92.4017 311.318 94.1113C310.336 95.821 308.965 97.1159 307.205 97.9961C305.461 98.8932 303.447 99.3418 301.162 99.3418C300.214 99.3418 299.097 99.1895 297.81 98.8848C296.541 98.597 295.288 98.0977 294.052 97.3867C292.833 96.6927 291.809 95.7533 290.98 94.5684L293.443 91.7754C294.594 93.1634 295.796 94.1283 297.048 94.6699C298.318 95.2116 299.57 95.4824 300.806 95.4824C302.296 95.4824 303.582 95.2031 304.666 94.6445C305.749 94.0859 306.587 93.2565 307.179 92.1562C307.789 91.0729 308.093 89.7357 308.093 88.1445V67.0703L308.525 61.0273ZM289.609 75.0684V74.5352C289.609 72.4362 289.854 70.5319 290.345 68.8223C290.853 67.0957 291.572 65.6146 292.503 64.3789C293.451 63.1432 294.594 62.1953 295.931 61.5352C297.268 60.8581 298.775 60.5195 300.451 60.5195C302.177 60.5195 303.684 60.8242 304.97 61.4336C306.274 62.026 307.374 62.8978 308.271 64.0488C309.185 65.1829 309.904 66.554 310.429 68.1621C310.954 69.7702 311.318 71.5898 311.521 73.6211V75.957C311.335 77.9714 310.971 79.7826 310.429 81.3906C309.904 82.9987 309.185 84.3698 308.271 85.5039C307.374 86.638 306.274 87.5098 304.97 88.1191C303.667 88.7116 302.143 89.0078 300.4 89.0078C298.758 89.0078 297.268 88.6608 295.931 87.9668C294.611 87.2728 293.477 86.2995 292.529 85.0469C291.581 83.7943 290.853 82.3216 290.345 80.6289C289.854 78.9193 289.609 77.0658 289.609 75.0684ZM294.306 74.5352V75.0684C294.306 76.4395 294.442 77.7259 294.712 78.9277C295 80.1296 295.432 81.1875 296.007 82.1016C296.6 83.0156 297.353 83.735 298.267 84.2598C299.181 84.7676 300.273 85.0215 301.542 85.0215C303.1 85.0215 304.386 84.6914 305.402 84.0312C306.417 83.3711 307.222 82.4993 307.814 81.416C308.423 80.3327 308.897 79.1562 309.236 77.8867V71.7676C309.05 70.8366 308.762 69.9395 308.373 69.0762C308 68.196 307.509 67.4173 306.9 66.7402C306.307 66.0462 305.571 65.4961 304.691 65.0898C303.811 64.6836 302.778 64.4805 301.593 64.4805C300.307 64.4805 299.198 64.7513 298.267 65.293C297.353 65.8177 296.6 66.5456 296.007 67.4766C295.432 68.3906 295 69.457 294.712 70.6758C294.442 71.8776 294.306 73.1641 294.306 74.5352ZM324.623 65.3438V88.5H319.925V61.0273H324.496L324.623 65.3438ZM333.205 60.875L333.179 65.2422C332.79 65.1576 332.417 65.1068 332.062 65.0898C331.723 65.056 331.334 65.0391 330.894 65.0391C329.811 65.0391 328.854 65.2083 328.025 65.5469C327.195 65.8854 326.493 66.3594 325.917 66.9688C325.342 67.5781 324.885 68.306 324.546 69.1523C324.225 69.9818 324.013 70.8958 323.912 71.8945L322.591 72.6562C322.591 70.9974 322.752 69.4401 323.074 67.9844C323.412 66.5286 323.929 65.2422 324.623 64.125C325.317 62.9909 326.197 62.1107 327.263 61.4844C328.347 60.8411 329.633 60.5195 331.123 60.5195C331.461 60.5195 331.85 60.5618 332.291 60.6465C332.731 60.7142 333.035 60.7904 333.205 60.875ZM352.73 83.8027V69.6602C352.73 68.5768 352.51 67.6374 352.07 66.8418C351.647 66.0293 351.003 65.403 350.14 64.9629C349.277 64.5228 348.21 64.3027 346.941 64.3027C345.756 64.3027 344.715 64.5059 343.818 64.9121C342.938 65.3184 342.244 65.8516 341.736 66.5117C341.245 67.1719 341 67.8828 341 68.6445H336.302C336.302 67.6628 336.556 66.6895 337.064 65.7246C337.572 64.7598 338.3 63.888 339.248 63.1094C340.212 62.3138 341.363 61.6875 342.701 61.2305C344.055 60.7565 345.561 60.5195 347.22 60.5195C349.218 60.5195 350.978 60.8581 352.501 61.5352C354.042 62.2122 355.244 63.2363 356.107 64.6074C356.987 65.9616 357.427 67.6628 357.427 69.7109V82.5078C357.427 83.4219 357.503 84.3952 357.656 85.4277C357.825 86.4603 358.07 87.349 358.392 88.0938V88.5H353.492C353.255 87.9583 353.069 87.2389 352.933 86.3418C352.798 85.4277 352.73 84.5814 352.73 83.8027ZM353.542 71.8438L353.593 75.1445H348.845C347.508 75.1445 346.315 75.2546 345.265 75.4746C344.216 75.6777 343.335 75.9909 342.625 76.4141C341.914 76.8372 341.372 77.3704 341 78.0137C340.627 78.64 340.441 79.3763 340.441 80.2227C340.441 81.0859 340.636 81.873 341.025 82.584C341.414 83.2949 341.998 83.862 342.777 84.2852C343.572 84.6914 344.546 84.8945 345.697 84.8945C347.136 84.8945 348.405 84.5898 349.505 83.9805C350.606 83.3711 351.477 82.6263 352.121 81.7461C352.781 80.8659 353.136 80.0111 353.187 79.1816L355.193 81.4414C355.074 82.1523 354.753 82.9395 354.228 83.8027C353.703 84.666 353.001 85.4954 352.121 86.291C351.257 87.0697 350.225 87.7214 349.023 88.2461C347.838 88.7539 346.501 89.0078 345.011 89.0078C343.149 89.0078 341.516 88.6439 340.111 87.916C338.723 87.1882 337.639 86.2148 336.861 84.9961C336.099 83.7604 335.718 82.3809 335.718 80.8574C335.718 79.3848 336.006 78.0898 336.582 76.9727C337.157 75.8385 337.986 74.8991 339.07 74.1543C340.153 73.3926 341.457 72.8171 342.98 72.4277C344.503 72.0384 346.205 71.8438 348.083 71.8438H353.542ZM369.488 66.4863V88.5H364.765V61.0273H369.234L369.488 66.4863ZM368.523 73.7227L366.339 73.6465C366.356 71.7676 366.602 70.0326 367.076 68.4414C367.55 66.8333 368.252 65.4368 369.183 64.252C370.114 63.0671 371.274 62.153 372.662 61.5098C374.05 60.8496 375.658 60.5195 377.486 60.5195C378.772 60.5195 379.957 60.7057 381.041 61.0781C382.124 61.4336 383.063 62.0007 383.859 62.7793C384.654 63.5579 385.272 64.5566 385.712 65.7754C386.153 66.9941 386.373 68.4668 386.373 70.1934V88.5H381.675V70.4219C381.675 68.9831 381.43 67.832 380.939 66.9688C380.465 66.1055 379.788 65.4792 378.908 65.0898C378.028 64.6836 376.995 64.4805 375.81 64.4805C374.422 64.4805 373.263 64.7259 372.332 65.2168C371.401 65.7077 370.656 66.3848 370.097 67.248C369.539 68.1113 369.132 69.1016 368.878 70.2188C368.641 71.319 368.523 72.487 368.523 73.7227ZM386.322 71.1328L383.173 72.0977C383.19 70.5911 383.436 69.1439 383.91 67.7559C384.401 66.3678 385.103 65.1322 386.017 64.0488C386.948 62.9655 388.091 62.1107 389.445 61.4844C390.799 60.8411 392.348 60.5195 394.091 60.5195C395.564 60.5195 396.867 60.7142 398.001 61.1035C399.153 61.4928 400.117 62.0938 400.896 62.9062C401.692 63.7018 402.292 64.7259 402.699 65.9785C403.105 67.2311 403.308 68.7207 403.308 70.4473V88.5H398.585V70.3965C398.585 68.8561 398.34 67.6628 397.849 66.8164C397.375 65.9531 396.698 65.3522 395.818 65.0137C394.955 64.6582 393.922 64.4805 392.72 64.4805C391.688 64.4805 390.774 64.6582 389.978 65.0137C389.182 65.3691 388.514 65.86 387.972 66.4863C387.431 67.0957 387.016 67.7982 386.728 68.5938C386.457 69.3893 386.322 70.2357 386.322 71.1328Z" fill="white"/>
<circle cx="165.977" cy="334.099" r="11.7324" fill="#36D058"/>
<path d="M307.604 254.486C307.604 244.801 305.881 235.212 302.533 226.264C299.184 217.317 294.277 209.187 288.09 202.339C281.904 195.491 274.559 190.059 266.476 186.353C258.393 182.647 249.73 180.74 240.981 180.74C232.232 180.74 223.568 182.647 215.485 186.353C207.402 190.059 200.057 195.491 193.871 202.339C187.684 209.187 182.777 217.317 179.429 226.264C176.081 235.212 174.357 244.801 174.357 254.486L240.981 254.486H307.604Z" fill="#51B0BD"/>
<path d="M307.604 254.486C307.604 244.801 305.881 235.212 302.533 226.264C299.184 217.317 294.277 209.187 288.091 202.339C281.904 195.491 274.559 190.059 266.476 186.353C258.393 182.647 249.311 180.74 240.562 180.74V254.486H307.604Z" fill="#2297A5"/>
<path fill-rule="evenodd" clip-rule="evenodd" d="M174.358 254.486H240.562V249.458H174.513C174.409 251.129 174.358 252.806 174.358 254.486Z" fill="#D4424F"/>
<path fill-rule="evenodd" clip-rule="evenodd" d="M307.448 249.458C307.552 251.129 307.604 252.806 307.604 254.486H240.562L240.562 249.458H307.448Z" fill="#B50019"/>
<path d="M199.498 224.317C207.879 206.886 230.086 201.411 240.143 200.852C270.312 199.595 290.005 226.831 285.396 241.077C280.787 255.324 265.284 252.81 263.607 252.81C261.931 252.81 249.361 250.715 240.143 250.715C230.924 250.715 215.002 252.81 209.974 252.81C204.945 252.81 189.023 246.106 199.498 224.317Z" fill="white"/>
<circle cx="222.963" cy="221.803" r="7.54225" fill="#16ADC3"/>
<circle cx="258.16" cy="221.803" r="7.54225" fill="#16ADC3"/>
<path fill-rule="evenodd" clip-rule="evenodd" d="M247.266 159.538C251.23 157.722 253.97 153.826 253.97 149.313C253.97 143.065 248.717 138 242.238 138C235.758 138 230.505 143.065 230.505 149.313C230.505 153.501 232.865 157.157 236.372 159.113V171.521H247.266V159.538Z" fill="#51B0BD"/>
<path d="M242.238 160.627C245.349 160.627 248.334 159.435 250.534 157.313C252.734 155.191 253.97 152.314 253.97 149.313C253.97 146.313 252.734 143.435 250.534 141.314C248.334 139.192 245.349 138 242.238 138L242.238 149.313L242.238 160.627Z" fill="#2297A5"/>
<rect x="242.238" y="158.951" width="5.02817" height="12.5704" fill="#2297A5"/>
<path fill-rule="evenodd" clip-rule="evenodd" d="M167.653 264.542H314.308C316.264 265.939 320.174 270.241 320.174 276.275V323.137C324.585 324.823 327.717 329.095 327.717 334.099C327.717 340.578 322.464 345.831 315.984 345.831C309.505 345.831 304.252 340.578 304.252 334.099C304.252 329.255 307.187 325.097 311.375 323.306V292.616C309.839 293.175 306.263 294.376 304.252 294.711V309.377C303.274 321.109 295.788 344.742 273.664 345.412C251.54 346.082 225.338 345.691 215.002 345.412C202.431 345.971 177.458 339.546 178.129 309.377V294.711C176.313 294.991 172.179 294.963 170.167 292.616V329.489H161.787V278.37C161.368 275.576 161.955 268.9 167.653 264.542Z" fill="#169830"/>
<path d="M178.129 309.377C177.458 339.546 202.431 345.971 215.002 345.412H240.5V264.542H167.653C161.955 268.9 161.368 275.576 161.787 278.37V329.489H170.167V292.616C172.179 294.963 176.313 294.991 178.129 294.711V309.377Z" fill="#49B65F"/>
<path fill-rule="evenodd" clip-rule="evenodd" d="M314.308 264.542L167.653 264.542C166.67 265.294 165.839 266.115 165.139 266.973V269.57H318.485C317.185 267.09 315.427 265.341 314.308 264.542Z" fill="#B50019"/>
<path fill-rule="evenodd" clip-rule="evenodd" d="M163.44 269.57H240.561V264.542H167.653C165.707 266.03 164.357 267.789 163.44 269.57Z" fill="#D4424F"/>
<path d="M269.893 355.049C269.893 357.801 269.145 360.525 267.692 363.067C266.239 365.609 264.109 367.918 261.425 369.864C258.74 371.809 255.553 373.352 252.045 374.405C248.537 375.458 244.778 376 240.981 376C237.184 376 233.424 375.458 229.917 374.405C226.409 373.352 223.222 371.809 220.537 369.864C217.852 367.918 215.723 365.609 214.27 363.067C212.817 360.525 212.069 357.801 212.069 355.049L240.981 355.049H269.893Z" fill="#49B65F"/>
<path d="M269.893 355.049C269.893 357.801 269.145 360.525 267.692 363.067C266.239 365.609 264.109 367.918 261.425 369.864C258.74 371.809 255.553 373.352 252.045 374.405C248.537 375.458 244.778 376 240.981 376L240.981 355.049H269.893Z" fill="#169830"/>
<path d="M259.836 284.655L261.341 289.288L266.212 289.288L262.272 292.151L263.777 296.783L259.836 293.92L255.895 296.783L257.401 292.151L253.46 289.288L258.331 289.288L259.836 284.655Z" fill="white"/>
<path d="M274.921 284.655L276.426 289.288L281.297 289.288L277.356 292.151L278.861 296.783L274.921 293.92L270.98 296.783L272.485 292.151L268.544 289.288L273.415 289.288L274.921 284.655Z" fill="white"/>
<path d="M290.005 284.655L291.51 289.288L296.381 289.288L292.441 292.151L293.946 296.783L290.005 293.92L286.065 296.783L287.57 292.151L283.629 289.288L288.5 289.288L290.005 284.655Z" fill="white"/>
<path d="M244.752 300.578L246.257 305.21L251.128 305.21L247.187 308.073L248.692 312.706L244.752 309.843L240.811 312.706L242.316 308.073L238.376 305.21L243.247 305.21L244.752 300.578Z" fill="white"/>
<path d="M259.836 300.578L261.341 305.21L266.212 305.21L262.272 308.073L263.777 312.706L259.836 309.843L255.895 312.706L257.401 308.073L253.46 305.21L258.331 305.21L259.836 300.578Z" fill="white"/>
<path d="M274.921 300.578L276.426 305.21L281.297 305.21L277.356 308.073L278.862 312.706L274.921 309.843L270.98 312.706L272.486 308.073L268.545 305.21L273.416 305.21L274.921 300.578Z" fill="white"/>
<path d="M290.005 300.578L291.51 305.21L296.381 305.21L292.441 308.073L293.946 312.706L290.005 309.843L286.065 312.706L287.57 308.073L283.629 305.21L288.5 305.21L290.005 300.578Z" fill="white"/>
<path d="M226.315 316.5L227.82 321.133L232.691 321.133L228.751 323.996L230.256 328.628L226.315 325.765L222.374 328.628L223.88 323.996L219.939 321.133L224.81 321.133L226.315 316.5Z" fill="white"/>
<path d="M242.238 316.5L243.743 321.133L248.614 321.133L244.673 323.996L246.178 328.628L242.238 325.765L238.297 328.628L239.802 323.996L235.862 321.133L240.732 321.133L242.238 316.5Z" fill="white"/>
<path d="M258.16 316.5L259.665 321.133L264.536 321.133L260.596 323.996L262.101 328.628L258.16 325.765L254.22 328.628L255.725 323.996L251.784 321.133L256.655 321.133L258.16 316.5Z" fill="white"/>
<path d="M274.083 316.5L275.588 321.133L280.459 321.133L276.518 323.996L278.024 328.628L274.083 325.765L270.142 328.628L271.647 323.996L267.707 321.133L272.578 321.133L274.083 316.5Z" fill="white"/>
<path d="M290.005 316.5L291.51 321.133L296.381 321.133L292.441 323.996L293.946 328.628L290.005 325.765L286.065 328.628L287.57 323.996L283.629 321.133L288.5 321.133L290.005 316.5Z" fill="white"/>
<path d="M213.935 281.58C211.159 280.897 208.276 280.7 205.45 280.999C204.264 281.122 201.969 281.571 201.21 281.828C201.112 281.858 200.723 281.99 200.349 282.114C199.543 282.376 198.681 282.715 197.951 283.046C197.183 283.394 196.169 283.894 196.048 283.983C195.99 284.026 195.73 284.186 195.472 284.338C189.405 287.923 185.111 293.983 183.692 300.962C182.549 306.572 183.336 312.341 185.942 317.414C187.611 320.658 189.847 323.368 192.721 325.62C194.037 326.651 195.589 327.617 197.131 328.354C198.329 328.927 198.938 329.163 200.373 329.613C201.747 330.049 202.291 330.183 203.405 330.381C203.73 330.438 204.101 330.505 204.225 330.536C204.35 330.563 204.692 330.605 204.983 330.631C207.77 330.851 209.36 330.806 211.608 330.444C213.251 330.179 214.507 329.857 216.001 329.32C217.19 328.891 217.31 328.819 217.19 328.584C217.147 328.501 217.055 328.46 216.362 328.222C210.014 326.021 204.888 321.189 202.189 314.868C199.433 308.407 199.621 300.947 202.701 294.535C205.249 289.223 209.601 285.026 215.012 282.655C215.556 282.416 215.55 282.422 215.589 282.296C215.65 282.102 215.577 282.051 214.973 281.865C214.67 281.774 214.205 281.648 213.935 281.58Z" fill="#FAFEFD"/>
<circle cx="165.977" cy="334.099" r="11.7324" fill="#49B65F"/>
</svg>
