<svg width="512" height="461" viewBox="0 0 512 461" fill="none" xmlns="http://www.w3.org/2000/svg">
<path fill-rule="evenodd" clip-rule="evenodd" d="M139.5 291C172.637 291 199.5 264.137 199.5 231C199.5 197.863 172.637 171 139.5 171C106.363 171 79.5 197.863 79.5 231C79.5 264.137 106.363 291 139.5 291ZM113.727 225.114L144.072 203.516C145.016 202.844 146.078 202.253 147.236 202.308C148.928 202.386 150.581 203.352 149.7 206.7L144.592 220.605C144.493 220.876 144.375 221.14 144.258 221.404C144.147 221.656 144.036 221.908 143.94 222.166C143.443 223.491 143.333 225.412 145.5 226.2L159.994 233.168C160.728 233.521 161.447 233.941 161.942 234.587C162.948 235.899 163.56 237.886 161.1 239.4L131.1 261.3C129.758 262.485 127.242 263.782 125.889 261.673C124.965 260.234 125.448 258.367 126.108 256.789L132 242.7C132.454 241.701 131.589 239.548 129.405 238.487C129.209 238.392 129.009 238.303 128.81 238.215C128.545 238.098 128.281 237.981 128.024 237.847L115.162 231.149C114.872 230.998 114.571 230.869 114.271 230.739C113.976 230.613 113.683 230.487 113.399 230.34C112.517 229.885 111.639 229.096 111.622 227.956C111.604 226.718 112.718 225.831 113.727 225.114Z" fill="#813AEC"/>
<path d="M246.81 261H234.236L234.319 254.506H246.81C251.111 254.506 254.696 253.61 257.563 251.818C260.431 249.998 262.582 247.461 264.016 244.208C265.477 240.926 266.208 237.094 266.208 232.71V229.028C266.208 225.582 265.794 222.521 264.967 219.847C264.14 217.144 262.926 214.869 261.327 213.022C259.728 211.147 257.77 209.727 255.454 208.762C253.165 207.797 250.532 207.314 247.554 207.314H233.988V200.779H247.554C251.497 200.779 255.096 201.441 258.349 202.765C261.603 204.061 264.402 205.949 266.745 208.431C269.117 210.885 270.937 213.863 272.205 217.365C273.473 220.839 274.108 224.755 274.108 229.111V232.71C274.108 237.066 273.473 240.995 272.205 244.497C270.937 247.972 269.103 250.936 266.704 253.39C264.333 255.844 261.465 257.733 258.101 259.056C254.765 260.352 251.001 261 246.81 261ZM238.496 200.779V261H230.514V200.779H238.496ZM324.36 254.506V261H292.472V254.506H324.36ZM294.085 200.779V261H286.102V200.779H294.085ZM320.142 226.671V233.165H292.472V226.671H320.142ZM323.947 200.779V207.314H292.472V200.779H323.947ZM366.341 245.779C366.341 244.373 366.12 243.132 365.679 242.057C365.266 240.954 364.521 239.961 363.446 239.079C362.398 238.197 360.937 237.356 359.062 236.556C357.214 235.756 354.87 234.943 352.03 234.116C349.052 233.233 346.364 232.255 343.965 231.179C341.566 230.076 339.512 228.822 337.802 227.415C336.093 226.009 334.783 224.396 333.873 222.576C332.963 220.756 332.508 218.675 332.508 216.331C332.508 213.987 332.991 211.823 333.956 209.837C334.921 207.852 336.3 206.129 338.092 204.667C339.912 203.178 342.076 202.02 344.585 201.193C347.095 200.366 349.893 199.952 352.982 199.952C357.504 199.952 361.336 200.821 364.48 202.558C367.651 204.267 370.063 206.515 371.718 209.3C373.372 212.057 374.199 215.007 374.199 218.151H366.258C366.258 215.89 365.776 213.891 364.811 212.153C363.846 210.389 362.384 209.01 360.426 208.017C358.469 206.997 355.987 206.487 352.982 206.487C350.142 206.487 347.798 206.915 345.95 207.769C344.103 208.624 342.724 209.782 341.814 211.244C340.932 212.705 340.491 214.373 340.491 216.248C340.491 217.517 340.753 218.675 341.277 219.722C341.828 220.743 342.669 221.694 343.8 222.576C344.958 223.459 346.419 224.272 348.184 225.017C349.976 225.761 352.113 226.478 354.595 227.167C358.014 228.132 360.964 229.208 363.446 230.393C365.927 231.579 367.968 232.916 369.567 234.405C371.194 235.867 372.393 237.535 373.165 239.41C373.965 241.257 374.365 243.353 374.365 245.697C374.365 248.151 373.869 250.37 372.876 252.356C371.883 254.341 370.463 256.037 368.616 257.443C366.768 258.849 364.549 259.938 361.957 260.71C359.392 261.455 356.525 261.827 353.354 261.827C350.569 261.827 347.825 261.441 345.123 260.669C342.449 259.897 340.008 258.739 337.802 257.195C335.624 255.651 333.873 253.748 332.55 251.487C331.254 249.199 330.606 246.551 330.606 243.546H338.547C338.547 245.614 338.947 247.392 339.746 248.881C340.546 250.343 341.635 251.556 343.014 252.521C344.42 253.486 346.006 254.203 347.77 254.672C349.563 255.113 351.424 255.334 353.354 255.334C356.139 255.334 358.496 254.948 360.426 254.176C362.357 253.403 363.818 252.301 364.811 250.867C365.831 249.433 366.341 247.737 366.341 245.779ZM418.993 200.779H426.934V241.519C426.934 246.041 425.927 249.805 423.915 252.811C421.902 255.816 419.227 258.077 415.891 259.594C412.582 261.083 408.983 261.827 405.096 261.827C401.015 261.827 397.32 261.083 394.011 259.594C390.73 258.077 388.124 255.816 386.194 252.811C384.291 249.805 383.34 246.041 383.34 241.519V200.779H391.24V241.519C391.24 244.663 391.819 247.255 392.977 249.295C394.135 251.335 395.748 252.852 397.816 253.845C399.912 254.837 402.338 255.334 405.096 255.334C407.881 255.334 410.307 254.837 412.375 253.845C414.471 252.852 416.097 251.335 417.256 249.295C418.414 247.255 418.993 244.663 418.993 241.519V200.779Z" fill="black" fill-opacity="0.8"/>
</svg>
