<svg width="506" height="453" viewBox="0 0 506 453" fill="none" xmlns="http://www.w3.org/2000/svg">
<path d="M0 39.5217C0 28.7402 8.74018 20 19.5217 20H485.478C496.26 20 505 28.7402 505 39.5217V102.478C505 113.26 496.26 122 485.478 122H19.5223C8.74042 122 0 113.26 0 102.478V39.5217Z" fill="#33ABE0"/>
<path d="M117.572 76.4705L99.7308 70.5831C99.7308 70.5831 97.5986 69.7069 98.2851 67.7202C98.4265 67.3105 98.7116 66.9619 99.5645 66.3628C103.518 63.5721 172.734 38.3756 172.734 38.3756C172.734 38.3756 174.688 37.7086 175.841 38.1523C176.126 38.2417 176.383 38.4062 176.584 38.6289C176.786 38.8517 176.926 39.1248 176.989 39.4202C177.114 39.942 177.166 40.4788 177.144 41.0151C177.139 41.4791 177.083 41.9092 177.041 42.5836C176.62 49.4724 164.004 100.886 164.004 100.886C164.004 100.886 163.249 103.894 160.545 103.997C159.88 104.019 159.218 103.905 158.598 103.662C157.978 103.419 157.413 103.052 156.935 102.583C151.629 97.96 133.287 85.4756 129.234 82.73C129.142 82.6669 129.065 82.5847 129.008 82.4889C128.95 82.3931 128.914 82.2859 128.901 82.1747C128.844 81.8853 129.155 81.5268 129.155 81.5268C129.155 81.5268 161.093 52.7746 161.943 49.7562C162.009 49.5224 161.76 49.407 161.426 49.5094C159.305 50.2998 122.532 73.8192 118.474 76.415C118.182 76.5045 117.873 76.5235 117.572 76.4705Z" fill="white"/>
<path d="M208.816 51.5312V88.5H203.992V51.5312H208.816ZM220.699 51.5312V55.543H192.134V51.5312H220.699ZM234.333 89.0078C232.421 89.0078 230.686 88.6862 229.128 88.043C227.588 87.3828 226.259 86.4603 225.142 85.2754C224.042 84.0905 223.195 82.6855 222.603 81.0605C222.011 79.4355 221.714 77.6582 221.714 75.7285V74.6621C221.714 72.4277 222.044 70.4388 222.705 68.6953C223.365 66.9349 224.262 65.4453 225.396 64.2266C226.53 63.0078 227.817 62.0853 229.255 61.459C230.694 60.8327 232.184 60.5195 233.724 60.5195C235.688 60.5195 237.38 60.8581 238.802 61.5352C240.241 62.2122 241.417 63.1602 242.332 64.3789C243.246 65.5807 243.923 67.0026 244.363 68.6445C244.803 70.2695 245.023 72.0469 245.023 73.9766V76.084H224.507V72.25H240.326V71.8945C240.258 70.6758 240.004 69.4909 239.564 68.3398C239.141 67.1888 238.464 66.2409 237.533 65.4961C236.602 64.7513 235.332 64.3789 233.724 64.3789C232.658 64.3789 231.676 64.6074 230.779 65.0645C229.882 65.5046 229.111 66.1647 228.468 67.0449C227.825 67.9251 227.326 69 226.97 70.2695C226.615 71.5391 226.437 73.0033 226.437 74.6621V75.7285C226.437 77.0319 226.615 78.2591 226.97 79.4102C227.343 80.5443 227.876 81.543 228.57 82.4062C229.281 83.2695 230.136 83.9466 231.134 84.4375C232.15 84.9284 233.301 85.1738 234.587 85.1738C236.246 85.1738 237.651 84.8353 238.802 84.1582C239.953 83.4811 240.96 82.5755 241.824 81.4414L244.667 83.7012C244.075 84.5983 243.322 85.4531 242.408 86.2656C241.494 87.0781 240.368 87.7383 239.031 88.2461C237.71 88.7539 236.145 89.0078 234.333 89.0078ZM255.611 49.5V88.5H250.888V49.5H255.611ZM274.552 89.0078C272.639 89.0078 270.904 88.6862 269.347 88.043C267.807 87.3828 266.478 86.4603 265.361 85.2754C264.261 84.0905 263.414 82.6855 262.822 81.0605C262.229 79.4355 261.933 77.6582 261.933 75.7285V74.6621C261.933 72.4277 262.263 70.4388 262.923 68.6953C263.583 66.9349 264.481 65.4453 265.615 64.2266C266.749 63.0078 268.035 62.0853 269.474 61.459C270.913 60.8327 272.403 60.5195 273.943 60.5195C275.906 60.5195 277.599 60.8581 279.021 61.5352C280.46 62.2122 281.636 63.1602 282.55 64.3789C283.464 65.5807 284.141 67.0026 284.582 68.6445C285.022 70.2695 285.242 72.0469 285.242 73.9766V76.084H264.726V72.25H280.544V71.8945C280.477 70.6758 280.223 69.4909 279.783 68.3398C279.36 67.1888 278.682 66.2409 277.751 65.4961C276.82 64.7513 275.551 64.3789 273.943 64.3789C272.876 64.3789 271.895 64.6074 270.998 65.0645C270.1 65.5046 269.33 66.1647 268.687 67.0449C268.044 67.9251 267.544 69 267.189 70.2695C266.833 71.5391 266.656 73.0033 266.656 74.6621V75.7285C266.656 77.0319 266.833 78.2591 267.189 79.4102C267.561 80.5443 268.095 81.543 268.789 82.4062C269.5 83.2695 270.354 83.9466 271.353 84.4375C272.369 84.9284 273.52 85.1738 274.806 85.1738C276.465 85.1738 277.87 84.8353 279.021 84.1582C280.172 83.4811 281.179 82.5755 282.042 81.4414L284.886 83.7012C284.294 84.5983 283.541 85.4531 282.626 86.2656C281.712 87.0781 280.587 87.7383 279.25 88.2461C277.929 88.7539 276.363 89.0078 274.552 89.0078ZM308.525 61.0273H312.791V87.916C312.791 90.3366 312.3 92.4017 311.318 94.1113C310.336 95.821 308.965 97.1159 307.205 97.9961C305.461 98.8932 303.447 99.3418 301.162 99.3418C300.214 99.3418 299.097 99.1895 297.81 98.8848C296.541 98.597 295.288 98.0977 294.052 97.3867C292.833 96.6927 291.809 95.7533 290.98 94.5684L293.443 91.7754C294.594 93.1634 295.796 94.1283 297.048 94.6699C298.318 95.2116 299.57 95.4824 300.806 95.4824C302.296 95.4824 303.582 95.2031 304.666 94.6445C305.749 94.0859 306.587 93.2565 307.179 92.1562C307.789 91.0729 308.093 89.7357 308.093 88.1445V67.0703L308.525 61.0273ZM289.609 75.0684V74.5352C289.609 72.4362 289.854 70.5319 290.345 68.8223C290.853 67.0957 291.572 65.6146 292.503 64.3789C293.451 63.1432 294.594 62.1953 295.931 61.5352C297.268 60.8581 298.775 60.5195 300.451 60.5195C302.177 60.5195 303.684 60.8242 304.97 61.4336C306.274 62.026 307.374 62.8978 308.271 64.0488C309.185 65.1829 309.904 66.554 310.429 68.1621C310.954 69.7702 311.318 71.5898 311.521 73.6211V75.957C311.335 77.9714 310.971 79.7826 310.429 81.3906C309.904 82.9987 309.185 84.3698 308.271 85.5039C307.374 86.638 306.274 87.5098 304.97 88.1191C303.667 88.7116 302.143 89.0078 300.4 89.0078C298.758 89.0078 297.268 88.6608 295.931 87.9668C294.611 87.2728 293.477 86.2995 292.529 85.0469C291.581 83.7943 290.853 82.3216 290.345 80.6289C289.854 78.9193 289.609 77.0658 289.609 75.0684ZM294.306 74.5352V75.0684C294.306 76.4395 294.442 77.7259 294.712 78.9277C295 80.1296 295.432 81.1875 296.007 82.1016C296.6 83.0156 297.353 83.735 298.267 84.2598C299.181 84.7676 300.273 85.0215 301.542 85.0215C303.1 85.0215 304.386 84.6914 305.402 84.0312C306.417 83.3711 307.222 82.4993 307.814 81.416C308.423 80.3327 308.897 79.1562 309.236 77.8867V71.7676C309.05 70.8366 308.762 69.9395 308.373 69.0762C308 68.196 307.509 67.4173 306.9 66.7402C306.307 66.0462 305.571 65.4961 304.691 65.0898C303.811 64.6836 302.778 64.4805 301.593 64.4805C300.307 64.4805 299.198 64.7513 298.267 65.293C297.353 65.8177 296.6 66.5456 296.007 67.4766C295.432 68.3906 295 69.457 294.712 70.6758C294.442 71.8776 294.306 73.1641 294.306 74.5352ZM324.623 65.3438V88.5H319.925V61.0273H324.496L324.623 65.3438ZM333.205 60.875L333.179 65.2422C332.79 65.1576 332.417 65.1068 332.062 65.0898C331.723 65.056 331.334 65.0391 330.894 65.0391C329.811 65.0391 328.854 65.2083 328.025 65.5469C327.195 65.8854 326.493 66.3594 325.917 66.9688C325.342 67.5781 324.885 68.306 324.546 69.1523C324.225 69.9818 324.013 70.8958 323.912 71.8945L322.591 72.6562C322.591 70.9974 322.752 69.4401 323.074 67.9844C323.412 66.5286 323.929 65.2422 324.623 64.125C325.317 62.9909 326.197 62.1107 327.263 61.4844C328.347 60.8411 329.633 60.5195 331.123 60.5195C331.461 60.5195 331.85 60.5618 332.291 60.6465C332.731 60.7142 333.035 60.7904 333.205 60.875ZM352.73 83.8027V69.6602C352.73 68.5768 352.51 67.6374 352.07 66.8418C351.647 66.0293 351.003 65.403 350.14 64.9629C349.277 64.5228 348.21 64.3027 346.941 64.3027C345.756 64.3027 344.715 64.5059 343.818 64.9121C342.938 65.3184 342.244 65.8516 341.736 66.5117C341.245 67.1719 341 67.8828 341 68.6445H336.302C336.302 67.6628 336.556 66.6895 337.064 65.7246C337.572 64.7598 338.3 63.888 339.248 63.1094C340.212 62.3138 341.363 61.6875 342.701 61.2305C344.055 60.7565 345.561 60.5195 347.22 60.5195C349.218 60.5195 350.978 60.8581 352.501 61.5352C354.042 62.2122 355.244 63.2363 356.107 64.6074C356.987 65.9616 357.427 67.6628 357.427 69.7109V82.5078C357.427 83.4219 357.503 84.3952 357.656 85.4277C357.825 86.4603 358.07 87.349 358.392 88.0938V88.5H353.492C353.255 87.9583 353.069 87.2389 352.933 86.3418C352.798 85.4277 352.73 84.5814 352.73 83.8027ZM353.542 71.8438L353.593 75.1445H348.845C347.508 75.1445 346.315 75.2546 345.265 75.4746C344.216 75.6777 343.335 75.9909 342.625 76.4141C341.914 76.8372 341.372 77.3704 341 78.0137C340.627 78.64 340.441 79.3763 340.441 80.2227C340.441 81.0859 340.636 81.873 341.025 82.584C341.414 83.2949 341.998 83.862 342.777 84.2852C343.572 84.6914 344.546 84.8945 345.697 84.8945C347.136 84.8945 348.405 84.5898 349.505 83.9805C350.606 83.3711 351.477 82.6263 352.121 81.7461C352.781 80.8659 353.136 80.0111 353.187 79.1816L355.193 81.4414C355.074 82.1523 354.753 82.9395 354.228 83.8027C353.703 84.666 353.001 85.4954 352.121 86.291C351.257 87.0697 350.225 87.7214 349.023 88.2461C347.838 88.7539 346.501 89.0078 345.011 89.0078C343.149 89.0078 341.516 88.6439 340.111 87.916C338.723 87.1882 337.639 86.2148 336.861 84.9961C336.099 83.7604 335.718 82.3809 335.718 80.8574C335.718 79.3848 336.006 78.0898 336.582 76.9727C337.157 75.8385 337.986 74.8991 339.07 74.1543C340.153 73.3926 341.457 72.8171 342.98 72.4277C344.503 72.0384 346.205 71.8438 348.083 71.8438H353.542ZM369.488 66.4863V88.5H364.765V61.0273H369.234L369.488 66.4863ZM368.523 73.7227L366.339 73.6465C366.356 71.7676 366.602 70.0326 367.076 68.4414C367.55 66.8333 368.252 65.4368 369.183 64.252C370.114 63.0671 371.274 62.153 372.662 61.5098C374.05 60.8496 375.658 60.5195 377.486 60.5195C378.772 60.5195 379.957 60.7057 381.041 61.0781C382.124 61.4336 383.063 62.0007 383.859 62.7793C384.654 63.5579 385.272 64.5566 385.712 65.7754C386.153 66.9941 386.373 68.4668 386.373 70.1934V88.5H381.675V70.4219C381.675 68.9831 381.43 67.832 380.939 66.9688C380.465 66.1055 379.788 65.4792 378.908 65.0898C378.028 64.6836 376.995 64.4805 375.81 64.4805C374.422 64.4805 373.263 64.7259 372.332 65.2168C371.401 65.7077 370.656 66.3848 370.097 67.248C369.539 68.1113 369.132 69.1016 368.878 70.2188C368.641 71.319 368.523 72.487 368.523 73.7227ZM386.322 71.1328L383.173 72.0977C383.19 70.5911 383.436 69.1439 383.91 67.7559C384.401 66.3678 385.103 65.1322 386.017 64.0488C386.948 62.9655 388.091 62.1107 389.445 61.4844C390.799 60.8411 392.348 60.5195 394.091 60.5195C395.564 60.5195 396.867 60.7142 398.001 61.1035C399.153 61.4928 400.117 62.0938 400.896 62.9062C401.692 63.7018 402.292 64.7259 402.699 65.9785C403.105 67.2311 403.308 68.7207 403.308 70.4473V88.5H398.585V70.3965C398.585 68.8561 398.34 67.6628 397.849 66.8164C397.375 65.9531 396.698 65.3522 395.818 65.0137C394.955 64.6582 393.922 64.4805 392.72 64.4805C391.688 64.4805 390.774 64.6582 389.978 65.0137C389.182 65.3691 388.514 65.86 387.972 66.4863C387.431 67.0957 387.016 67.7982 386.728 68.5938C386.457 69.3893 386.322 70.2357 386.322 71.1328Z" fill="white"/>
<path fill-rule="evenodd" clip-rule="evenodd" d="M426.333 208.833L429.833 196H494L488.167 208.833H426.333ZM19.1667 217L11 249.667H33.1667L36.6667 235.667H63.5C72.8333 235.667 83.3333 233.333 86.8333 217C89.6333 203.933 80.2222 198.333 75.1667 197.167H23.8333V210H42.5C56.5 210 61.1667 210 61.1667 217C61.1667 222.6 48.7222 222.444 42.5 221.667V217H19.1667ZM99.6667 249.667H75.1667L116 197.167H141.667L152.167 249.667H113.667V238H124.167V213.5L99.6667 249.667ZM167.333 235.667L160.333 249.667H226.833L233.833 217H202.333C199.611 216.611 194.4 214.667 195.333 210C196.267 205.333 197.278 199.5 197.667 197.167H174.333L170.833 213.5C169.278 218.944 170.133 229.833 186 229.833H210.5L208.167 235.667H167.333ZM216.333 210L218.667 197.167H239.667L237.333 210H216.333ZM285.167 197.167L282.833 210H321.333C322.5 210 324.833 210.7 324.833 213.5C324.833 216.3 322.5 217 321.333 217H281.667L274.667 249.667H324.833C333 248.5 347 241.733 337.667 224C340.778 222.833 347.233 218.633 348.167 211.167C349.333 201.833 342.333 198.333 340 197.167H285.167ZM361 208.833L363.333 197.167H422.833L420.5 208.833H361ZM358.667 217L351.667 249.667H408.833L412.333 236.833H379.667L382 229.833H414.667L418.167 217H358.667ZM443.833 217H466L459 249.667H434.5L443.833 217ZM301.5 231L300.333 238H314.333C316.278 237.222 319 233.333 314.333 231H301.5Z" fill="#0679C6"/>
<g clip-path="url(#clip0_266_766)">
<path d="M100.623 297.827H93.8333V283.127H88V278.227H106.457V283.127H100.623V297.827Z" fill="black"/>
<path d="M125.543 297.827H109V278.227H125.147V282.963H115.72V285.507H122.3V290.15H115.72V293.043H125.543V297.827Z" fill="black"/>
<path d="M144.817 297.827H127.62V292.973L137.093 283.173H128.04V278.227H144.793V283.01L135.693 292.763H144.817V297.827Z" fill="black"/>
<path d="M154.547 297.827H147.827V278.227H154.547V287.7L162.34 278.227H170.6L162.48 287.747L171.277 297.827H162.433L154.57 287.77V297.827H154.547Z" fill="black"/>
<path d="M182.337 298.41C179.023 298.41 176.433 297.477 174.543 295.633C172.653 293.79 171.697 291.247 171.697 288.027C171.697 284.807 172.653 282.17 174.59 280.373C176.503 278.577 179.093 277.667 182.337 277.667C185.58 277.667 188.24 278.6 190.153 280.443C192.067 282.287 193 284.83 193 288.027C193 291.223 192.043 293.883 190.107 295.703C188.17 297.523 185.58 298.41 182.337 298.41ZM182.337 293.79C183.013 293.79 183.573 293.673 184.063 293.417C184.553 293.16 184.903 292.88 185.137 292.53C185.37 292.18 185.58 291.737 185.72 291.153C185.86 290.593 185.953 290.08 185.977 289.637C186 289.193 186.023 288.657 186.023 288.003C186.023 287.397 186.023 286.93 186 286.58C186 286.23 185.93 285.787 185.837 285.227C185.743 284.69 185.603 284.223 185.37 283.827C185.137 283.43 184.833 283.103 184.483 282.823C183.877 282.427 183.177 282.24 182.36 282.24C181.707 282.24 181.147 282.357 180.657 282.613C180.167 282.87 179.817 283.15 179.56 283.5C179.303 283.85 179.117 284.293 178.977 284.877C178.837 285.46 178.743 285.95 178.72 286.393C178.697 286.837 178.673 287.373 178.673 288.027C178.673 290.78 179.187 292.483 180.237 293.183C180.773 293.603 181.473 293.79 182.337 293.79Z" fill="black"/>
<path d="M203.64 297.827H196.897V278.227H207.583C212.81 278.227 215.423 280.373 215.423 284.667C215.423 286.86 214.117 288.61 211.527 289.893L211.387 290.173L216.73 297.827H208.633L205.227 291.923H203.64V297.827ZM203.64 282.73V287.187H205.997C206.837 287.187 207.443 287.023 207.84 286.697C208.237 286.37 208.423 285.787 208.423 284.97C208.423 284.153 208.213 283.57 207.817 283.243C207.397 282.917 206.79 282.73 205.95 282.73H203.663H203.64Z" fill="black"/>
<path d="M245.967 297.827H239.153V283.127H233.32V278.227H251.777V283.127H245.943V297.827H245.967Z" fill="black"/>
<path d="M264.027 298.41C260.713 298.41 258.123 297.477 256.233 295.633C254.343 293.79 253.387 291.247 253.387 288.027C253.387 284.807 254.343 282.17 256.28 280.373C258.193 278.577 260.783 277.667 264.027 277.667C267.27 277.667 269.93 278.6 271.843 280.443C273.757 282.287 274.69 284.83 274.69 288.027C274.69 291.223 273.733 293.883 271.797 295.703C269.86 297.523 267.27 298.41 264.027 298.41ZM264.027 293.79C264.703 293.79 265.263 293.673 265.753 293.417C266.243 293.16 266.593 292.88 266.827 292.53C267.06 292.18 267.27 291.737 267.41 291.153C267.55 290.593 267.643 290.08 267.667 289.637C267.69 289.193 267.713 288.657 267.713 288.003C267.713 287.397 267.713 286.93 267.69 286.58C267.69 286.23 267.62 285.787 267.527 285.227C267.433 284.69 267.293 284.223 267.06 283.827C266.827 283.43 266.523 283.103 266.173 282.823C265.567 282.427 264.867 282.24 264.05 282.24C263.397 282.24 262.837 282.357 262.347 282.613C261.857 282.87 261.507 283.15 261.25 283.5C260.993 283.85 260.807 284.293 260.667 284.877C260.527 285.437 260.433 285.95 260.41 286.393C260.387 286.837 260.363 287.373 260.363 288.027C260.363 290.78 260.877 292.483 261.927 293.183C262.463 293.603 263.163 293.79 264.027 293.79Z" fill="black"/>
<path d="M283.3 285.367H278.68L279.077 277.923H285.283L283.3 285.367Z" fill="black"/>
<path d="M305.817 297.827H289.95V278.227H296.717V292.763H305.817V297.827Z" fill="black"/>
<path d="M317.04 298.41C313.727 298.41 311.137 297.477 309.247 295.633C307.357 293.79 306.4 291.247 306.4 288.027C306.4 284.807 307.357 282.17 309.293 280.373C311.207 278.577 313.797 277.667 317.04 277.667C320.283 277.667 322.943 278.6 324.857 280.443C326.77 282.287 327.703 284.83 327.703 288.027C327.703 291.223 326.747 293.883 324.81 295.703C322.873 297.523 320.283 298.41 317.04 298.41ZM317.04 293.79C317.717 293.79 318.277 293.673 318.767 293.417C319.257 293.16 319.607 292.88 319.84 292.53C320.073 292.18 320.283 291.737 320.423 291.153C320.563 290.593 320.657 290.08 320.68 289.637C320.703 289.193 320.727 288.657 320.727 288.003C320.727 287.397 320.727 286.93 320.703 286.58C320.703 286.23 320.633 285.787 320.54 285.227C320.447 284.69 320.307 284.223 320.073 283.827C319.84 283.43 319.537 283.103 319.187 282.823C318.58 282.427 317.88 282.24 317.063 282.24C316.41 282.24 315.85 282.357 315.36 282.613C314.87 282.87 314.52 283.15 314.263 283.5C314.007 283.85 313.82 284.293 313.68 284.877C313.54 285.437 313.447 285.95 313.423 286.393C313.4 286.837 313.377 287.373 313.377 288.027C313.377 290.78 313.89 292.483 314.94 293.183C315.477 293.603 316.177 293.79 317.04 293.79Z" fill="black"/>
<path d="M344.177 297.827H335.357L328.543 278.227H335.94L339.907 292.343H340.187L344.223 278.227H351.503L344.177 297.827Z" fill="black"/>
<path d="M369.727 297.827H353.86V278.227H360.627V292.763H369.727V297.827Z" fill="black"/>
<path d="M377.8 297.827H370.753L378.267 278.227H387.787L394.647 297.827H387.413L386.27 293.813H379.037L377.777 297.827H377.8ZM382.723 282.893L380.577 289.053H384.73L383.213 282.893H382.747H382.723Z" fill="black"/>
<path d="M403.747 297.827H397.003V278.227H407.69C412.917 278.227 415.53 280.373 415.53 284.667C415.53 286.86 414.223 288.61 411.633 289.893L411.493 290.173L416.837 297.827H408.74L405.333 291.923H403.747V297.827ZM403.747 282.73V287.187H406.103C406.943 287.187 407.55 287.023 407.947 286.697C408.343 286.37 408.53 285.787 408.53 284.97C408.53 284.153 408.32 283.57 407.923 283.243C407.503 282.917 406.897 282.73 406.057 282.73H403.77H403.747Z" fill="black"/>
</g>
<defs>
<clipPath id="clip0_266_766">
<rect width="328.86" height="20.7433" fill="white" transform="translate(88 277.667)"/>
</clipPath>
</defs>
</svg>
