<svg width="512" height="461" viewBox="0 0 512 461" fill="none" xmlns="http://www.w3.org/2000/svg">
<mask id="mask0_1633_21833" style="mask-type:luminance" maskUnits="userSpaceOnUse" x="76" y="171" width="120" height="120">
<path d="M196 171H76V291H196V171Z" fill="white"/>
</mask>
<g mask="url(#mask0_1633_21833)">
<path d="M136 291C169.25 291 196 264.25 196 231C196 197.75 169.25 171 136 171C102.75 171 76 197.75 76 231C76 264.25 102.75 291 136 291Z" fill="#2775CA"/>
<path d="M152.5 240.499C152.5 231.748 147.25 228.749 136.751 227.499C129.25 226.499 127.751 224.499 127.751 220.998C127.751 217.498 130.251 215.249 135.25 215.249C139.751 215.249 142.251 216.749 143.5 220.499C143.75 221.248 144.501 221.748 145.251 221.748H149.251C150.25 221.748 151.001 220.998 151.001 219.999V219.749C150 214.248 145.5 209.999 139.751 209.499V203.499C139.751 202.499 139.001 201.749 137.75 201.498H134.001C133.001 201.498 132.25 202.249 132 203.499V209.249C124.5 210.249 119.75 215.249 119.75 221.499C119.75 229.749 124.751 232.999 135.25 234.249C142.251 235.499 144.501 236.999 144.501 240.999C144.501 244.999 141 247.749 136.251 247.749C129.75 247.749 127.5 244.999 126.75 241.249C126.501 240.249 125.75 239.749 125.001 239.749H120.75C119.75 239.749 119.001 240.499 119.001 241.499V241.749C120 247.999 124.001 252.498 132.25 253.749V259.749C132.25 260.749 133.001 261.499 134.251 261.749H138C139.001 261.749 139.751 260.999 140.001 259.749V253.749C147.501 252.498 152.5 247.249 152.5 240.499Z" fill="white"/>
<path d="M123.25 266.75C103.75 259.751 93.7495 238 101 218.75C104.75 208.25 113 200.25 123.25 196.5C124.25 196 124.75 195.25 124.75 194V190.5C124.75 189.5 124.25 188.749 123.25 188.5C122.999 188.5 122.5 188.5 122.25 188.749C98.5001 196.25 85.4997 221.5 92.9994 245.25C97.4997 259.25 108.25 270 122.25 274.5C123.25 275 124.25 274.5 124.5 273.5C124.75 273.25 124.75 273 124.75 272.5V269C124.75 268.25 124 267.251 123.25 266.75ZM149.75 188.749C148.75 188.25 147.749 188.749 147.5 189.75C147.25 190 147.25 190.25 147.25 190.75V194.249C147.25 195.25 148 196.25 148.75 196.75C168.249 203.75 178.25 225.5 170.999 244.75C167.25 255.25 158.999 263.25 148.75 267C147.749 267.5 147.25 268.25 147.25 269.5V273C147.25 274.001 147.749 274.75 148.75 275C149 275 149.5 275 149.75 274.75C173.5 267.251 186.5 242 179 218.25C174.5 204 163.5 193.25 149.75 188.749Z" fill="white"/>
</g>
<path d="M261.451 200.779H269.392V241.519C269.392 246.041 268.386 249.805 266.373 252.811C264.36 255.816 261.686 258.077 258.349 259.594C255.04 261.083 251.442 261.827 247.554 261.827C243.473 261.827 239.778 261.083 236.47 259.594C233.188 258.077 230.583 255.816 228.653 252.811C226.75 249.805 225.799 246.041 225.799 241.519V200.779H233.699V241.519C233.699 244.663 234.278 247.255 235.436 249.295C236.594 251.335 238.207 252.852 240.275 253.845C242.37 254.837 244.797 255.334 247.554 255.334C250.339 255.334 252.766 254.837 254.834 253.845C256.929 252.852 258.556 251.335 259.714 249.295C260.872 247.255 261.451 244.663 261.451 241.519V200.779ZM314.02 245.779C314.02 244.373 313.8 243.132 313.358 242.057C312.945 240.954 312.2 239.961 311.125 239.079C310.077 238.197 308.616 237.356 306.741 236.556C304.893 235.756 302.55 234.943 299.71 234.116C296.732 233.233 294.043 232.255 291.644 231.179C289.245 230.076 287.191 228.822 285.482 227.415C283.772 226.009 282.462 224.396 281.552 222.576C280.642 220.756 280.187 218.675 280.187 216.331C280.187 213.987 280.67 211.823 281.635 209.837C282.6 207.852 283.979 206.129 285.771 204.667C287.591 203.178 289.756 202.02 292.265 201.193C294.774 200.366 297.573 199.952 300.661 199.952C305.183 199.952 309.016 200.821 312.159 202.558C315.33 204.267 317.743 206.515 319.397 209.3C321.051 212.057 321.879 215.007 321.879 218.151H313.938C313.938 215.89 313.455 213.891 312.49 212.153C311.525 210.389 310.063 209.01 308.106 208.017C306.148 206.997 303.666 206.487 300.661 206.487C297.821 206.487 295.477 206.915 293.63 207.769C291.782 208.624 290.403 209.782 289.494 211.244C288.611 212.705 288.17 214.373 288.17 216.248C288.17 217.517 288.432 218.675 288.956 219.722C289.507 220.743 290.348 221.694 291.479 222.576C292.637 223.459 294.098 224.272 295.863 225.017C297.655 225.761 299.792 226.478 302.274 227.167C305.693 228.132 308.643 229.208 311.125 230.393C313.607 231.579 315.647 232.916 317.246 234.405C318.873 235.867 320.073 237.535 320.845 239.41C321.644 241.257 322.044 243.353 322.044 245.697C322.044 248.151 321.548 250.37 320.555 252.356C319.563 254.341 318.142 256.037 316.295 257.443C314.448 258.849 312.228 259.938 309.636 260.71C307.072 261.455 304.204 261.827 301.033 261.827C298.248 261.827 295.505 261.441 292.802 260.669C290.128 259.897 287.688 258.739 285.482 257.195C283.303 255.651 281.552 253.748 280.229 251.487C278.933 249.199 278.285 246.551 278.285 243.546H286.226C286.226 245.614 286.626 247.392 287.426 248.881C288.225 250.343 289.314 251.556 290.693 252.521C292.099 253.486 293.685 254.203 295.449 254.672C297.242 255.113 299.103 255.334 301.033 255.334C303.818 255.334 306.176 254.948 308.106 254.176C310.036 253.403 311.497 252.301 312.49 250.867C313.51 249.433 314.02 247.737 314.02 245.779ZM348.515 261H335.941L336.024 254.506H348.515C352.816 254.506 356.401 253.61 359.268 251.818C362.136 249.998 364.287 247.461 365.721 244.208C367.182 240.926 367.913 237.094 367.913 232.71V229.028C367.913 225.582 367.499 222.521 366.672 219.847C365.845 217.144 364.631 214.869 363.032 213.022C361.433 211.147 359.475 209.727 357.159 208.762C354.87 207.797 352.237 207.314 349.259 207.314H335.693V200.779H349.259C353.202 200.779 356.801 201.441 360.054 202.765C363.308 204.061 366.107 205.949 368.45 208.431C370.822 210.885 372.642 213.863 373.91 217.365C375.178 220.839 375.813 224.755 375.813 229.111V232.71C375.813 237.066 375.178 240.995 373.91 244.497C372.642 247.972 370.808 250.936 368.409 253.39C366.038 255.844 363.17 257.733 359.806 259.056C356.47 260.352 352.706 261 348.515 261ZM340.201 200.779V261H332.219V200.779H340.201ZM424.163 241.85H432.104C431.69 245.655 430.601 249.061 428.836 252.066C427.072 255.072 424.576 257.457 421.35 259.222C418.124 260.959 414.098 261.827 409.273 261.827C405.744 261.827 402.531 261.165 399.636 259.842C396.768 258.518 394.301 256.643 392.233 254.217C390.165 251.763 388.565 248.826 387.435 245.407C386.332 241.96 385.78 238.128 385.78 233.909V227.912C385.78 223.693 386.332 219.874 387.435 216.455C388.565 213.008 390.178 210.058 392.274 207.604C394.397 205.15 396.948 203.261 399.926 201.937C402.904 200.614 406.254 199.952 409.976 199.952C414.526 199.952 418.372 200.807 421.516 202.517C424.659 204.226 427.099 206.597 428.836 209.631C430.601 212.636 431.69 216.124 432.104 220.095H424.163C423.777 217.282 423.06 214.869 422.012 212.857C420.964 210.816 419.475 209.244 417.545 208.142C415.615 207.039 413.092 206.487 409.976 206.487C407.301 206.487 404.944 206.997 402.904 208.017C400.891 209.038 399.195 210.485 397.816 212.36C396.465 214.235 395.445 216.483 394.756 219.102C394.066 221.722 393.722 224.631 393.722 227.829V233.909C393.722 236.859 394.025 239.631 394.631 242.222C395.266 244.814 396.217 247.089 397.485 249.047C398.754 251.005 400.367 252.549 402.324 253.679C404.282 254.782 406.598 255.334 409.273 255.334C412.665 255.334 415.367 254.796 417.38 253.721C419.392 252.645 420.909 251.101 421.929 249.088C422.977 247.075 423.722 244.663 424.163 241.85Z" fill="black" fill-opacity="0.8"/>
</svg>
