<svg width="119" height="69" viewBox="0 0 119 69" fill="none" xmlns="http://www.w3.org/2000/svg">
<path d="M72.9689 20C66.6495 20 61.0023 23.2765 61.0023 29.33C61.0023 36.2722 71.0179 36.7519 71.0179 40.2394C71.0179 41.7079 69.3356 43.0223 66.4622 43.0223C62.3844 43.0223 59.3366 41.1857 59.3366 41.1857L58.0324 47.2943C58.0324 47.2943 61.5435 48.8459 66.2049 48.8459C73.114 48.8459 78.5506 45.4084 78.5506 39.2514C78.5506 31.9156 68.4932 31.4504 68.4932 28.2133C68.4932 27.063 69.8743 25.8026 72.7394 25.8026C75.9722 25.8026 78.6097 27.1385 78.6097 27.1385L79.8859 21.2384C79.8859 21.2384 77.0161 20 72.9689 20ZM15.153 20.4454L15 21.3359C15 21.3359 17.6586 21.8226 20.053 22.7935C23.1361 23.9067 23.3557 24.5548 23.875 26.5679L29.5331 48.3866H37.1179L48.8028 20.4454H41.2353L33.7271 39.4428L30.6633 23.3396C30.3823 21.4966 28.9591 20.4454 27.217 20.4454H15.153ZM51.8456 20.4454L45.9094 48.3866H53.1254L59.0409 20.4454H51.8456ZM92.0925 20.4454C90.3524 20.4454 89.4306 21.3772 88.7539 23.0056L78.1819 48.3866H85.7494L87.2135 44.1565H96.4327L97.3229 48.3866H104L98.1749 20.4454H92.0925ZM93.0767 27.9942L95.3199 38.4791H89.3104L93.0767 27.9942Z" fill="#1434CB"/>
</svg>
