<svg width="512" height="461" viewBox="0 0 512 461" fill="none" xmlns="http://www.w3.org/2000/svg">
<path d="M197.704 245.515C189.689 277.658 157.13 297.219 124.98 289.204C92.8429 281.19 73.279 248.633 81.2973 216.492C89.3082 184.345 121.867 164.782 154.008 172.795C186.157 180.809 205.719 213.37 197.704 245.515V245.515Z" fill="#F7931A"/>
<path d="M165.957 222.451C167.151 214.467 161.072 210.175 152.759 207.312L155.455 196.497L148.872 194.857L146.246 205.386C144.516 204.955 142.738 204.548 140.971 204.145L143.615 193.546L137.035 191.905L134.337 202.716C132.904 202.39 131.498 202.068 130.133 201.728L130.14 201.695L121.061 199.428L119.309 206.459C119.309 206.459 124.194 207.578 124.091 207.648C126.757 208.313 127.239 210.078 127.159 211.476L124.087 223.797C124.271 223.844 124.509 223.911 124.772 224.016C124.552 223.962 124.318 223.902 124.076 223.844L119.77 241.103C119.444 241.913 118.617 243.128 116.753 242.667C116.819 242.762 111.968 241.472 111.968 241.472L108.699 249.008L117.267 251.143C118.861 251.543 120.423 251.961 121.961 252.355L119.236 263.293L125.812 264.934L128.511 254.112C130.307 254.599 132.051 255.049 133.758 255.473L131.068 266.245L137.652 267.885L140.377 256.967C151.604 259.092 160.046 258.235 163.599 248.082C166.463 239.907 163.457 235.191 157.55 232.116C161.852 231.124 165.092 228.295 165.957 222.451ZM150.914 243.542C148.879 251.717 135.113 247.298 130.65 246.19L134.266 231.698C138.729 232.812 153.04 235.017 150.914 243.542ZM152.95 222.332C151.094 229.769 139.636 225.991 135.92 225.064L139.197 211.921C142.914 212.847 154.883 214.576 152.95 222.332Z" fill="white"/>
<path d="M251.98 232.834H236.718L236.635 226.423H250.491C252.779 226.423 254.778 226.037 256.488 225.265C258.198 224.493 259.521 223.39 260.459 221.956C261.424 220.494 261.906 218.757 261.906 216.744C261.906 214.539 261.479 212.746 260.624 211.368C259.797 209.961 258.515 208.941 256.778 208.307C255.068 207.645 252.89 207.314 250.243 207.314H238.496V261H230.514V200.779H250.243C253.331 200.779 256.088 201.097 258.515 201.731C260.941 202.337 262.995 203.302 264.677 204.626C266.387 205.922 267.683 207.576 268.565 209.589C269.448 211.602 269.889 214.015 269.889 216.827C269.889 219.309 269.255 221.556 267.986 223.569C266.718 225.554 264.953 227.181 262.692 228.449C260.459 229.718 257.839 230.531 254.834 230.89L251.98 232.834ZM251.608 261H233.574L238.083 254.506H251.608C254.144 254.506 256.295 254.065 258.06 253.183C259.852 252.301 261.217 251.06 262.154 249.46C263.092 247.834 263.561 245.917 263.561 243.711C263.561 241.478 263.161 239.548 262.361 237.921C261.562 236.294 260.307 235.04 258.597 234.157C256.888 233.275 254.682 232.834 251.98 232.834H240.606L240.688 226.423H256.24L257.936 228.739C260.831 228.987 263.285 229.814 265.298 231.221C267.311 232.599 268.841 234.364 269.889 236.515C270.964 238.665 271.502 241.037 271.502 243.629C271.502 247.379 270.675 250.55 269.02 253.142C267.393 255.706 265.091 257.664 262.113 259.015C259.135 260.338 255.633 261 251.608 261ZM304.383 200.779V261H296.525V200.779H304.383ZM323.74 200.779V207.314H277.21V200.779H323.74ZM367.871 241.85H375.813C375.399 245.655 374.31 249.061 372.545 252.066C370.78 255.072 368.285 257.457 365.059 259.222C361.833 260.959 357.807 261.827 352.982 261.827C349.452 261.827 346.24 261.165 343.345 259.842C340.477 258.518 338.009 256.643 335.941 254.217C333.873 251.763 332.274 248.826 331.143 245.407C330.04 241.96 329.489 238.128 329.489 233.909V227.912C329.489 223.693 330.04 219.874 331.143 216.455C332.274 213.008 333.887 210.058 335.983 207.604C338.106 205.15 340.656 203.261 343.634 201.937C346.612 200.614 349.962 199.952 353.685 199.952C358.234 199.952 362.081 200.807 365.224 202.517C368.368 204.226 370.808 206.597 372.545 209.631C374.31 212.636 375.399 216.124 375.813 220.095H367.871C367.485 217.282 366.768 214.869 365.721 212.857C364.673 210.816 363.184 209.244 361.254 208.142C359.324 207.039 356.801 206.487 353.685 206.487C351.01 206.487 348.653 206.997 346.612 208.017C344.599 209.038 342.903 210.485 341.525 212.36C340.174 214.235 339.153 216.483 338.464 219.102C337.775 221.722 337.43 224.631 337.43 227.829V233.909C337.43 236.859 337.733 239.631 338.34 242.222C338.974 244.814 339.926 247.089 341.194 249.047C342.462 251.005 344.075 252.549 346.033 253.679C347.991 254.782 350.307 255.334 352.982 255.334C356.373 255.334 359.075 254.796 361.088 253.721C363.101 252.645 364.618 251.101 365.638 249.088C366.686 247.075 367.43 244.663 367.871 241.85ZM408.156 232.834H392.894L392.812 226.423H406.667C408.956 226.423 410.955 226.037 412.665 225.265C414.374 224.493 415.698 223.39 416.635 221.956C417.6 220.494 418.083 218.757 418.083 216.744C418.083 214.539 417.655 212.746 416.801 211.368C415.973 209.961 414.691 208.941 412.954 208.307C411.244 207.645 409.066 207.314 406.419 207.314H394.673V261H386.69V200.779H406.419C409.507 200.779 412.265 201.097 414.691 201.731C417.118 202.337 419.172 203.302 420.854 204.626C422.563 205.922 423.859 207.576 424.742 209.589C425.624 211.602 426.065 214.015 426.065 216.827C426.065 219.309 425.431 221.556 424.163 223.569C422.894 225.554 421.13 227.181 418.869 228.449C416.635 229.718 414.016 230.531 411.01 230.89L408.156 232.834ZM407.784 261H389.751L394.259 254.506H407.784C410.321 254.506 412.472 254.065 414.236 253.183C416.029 252.301 417.393 251.06 418.331 249.46C419.268 247.834 419.737 245.917 419.737 243.711C419.737 241.478 419.337 239.548 418.538 237.921C417.738 236.294 416.483 235.04 414.774 234.157C413.064 233.275 410.858 232.834 408.156 232.834H396.782L396.865 226.423H412.416L414.112 228.739C417.007 228.987 419.461 229.814 421.474 231.221C423.487 232.599 425.017 234.364 426.065 236.515C427.141 238.665 427.678 241.037 427.678 243.629C427.678 247.379 426.851 250.55 425.197 253.142C423.57 255.706 421.267 257.664 418.29 259.015C415.312 260.338 411.81 261 407.784 261Z" fill="black" fill-opacity="0.8"/>
</svg>
