<svg width="512" height="461" viewBox="0 0 512 461" fill="none" xmlns="http://www.w3.org/2000/svg">
<path d="M123.876 174.228C115.991 178.86 111.323 187.225 111.323 196.046C111.323 200.678 113.183 205.346 115.511 209.51C117.371 213.23 118.283 219.723 111.791 222.975C107.159 225.747 101.098 223.899 98.326 219.255C95.5534 215.535 92.3014 211.815 88.1128 209.042C80.2282 204.41 70.927 204.41 63.0418 209.042C55.1566 213.674 50.5 222.06 50.5 230.883C50.5 239.706 55.1326 248.067 63.04 252.712C70.9246 257.344 80.2258 257.344 88.111 252.712C92.2996 250.384 95.551 246.688 97.8562 242.499C99.7162 239.247 104.829 235.059 111.321 238.779C115.954 241.551 117.346 247.612 115.041 252.244C112.713 256.432 111.321 261.077 111.321 265.709C111.321 274.541 115.954 282.893 123.875 287.526C131.759 292.158 141.06 292.158 148.946 287.526C156.831 282.894 161.5 274.529 161.5 265.709C161.5 256.888 156.855 248.524 148.947 243.879C144.758 241.551 140.114 240.627 135.013 240.627C130.824 240.627 125.268 237.855 125.268 230.883C125.268 225.303 129.456 221.138 135.013 221.138C139.646 221.138 144.758 220.214 148.947 217.886C156.831 213.254 161.5 204.89 161.5 196.07C161.5 187.25 156.855 178.885 148.947 174.252C145.227 171.924 140.594 171 136.407 171C132.242 170.976 127.574 171.924 123.878 174.228" fill="url(#paint0_linear_1633_21528)"/>
<path d="M197.012 200.779H216.948C221.47 200.779 225.289 201.469 228.404 202.847C231.548 204.226 233.933 206.267 235.56 208.969C237.214 211.643 238.041 214.938 238.041 218.854C238.041 221.611 237.476 224.134 236.346 226.423C235.243 228.684 233.643 230.614 231.548 232.213C229.48 233.785 226.998 234.957 224.103 235.729L221.869 236.597H203.133L203.051 230.104H217.196C220.063 230.104 222.449 229.608 224.351 228.615C226.254 227.595 227.687 226.23 228.653 224.52C229.618 222.811 230.1 220.922 230.1 218.854C230.1 216.538 229.645 214.511 228.735 212.774C227.825 211.037 226.392 209.699 224.434 208.762C222.504 207.797 220.008 207.314 216.948 207.314H204.994V261H197.012V200.779ZM232.21 261L217.568 233.702L225.881 233.661L240.73 260.504V261H232.21ZM257.77 200.779V261H249.788V200.779H257.77ZM294.498 237.383H278.409V230.89H294.498C297.614 230.89 300.137 230.393 302.067 229.401C303.997 228.408 305.403 227.029 306.286 225.265C307.196 223.5 307.651 221.487 307.651 219.226C307.651 217.158 307.196 215.214 306.286 213.394C305.403 211.574 303.997 210.113 302.067 209.01C300.137 207.88 297.614 207.314 294.498 207.314H280.27V261H272.288V200.779H294.498C299.048 200.779 302.894 201.565 306.038 203.137C309.181 204.709 311.566 206.887 313.193 209.672C314.82 212.429 315.633 215.586 315.633 219.143C315.633 223.004 314.82 226.299 313.193 229.028C311.566 231.758 309.181 233.84 306.038 235.274C302.894 236.68 299.048 237.383 294.498 237.383ZM347.936 237.383H331.847V230.89H347.936C351.051 230.89 353.574 230.393 355.505 229.401C357.435 228.408 358.841 227.029 359.723 225.265C360.633 223.5 361.088 221.487 361.088 219.226C361.088 217.158 360.633 215.214 359.723 213.394C358.841 211.574 357.435 210.113 355.505 209.01C353.574 207.88 351.051 207.314 347.936 207.314H333.708V261H325.725V200.779H347.936C352.485 200.779 356.332 201.565 359.475 203.137C362.619 204.709 365.004 206.887 366.631 209.672C368.257 212.429 369.071 215.586 369.071 219.143C369.071 223.004 368.257 226.299 366.631 229.028C365.004 231.758 362.619 233.84 359.475 235.274C356.332 236.68 352.485 237.383 347.936 237.383ZM415.684 254.506V261H385.574V254.506H415.684ZM387.145 200.779V261H379.163V200.779H387.145ZM463.083 254.506V261H431.194V254.506H463.083ZM432.807 200.779V261H424.824V200.779H432.807ZM458.864 226.671V233.165H431.194V226.671H458.864ZM462.669 200.779V207.314H431.194V200.779H462.669Z" fill="black" fill-opacity="0.8"/>
<defs>
<linearGradient id="paint0_linear_1633_21528" x1="50.5" y1="171" x2="161.5" y2="171" gradientUnits="userSpaceOnUse">
<stop stop-color="#11AAE2"/>
<stop offset="0.59" stop-color="#0880B7"/>
<stop offset="1" stop-color="#016197"/>
</linearGradient>
</defs>
</svg>
