<svg version="1.1" id="svg7952" xmlns="http://www.w3.org/2000/svg" x="0" y="0" viewBox="0 0 170.3 59.9" xml:space="preserve"><style>.litecoin_st0{fill-rule:evenodd;clip-rule:evenodd;fill:#626264}</style><path class="litecoin_st0" d="M62.8 17.9c0 1.2-1 2.2-2.2 2.2-1.2 0-2.2-1-2.2-2.2 0-1.2 1-2.2 2.2-2.2 1.2 0 2.2 1 2.2 2.2zm84.2.1c0 1.2-1 2.2-2.2 2.2-1.2 0-2.2-1-2.2-2.2 0-1.2 1-2.2 2.2-2.2 1.2 0 2.2 1 2.2 2.2zm0 0"/><path d="M19.7 18l-3.4 12.7-2.7 1-1 3.6 2.7-.9-1.8 7.5h19.6l1.2-4.8H22.4l1.5-5.8 3.2-1.4.9-3.5-3.1 1.1 2.5-9.4-7.7-.1zm3.7-9.7c12 0 21.7 9.7 21.7 21.7s-9.7 21.7-21.7 21.7S1.7 42 1.7 30c.1-12 9.8-21.7 21.7-21.7zm0 0" fill-rule="evenodd" clip-rule="evenodd" fill="#b8b9bb"/><path class="litecoin_st0" d="M51 14.5h2.9v31H51zm24.5 11l-.1 2.6h-4.2v17.4h-2.9V28.1h-3.5v-2.7h3.5V18h2.9v7.5h4.3zm9-.1c2.8-.6 6-.2 8.4 1.6 3.1 2.2 4.3 6.3 3.9 9.9h-17c.3 1.9 1.2 3.7 2.8 4.9 3.1 2.3 8.2 1.7 10.4-1.5l.4-.4c1 .1 1.9.4 2.8.6-.9 2.1-2.7 3.8-4.8 4.8-2.6 1.1-5.6 1.2-8.2.2-2.5-.9-4.5-2.9-5.5-5.4-1.2-3-1.1-6.5.3-9.4 1.1-2.8 3.7-4.7 6.5-5.3zM81.8 30c-1.2 1.1-1.8 2.6-2.1 4.2h14.1c-.2-2.6-2-5-4.4-5.8-2.6-.9-5.7-.3-7.6 1.6zm20-1.5c3.8-4.2 11.1-4.5 15.2-.6l-2.1 2.1c-2.8-2.5-7.5-2.5-10.4 0-3.4 2.9-3.2 9 .4 11.7 2.9 2.3 7.3 2.1 10-.3l2.1 2c-3.9 3.5-10.5 3.7-14.4.2-4.1-3.9-4.5-11-.8-15.1zm52.5.2c1.1-2.3 3.9-3.6 6.6-3.6 1.2 0 2.5.2 3.5.7 2 .9 3.2 2.6 3.7 4.6.3 1.1.5 2.4.5 3.6v11.6h-2.8V34.1c0-1.7-.3-3.6-1.6-4.9-1.2-1.2-3-1.5-4.7-1.2-1.9.3-3.6 1.4-4.5 3.1-.5 1-.8 2.2-.8 3.4v11h-2.9v-20h2.9l.1 3.2zm-27.7-3.4c2.8-.5 6-.1 8.4 1.5 2.3 1.4 3.8 3.9 4.3 6.6.4 2.8 0 5.7-1.6 8.1-1.9 2.8-5.2 4.5-8.6 4.4-2.8.1-5.7-.9-7.7-2.9-3.3-3.2-3.9-8.7-1.7-12.7 1.4-2.6 4-4.4 6.9-5zm.3 2.9c-2.3.5-4.3 2.2-5.1 4.5-1.2 3.1-.2 7 2.6 8.9 3.3 2.4 8.4 1.8 10.8-1.6 1.7-2.4 2-5.8.5-8.4-1.7-2.9-5.6-4.3-8.8-3.4zM59.1 45.6v-20l2.8-.1v20.1h-2.8zm87.1 0h-2.8V25.5h2.8v20.1zm0 0"/></svg>