<svg width="512" height="461" viewBox="0 0 512 461" fill="none" xmlns="http://www.w3.org/2000/svg">
<path d="M125.5 231C125.5 264.138 98.6375 291 65.5001 291C32.3629 291 5.5 264.138 5.5 231C5.5 197.862 32.3629 171 65.5001 171C98.6375 171 125.5 197.862 125.5 231Z" fill="#181818"/>
<path d="M52.1885 225.16L65.5067 212.017L78.8305 225.171L86.5756 217.519L65.5067 196.714L44.438 217.514L52.1885 225.16Z" fill="#F3BA2F"/>
<path d="M31.2144 230.565L38.962 222.916L46.7097 230.565L38.962 238.214L31.2144 230.565Z" fill="#F3BA2F"/>
<path d="M52.1881 235.967L65.5064 249.116L78.8301 235.962L86.5807 243.603L86.5753 243.608L65.5064 264.414L44.4376 243.619L44.4268 243.608L52.1881 235.967Z" fill="#F3BA2F"/>
<path d="M84.2905 230.567L92.0383 222.918L99.7859 230.567L92.0383 238.216L84.2905 230.567Z" fill="#F3BA2F"/>
<path d="M73.3657 230.561L65.5069 222.797L59.6953 228.534L59.0237 229.192L57.648 230.55L57.6372 230.561L57.648 230.577L65.5069 238.33L73.3657 230.566L73.3711 230.561H73.3657Z" fill="#F3BA2F"/>
<path d="M178.4 232.834H163.138L163.055 226.423H176.911C179.199 226.423 181.199 226.037 182.908 225.265C184.618 224.493 185.941 223.39 186.879 221.956C187.844 220.494 188.326 218.757 188.326 216.744C188.326 214.539 187.899 212.746 187.044 211.368C186.217 209.961 184.935 208.941 183.198 208.307C181.488 207.645 179.31 207.314 176.663 207.314H164.916V261H156.934V200.779H176.663C179.751 200.779 182.508 201.097 184.935 201.731C187.361 202.337 189.415 203.302 191.097 204.626C192.807 205.922 194.103 207.576 194.985 209.589C195.868 211.602 196.309 214.015 196.309 216.827C196.309 219.309 195.675 221.556 194.406 223.569C193.138 225.554 191.373 227.181 189.112 228.449C186.879 229.718 184.259 230.531 181.254 230.89L178.4 232.834ZM178.028 261H159.994L164.503 254.506H178.028C180.564 254.506 182.715 254.065 184.48 253.183C186.272 252.301 187.637 251.06 188.574 249.46C189.512 247.834 189.981 245.917 189.981 243.711C189.981 241.478 189.581 239.548 188.781 237.921C187.982 236.294 186.727 235.04 185.017 234.157C183.308 233.275 181.102 232.834 178.4 232.834H167.026L167.108 226.423H182.66L184.356 228.739C187.251 228.987 189.705 229.814 191.718 231.221C193.731 232.599 195.261 234.364 196.309 236.515C197.384 238.665 197.922 241.037 197.922 243.629C197.922 247.379 197.095 250.55 195.44 253.142C193.813 255.706 191.511 257.664 188.533 259.015C185.555 260.338 182.053 261 178.028 261ZM218.271 200.779V261H210.289V200.779H218.271ZM279.112 200.779V261H271.088L240.771 214.552V261H232.789V200.779H240.771L271.212 247.351V200.779H279.112ZM316.295 206.115L296.359 261H288.211L311.166 200.779H316.419L316.295 206.115ZM333.005 261L313.028 206.115L312.903 200.779H318.156L341.194 261H333.005ZM331.971 238.707V245.242H298.138V238.707H331.971ZM395.583 200.779V261H387.559L357.242 214.552V261H349.259V200.779H357.242L387.683 247.351V200.779H395.583ZM446.084 241.85H454.025C453.611 245.655 452.522 249.061 450.757 252.066C448.993 255.072 446.497 257.457 443.271 259.222C440.045 260.959 436.019 261.827 431.194 261.827C427.665 261.827 424.452 261.165 421.557 259.842C418.689 258.518 416.222 256.643 414.153 254.217C412.085 251.763 410.486 248.826 409.356 245.407C408.253 241.96 407.701 238.128 407.701 233.909V227.912C407.701 223.693 408.253 219.874 409.356 216.455C410.486 213.008 412.099 210.058 414.195 207.604C416.318 205.15 418.869 203.261 421.847 201.937C424.824 200.614 428.175 199.952 431.897 199.952C436.447 199.952 440.293 200.807 443.437 202.517C446.58 204.226 449.02 206.597 450.757 209.631C452.522 212.636 453.611 216.124 454.025 220.095H446.084C445.698 217.282 444.981 214.869 443.933 212.857C442.885 210.816 441.396 209.244 439.466 208.142C437.536 207.039 435.013 206.487 431.897 206.487C429.222 206.487 426.865 206.997 424.824 208.017C422.812 209.038 421.116 210.485 419.737 212.36C418.386 214.235 417.366 216.483 416.676 219.102C415.987 221.722 415.642 224.631 415.642 227.829V233.909C415.642 236.859 415.946 239.631 416.552 242.222C417.187 244.814 418.138 247.089 419.406 249.047C420.675 251.005 422.288 252.549 424.245 253.679C426.203 254.782 428.519 255.334 431.194 255.334C434.585 255.334 437.288 254.796 439.301 253.721C441.313 252.645 442.83 251.101 443.85 249.088C444.898 247.075 445.642 244.663 446.084 241.85ZM503.161 254.506V261H471.272V254.506H503.161ZM472.885 200.779V261H464.903V200.779H472.885ZM498.942 226.671V233.165H471.272V226.671H498.942ZM502.747 200.779V207.314H471.272V200.779H502.747Z" fill="black" fill-opacity="0.8"/>
</svg>
