<svg width="512" height="461" viewBox="0 0 512 461" fill="none" xmlns="http://www.w3.org/2000/svg">
<path d="M237 231C237 264.138 210.138 291 177 291C143.863 291 117 264.138 117 231C117 197.862 143.863 171 177 171C210.138 171 237 197.862 237 231Z" fill="#F0B90B"/>
<path fill-rule="evenodd" clip-rule="evenodd" d="M150.551 219.958H142.714V226.728H150.551V233.992H142.714V240.762H150.551V259.597H175.531C187.959 259.597 198.57 251.776 202.76 240.762H211.286V233.992H204.444C204.595 232.782 204.674 231.55 204.674 230.298C204.674 229.09 204.601 227.899 204.459 226.728H211.286V219.958H202.806C198.649 208.88 188.005 201 175.531 201H150.551V219.958ZM156.551 207.032H175.531C184.617 207.032 192.481 212.297 196.268 219.958H156.551V207.032ZM198.403 226.728H156.551V233.992H198.383C198.574 232.789 198.674 231.555 198.674 230.298C198.674 229.085 198.581 227.892 198.403 226.728ZM196.207 240.762H156.551V253.565H175.531C184.569 253.565 192.397 248.356 196.207 240.762Z" fill="white"/>
<path d="M284.778 261H272.205L272.288 254.506H284.778C289.08 254.506 292.665 253.61 295.532 251.818C298.4 249.998 300.551 247.461 301.984 244.208C303.446 240.926 304.176 237.094 304.176 232.71V229.028C304.176 225.582 303.763 222.521 302.936 219.847C302.108 217.144 300.895 214.869 299.296 213.022C297.697 211.147 295.739 209.727 293.423 208.762C291.134 207.797 288.501 207.314 285.523 207.314H271.957V200.779H285.523C289.466 200.779 293.064 201.441 296.318 202.765C299.572 204.061 302.37 205.949 304.714 208.431C307.085 210.885 308.905 213.863 310.174 217.365C311.442 220.839 312.076 224.755 312.076 229.111V232.71C312.076 237.066 311.442 240.995 310.174 244.497C308.905 247.972 307.072 250.936 304.673 253.39C302.301 255.844 299.434 257.733 296.07 259.056C292.733 260.352 288.97 261 284.778 261ZM276.465 200.779V261H268.483V200.779H276.465ZM345.454 206.115L325.518 261H317.37L340.325 200.779H345.578L345.454 206.115ZM362.164 261L342.187 206.115L342.063 200.779H347.315L370.353 261H362.164ZM361.13 238.707V245.242H327.297V238.707H361.13ZM386.98 200.779V261H378.997V200.779H386.98Z" fill="black" fill-opacity="0.8"/>
</svg>
