<svg width="512" height="461" viewBox="0 0 512 461" fill="none" xmlns="http://www.w3.org/2000/svg">
<path d="M141.204 245.515C133.189 277.658 100.63 297.219 68.4801 289.204C36.3429 281.19 16.779 248.633 24.7973 216.492C32.8082 184.345 65.3672 164.782 97.5082 172.795C129.657 180.809 149.219 213.37 141.204 245.515Z" fill="#F7931A"/>
<path d="M109.448 222.452C110.643 214.468 104.563 210.176 96.2506 207.313L98.9471 196.498L92.3633 194.857L89.738 205.387C88.0072 204.956 86.2295 204.549 84.4631 204.146L87.1071 193.547L80.527 191.906L77.8286 202.717C76.396 202.391 74.9896 202.069 73.6244 201.729L73.6319 201.696L64.5522 199.429L62.8008 206.46C62.8008 206.46 67.6857 207.579 67.5825 207.649C70.2491 208.314 70.731 210.079 70.6504 211.477L67.5788 223.798C67.7626 223.845 68.0007 223.912 68.2633 224.017C68.0439 223.963 67.8094 223.903 67.5675 223.845L63.2621 241.104C62.9358 241.914 62.1088 243.129 60.2449 242.668C60.3105 242.763 55.4594 241.473 55.4594 241.473L52.1909 249.009L60.7587 251.144C62.3526 251.544 63.9146 251.962 65.4523 252.356L62.7276 263.294L69.304 264.935L72.0024 254.112C73.7988 254.6 75.5428 255.05 77.2492 255.474L74.5601 266.246L81.144 267.886L83.8686 256.968C95.0955 259.092 103.538 258.236 107.091 248.083C109.955 239.908 106.949 235.192 101.042 232.117C105.343 231.125 108.584 228.296 109.448 222.452ZM94.4054 243.543C92.3708 251.718 78.605 247.299 74.142 246.191L77.7574 231.699C82.2203 232.813 96.5319 235.018 94.4054 243.543ZM96.4419 222.333C94.5854 229.77 83.1279 225.992 79.4113 225.065L82.6891 211.922C86.4058 212.848 98.3752 214.577 96.4419 222.333Z" fill="white"/>
<path d="M195.937 232.834H180.675L180.592 226.423H194.448C196.736 226.423 198.735 226.037 200.445 225.265C202.154 224.493 203.478 223.39 204.415 221.956C205.381 220.494 205.863 218.757 205.863 216.744C205.863 214.539 205.436 212.746 204.581 211.368C203.754 209.961 202.471 208.941 200.734 208.307C199.025 207.645 196.846 207.314 194.199 207.314H182.453V261H174.471V200.779H194.199C197.288 200.779 200.045 201.097 202.471 201.731C204.898 202.337 206.952 203.302 208.634 204.626C210.344 205.922 211.64 207.576 212.522 209.589C213.404 211.602 213.846 214.015 213.846 216.827C213.846 219.309 213.211 221.556 211.943 223.569C210.675 225.554 208.91 227.181 206.649 228.449C204.415 229.718 201.796 230.531 198.79 230.89L195.937 232.834ZM195.564 261H177.531L182.04 254.506H195.564C198.101 254.506 200.252 254.065 202.017 253.183C203.809 252.301 205.174 251.06 206.111 249.46C207.049 247.834 207.517 245.917 207.517 243.711C207.517 241.478 207.118 239.548 206.318 237.921C205.518 236.294 204.264 235.04 202.554 234.157C200.845 233.275 198.639 232.834 195.937 232.834H184.562L184.645 226.423H200.197L201.892 228.739C204.788 228.987 207.242 229.814 209.255 231.221C211.267 232.599 212.798 234.364 213.846 236.515C214.921 238.665 215.459 241.037 215.459 243.629C215.459 247.379 214.631 250.55 212.977 253.142C211.35 255.706 209.048 257.664 206.07 259.015C203.092 260.338 199.59 261 195.564 261ZM235.808 200.779V261H227.825V200.779H235.808ZM271.336 200.779V261H263.478V200.779H271.336ZM290.693 200.779V207.314H244.163V200.779H290.693ZM334.824 241.85H342.766C342.352 245.655 341.263 249.061 339.498 252.066C337.733 255.072 335.238 257.457 332.012 259.222C328.786 260.959 324.76 261.827 319.935 261.827C316.405 261.827 313.193 261.165 310.298 259.842C307.43 258.518 304.962 256.643 302.894 254.217C300.826 251.763 299.227 248.826 298.096 245.407C296.994 241.96 296.442 238.128 296.442 233.909V227.912C296.442 223.693 296.994 219.874 298.096 216.455C299.227 213.008 300.84 210.058 302.936 207.604C305.059 205.15 307.609 203.261 310.587 201.937C313.565 200.614 316.915 199.952 320.638 199.952C325.187 199.952 329.034 200.807 332.177 202.517C335.321 204.226 337.761 206.597 339.498 209.631C341.263 212.636 342.352 216.124 342.766 220.095H334.824C334.438 217.282 333.722 214.869 332.674 212.857C331.626 210.816 330.137 209.244 328.207 208.142C326.277 207.039 323.754 206.487 320.638 206.487C317.963 206.487 315.606 206.997 313.565 208.017C311.552 209.038 309.857 210.485 308.478 212.36C307.127 214.235 306.107 216.483 305.417 219.102C304.728 221.722 304.383 224.631 304.383 227.829V233.909C304.383 236.859 304.687 239.631 305.293 242.222C305.927 244.814 306.879 247.089 308.147 249.047C309.415 251.005 311.028 252.549 312.986 253.679C314.944 254.782 317.26 255.334 319.935 255.334C323.326 255.334 326.028 254.796 328.041 253.721C330.054 252.645 331.571 251.101 332.591 249.088C333.639 247.075 334.383 244.663 334.824 241.85ZM400.008 228.987V232.792C400.008 237.314 399.443 241.368 398.312 244.952C397.182 248.537 395.555 251.584 393.432 254.093C391.309 256.602 388.758 258.518 385.78 259.842C382.83 261.165 379.521 261.827 375.854 261.827C372.297 261.827 369.029 261.165 366.051 259.842C363.101 258.518 360.537 256.602 358.358 254.093C356.208 251.584 354.54 248.537 353.354 244.952C352.168 241.368 351.575 237.314 351.575 232.792V228.987C351.575 224.465 352.154 220.426 353.312 216.869C354.498 213.284 356.166 210.237 358.317 207.728C360.468 205.191 363.018 203.261 365.969 201.937C368.947 200.614 372.214 199.952 375.771 199.952C379.438 199.952 382.747 200.614 385.698 201.937C388.676 203.261 391.226 205.191 393.349 207.728C395.5 210.237 397.141 213.284 398.271 216.869C399.429 220.426 400.008 224.465 400.008 228.987ZM392.108 232.792V228.904C392.108 225.32 391.736 222.149 390.992 219.392C390.275 216.634 389.213 214.318 387.807 212.443C386.401 210.568 384.677 209.148 382.637 208.183C380.624 207.218 378.335 206.735 375.771 206.735C373.29 206.735 371.042 207.218 369.029 208.183C367.044 209.148 365.335 210.568 363.901 212.443C362.494 214.318 361.405 216.634 360.633 219.392C359.861 222.149 359.475 225.32 359.475 228.904V232.792C359.475 236.404 359.861 239.603 360.633 242.388C361.405 245.145 362.508 247.475 363.942 249.378C365.403 251.253 367.127 252.673 369.112 253.638C371.125 254.603 373.372 255.085 375.854 255.085C378.446 255.085 380.748 254.603 382.761 253.638C384.774 252.673 386.47 251.253 387.848 249.378C389.255 247.475 390.316 245.145 391.033 242.388C391.75 239.603 392.108 236.404 392.108 232.792ZM420.523 200.779V261H412.54V200.779H420.523ZM481.364 200.779V261H473.34L443.023 214.552V261H435.04V200.779H443.023L473.464 247.351V200.779H481.364Z" fill="black" fill-opacity="0.8"/>
</svg>
