<svg width="512" height="461" viewBox="0 0 512 461" fill="none" xmlns="http://www.w3.org/2000/svg">
<path d="M0.0371207 114.841C0.0371207 114.841 -2.30011 135.384 36.2334 145.404L53.3894 78.2936L9.15351 62.1553L0.0371207 114.841Z" fill="url(#paint0_linear_4612_562)"/>
<path d="M0.0371207 114.841C0.0371207 114.841 -2.30011 135.384 36.2334 145.404L53.3894 78.2936L9.15351 62.1553L0.0371207 114.841Z" fill="url(#paint1_linear_4612_562)"/>
<path d="M0.0371207 114.841C0.0371207 114.841 -2.30011 135.384 36.2334 145.404L53.3894 78.2936L9.15351 62.1553L0.0371207 114.841Z" fill="url(#paint2_linear_4612_562)"/>
<path d="M467.524 78.8205C465.187 90.4073 455.091 97.3447 440.53 97.3569L29.7723 97.6996C14.3784 97.724 4.00182 104.38 0.0371094 114.841L16.1284 21.8532C18.4411 8.46782 29.8455 0.392552 46.4631 0.36808L483.395 0.000976562L467.524 78.8205Z" fill="url(#paint3_linear_4612_562)"/>
<path d="M467.524 78.8205C465.187 90.4073 455.091 97.3447 440.53 97.3569L29.7723 97.6996C14.3784 97.724 4.00182 104.38 0.0371094 114.841L16.1284 21.8532C18.4411 8.46782 29.8455 0.392552 46.4631 0.36808L483.395 0.000976562L467.524 78.8205Z" fill="url(#paint4_linear_4612_562)"/>
<path d="M467.524 78.8205C465.187 90.4073 455.091 97.3447 440.53 97.3569L29.7723 97.6996C14.3784 97.724 4.00182 104.38 0.0371094 114.841L16.1284 21.8532C18.4411 8.46782 29.8455 0.392552 46.4631 0.36808L483.395 0.000976562L467.524 78.8205Z" fill="url(#paint5_linear_4612_562)"/>
<path d="M108.178 68.8804C104.181 68.8804 100.716 68.1471 97.7828 66.6804C94.8861 65.2137 92.6311 63.1971 91.0178 60.6304C89.4411 58.0271 88.6528 55.0387 88.6528 51.6654C88.6528 48.2554 89.2394 45.1571 90.4128 42.3704C91.6228 39.5471 93.3094 37.1087 95.4728 35.0554C97.6361 33.0021 100.203 31.4254 103.173 30.3254C106.143 29.1887 109.388 28.6204 112.908 28.6204C116.905 28.6204 120.351 29.3537 123.248 30.8204C126.181 32.2871 128.436 34.3221 130.013 36.9254C131.626 39.4921 132.433 42.4621 132.433 45.8354C132.433 49.2454 131.828 52.3621 130.618 55.1854C129.445 57.9721 127.776 60.3921 125.613 62.4454C123.45 64.4987 120.883 66.0937 117.913 67.2304C114.943 68.3304 111.698 68.8804 108.178 68.8804ZM118.463 77.7354C114.283 77.7354 110.745 76.8004 107.848 74.9304C104.951 73.0971 102.586 70.2371 100.753 66.3504L114.778 63.6004C115.291 65.6171 115.915 66.9737 116.648 67.6704C117.418 68.3671 118.426 68.7154 119.673 68.7154C120.626 68.7154 121.598 68.4954 122.588 68.0554C123.615 67.6521 124.55 67.0837 125.393 66.3504L130.068 73.8854C128.675 75.1687 126.97 76.1221 124.953 76.7454C122.936 77.4054 120.773 77.7354 118.463 77.7354ZM109.278 58.3754C110.891 58.3754 112.303 58.0637 113.513 57.4404C114.76 56.8171 115.823 55.9554 116.703 54.8554C117.583 53.7554 118.243 52.5087 118.683 51.1154C119.123 49.6854 119.343 48.1821 119.343 46.6054C119.343 45.1021 119.031 43.8004 118.408 42.7004C117.821 41.5637 116.96 40.6837 115.823 40.0604C114.723 39.4371 113.385 39.1254 111.808 39.1254C110.231 39.1254 108.82 39.4371 107.573 40.0604C106.326 40.6837 105.263 41.5454 104.383 42.6454C103.503 43.7454 102.843 45.0104 102.403 46.4404C101.963 47.8337 101.743 49.3187 101.743 50.8954C101.743 52.3621 102.036 53.6637 102.623 54.8004C103.246 55.9371 104.108 56.8171 105.208 57.4404C106.345 58.0637 107.701 58.3754 109.278 58.3754ZM145.669 68.5504C143.249 68.5504 141.141 68.0371 139.344 67.0104C137.584 65.9471 136.319 64.3887 135.549 62.3354C134.816 60.2454 134.761 57.6421 135.384 54.5254L138.684 37.9154H151.114L148.089 53.0404C147.759 54.6904 147.832 55.9554 148.309 56.8354C148.786 57.6787 149.647 58.1004 150.894 58.1004C152.287 58.1004 153.442 57.6421 154.359 56.7254C155.312 55.7721 155.972 54.3237 156.339 52.3804L159.254 37.9154H171.684L165.689 68.0004H153.974L155.679 59.5854L157.109 61.8954C155.679 64.2054 153.919 65.8921 151.829 66.9554C149.776 68.0187 147.722 68.5504 145.669 68.5504ZM171.147 68.0004L179.287 27.1904H191.717L183.577 68.0004H171.147ZM202.837 68.5504C200.857 68.5504 198.913 68.0188 197.007 66.9554C195.1 65.8554 193.523 64.2788 192.277 62.2254C191.067 60.1354 190.462 57.6054 190.462 54.6354C190.462 52.1421 190.883 49.8504 191.727 47.7604C192.57 45.6704 193.725 43.8554 195.192 42.3154C196.695 40.7388 198.4 39.5288 200.307 38.6854C202.25 37.8054 204.303 37.3654 206.467 37.3654C208.813 37.3654 210.848 37.8421 212.572 38.7954C214.295 39.7488 215.523 41.3621 216.257 43.6354C217.027 45.8721 217.1 48.9704 216.477 52.9304C215.963 56.1571 215.083 58.9438 213.837 61.2904C212.627 63.6371 211.105 65.4338 209.272 66.6804C207.438 67.9271 205.293 68.5504 202.837 68.5504ZM207.512 58.7604C208.612 58.7604 209.565 58.4854 210.372 57.9354C211.178 57.3488 211.802 56.5421 212.242 55.5154C212.718 54.4888 212.957 53.2788 212.957 51.8854C212.957 50.4921 212.553 49.3554 211.747 48.4754C210.977 47.5954 209.895 47.1554 208.502 47.1554C207.438 47.1554 206.485 47.4488 205.642 48.0354C204.835 48.5854 204.193 49.3738 203.717 50.4004C203.277 51.4271 203.057 52.6371 203.057 54.0304C203.057 55.4238 203.442 56.5604 204.212 57.4404C205.018 58.3204 206.118 58.7604 207.512 58.7604ZM210.427 68.0004L211.252 63.9304L213.287 52.9304L214.882 42.0404L215.707 37.9154H228.137L222.142 68.0004H210.427ZM232.548 79.2204C230.898 79.2204 229.266 78.9821 227.653 78.5054C226.003 78.0288 224.683 77.4054 223.693 76.6354L229.083 68.0004C229.706 68.4771 230.403 68.8621 231.173 69.1554C231.943 69.4488 232.749 69.5954 233.593 69.5954C234.583 69.5954 235.389 69.3571 236.013 68.8804C236.636 68.4404 237.223 67.7621 237.773 66.8454L239.698 63.6554L240.633 62.4454L254.988 37.9154H267.143L248.663 68.6054C247.013 71.3554 245.399 73.5004 243.823 75.0404C242.246 76.5804 240.541 77.6621 238.708 78.2854C236.911 78.9088 234.858 79.2204 232.548 79.2204ZM236.893 69.3754L230.073 37.9154H242.448L246.903 61.3454L236.893 69.3754ZM292.407 68.5504C289.987 68.5504 287.879 68.0371 286.082 67.0104C284.322 65.9471 283.057 64.3888 282.287 62.3354C281.554 60.2454 281.499 57.6421 282.122 54.5254L285.422 37.9154H297.852L294.827 53.0404C294.497 54.6904 294.571 55.9554 295.047 56.8354C295.524 57.6788 296.386 58.1004 297.632 58.1004C299.026 58.1004 300.181 57.6421 301.097 56.7254C302.051 55.7721 302.711 54.3238 303.077 52.3804L305.992 37.9154H318.422L312.427 68.0004H300.712L302.417 59.5854L303.847 61.8954C302.417 64.2054 300.657 65.8921 298.567 66.9554C296.514 68.0188 294.461 68.5504 292.407 68.5504ZM330.426 68.5504C327.749 68.5504 325.201 68.2938 322.781 67.7804C320.397 67.2304 318.546 66.5704 317.226 65.8004L321.516 57.3304C323.019 58.2471 324.706 58.9438 326.576 59.4204C328.482 59.8604 330.279 60.0804 331.966 60.0804C333.359 60.0804 334.312 59.9521 334.826 59.6954C335.376 59.4021 335.651 59.0538 335.651 58.6504C335.651 58.2104 335.284 57.8988 334.551 57.7154C333.817 57.4954 332.864 57.3121 331.691 57.1654C330.554 57.0188 329.344 56.7988 328.061 56.5054C326.777 56.2121 325.549 55.7904 324.376 55.2404C323.239 54.6538 322.304 53.8471 321.571 52.8204C320.837 51.7938 320.471 50.4371 320.471 48.7504C320.471 46.1471 321.222 44.0204 322.726 42.3704C324.266 40.6838 326.319 39.4371 328.886 38.6304C331.452 37.7871 334.294 37.3654 337.411 37.3654C339.611 37.3654 341.719 37.5671 343.736 37.9704C345.789 38.3371 347.604 38.8871 349.181 39.6204L344.891 48.0904C343.314 47.1738 341.737 46.5688 340.161 46.2754C338.621 45.9821 337.209 45.8354 335.926 45.8354C334.496 45.8354 333.506 46.0004 332.956 46.3304C332.406 46.6238 332.131 46.9538 332.131 47.3204C332.131 47.7604 332.497 48.0904 333.231 48.3104C333.964 48.5304 334.899 48.7321 336.036 48.9154C337.172 49.0621 338.382 49.2821 339.666 49.5754C340.986 49.8321 342.214 50.2538 343.351 50.8404C344.487 51.3904 345.422 52.1788 346.156 53.2054C346.889 54.2321 347.256 55.5888 347.256 57.2754C347.256 59.7688 346.486 61.8588 344.946 63.5454C343.442 65.2321 341.407 66.4971 338.841 67.3404C336.311 68.1471 333.506 68.5504 330.426 68.5504ZM361.909 68.5504C359.489 68.5504 357.381 68.0371 355.584 67.0104C353.824 65.9471 352.559 64.3888 351.789 62.3354C351.056 60.2454 351.001 57.6421 351.624 54.5254L354.924 37.9154H367.354L364.329 53.0404C363.999 54.6904 364.073 55.9554 364.549 56.8354C365.026 57.6788 365.888 58.1004 367.134 58.1004C368.528 58.1004 369.683 57.6421 370.599 56.7254C371.553 55.7721 372.213 54.3238 372.579 52.3804L375.494 37.9154L387.924 37.9155L381.929 68.0005L370.214 68.0004L371.919 59.5854L373.349 61.8954C371.919 64.2054 370.159 65.8921 368.069 66.9554C366.016 68.0188 363.963 68.5504 361.909 68.5504ZM387.388 68.0005L395.528 27.1905H407.958L399.818 68.0005H387.388Z" fill="white"/>
<path d="M210.505 131.446C247.614 131.446 284.72 131.577 321.824 131.359C332.012 131.298 342.202 131.242 352.393 131.116C353.263 131.103 354.123 131.229 354.988 131.307C359.13 131.668 360.209 134.981 361.038 138.471C369.802 175.175 367.021 214.264 351.449 248.784C347.298 257.988 342.229 266.656 336.626 275.011C332.221 281.58 327.423 287.853 322.171 293.791C318.254 298.22 314.137 302.45 309.768 306.402C301.548 313.84 292.824 320.626 282.651 325.286C277.256 327.76 271.6 329.307 265.714 330.133C259.845 330.959 253.951 330.95 248.065 330.82C215.531 330.115 182.997 330.663 150.463 330.515C133.621 330.442 116.776 330.498 99.9356 330.515C98.1751 330.515 96.4405 330.377 94.78 329.833C91.3283 328.712 89.2373 325.686 89.0416 321.674C88.9851 320.535 89.0025 319.391 89.0025 318.252C89.0025 259.875 89.0025 201.496 89.0025 143.123C89.0025 141.454 89.0373 139.797 89.3633 138.123C90.1502 134.12 93.3323 131.733 97.3708 131.49C98.775 131.403 100.188 131.442 101.596 131.442C137.899 131.442 174.199 131.442 210.502 131.434L210.505 131.446Z" fill="#2F4653"/>
<path d="M359.935 289.801C361.956 289.252 363.6 288.096 365.143 286.862C371.729 281.601 376.624 274.946 380.801 267.695C395.86 241.542 404.729 212.2 406.468 181.925C406.646 178.844 406.663 175.77 406.759 172.692C406.772 172.236 406.654 171.749 407.054 171.253C408.25 171.602 409.328 172.188 410.301 173.049C421.957 183.378 423.93 202.991 422.669 217.49C419.678 251.81 400.729 288.44 370.303 306.159C369.604 306.567 368.895 306.963 368.178 307.346C363.479 309.854 358.596 311.823 353.571 313.51C352.623 313.827 351.676 314.149 350.737 314.466C354.879 314.235 360.609 313.513 367.1 311.38C384.453 305.676 398.277 292.805 407.876 277.567C410.237 273.82 412.354 269.942 414.423 266.03C414.548 265.795 414.674 265.548 414.996 265.478C415.379 265.487 415.536 265.791 415.666 266.091C420.487 277.228 419.243 288.648 412.449 298.712C399.073 318.513 370.807 330.333 347.433 330.429C325.889 330.516 304.348 330.49 282.804 330.485C282.125 330.485 281.095 330.842 280.908 329.885C280.708 328.868 281.808 328.99 282.438 328.703C315.125 313.674 339.856 287.457 355.975 255.44C369.981 227.619 377.02 196.128 374.276 164.985C373.399 155.008 371.547 145.114 368.699 135.511C368.529 134.933 368.29 134.368 368.178 133.777C367.787 131.707 368.399 131.185 370.517 131.394C375.806 131.912 380.476 133.872 384.636 137.146C392.509 143.34 395.53 154.574 397.347 164.016C400.746 181.699 397.273 201.288 393.139 218.589C387.762 241.108 378.684 263.113 365.595 282.262C364.201 284.305 362.587 286.196 361.087 288.162C360.683 288.692 360.317 289.248 359.935 289.791V289.801Z" fill="url(#paint6_linear_4612_562)"/>
<path d="M173.65 215.542C173.615 212.764 172.754 209.969 170.303 208.408C167.917 206.892 164.743 206.922 162.865 209.23C162.713 209.417 162.387 209.735 162.482 210.008C162.578 210.282 163.169 210.216 163.417 210.343C163.843 210.556 164.013 210.982 164 211.438C163.982 211.968 163.978 217.033 163.956 224.015C157.814 223.98 151.667 223.941 145.524 223.906C145.407 222.38 145.364 220.667 145.472 218.807C145.572 217.09 145.794 215.381 146.128 213.695C146.276 212.956 146.445 212.221 146.637 211.495C146.845 210.695 147.423 209.713 147.363 208.874C147.354 208.761 147.328 208.647 147.259 208.56C147.093 208.357 146.776 208.391 146.524 208.457C144.959 208.856 143.437 209.691 142.237 210.774C141.868 211.104 140.881 212.043 139.99 213.643C137.625 217.877 137.439 223.876 137.439 223.876C137.317 227.753 137.164 235.613 141.298 243.773C141.298 243.773 144.194 249.494 148.337 250.902C149.154 251.18 149.376 250.997 149.445 250.902C149.767 250.489 149.076 249.776 148.872 249.458C148.493 248.876 148.172 248.259 147.893 247.62C147.32 246.302 146.937 244.907 146.654 243.503C145.789 239.225 145.228 234.896 145.35 230.527H163.956V246.946C163.956 248.033 164.4 249.081 165.403 249.594C166.009 249.902 166.695 250.011 167.368 250.094C168.547 250.241 169.751 250.319 170.915 250.094C171.598 249.964 172.281 249.715 172.79 249.242C173.612 248.481 173.624 247.446 173.624 246.408C173.624 238.161 173.703 229.914 173.689 221.667C173.689 219.619 173.672 217.577 173.65 215.53V215.542Z" fill="url(#paint7_linear_4612_562)"/>
<path d="M148.158 252.961C140.652 250.766 137.721 242.811 136.117 235.912C135.769 234.408 135.435 232.926 135.235 231.391C134.635 226.753 134.661 221.654 136.165 217.176C135.017 217.432 134.5 218.419 133.83 219.218C131.383 222.14 131.192 225.552 131.074 228.944C130.796 236.907 133.705 242.571 134.352 243.789C135.813 246.524 137.404 248.324 137.874 248.841C139.543 250.688 141.221 251.971 142.508 252.822C141.486 252.571 140.043 252.096 138.499 251.144C137.069 250.262 136.047 249.279 135.378 248.527C134.408 247.288 133.727 246.197 133.283 245.424C132.088 243.355 130.6 240.777 129.844 237.321C129.631 236.351 129.488 235.365 129.105 235.325C128.553 235.268 127.932 237.233 127.797 237.655C127.362 239.025 127.253 240.29 127.258 240.96C127.288 243.568 129.244 248.641 133.917 252.083C133.917 252.083 138.004 255.092 144.994 255.322C145.281 255.33 146.972 255.291 148.228 254.391C148.846 253.949 149.255 253.27 148.158 252.953V252.961Z" fill="url(#paint8_linear_4612_562)"/>
<path d="M136.173 217.15C136.173 217.15 136.169 217.168 136.164 217.177C136.173 217.177 136.182 217.172 136.191 217.168L136.173 217.15Z" fill="url(#paint9_linear_4612_562)"/>
<path d="M136.173 217.149L136.195 217.171L136.282 217.05L136.173 217.149Z" fill="url(#paint10_linear_4612_562)"/>
<path d="M269.731 214.572C269.762 213.615 269.731 212.199 269.388 210.495C269.353 210.311 269.31 209.876 269.089 209.373C268.97 209.099 268.64 208.373 267.87 207.878C267.458 207.617 266.997 207.46 266.511 207.464C266.171 207.464 265.831 207.49 265.498 207.49C265.028 207.49 264.558 207.504 264.089 207.508C263.175 207.517 262.263 207.495 261.355 207.529C260.537 207.559 259.773 207.838 259.189 208.451C258.498 209.177 257.947 210.212 257.033 212.429C256.881 212.794 256.759 213.107 256.677 213.32C256.329 214.072 251.421 224.714 249.565 227.792C249.431 228.023 249.126 228.513 248.752 228.496C248.374 228.513 248.074 228.023 247.939 227.792C246.087 224.71 241.175 214.072 240.828 213.32C240.745 213.107 240.623 212.798 240.47 212.429C239.558 210.212 239.005 209.177 238.314 208.451C237.736 207.838 236.972 207.559 236.15 207.529C235.236 207.499 234.324 207.517 233.416 207.508C232.946 207.508 232.477 207.495 232.007 207.49C231.667 207.49 231.328 207.468 230.994 207.464C230.507 207.464 230.051 207.617 229.633 207.878C228.864 208.373 228.533 209.099 228.416 209.373C228.194 209.876 228.15 210.311 228.116 210.495C227.777 212.203 227.742 213.62 227.772 214.572C227.416 225.523 227.06 236.464 226.699 247.415C226.711 247.598 226.747 247.849 226.846 248.132C227.407 249.736 229.442 250.523 231.007 250.545C232.589 250.566 234.48 249.815 235.15 248.362C235.158 248.345 235.28 248.063 235.345 247.749C235.811 245.519 236.08 227.562 236.18 219.741C240.466 228.522 243.818 235.087 245.37 237.982C245.683 238.577 246.356 239.773 247.595 240.182C247.953 240.303 248.347 240.368 248.752 240.373C249.156 240.373 249.552 240.303 249.908 240.182C251.147 239.773 251.817 238.577 252.134 237.982C253.681 235.087 257.038 228.522 261.324 219.741C261.424 227.565 261.694 245.519 262.159 247.749C262.224 248.063 262.346 248.345 262.354 248.362C263.023 249.815 264.914 250.566 266.497 250.545C268.066 250.523 270.097 249.736 270.658 248.132C270.758 247.849 270.792 247.598 270.806 247.415C270.448 236.464 270.092 225.523 269.731 214.572Z" fill="url(#paint11_linear_4612_562)"/>
<path d="M193.382 240.49C193.478 240.503 193.573 240.521 193.66 240.547C193.66 240.556 193.66 240.559 193.652 240.568C193.577 240.69 193.326 240.62 193.382 240.49Z" fill="white"/>
<path d="M218.161 208.769C217.27 207.643 215.747 207.6 214.283 207.56C212.897 207.522 211.131 207.474 210.028 208.699C209.414 209.383 209.245 210.186 209.193 210.673C209.166 218.754 209.141 226.831 209.114 234.913C209.128 235.704 209.05 237.195 208.249 238.834C207.406 240.564 206.21 241.547 205.906 241.786C205.906 241.786 203.872 243.394 201.211 243.608C200.946 243.629 200.663 243.638 200.663 243.638C200.594 243.638 200.525 243.638 200.455 243.642C200.385 243.642 200.316 243.642 200.246 243.638C200.246 243.638 199.968 243.629 199.699 243.608C197.038 243.389 195.003 241.786 195.003 241.786C194.694 241.542 193.504 240.564 192.661 238.834C191.861 237.195 191.782 235.704 191.796 234.913C191.769 226.831 191.744 218.754 191.717 210.673C191.665 210.186 191.5 209.383 190.882 208.699C189.778 207.474 188.013 207.522 186.627 207.56C185.166 207.6 183.64 207.643 182.749 208.769C182.049 209.652 182.105 210.743 182.162 211.217V236.586C182.162 238.947 182.84 242.072 185.105 245.042C187.648 248.376 191.261 249.863 192.374 250.275C194.63 251.114 196.851 251.35 197.53 251.414C198.708 251.532 199.711 251.537 200.455 251.514C201.198 251.537 202.202 251.532 203.38 251.414C204.058 251.345 206.28 251.111 208.536 250.275C209.649 249.863 213.262 248.376 215.805 245.042C218.065 242.072 218.748 238.947 218.748 236.586V211.217C218.804 210.743 218.861 209.652 218.161 208.769Z" fill="url(#paint12_linear_4612_562)"/>
<path d="M195.457 250.962C195.534 250.976 195.609 250.996 195.678 251.027L195.551 251.105L195.46 250.962H195.457Z" fill="white"/>
<path d="M318.823 220.976C317.597 216.902 315.093 213.312 311.694 210.756C307.838 207.86 303.056 206.343 298.253 206.23C293.449 206.343 288.667 207.86 284.812 210.756C281.408 213.312 278.903 216.902 277.681 220.976C274.183 232.67 279.447 247.588 292.045 250.888C294.079 251.418 296.17 251.645 298.253 251.588C300.339 251.645 302.43 251.418 304.461 250.888C317.059 247.588 322.323 232.67 318.823 220.976ZM309.468 234.029C308.151 239.568 304.473 245.52 298.248 245.585C292.023 245.52 288.345 239.568 287.028 234.029C285.759 228.696 285.994 222.415 288.98 217.654C291.05 214.355 294.57 212.403 298.244 212.377C301.922 212.403 305.439 214.359 307.508 217.654C310.495 222.415 310.729 228.696 309.459 234.029H309.468Z" fill="url(#paint13_linear_4612_562)"/>
<defs>
<linearGradient id="paint0_linear_4612_562" x1="40.6572" y1="119.712" x2="-5.44988" y2="113.691" gradientUnits="userSpaceOnUse">
<stop stop-color="#64DD17"/>
<stop offset="0.898577" stop-color="#3D8311"/>
</linearGradient>
<linearGradient id="paint1_linear_4612_562" x1="17.5002" y1="109" x2="46.5002" y2="145" gradientUnits="userSpaceOnUse">
<stop offset="0.371527" stop-color="#FB9801"/>
<stop offset="1" stop-color="#FAB601"/>
</linearGradient>
<linearGradient id="paint2_linear_4612_562" x1="0.000223613" y1="88.4997" x2="7.58277" y2="131.509" gradientUnits="userSpaceOnUse">
<stop offset="0.472945" stop-color="#FB01E2"/>
<stop offset="1" stop-color="#FF8CE2"/>
</linearGradient>
<linearGradient id="paint3_linear_4612_562" x1="11.6793" y1="58.0803" x2="476.491" y2="57.5123" gradientUnits="userSpaceOnUse">
<stop stop-color="#63DB17"/>
<stop offset="0.418403" stop-color="#64DD17"/>
<stop offset="1" stop-color="#5DCE15"/>
</linearGradient>
<linearGradient id="paint4_linear_4612_562" x1="491" y1="10.0004" x2="-4.00006" y2="77.5003" gradientUnits="userSpaceOnUse">
<stop offset="0.371527" stop-color="#FB9801"/>
<stop offset="1" stop-color="#FAB601"/>
</linearGradient>
<linearGradient id="paint5_linear_4612_562" x1="491" y1="10.0004" x2="-4.00006" y2="77.5003" gradientUnits="userSpaceOnUse">
<stop offset="0.472945" stop-color="#FB01E2"/>
<stop offset="1" stop-color="#FF8CE2"/>
</linearGradient>
<linearGradient id="paint6_linear_4612_562" x1="265.119" y1="261.304" x2="426.929" y2="211.634" gradientUnits="userSpaceOnUse">
<stop offset="0.33" stop-color="#9C8837"/>
<stop offset="0.56" stop-color="#F7E59E"/>
<stop offset="0.6" stop-color="#F0DE96"/>
<stop offset="0.67" stop-color="#DECB80"/>
<stop offset="0.75" stop-color="#C0AC5D"/>
<stop offset="0.79" stop-color="#B39F4D"/>
</linearGradient>
<linearGradient id="paint7_linear_4612_562" x1="164.747" y1="233.983" x2="134.948" y2="211.434" gradientUnits="userSpaceOnUse">
<stop offset="0.33" stop-color="#9C8837"/>
<stop offset="0.56" stop-color="#F7E59E"/>
<stop offset="0.6" stop-color="#F0DE96"/>
<stop offset="0.67" stop-color="#DECB80"/>
<stop offset="0.75" stop-color="#C0AC5D"/>
<stop offset="0.79" stop-color="#B39F4D"/>
</linearGradient>
<linearGradient id="paint8_linear_4612_562" x1="153.614" y1="248.688" x2="123.815" y2="226.14" gradientUnits="userSpaceOnUse">
<stop offset="0.33" stop-color="#9C8837"/>
<stop offset="0.56" stop-color="#F7E59E"/>
<stop offset="0.6" stop-color="#F0DE96"/>
<stop offset="0.67" stop-color="#DECB80"/>
<stop offset="0.75" stop-color="#C0AC5D"/>
<stop offset="0.79" stop-color="#B39F4D"/>
</linearGradient>
<linearGradient id="paint9_linear_4612_562" x1="163.473" y1="237.822" x2="132.501" y2="214.375" gradientUnits="userSpaceOnUse">
<stop offset="0.33" stop-color="#9C8837"/>
<stop offset="0.56" stop-color="#F7E59E"/>
<stop offset="0.6" stop-color="#F0DE96"/>
<stop offset="0.67" stop-color="#DECB80"/>
<stop offset="0.75" stop-color="#C0AC5D"/>
<stop offset="0.79" stop-color="#B39F4D"/>
</linearGradient>
<linearGradient id="paint10_linear_4612_562" x1="162.346" y1="236.87" x2="132.705" y2="214.434" gradientUnits="userSpaceOnUse">
<stop offset="0.33" stop-color="#9C8837"/>
<stop offset="0.56" stop-color="#F7E59E"/>
<stop offset="0.6" stop-color="#F0DE96"/>
<stop offset="0.67" stop-color="#DECB80"/>
<stop offset="0.75" stop-color="#C0AC5D"/>
<stop offset="0.79" stop-color="#B39F4D"/>
</linearGradient>
<linearGradient id="paint11_linear_4612_562" x1="275.139" y1="243.181" x2="228.829" y2="218.62" gradientUnits="userSpaceOnUse">
<stop offset="0.33" stop-color="#9C8837"/>
<stop offset="0.56" stop-color="#F7E59E"/>
<stop offset="0.6" stop-color="#F0DE96"/>
<stop offset="0.67" stop-color="#DECB80"/>
<stop offset="0.75" stop-color="#C0AC5D"/>
<stop offset="0.79" stop-color="#B39F4D"/>
</linearGradient>
<linearGradient id="paint12_linear_4612_562" x1="223.256" y1="240.908" x2="176.946" y2="211.912" gradientUnits="userSpaceOnUse">
<stop offset="0.33" stop-color="#9C8837"/>
<stop offset="0.56" stop-color="#F7E59E"/>
<stop offset="0.6" stop-color="#F0DE96"/>
<stop offset="0.67" stop-color="#DECB80"/>
<stop offset="0.75" stop-color="#C0AC5D"/>
<stop offset="0.79" stop-color="#B39F4D"/>
</linearGradient>
<linearGradient id="paint13_linear_4612_562" x1="330.917" y1="247.993" x2="273.335" y2="214.572" gradientUnits="userSpaceOnUse">
<stop offset="0.33" stop-color="#9C8837"/>
<stop offset="0.56" stop-color="#F7E59E"/>
<stop offset="0.6" stop-color="#F0DE96"/>
<stop offset="0.67" stop-color="#DECB80"/>
<stop offset="0.75" stop-color="#C0AC5D"/>
<stop offset="0.79" stop-color="#B39F4D"/>
</linearGradient>
</defs>
</svg>
