<svg width="512" height="461" viewBox="0 0 512 461" fill="none" xmlns="http://www.w3.org/2000/svg">
<path d="M108.5 171C120.367 171 131.967 174.519 141.834 181.112C151.701 187.705 159.391 197.075 163.933 208.039C168.474 219.003 169.662 231.067 167.347 242.705C165.032 254.344 159.318 265.035 150.926 273.426C142.535 281.818 131.844 287.532 120.205 289.847C108.567 292.162 96.5025 290.974 85.539 286.433C74.5754 281.891 65.2047 274.201 58.6118 264.334C52.0189 254.467 48.5 242.867 48.5 231C48.5 215.087 54.8214 199.826 66.0736 188.574C77.3258 177.321 92.587 171 108.5 171Z" fill="#F3B724"/>
<path d="M103.129 195.001V204.501H87.269V215.947H111.878L87.269 248.491V257.107H103.129V266.547H112.875V257.107H128.734V245.661H104.126L128.734 213.117V204.501H112.875V195.001H103.129Z" fill="white"/>
<path d="M239.944 254.506V261H199.163V254.506H239.944ZM238.62 206.57L201.065 261H196.143V255.044L233.657 200.779H238.62V206.57ZM235.229 200.779V207.314H196.681V200.779H235.229ZM285.606 241.85H293.547C293.133 245.655 292.044 249.061 290.279 252.066C288.515 255.072 286.019 257.457 282.793 259.222C279.567 260.959 275.541 261.827 270.716 261.827C267.187 261.827 263.974 261.165 261.079 259.842C258.211 258.518 255.744 256.643 253.676 254.217C251.608 251.763 250.008 248.826 248.878 245.407C247.775 241.96 247.223 238.128 247.223 233.909V227.912C247.223 223.693 247.775 219.874 248.878 216.455C250.008 213.008 251.621 210.058 253.717 207.604C255.84 205.15 258.391 203.261 261.369 201.937C264.347 200.614 267.697 199.952 271.419 199.952C275.969 199.952 279.815 200.807 282.959 202.517C286.102 204.226 288.542 206.597 290.279 209.631C292.044 212.636 293.133 216.124 293.547 220.095H285.606C285.22 217.282 284.503 214.869 283.455 212.857C282.407 210.816 280.918 209.244 278.988 208.142C277.058 207.039 274.535 206.487 271.419 206.487C268.744 206.487 266.387 206.997 264.347 208.017C262.334 209.038 260.638 210.485 259.259 212.36C257.908 214.235 256.888 216.483 256.199 219.102C255.509 221.722 255.165 224.631 255.165 227.829V233.909C255.165 236.859 255.468 239.631 256.074 242.222C256.709 244.814 257.66 247.089 258.928 249.047C260.197 251.005 261.81 252.549 263.767 253.679C265.725 254.782 268.041 255.334 270.716 255.334C274.108 255.334 276.81 254.796 278.823 253.721C280.835 252.645 282.352 251.101 283.372 249.088C284.42 247.075 285.165 244.663 285.606 241.85ZM326.718 206.115L306.782 261H298.634L321.589 200.779H326.842L326.718 206.115ZM343.427 261L323.45 206.115L323.326 200.779H328.579L351.617 261H343.427ZM342.393 238.707V245.242H308.561V238.707H342.393ZM391.778 245.779C391.778 244.373 391.557 243.132 391.116 242.057C390.702 240.954 389.958 239.961 388.882 239.079C387.835 238.197 386.373 237.356 384.498 236.556C382.651 235.756 380.307 234.943 377.467 234.116C374.489 233.233 371.801 232.255 369.402 231.179C367.003 230.076 364.949 228.822 363.239 227.415C361.529 226.009 360.22 224.396 359.31 222.576C358.4 220.756 357.945 218.675 357.945 216.331C357.945 213.987 358.427 211.823 359.392 209.837C360.358 207.852 361.736 206.129 363.528 204.667C365.348 203.178 367.513 202.02 370.022 201.193C372.531 200.366 375.33 199.952 378.418 199.952C382.94 199.952 386.773 200.821 389.916 202.558C393.087 204.267 395.5 206.515 397.154 209.3C398.809 212.057 399.636 215.007 399.636 218.151H391.695C391.695 215.89 391.212 213.891 390.247 212.153C389.282 210.389 387.821 209.01 385.863 208.017C383.905 206.997 381.424 206.487 378.418 206.487C375.578 206.487 373.234 206.915 371.387 207.769C369.54 208.624 368.161 209.782 367.251 211.244C366.369 212.705 365.927 214.373 365.927 216.248C365.927 217.517 366.189 218.675 366.713 219.722C367.265 220.743 368.106 221.694 369.236 222.576C370.394 223.459 371.856 224.272 373.62 225.017C375.413 225.761 377.55 226.478 380.031 227.167C383.45 228.132 386.401 229.208 388.882 230.393C391.364 231.579 393.404 232.916 395.004 234.405C396.631 235.867 397.83 237.535 398.602 239.41C399.402 241.257 399.801 243.353 399.801 245.697C399.801 248.151 399.305 250.37 398.312 252.356C397.32 254.341 395.9 256.037 394.052 257.443C392.205 258.849 389.985 259.938 387.393 260.71C384.829 261.455 381.961 261.827 378.79 261.827C376.006 261.827 373.262 261.441 370.56 260.669C367.885 259.897 365.445 258.739 363.239 257.195C361.061 255.651 359.31 253.748 357.986 251.487C356.69 249.199 356.042 246.551 356.042 243.546H363.983C363.983 245.614 364.383 247.392 365.183 248.881C365.983 250.343 367.072 251.556 368.45 252.521C369.857 253.486 371.442 254.203 373.207 254.672C374.999 255.113 376.86 255.334 378.79 255.334C381.575 255.334 383.933 254.948 385.863 254.176C387.793 253.403 389.255 252.301 390.247 250.867C391.267 249.433 391.778 247.737 391.778 245.779ZM449.31 226.671V233.165H416.718V226.671H449.31ZM417.959 200.779V261H409.976V200.779H417.959ZM456.258 200.779V261H448.317V200.779H456.258Z" fill="black" fill-opacity="0.8"/>
</svg>
