<svg width="512" height="461" viewBox="0 0 512 461" fill="none" xmlns="http://www.w3.org/2000/svg">
<rect width="152.759" height="146" transform="translate(60 185)" fill="white"/>
<path d="M114.797 187C139.077 187.9 159.497 190.8 179.577 196.25C187.407 198.37 192.507 202.66 195.007 210.65C202.197 233.63 207.417 256.96 209.677 280.96C210.307 287.68 208.347 292.09 202.377 295.62C181.247 308.11 159.607 319.44 136.497 327.89C130.687 330.02 125.757 329.46 120.657 325.9C101.447 312.49 83.6974 297.44 67.3474 280.66C61.8074 274.97 60.6974 269.2 63.4374 261.8C71.7474 239.36 82.5674 218.25 94.8474 197.73C100.547 188.19 107.138 187 114.797 187Z" fill="#090A10"/>
<path d="M80.3271 286.02C81.2571 283.75 83.0271 282.78 84.6671 282.46C88.8571 281.65 89.9971 278.93 90.7871 275.19C92.7371 265.86 96.8571 257.38 102.607 249.83C104.667 247.13 103.097 245.67 102.007 243.72C100.317 240.71 99.9771 237.62 102.537 235.02C104.867 232.64 107.957 232.29 110.767 233.98C112.098 234.783 113.137 237.48 113.137 237.48C113.137 237.48 114.927 239.441 115.138 240.48C115.231 240.94 114.325 240.679 114.138 240.98C114.068 241.092 114.138 241.48 114.138 241.98C114.138 242.48 112.638 241.98 112.638 242.98C112.638 243.98 114.138 242.98 114.638 243.48C115.138 243.98 115.138 244.48 114.638 244.98C114.138 245.48 113.138 245.48 112.638 245.98C112.138 246.48 114.138 247.98 115.638 248.48C117.138 248.98 126.437 250.73 132.387 247.53C139.507 243.7 147.747 243.22 154.897 238.89C161.417 234.94 169.987 235.58 177.127 232.3C178.017 231.89 179.177 232 179.727 233.08C180.477 234.56 179.647 235.86 178.557 236.49C176.317 237.79 173.957 239.35 171.487 239.7C163.117 240.89 157.047 246.35 150.297 250.52C148.067 251.9 146.187 253.85 144.077 255.44C140.727 257.98 140.767 259.49 144.657 261.22C149.747 263.48 154.657 266.31 160.427 266.66C161.557 266.73 162.717 267.07 163.777 267.49C165.177 268.04 166.677 268.82 166.197 270.69C165.747 272.44 164.107 272.95 162.617 272.6C150.777 269.8 138.207 271.49 126.797 265.15C121.167 262.02 113.707 261.11 107.097 261.16C102.657 261.2 99.7271 266.34 98.1271 270.58C96.5971 274.63 94.9071 278.54 92.6571 282.21C90.3271 285.98 85.4471 287.5 80.3271 286.02Z" fill="#959596"/>
<path d="M194.487 228.511C194.197 231.981 192.497 234.161 188.907 234.231C185.077 234.311 182.887 232.061 182.957 228.421C183.017 225.061 185.127 222.881 188.737 222.931C192.287 222.991 194.107 225.051 194.487 228.511Z" fill="#939394"/>
<path d="M243.683 255.431V204.352H234.389V195.206H265.17V204.352H256.025V255.431H243.683ZM287.001 256.249C282.59 256.249 279.096 255.456 276.518 253.87C273.94 252.284 272.081 250.028 270.941 247.104C269.85 244.13 269.306 240.585 269.306 236.472V214.017C269.306 209.904 269.85 206.384 270.941 203.459C272.081 200.535 273.94 198.305 276.518 196.768C279.096 195.231 282.59 194.463 287.001 194.463C291.463 194.463 294.981 195.256 297.559 196.842C300.186 198.379 302.045 200.61 303.136 203.534C304.275 206.409 304.846 209.904 304.846 214.017V236.472C304.846 240.585 304.275 244.13 303.136 247.104C302.045 250.028 300.186 252.284 297.559 253.87C294.981 255.456 291.463 256.249 287.001 256.249ZM287.001 247.401C288.587 247.401 289.752 247.054 290.496 246.36C291.239 245.617 291.736 244.65 291.983 243.461C292.23 242.221 292.355 240.908 292.355 239.52V211.043C292.355 209.655 292.23 208.367 291.983 207.177C291.736 205.987 291.239 205.045 290.496 204.352C289.752 203.608 288.587 203.236 287.001 203.236C285.514 203.236 284.399 203.608 283.656 204.352C282.912 205.045 282.416 205.987 282.169 207.177C281.921 208.367 281.797 209.655 281.797 211.043V239.52C281.797 240.908 281.895 242.221 282.094 243.461C282.342 244.65 282.838 245.617 283.581 246.36C284.325 247.054 285.464 247.401 287.001 247.401ZM318.252 255.431V204.352H308.958V195.206H339.74V204.352H330.595V255.431H318.252ZM345.203 255.431V195.206H364.311C367.93 195.206 370.88 195.9 373.159 197.288C375.44 198.627 377.125 200.584 378.215 203.162C379.356 205.74 379.925 208.863 379.925 212.53C379.925 216.843 379.181 220.213 377.694 222.642C376.257 225.072 374.274 226.806 371.746 227.847C369.218 228.838 366.319 229.334 363.047 229.334H357.471V255.431H345.203ZM357.471 220.709H361.783C363.568 220.709 364.932 220.436 365.872 219.891C366.865 219.296 367.534 218.38 367.88 217.14C368.227 215.901 368.4 214.315 368.4 212.382C368.4 210.547 368.252 209.012 367.954 207.772C367.707 206.532 367.112 205.566 366.17 204.872C365.229 204.179 363.742 203.831 361.709 203.831H357.471V220.709ZM379.913 255.431L391.586 195.206H405.192L416.791 255.431H405.415L403.259 242.197H393.742L391.437 255.431H379.913ZM394.858 234.687H402.07L398.426 210.374L394.858 234.687ZM428.017 255.431V231.564L416.27 195.206H427.794L434.263 216.397L440.285 195.206H451.438L439.839 231.564V255.431H428.017Z" fill="black"/>
<path d="M240.851 321.672V277.872H251.936C253.846 277.872 255.613 278.034 257.235 278.358C258.857 278.683 260.281 279.26 261.507 280.089C262.768 280.918 263.724 282.072 264.373 283.55C265.058 284.992 265.4 286.885 265.4 289.227C265.4 290.994 265.147 292.508 264.643 293.77C264.139 294.996 263.417 295.969 262.48 296.69C261.543 297.41 260.389 297.897 259.019 298.15C260.713 298.402 262.138 298.978 263.291 299.88C264.444 300.782 265.31 301.971 265.887 303.449C266.464 304.926 266.752 306.711 266.752 308.802C266.752 311.002 266.464 312.912 265.887 314.534C265.346 316.156 264.535 317.491 263.454 318.535C262.372 319.58 261.038 320.374 259.452 320.915C257.866 321.419 256.028 321.672 253.937 321.672H240.851ZM249.773 315.399H252.26C254.495 315.399 256.028 314.841 256.857 313.723C257.722 312.605 258.154 310.929 258.154 308.694C258.154 306.964 257.956 305.594 257.559 304.584C257.163 303.539 256.514 302.782 255.613 302.313C254.748 301.809 253.576 301.556 252.098 301.556H249.773V315.399ZM249.773 295.554H251.99C253.54 295.554 254.711 295.338 255.505 294.905C256.298 294.436 256.839 293.752 257.127 292.85C257.451 291.913 257.614 290.778 257.614 289.444C257.614 288.109 257.38 287.047 256.911 286.253C256.478 285.425 255.793 284.83 254.856 284.469C253.954 284.108 252.801 283.928 251.395 283.928H249.773V295.554ZM284.122 322.267C280.913 322.267 278.371 321.689 276.498 320.536C274.623 319.383 273.271 317.742 272.442 315.616C271.648 313.453 271.252 310.875 271.252 307.883V291.553C271.252 288.561 271.648 286 272.442 283.874C273.271 281.748 274.623 280.125 276.498 279.007C278.371 277.889 280.913 277.331 284.122 277.331C287.366 277.331 289.926 277.908 291.801 279.061C293.711 280.179 295.063 281.802 295.856 283.928C296.685 286.019 297.1 288.561 297.1 291.553V307.883C297.1 310.875 296.685 313.453 295.856 315.616C295.063 317.742 293.711 319.383 291.801 320.536C289.926 321.689 287.366 322.267 284.122 322.267ZM284.122 315.832C285.275 315.832 286.123 315.579 286.664 315.075C287.204 314.534 287.564 313.831 287.745 312.966C287.925 312.064 288.015 311.11 288.015 310.1V289.39C288.015 288.38 287.925 287.443 287.745 286.578C287.564 285.713 287.204 285.027 286.664 284.523C286.123 283.982 285.275 283.712 284.122 283.712C283.041 283.712 282.229 283.982 281.689 284.523C281.148 285.027 280.787 285.713 280.607 286.578C280.426 287.443 280.337 288.38 280.337 289.39V310.1C280.337 311.11 280.408 312.064 280.553 312.966C280.733 313.831 281.094 314.534 281.635 315.075C282.175 315.579 283.004 315.832 284.122 315.832ZM306.849 321.672V284.523H300.09V277.872H322.477V284.523H315.826V321.672H306.849Z" fill="black"/>
<rect y="20" width="512" height="104" rx="24" fill="#33ABE0"/>
<path d="M131.735 76.166L117.282 71.3964C117.282 71.3964 115.554 70.6866 116.11 69.0771C116.225 68.7452 116.456 68.4628 117.147 67.9775C120.35 65.7166 176.423 45.3043 176.423 45.3043C176.423 45.3043 178.006 44.7639 178.94 45.1234C179.171 45.1958 179.38 45.3291 179.542 45.5095C179.706 45.69 179.819 45.9112 179.87 46.1505C179.972 46.5733 180.014 47.0081 179.996 47.4426C179.992 47.8185 179.947 48.1669 179.913 48.7133C179.572 54.2941 169.351 95.9456 169.351 95.9456C169.351 95.9456 168.739 98.3825 166.549 98.4659C166.01 98.4837 165.474 98.3914 164.971 98.1945C164.469 97.9977 164.011 97.7004 163.624 97.3204C159.326 93.5752 144.466 83.4613 141.183 81.237C141.108 81.1858 141.046 81.1193 141 81.0416C140.953 80.964 140.924 80.8772 140.913 80.7871C140.867 80.5526 141.119 80.2622 141.119 80.2622C141.119 80.2622 166.993 56.9693 167.681 54.524C167.735 54.3346 167.533 54.2411 167.262 54.3241C165.544 54.9644 135.753 74.0181 132.466 76.121C132.229 76.1935 131.979 76.2089 131.735 76.166Z" fill="white"/>
<path d="M212.891 53.875V88H208.438V53.875H212.891ZM223.859 53.875V57.5781H197.492V53.875H223.859ZM236.445 88.4688C234.68 88.4688 233.078 88.1719 231.641 87.5781C230.219 86.9688 228.992 86.1172 227.961 85.0234C226.945 83.9297 226.164 82.6328 225.617 81.1328C225.07 79.6328 224.797 77.9922 224.797 76.2109V75.2266C224.797 73.1641 225.102 71.3281 225.711 69.7188C226.32 68.0938 227.148 66.7188 228.195 65.5938C229.242 64.4688 230.43 63.6172 231.758 63.0391C233.086 62.4609 234.461 62.1719 235.883 62.1719C237.695 62.1719 239.258 62.4844 240.57 63.1094C241.898 63.7344 242.984 64.6094 243.828 65.7344C244.672 66.8438 245.297 68.1562 245.703 69.6719C246.109 71.1719 246.312 72.8125 246.312 74.5938V76.5391H227.375V73H241.977V72.6719C241.914 71.5469 241.68 70.4531 241.273 69.3906C240.883 68.3281 240.258 67.4531 239.398 66.7656C238.539 66.0781 237.367 65.7344 235.883 65.7344C234.898 65.7344 233.992 65.9453 233.164 66.3672C232.336 66.7734 231.625 67.3828 231.031 68.1953C230.438 69.0078 229.977 70 229.648 71.1719C229.32 72.3438 229.156 73.6953 229.156 75.2266V76.2109C229.156 77.4141 229.32 78.5469 229.648 79.6094C229.992 80.6562 230.484 81.5781 231.125 82.375C231.781 83.1719 232.57 83.7969 233.492 84.25C234.43 84.7031 235.492 84.9297 236.68 84.9297C238.211 84.9297 239.508 84.6172 240.57 83.9922C241.633 83.3672 242.562 82.5312 243.359 81.4844L245.984 83.5703C245.438 84.3984 244.742 85.1875 243.898 85.9375C243.055 86.6875 242.016 87.2969 240.781 87.7656C239.562 88.2344 238.117 88.4688 236.445 88.4688ZM256.086 52V88H251.727V52H256.086ZM273.57 88.4688C271.805 88.4688 270.203 88.1719 268.766 87.5781C267.344 86.9688 266.117 86.1172 265.086 85.0234C264.07 83.9297 263.289 82.6328 262.742 81.1328C262.195 79.6328 261.922 77.9922 261.922 76.2109V75.2266C261.922 73.1641 262.227 71.3281 262.836 69.7188C263.445 68.0938 264.273 66.7188 265.32 65.5938C266.367 64.4688 267.555 63.6172 268.883 63.0391C270.211 62.4609 271.586 62.1719 273.008 62.1719C274.82 62.1719 276.383 62.4844 277.695 63.1094C279.023 63.7344 280.109 64.6094 280.953 65.7344C281.797 66.8438 282.422 68.1562 282.828 69.6719C283.234 71.1719 283.438 72.8125 283.438 74.5938V76.5391H264.5V73H279.102V72.6719C279.039 71.5469 278.805 70.4531 278.398 69.3906C278.008 68.3281 277.383 67.4531 276.523 66.7656C275.664 66.0781 274.492 65.7344 273.008 65.7344C272.023 65.7344 271.117 65.9453 270.289 66.3672C269.461 66.7734 268.75 67.3828 268.156 68.1953C267.562 69.0078 267.102 70 266.773 71.1719C266.445 72.3438 266.281 73.6953 266.281 75.2266V76.2109C266.281 77.4141 266.445 78.5469 266.773 79.6094C267.117 80.6562 267.609 81.5781 268.25 82.375C268.906 83.1719 269.695 83.7969 270.617 84.25C271.555 84.7031 272.617 84.9297 273.805 84.9297C275.336 84.9297 276.633 84.6172 277.695 83.9922C278.758 83.3672 279.688 82.5312 280.484 81.4844L283.109 83.5703C282.562 84.3984 281.867 85.1875 281.023 85.9375C280.18 86.6875 279.141 87.2969 277.906 87.7656C276.688 88.2344 275.242 88.4688 273.57 88.4688ZM304.93 62.6406H308.867V87.4609C308.867 89.6953 308.414 91.6016 307.508 93.1797C306.602 94.7578 305.336 95.9531 303.711 96.7656C302.102 97.5938 300.242 98.0078 298.133 98.0078C297.258 98.0078 296.227 97.8672 295.039 97.5859C293.867 97.3203 292.711 96.8594 291.57 96.2031C290.445 95.5625 289.5 94.6953 288.734 93.6016L291.008 91.0234C292.07 92.3047 293.18 93.1953 294.336 93.6953C295.508 94.1953 296.664 94.4453 297.805 94.4453C299.18 94.4453 300.367 94.1875 301.367 93.6719C302.367 93.1562 303.141 92.3906 303.688 91.375C304.25 90.375 304.531 89.1406 304.531 87.6719V68.2188L304.93 62.6406ZM287.469 75.6016V75.1094C287.469 73.1719 287.695 71.4141 288.148 69.8359C288.617 68.2422 289.281 66.875 290.141 65.7344C291.016 64.5938 292.07 63.7188 293.305 63.1094C294.539 62.4844 295.93 62.1719 297.477 62.1719C299.07 62.1719 300.461 62.4531 301.648 63.0156C302.852 63.5625 303.867 64.3672 304.695 65.4297C305.539 66.4766 306.203 67.7422 306.688 69.2266C307.172 70.7109 307.508 72.3906 307.695 74.2656V76.4219C307.523 78.2812 307.188 79.9531 306.688 81.4375C306.203 82.9219 305.539 84.1875 304.695 85.2344C303.867 86.2812 302.852 87.0859 301.648 87.6484C300.445 88.1953 299.039 88.4688 297.43 88.4688C295.914 88.4688 294.539 88.1484 293.305 87.5078C292.086 86.8672 291.039 85.9688 290.164 84.8125C289.289 83.6562 288.617 82.2969 288.148 80.7344C287.695 79.1562 287.469 77.4453 287.469 75.6016ZM291.805 75.1094V75.6016C291.805 76.8672 291.93 78.0547 292.18 79.1641C292.445 80.2734 292.844 81.25 293.375 82.0938C293.922 82.9375 294.617 83.6016 295.461 84.0859C296.305 84.5547 297.312 84.7891 298.484 84.7891C299.922 84.7891 301.109 84.4844 302.047 83.875C302.984 83.2656 303.727 82.4609 304.273 81.4609C304.836 80.4609 305.273 79.375 305.586 78.2031V72.5547C305.414 71.6953 305.148 70.8672 304.789 70.0703C304.445 69.2578 303.992 68.5391 303.43 67.9141C302.883 67.2734 302.203 66.7656 301.391 66.3906C300.578 66.0156 299.625 65.8281 298.531 65.8281C297.344 65.8281 296.32 66.0781 295.461 66.5781C294.617 67.0625 293.922 67.7344 293.375 68.5938C292.844 69.4375 292.445 70.4219 292.18 71.5469C291.93 72.6562 291.805 73.8438 291.805 75.1094ZM319.789 66.625V88H315.453V62.6406H319.672L319.789 66.625ZM327.711 62.5L327.688 66.5312C327.328 66.4531 326.984 66.4062 326.656 66.3906C326.344 66.3594 325.984 66.3438 325.578 66.3438C324.578 66.3438 323.695 66.5 322.93 66.8125C322.164 67.125 321.516 67.5625 320.984 68.125C320.453 68.6875 320.031 69.3594 319.719 70.1406C319.422 70.9062 319.227 71.75 319.133 72.6719L317.914 73.375C317.914 71.8438 318.062 70.4062 318.359 69.0625C318.672 67.7188 319.148 66.5312 319.789 65.5C320.43 64.4531 321.242 63.6406 322.227 63.0625C323.227 62.4688 324.414 62.1719 325.789 62.1719C326.102 62.1719 326.461 62.2109 326.867 62.2891C327.273 62.3516 327.555 62.4219 327.711 62.5ZM345.734 83.6641V70.6094C345.734 69.6094 345.531 68.7422 345.125 68.0078C344.734 67.2578 344.141 66.6797 343.344 66.2734C342.547 65.8672 341.562 65.6641 340.391 65.6641C339.297 65.6641 338.336 65.8516 337.508 66.2266C336.695 66.6016 336.055 67.0938 335.586 67.7031C335.133 68.3125 334.906 68.9688 334.906 69.6719H330.57C330.57 68.7656 330.805 67.8672 331.273 66.9766C331.742 66.0859 332.414 65.2812 333.289 64.5625C334.18 63.8281 335.242 63.25 336.477 62.8281C337.727 62.3906 339.117 62.1719 340.648 62.1719C342.492 62.1719 344.117 62.4844 345.523 63.1094C346.945 63.7344 348.055 64.6797 348.852 65.9453C349.664 67.1953 350.07 68.7656 350.07 70.6562V82.4688C350.07 83.3125 350.141 84.2109 350.281 85.1641C350.438 86.1172 350.664 86.9375 350.961 87.625V88H346.438C346.219 87.5 346.047 86.8359 345.922 86.0078C345.797 85.1641 345.734 84.3828 345.734 83.6641ZM346.484 72.625L346.531 75.6719H342.148C340.914 75.6719 339.812 75.7734 338.844 75.9766C337.875 76.1641 337.062 76.4531 336.406 76.8438C335.75 77.2344 335.25 77.7266 334.906 78.3203C334.562 78.8984 334.391 79.5781 334.391 80.3594C334.391 81.1562 334.57 81.8828 334.93 82.5391C335.289 83.1953 335.828 83.7188 336.547 84.1094C337.281 84.4844 338.18 84.6719 339.242 84.6719C340.57 84.6719 341.742 84.3906 342.758 83.8281C343.773 83.2656 344.578 82.5781 345.172 81.7656C345.781 80.9531 346.109 80.1641 346.156 79.3984L348.008 81.4844C347.898 82.1406 347.602 82.8672 347.117 83.6641C346.633 84.4609 345.984 85.2266 345.172 85.9609C344.375 86.6797 343.422 87.2812 342.312 87.7656C341.219 88.2344 339.984 88.4688 338.609 88.4688C336.891 88.4688 335.383 88.1328 334.086 87.4609C332.805 86.7891 331.805 85.8906 331.086 84.7656C330.383 83.625 330.031 82.3516 330.031 80.9453C330.031 79.5859 330.297 78.3906 330.828 77.3594C331.359 76.3125 332.125 75.4453 333.125 74.7578C334.125 74.0547 335.328 73.5234 336.734 73.1641C338.141 72.8047 339.711 72.625 341.445 72.625H346.484ZM361.203 67.6797V88H356.844V62.6406H360.969L361.203 67.6797ZM360.312 74.3594L358.297 74.2891C358.312 72.5547 358.539 70.9531 358.977 69.4844C359.414 68 360.062 66.7109 360.922 65.6172C361.781 64.5234 362.852 63.6797 364.133 63.0859C365.414 62.4766 366.898 62.1719 368.586 62.1719C369.773 62.1719 370.867 62.3438 371.867 62.6875C372.867 63.0156 373.734 63.5391 374.469 64.2578C375.203 64.9766 375.773 65.8984 376.18 67.0234C376.586 68.1484 376.789 69.5078 376.789 71.1016V88H372.453V71.3125C372.453 69.9844 372.227 68.9219 371.773 68.125C371.336 67.3281 370.711 66.75 369.898 66.3906C369.086 66.0156 368.133 65.8281 367.039 65.8281C365.758 65.8281 364.688 66.0547 363.828 66.5078C362.969 66.9609 362.281 67.5859 361.766 68.3828C361.25 69.1797 360.875 70.0938 360.641 71.125C360.422 72.1406 360.312 73.2188 360.312 74.3594ZM376.742 71.9688L373.836 72.8594C373.852 71.4688 374.078 70.1328 374.516 68.8516C374.969 67.5703 375.617 66.4297 376.461 65.4297C377.32 64.4297 378.375 63.6406 379.625 63.0625C380.875 62.4688 382.305 62.1719 383.914 62.1719C385.273 62.1719 386.477 62.3516 387.523 62.7109C388.586 63.0703 389.477 63.625 390.195 64.375C390.93 65.1094 391.484 66.0547 391.859 67.2109C392.234 68.3672 392.422 69.7422 392.422 71.3359V88H388.062V71.2891C388.062 69.8672 387.836 68.7656 387.383 67.9844C386.945 67.1875 386.32 66.6328 385.508 66.3203C384.711 65.9922 383.758 65.8281 382.648 65.8281C381.695 65.8281 380.852 65.9922 380.117 66.3203C379.383 66.6484 378.766 67.1016 378.266 67.6797C377.766 68.2422 377.383 68.8906 377.117 69.625C376.867 70.3594 376.742 71.1406 376.742 71.9688Z" fill="white"/>
</svg>
