<svg width="512" height="461" viewBox="0 0 512 461" fill="none" xmlns="http://www.w3.org/2000/svg">
<path d="M3 43.4593C3 32.6564 11.7575 23.8989 22.5604 23.8989H489.439C500.243 23.8989 509 32.6564 509 43.4593V106.54C509 117.344 500.243 126.101 489.439 126.101H22.561C11.7577 126.101 3 117.344 3 106.54V43.4593Z" fill="#33ABE0"/>
<path d="M120.572 80.4705L102.731 74.5831C102.731 74.5831 100.599 73.7069 101.285 71.7202C101.427 71.3105 101.712 70.9619 102.565 70.3628C106.518 67.5721 175.734 42.3756 175.734 42.3756C175.734 42.3756 177.688 41.7086 178.841 42.1523C179.126 42.2417 179.383 42.4062 179.584 42.6289C179.786 42.8517 179.926 43.1248 179.989 43.4202C180.114 43.942 180.166 44.4788 180.144 45.0151C180.139 45.4791 180.083 45.9092 180.041 46.5836C179.62 53.4724 167.004 104.886 167.004 104.886C167.004 104.886 166.249 107.894 163.545 107.997C162.88 108.019 162.218 107.905 161.598 107.662C160.978 107.419 160.413 107.052 159.935 106.583C154.629 101.96 136.287 89.4756 132.234 86.73C132.142 86.6669 132.065 86.5847 132.008 86.4889C131.95 86.3931 131.914 86.2859 131.901 86.1747C131.844 85.8853 132.155 85.5268 132.155 85.5268C132.155 85.5268 164.093 56.7746 164.943 53.7562C165.009 53.5224 164.76 53.407 164.426 53.5094C162.305 54.2998 125.532 77.8192 121.474 80.415C121.182 80.5045 120.873 80.5235 120.572 80.4705Z" fill="white"/>
<path d="M211.816 55.5312V92.5H206.992V55.5312H211.816ZM223.699 55.5312V59.543H195.134V55.5312H223.699ZM237.333 93.0078C235.421 93.0078 233.686 92.6862 232.128 92.043C230.588 91.3828 229.259 90.4603 228.142 89.2754C227.042 88.0905 226.195 86.6855 225.603 85.0605C225.011 83.4355 224.714 81.6582 224.714 79.7285V78.6621C224.714 76.4277 225.044 74.4388 225.705 72.6953C226.365 70.9349 227.262 69.4453 228.396 68.2266C229.53 67.0078 230.817 66.0853 232.255 65.459C233.694 64.8327 235.184 64.5195 236.724 64.5195C238.688 64.5195 240.38 64.8581 241.802 65.5352C243.241 66.2122 244.417 67.1602 245.332 68.3789C246.246 69.5807 246.923 71.0026 247.363 72.6445C247.803 74.2695 248.023 76.0469 248.023 77.9766V80.084H227.507V76.25H243.326V75.8945C243.258 74.6758 243.004 73.4909 242.564 72.3398C242.141 71.1888 241.464 70.2409 240.533 69.4961C239.602 68.7513 238.332 68.3789 236.724 68.3789C235.658 68.3789 234.676 68.6074 233.779 69.0645C232.882 69.5046 232.111 70.1647 231.468 71.0449C230.825 71.9251 230.326 73 229.97 74.2695C229.615 75.5391 229.437 77.0033 229.437 78.6621V79.7285C229.437 81.0319 229.615 82.2591 229.97 83.4102C230.343 84.5443 230.876 85.543 231.57 86.4062C232.281 87.2695 233.136 87.9466 234.134 88.4375C235.15 88.9284 236.301 89.1738 237.587 89.1738C239.246 89.1738 240.651 88.8353 241.802 88.1582C242.953 87.4811 243.96 86.5755 244.824 85.4414L247.667 87.7012C247.075 88.5983 246.322 89.4531 245.408 90.2656C244.494 91.0781 243.368 91.7383 242.031 92.2461C240.71 92.7539 239.145 93.0078 237.333 93.0078ZM258.611 53.5V92.5H253.888V53.5H258.611ZM277.552 93.0078C275.639 93.0078 273.904 92.6862 272.347 92.043C270.807 91.3828 269.478 90.4603 268.361 89.2754C267.261 88.0905 266.414 86.6855 265.822 85.0605C265.229 83.4355 264.933 81.6582 264.933 79.7285V78.6621C264.933 76.4277 265.263 74.4388 265.923 72.6953C266.583 70.9349 267.481 69.4453 268.615 68.2266C269.749 67.0078 271.035 66.0853 272.474 65.459C273.913 64.8327 275.403 64.5195 276.943 64.5195C278.906 64.5195 280.599 64.8581 282.021 65.5352C283.46 66.2122 284.636 67.1602 285.55 68.3789C286.464 69.5807 287.141 71.0026 287.582 72.6445C288.022 74.2695 288.242 76.0469 288.242 77.9766V80.084H267.726V76.25H283.544V75.8945C283.477 74.6758 283.223 73.4909 282.783 72.3398C282.36 71.1888 281.682 70.2409 280.751 69.4961C279.82 68.7513 278.551 68.3789 276.943 68.3789C275.876 68.3789 274.895 68.6074 273.998 69.0645C273.1 69.5046 272.33 70.1647 271.687 71.0449C271.044 71.9251 270.544 73 270.189 74.2695C269.833 75.5391 269.656 77.0033 269.656 78.6621V79.7285C269.656 81.0319 269.833 82.2591 270.189 83.4102C270.561 84.5443 271.095 85.543 271.789 86.4062C272.5 87.2695 273.354 87.9466 274.353 88.4375C275.369 88.9284 276.52 89.1738 277.806 89.1738C279.465 89.1738 280.87 88.8353 282.021 88.1582C283.172 87.4811 284.179 86.5755 285.042 85.4414L287.886 87.7012C287.294 88.5983 286.541 89.4531 285.626 90.2656C284.712 91.0781 283.587 91.7383 282.25 92.2461C280.929 92.7539 279.363 93.0078 277.552 93.0078ZM311.525 65.0273H315.791V91.916C315.791 94.3366 315.3 96.4017 314.318 98.1113C313.336 99.821 311.965 101.116 310.205 101.996C308.461 102.893 306.447 103.342 304.162 103.342C303.214 103.342 302.097 103.19 300.81 102.885C299.541 102.597 298.288 102.098 297.052 101.387C295.833 100.693 294.809 99.7533 293.98 98.5684L296.443 95.7754C297.594 97.1634 298.796 98.1283 300.048 98.6699C301.318 99.2116 302.57 99.4824 303.806 99.4824C305.296 99.4824 306.582 99.2031 307.666 98.6445C308.749 98.0859 309.587 97.2565 310.179 96.1562C310.789 95.0729 311.093 93.7357 311.093 92.1445V71.0703L311.525 65.0273ZM292.609 79.0684V78.5352C292.609 76.4362 292.854 74.5319 293.345 72.8223C293.853 71.0957 294.572 69.6146 295.503 68.3789C296.451 67.1432 297.594 66.1953 298.931 65.5352C300.268 64.8581 301.775 64.5195 303.451 64.5195C305.177 64.5195 306.684 64.8242 307.97 65.4336C309.274 66.026 310.374 66.8978 311.271 68.0488C312.185 69.1829 312.904 70.554 313.429 72.1621C313.954 73.7702 314.318 75.5898 314.521 77.6211V79.957C314.335 81.9714 313.971 83.7826 313.429 85.3906C312.904 86.9987 312.185 88.3698 311.271 89.5039C310.374 90.638 309.274 91.5098 307.97 92.1191C306.667 92.7116 305.143 93.0078 303.4 93.0078C301.758 93.0078 300.268 92.6608 298.931 91.9668C297.611 91.2728 296.477 90.2995 295.529 89.0469C294.581 87.7943 293.853 86.3216 293.345 84.6289C292.854 82.9193 292.609 81.0658 292.609 79.0684ZM297.306 78.5352V79.0684C297.306 80.4395 297.442 81.7259 297.712 82.9277C298 84.1296 298.432 85.1875 299.007 86.1016C299.6 87.0156 300.353 87.735 301.267 88.2598C302.181 88.7676 303.273 89.0215 304.542 89.0215C306.1 89.0215 307.386 88.6914 308.402 88.0312C309.417 87.3711 310.222 86.4993 310.814 85.416C311.423 84.3327 311.897 83.1562 312.236 81.8867V75.7676C312.05 74.8366 311.762 73.9395 311.373 73.0762C311 72.196 310.509 71.4173 309.9 70.7402C309.307 70.0462 308.571 69.4961 307.691 69.0898C306.811 68.6836 305.778 68.4805 304.593 68.4805C303.307 68.4805 302.198 68.7513 301.267 69.293C300.353 69.8177 299.6 70.5456 299.007 71.4766C298.432 72.3906 298 73.457 297.712 74.6758C297.442 75.8776 297.306 77.1641 297.306 78.5352ZM327.623 69.3438V92.5H322.925V65.0273H327.496L327.623 69.3438ZM336.205 64.875L336.179 69.2422C335.79 69.1576 335.417 69.1068 335.062 69.0898C334.723 69.056 334.334 69.0391 333.894 69.0391C332.811 69.0391 331.854 69.2083 331.025 69.5469C330.195 69.8854 329.493 70.3594 328.917 70.9688C328.342 71.5781 327.885 72.306 327.546 73.1523C327.225 73.9818 327.013 74.8958 326.912 75.8945L325.591 76.6562C325.591 74.9974 325.752 73.4401 326.074 71.9844C326.412 70.5286 326.929 69.2422 327.623 68.125C328.317 66.9909 329.197 66.1107 330.263 65.4844C331.347 64.8411 332.633 64.5195 334.123 64.5195C334.461 64.5195 334.85 64.5618 335.291 64.6465C335.731 64.7142 336.035 64.7904 336.205 64.875ZM355.73 87.8027V73.6602C355.73 72.5768 355.51 71.6374 355.07 70.8418C354.647 70.0293 354.003 69.403 353.14 68.9629C352.277 68.5228 351.21 68.3027 349.941 68.3027C348.756 68.3027 347.715 68.5059 346.818 68.9121C345.938 69.3184 345.244 69.8516 344.736 70.5117C344.245 71.1719 344 71.8828 344 72.6445H339.302C339.302 71.6628 339.556 70.6895 340.064 69.7246C340.572 68.7598 341.3 67.888 342.248 67.1094C343.212 66.3138 344.363 65.6875 345.701 65.2305C347.055 64.7565 348.561 64.5195 350.22 64.5195C352.218 64.5195 353.978 64.8581 355.501 65.5352C357.042 66.2122 358.244 67.2363 359.107 68.6074C359.987 69.9616 360.427 71.6628 360.427 73.7109V86.5078C360.427 87.4219 360.503 88.3952 360.656 89.4277C360.825 90.4603 361.07 91.349 361.392 92.0938V92.5H356.492C356.255 91.9583 356.069 91.2389 355.933 90.3418C355.798 89.4277 355.73 88.5814 355.73 87.8027ZM356.542 75.8438L356.593 79.1445H351.845C350.508 79.1445 349.315 79.2546 348.265 79.4746C347.216 79.6777 346.335 79.9909 345.625 80.4141C344.914 80.8372 344.372 81.3704 344 82.0137C343.627 82.64 343.441 83.3763 343.441 84.2227C343.441 85.0859 343.636 85.873 344.025 86.584C344.414 87.2949 344.998 87.862 345.777 88.2852C346.572 88.6914 347.546 88.8945 348.697 88.8945C350.136 88.8945 351.405 88.5898 352.505 87.9805C353.606 87.3711 354.477 86.6263 355.121 85.7461C355.781 84.8659 356.136 84.0111 356.187 83.1816L358.193 85.4414C358.074 86.1523 357.753 86.9395 357.228 87.8027C356.703 88.666 356.001 89.4954 355.121 90.291C354.257 91.0697 353.225 91.7214 352.023 92.2461C350.838 92.7539 349.501 93.0078 348.011 93.0078C346.149 93.0078 344.516 92.6439 343.111 91.916C341.723 91.1882 340.639 90.2148 339.861 88.9961C339.099 87.7604 338.718 86.3809 338.718 84.8574C338.718 83.3848 339.006 82.0898 339.582 80.9727C340.157 79.8385 340.986 78.8991 342.07 78.1543C343.153 77.3926 344.457 76.8171 345.98 76.4277C347.503 76.0384 349.205 75.8438 351.083 75.8438H356.542ZM372.488 70.4863V92.5H367.765V65.0273H372.234L372.488 70.4863ZM371.523 77.7227L369.339 77.6465C369.356 75.7676 369.602 74.0326 370.076 72.4414C370.55 70.8333 371.252 69.4368 372.183 68.252C373.114 67.0671 374.274 66.153 375.662 65.5098C377.05 64.8496 378.658 64.5195 380.486 64.5195C381.772 64.5195 382.957 64.7057 384.041 65.0781C385.124 65.4336 386.063 66.0007 386.859 66.7793C387.654 67.5579 388.272 68.5566 388.712 69.7754C389.153 70.9941 389.373 72.4668 389.373 74.1934V92.5H384.675V74.4219C384.675 72.9831 384.43 71.832 383.939 70.9688C383.465 70.1055 382.788 69.4792 381.908 69.0898C381.028 68.6836 379.995 68.4805 378.81 68.4805C377.422 68.4805 376.263 68.7259 375.332 69.2168C374.401 69.7077 373.656 70.3848 373.097 71.248C372.539 72.1113 372.132 73.1016 371.878 74.2188C371.641 75.319 371.523 76.487 371.523 77.7227ZM389.322 75.1328L386.173 76.0977C386.19 74.5911 386.436 73.1439 386.91 71.7559C387.401 70.3678 388.103 69.1322 389.017 68.0488C389.948 66.9655 391.091 66.1107 392.445 65.4844C393.799 64.8411 395.348 64.5195 397.091 64.5195C398.564 64.5195 399.867 64.7142 401.001 65.1035C402.153 65.4928 403.117 66.0938 403.896 66.9062C404.692 67.7018 405.292 68.7259 405.699 69.9785C406.105 71.2311 406.308 72.7207 406.308 74.4473V92.5H401.585V74.3965C401.585 72.8561 401.34 71.6628 400.849 70.8164C400.375 69.9531 399.698 69.3522 398.818 69.0137C397.955 68.6582 396.922 68.4805 395.72 68.4805C394.688 68.4805 393.774 68.6582 392.978 69.0137C392.182 69.3691 391.514 69.86 390.972 70.4863C390.431 71.0957 390.016 71.7982 389.728 72.5938C389.457 73.3893 389.322 74.2357 389.322 75.1328Z" fill="white"/>
<path d="M11.772 190.173C11.0988 191.989 8.60998 202.005 7.97759 205.453C7.10039 210.083 7.20239 216.836 8.20198 221.773C9.54838 228.362 11.6292 232.136 16.77 237.256L19.2384 239.704L19.1568 242.744L19.0956 245.783L18.0144 247.497C17.4228 248.435 16.5864 249.904 16.1784 250.74C15.3828 252.372 15.3012 253.107 15.6276 255.657C15.75 256.677 15.6888 256.983 14.9544 258.86C13.914 261.512 12.4044 264.225 10.6704 266.55C9.32398 268.366 5.67239 272.201 3.8976 273.67L3 274.425L3.3876 275.139C3.9588 276.22 5.59079 277.77 6.67199 278.301C7.24319 278.566 8.22238 278.811 8.99758 278.872L10.3236 278.994L10.344 282.666C10.344 285.359 10.4664 287.216 10.8132 289.602C11.6904 295.722 11.1804 298.027 7.50839 304.229C7.20239 304.739 7.01879 305.208 7.10039 305.269C7.18199 305.31 9.05878 305.106 11.2416 304.78C13.6284 304.453 15.3012 304.29 15.4032 304.392C15.5052 304.494 15.8112 305.331 16.0764 306.249C18.2388 313.756 22.1555 320.447 26.6027 324.201C29.6423 326.751 32.6003 328.077 36.3539 328.505L38.4755 328.729L40.7195 330.504C45.1055 333.952 49.0427 336.604 54.0814 339.48L57.019 341.173L58.3246 340.48C62.2414 338.399 68.9938 333.931 73.339 330.565C75.2566 329.056 75.889 328.668 76.4194 328.668C77.725 328.668 80.7034 328.036 82.1926 327.424C89.0265 324.69 95.2281 316.387 98.0637 306.167C98.5941 304.229 98.6349 304.168 99.1449 304.27C100.471 304.535 106.734 305.249 106.836 305.167C106.897 305.106 106.428 304.147 105.795 303.046C104.306 300.373 103.551 298.537 103.123 296.457C102.735 294.519 102.776 293.397 103.47 287.46C103.735 285.155 103.857 283.034 103.816 281.442L103.755 278.994L105.204 278.872C106.06 278.79 106.999 278.546 107.529 278.28C108.57 277.75 110.12 276.22 110.691 275.139L111.099 274.364L110.079 273.548C108.162 271.977 104.367 267.958 103.041 266.081C100.308 262.205 98.4309 258.186 98.5329 256.35C98.6961 252.699 98.6757 252.311 98.0841 251.046C97.7781 250.373 97.0233 248.986 96.4113 247.986C95.0853 245.804 94.7997 244.6 94.9221 241.724L95.0037 239.765L97.5333 237.134C100.267 234.318 102.225 231.728 103.388 229.443C104.796 226.669 105.979 222.262 106.53 217.835C106.876 214.959 106.672 208.88 106.101 205.657C105.632 202.903 102.511 190.357 102.225 190.091C102.042 189.887 101.96 190.132 100.695 194.641C98.0229 204.167 96.0441 208.411 92.1681 212.939C90.2097 215.245 86.3746 218.509 85.6402 218.509C85.4362 218.509 84.3142 217.55 83.131 216.367C77.6638 210.94 71.1562 207.411 63.751 205.84C58.243 204.677 51.6335 205.126 45.9419 207.003C40.2299 208.9 35.2115 212.103 30.5807 216.775L28.6019 218.794L27.4187 217.999C25.5623 216.754 21.0947 212.144 19.6464 210.002C16.974 206.044 15.546 202.556 13.3632 194.539C12.2208 190.295 11.976 189.602 11.772 190.173ZM12.7716 203.311C13.5876 205.31 15.5868 209.288 16.4844 210.695C18.606 214.061 22.0331 217.815 24.6647 219.733C26.1131 220.793 29.1731 222.589 29.4995 222.589C29.6219 222.589 30.3155 221.854 31.0295 220.957C37.7003 212.47 49.7363 207.187 59.773 208.309C63.7102 208.737 68.3614 210.145 71.9722 211.94C75.9706 213.959 80.6218 217.754 83.2534 221.14C83.8654 221.936 84.4774 222.589 84.5794 222.589C84.9058 222.589 87.7617 220.916 89.2101 219.896C94.0041 216.448 98.4513 210.512 100.92 204.229C102.042 201.373 102.083 201.352 102.654 203.759C103.307 206.513 103.653 209.635 103.653 212.96C103.653 216.407 103.449 218.549 102.837 221.507C101.654 227.24 99.5325 230.871 94.5549 235.787L91.8213 238.48V242.03C91.8213 244.559 91.9029 245.824 92.1069 246.375C92.2701 246.824 93.1881 248.537 94.1469 250.21C95.1057 251.883 95.9013 253.352 95.9013 253.454C95.9013 253.556 95.6973 254.004 95.4525 254.433C95.0241 255.188 95.0241 255.31 95.2689 256.514C95.4117 257.207 95.8605 258.656 96.2481 259.716C98.1045 264.674 100.695 268.611 105.163 273.119C106.876 274.874 106.978 275.037 106.672 275.343C106.162 275.853 102.756 275.975 100.94 275.547C99.1245 275.118 99.1041 275.118 99.4713 275.812C99.6345 276.138 99.9813 277.118 100.226 278.015C100.838 280.178 100.838 284.462 100.226 288.725C99.5121 293.519 99.6549 296.11 100.797 299.496C101.103 300.455 101.307 301.312 101.205 301.414C100.94 301.679 99.2265 300.945 98.0637 300.067C97.4517 299.598 96.9621 299.374 96.8601 299.476C96.7581 299.578 96.3705 300.843 96.0033 302.291C94.5141 308.023 92.0457 313.797 89.5365 317.346C86.3134 321.916 81.9886 324.996 78.0718 325.527C76.9498 325.69 76.9294 325.608 77.725 324.017C78.2554 322.956 79.051 320.712 78.8878 320.712C78.847 320.712 78.1126 321.589 77.2558 322.65C75.583 324.711 73.9306 326.22 70.1974 329.056C64.975 333.013 57.5698 337.746 56.8762 337.522C56.6722 337.461 55.6114 336.869 54.5302 336.237C47.3087 331.973 39.9443 326.383 37.1903 323.079C36.3539 322.059 35.5787 321.181 35.4563 321.141C35.1707 321.039 35.4563 321.855 36.3335 323.67C36.7619 324.568 37.0679 325.363 37.0067 325.465C36.8435 325.751 35.1911 325.425 33.4571 324.792C28.7243 323.079 24.6647 318.693 21.4415 311.879C20.2583 309.37 18.5856 304.474 17.9328 301.597C17.6676 300.435 17.3616 299.455 17.2188 299.415C17.0964 299.353 16.6272 299.598 16.1988 299.945C15.4032 300.598 13.5876 301.536 13.1388 301.536C12.7716 301.536 12.8124 301.128 13.3632 299.455C14.424 296.314 14.526 293.193 13.7712 287.766C13.0776 282.809 13.3632 278.484 14.5056 276.22C14.7504 275.771 14.8932 275.343 14.832 275.261C14.7708 275.2 14.0772 275.302 13.302 275.486C11.1396 276.016 7.93679 275.873 7.30439 275.241C7.14119 275.078 7.69199 274.384 9.22198 272.834C10.4052 271.61 11.8944 269.978 12.5268 269.202C15.24 265.796 17.6268 261.206 18.5652 257.595C19.0548 255.698 19.0956 254.922 18.6876 254.208C18.198 253.352 18.3204 252.944 19.728 250.761C22.0943 247.089 22.1351 246.926 22.2167 242.703C22.2575 240.704 22.2371 238.847 22.1759 238.582C22.1147 238.337 20.7275 236.807 19.116 235.196C14.0364 230.116 12.2004 226.811 10.9968 220.447C10.6092 218.325 10.548 217.346 10.548 213.205C10.548 209.573 10.6296 207.921 10.8948 206.371C11.4252 203.331 11.874 201.515 12.0372 201.719C12.1188 201.801 12.4452 202.515 12.7716 203.311Z" fill="black"/>
<path d="M14.1791 212.96C14.5667 216.489 15.8723 219.63 18.1571 222.486C21.4211 226.566 21.3803 227.444 18.0755 224.241C15.7295 221.976 14.9135 221.344 14.9135 221.793C14.9135 222.364 15.8315 225.036 16.4435 226.26C18.3815 230.116 21.0947 232.442 27.1535 235.44C30.4991 237.093 30.3971 237.093 31.5599 235.236C33.4163 232.217 33.1715 228.668 30.9479 226.485C30.3563 225.893 29.4383 225.363 27.9491 224.71C24.3587 223.16 22.7675 222.058 19.9931 219.182C18.1367 217.264 17.1983 216.122 15.6275 213.816C14.0159 211.45 14.0159 211.47 14.1791 212.96Z" fill="black"/>
<path d="M52.9187 212.858C52.4495 213.001 52.0211 213.164 51.9395 213.225C51.8783 213.307 51.8987 213.735 52.0211 214.163C52.1435 214.592 52.4495 215.999 52.6943 217.285C53.1431 219.61 53.1431 219.794 53.2451 249.863L53.3675 280.116L55.1015 281.85C56.0603 282.83 56.9783 283.564 57.1619 283.544C57.3251 283.503 58.2227 282.687 59.1407 281.708L60.8135 279.933V252.128C60.8135 223.772 60.8747 220.753 61.6091 216.489C61.8539 215.041 61.9151 214.245 61.7723 214.082C61.6703 213.939 60.8339 213.572 59.9159 213.286C57.9779 212.654 54.3875 212.429 52.9187 212.858Z" fill="black"/>
<path d="M45.1055 215.469C43.1879 216.387 41.3315 217.632 39.5363 219.202C38.1083 220.426 35.3135 223.69 35.3135 224.119C35.3135 224.282 35.6195 224.996 35.9663 225.69C36.5783 226.873 36.6395 227.158 36.7007 229.239C36.8231 232.891 36.0071 235.298 33.6815 238.072C32.9879 238.888 32.4575 239.582 32.4983 239.623C32.5391 239.663 33.1307 239.337 33.8243 238.888C35.0279 238.093 35.5175 238.011 35.5175 238.582C35.5175 238.745 34.9055 239.521 34.1711 240.316C32.4779 242.152 31.2947 242.785 29.6219 242.785C28.9487 242.785 28.3571 242.846 28.3163 242.927C28.1531 243.213 28.5815 245.702 28.8467 246.008C29.4587 246.783 34.2731 248.537 38.6387 249.598C41.3927 250.271 45.4319 250.945 48.3899 251.251L49.7567 251.373L50.0015 250.7C50.1851 250.21 50.2871 247.334 50.3483 240.031C50.4707 228.77 50.2463 222.711 49.5935 219.855C49.1039 217.632 47.7167 214.633 47.1863 214.633C46.9823 214.633 46.0439 215 45.1055 215.469Z" fill="#FB4D00"/>
<path d="M64.9341 218.243C64.6893 219.12 64.4037 220.385 64.2813 221.058C63.7714 223.812 63.5266 238.072 63.853 247.17L63.9754 250.842L64.4853 250.781C64.7709 250.761 65.7705 250.353 66.7293 249.883C70.1157 248.231 72.7881 244.845 73.8081 240.948C74.3181 238.99 74.2569 234.91 73.6857 232.38C72.8289 228.504 71.2989 224.547 69.6261 221.711C68.4837 219.794 66.1173 216.795 65.6685 216.713C65.4237 216.672 65.2401 217.04 64.9341 218.243Z" fill="#FB4D00"/>
<path d="M25.2359 252.678C24.4811 253.963 23.8895 255.147 23.9507 255.31C24.2567 256.065 30.7439 259.043 35.8847 260.756C40.5767 262.327 44.9626 263.184 48.4102 263.184C49.7566 263.184 50.0218 263.123 50.2054 262.796C50.4502 262.327 50.491 257.696 50.2462 257.329C50.1442 257.187 49.0222 256.942 47.6554 256.758C44.6974 256.391 43.6774 256.187 40.6175 255.432C36.6191 254.433 30.1319 252.066 28.0307 250.822C27.5615 250.557 27.0515 250.332 26.9087 250.332C26.7659 250.332 26.0111 251.393 25.2359 252.678Z" fill="black"/>
<path d="M76.093 254.719C75.8074 254.984 70.687 256.106 67.6882 256.555C65.8114 256.82 64.1794 257.105 64.0774 257.167C63.955 257.248 63.8734 258.513 63.8734 260.104C63.8734 262.307 63.9346 262.981 64.159 263.164C64.3834 263.348 65.0362 263.368 66.8518 263.185C69.259 262.96 69.7078 262.797 69.463 262.165C69.1978 261.512 69.1366 258.799 69.3814 258.187L69.6262 257.575L69.9118 258.187C70.0546 258.513 70.279 259.431 70.4014 260.227C70.7686 262.573 70.7686 262.573 71.3194 262.573C71.9722 262.573 78.3778 260.798 78.6226 260.553C78.7654 260.41 77.3782 255.371 77.0314 254.8C76.909 254.617 76.2562 254.555 76.093 254.719Z" fill="black"/>
<path d="M22.1963 259.267C22.1351 259.349 21.9107 260.002 21.6659 260.736C20.6459 263.817 18.3407 267.366 15.2195 270.691C14.1588 271.813 13.2816 272.833 13.2816 272.935C13.2816 273.221 16.1171 272.67 18.3611 271.936C19.5239 271.548 20.3399 271.385 20.4419 271.487C20.5643 271.609 20.2991 272.16 19.7687 272.956C17.0555 276.873 16.6475 278.015 16.6679 281.85C16.6679 283.299 16.8311 285.502 17.0147 286.705C17.2391 288.072 17.3615 290.112 17.3615 292.111L17.3819 295.314L17.8919 294.702C18.7487 293.682 19.7483 291.336 20.2175 289.296C20.8295 286.644 20.8295 286.644 21.0743 287.256C21.4211 288.113 21.3395 293.458 20.9519 295.518C20.7683 296.518 20.5643 297.517 20.5031 297.701C20.3399 298.272 20.8091 298.129 21.7679 297.354C23.1143 296.253 23.1551 296.293 22.9919 299.027C22.5635 306.167 24.8075 312.266 29.7647 317.468C32.3147 320.161 32.2739 320.161 32.1107 317.489C31.9679 314.776 32.3759 313.164 33.7427 311.124C34.7831 309.553 35.3135 309.308 35.3135 310.369C35.3135 313.164 36.8231 316.836 39.1487 319.712C40.4339 321.283 44.1467 324.792 44.5343 324.792C44.6363 324.792 44.5343 324.445 44.3303 324.017C43.4735 322.344 43.1675 321.059 43.1879 319.182C43.2083 317.55 43.5347 316 43.7795 316.265C43.8407 316.326 44.0651 317.081 44.2895 317.958C45.1463 321.283 47.5331 324.608 51.1234 327.444L51.9394 328.097L52.0822 326.832C52.3678 324.282 53.0002 323.425 53.3062 325.18C53.6122 326.954 55.3462 329.77 56.6518 330.647C57.1414 330.973 57.223 330.973 57.8962 330.606C59.0182 329.994 60.7726 327.913 61.6498 326.118C62.7106 323.956 63.4042 321.1 63.6694 317.795C63.9142 314.939 63.8326 312.858 63.343 308.533C62.9962 305.473 62.9554 305.616 64.4854 303.678C65.791 301.985 65.7706 302.107 65.3626 300.618C65.0974 299.639 64.9138 299.292 64.669 299.292C64.465 299.292 63.4042 299.822 62.3026 300.455C59.9974 301.781 59.3446 301.883 58.3858 301.067C57.5494 300.373 56.713 300.353 55.8562 301.006C54.6322 301.944 54.3466 301.903 51.817 300.455C50.4298 299.659 49.4098 299.19 49.3078 299.312C49.1242 299.476 48.3898 301.638 48.3694 301.985C48.3694 302.066 48.8182 302.658 49.3486 303.311C49.8994 303.964 50.4502 304.698 50.593 304.963C50.8174 305.371 50.7766 305.412 50.3278 305.412C50.0422 305.412 49.063 305.126 48.1246 304.78C46.7987 304.29 46.2479 304.188 45.6155 304.29C43.6979 304.616 43.4735 304.637 43.4735 304.514C43.4735 304.453 43.7387 303.984 44.0855 303.454C44.4119 302.923 45.1055 301.414 45.6155 300.108C46.1255 298.802 46.8395 297.293 47.2067 296.742C47.5535 296.212 48.0838 295.355 48.3694 294.865C48.8794 293.968 48.9202 293.927 52.7554 292.336C54.8974 291.459 56.815 290.745 57.0394 290.745C57.2638 290.745 59.2018 291.459 61.3234 292.315C64.9138 293.784 65.2198 293.947 65.6074 294.641C65.8318 295.049 66.403 295.926 66.8722 296.62C67.3414 297.293 67.9534 298.619 68.2594 299.537C69.7486 304.045 71.2378 305.657 74.971 306.738C76.5826 307.207 79.2958 307.085 80.6625 306.473C81.1929 306.248 81.6213 305.963 81.6213 305.881C81.6213 305.779 81.0093 305.31 80.2749 304.82C77.1334 302.74 74.3386 298.027 72.8494 292.213C72.6658 291.479 72.4822 291.275 71.4622 290.704C70.8298 290.337 69.259 289.378 67.9942 288.541C65.179 286.726 64.669 286.461 63.3634 286.114C61.4866 285.604 61.303 285.665 59.3242 287.46C58.0798 288.603 57.3862 289.092 57.019 289.092C56.6518 289.092 55.999 288.623 54.775 287.44L53.041 285.767L51.9802 285.91C50.3686 286.093 49.1242 286.583 47.3903 287.725C46.5335 288.276 44.8607 289.337 43.6775 290.071C42.4943 290.785 41.5151 291.418 41.4743 291.438C41.4539 291.459 41.2091 292.295 40.9235 293.295C39.5567 298.435 36.1295 303.719 33.0695 305.392L32.1923 305.881L32.3147 305.29C32.3963 304.963 32.6411 304.004 32.8655 303.168C33.3959 301.21 33.8243 297.905 33.9875 294.253C34.1303 291.459 34.1099 291.336 33.6203 290.275C33.3551 289.663 33.1307 288.786 33.1307 288.337C33.1307 286.807 31.6211 284.767 28.9895 282.727C28.4183 282.279 28.3367 282.136 28.5611 281.973C28.7243 281.871 29.2955 281.83 29.8259 281.891C30.3971 281.952 30.8255 281.911 30.9071 281.789C30.9887 281.667 30.6215 280.851 30.1319 279.973C26.8883 274.363 26.5415 269.61 28.9895 264.469C29.7035 262.96 29.9075 262.348 29.7443 262.205C29.6015 262.123 28.7243 261.777 27.8063 261.471C26.8679 261.165 25.2359 260.512 24.1751 260.022C23.1347 259.533 22.2371 259.186 22.1963 259.267Z" fill="black"/>
<path d="M37.0679 265.815C36.9047 266.06 38.0063 267.713 38.8019 268.365C40.5767 269.875 42.3107 270.059 45.2279 269.1C46.2479 268.753 47.2679 268.345 47.4719 268.202C47.8187 267.937 47.7779 267.896 46.9415 267.692C46.4315 267.57 45.1463 267.141 44.0855 266.754C43.0247 266.366 41.5967 265.958 40.9439 265.836C39.4751 265.591 37.2107 265.571 37.0679 265.815Z" fill="black"/>
<path d="M72.9105 265.857C71.6458 266.101 66.1174 267.917 66.1174 268.08C66.1174 268.407 69.7486 269.549 71.0338 269.651C72.1966 269.753 72.5638 269.692 73.5021 269.263C74.6241 268.753 76.0317 267.489 76.5417 266.53C76.7661 266.081 76.7661 265.979 76.5213 265.836C76.1541 265.591 74.0937 265.612 72.9105 265.857Z" fill="black"/>
<path d="M32.6615 266.856C32.0495 268.039 31.6415 269.834 31.6415 271.242C31.6415 274.445 33.0899 277.158 36.9455 281.218C38.1899 282.503 39.1895 283.706 39.1895 283.87C39.1895 284.053 38.9447 284.196 38.5571 284.237C38.1899 284.278 37.8023 284.441 37.7003 284.645C37.2311 285.359 39.0263 288.011 39.6383 287.521C39.7811 287.419 40.4339 286.889 41.0866 286.379C42.7594 285.012 44.3506 284.033 46.3294 283.135C48.961 281.911 49.0222 281.891 49.4098 281.34C49.6138 281.054 49.879 280.238 50.0014 279.504C50.2462 277.954 50.5318 272.568 50.3482 272.568C50.287 272.568 49.777 272.996 49.2262 273.527C47.635 275.098 45.0442 276.24 43.1266 276.24C42.3514 276.24 42.2902 276.056 42.8614 275.526C43.453 274.975 44.779 272.996 44.6362 272.854C44.575 272.772 44.1058 272.833 43.5958 272.956C42.025 273.343 40.0463 273.241 38.8835 272.69C37.7003 272.14 35.3543 269.569 34.0487 267.386C33.6203 266.652 33.2123 266.04 33.1715 266.04C33.1103 266.04 32.8859 266.407 32.6615 266.856Z" fill="black"/>
<path d="M80.0505 267.304C79.3161 268.875 76.3785 272.16 75.4401 272.486C75.0933 272.608 74.7669 272.812 74.7261 272.935C74.6853 273.078 75.0729 273.934 75.5829 274.852C76.4397 276.362 76.6641 277.3 76.0929 276.933C75.9705 276.872 75.3789 276.036 74.7669 275.097C74.1753 274.159 73.5225 273.322 73.3185 273.22C73.1145 273.118 72.1965 272.976 71.2785 272.894C69.2385 272.731 69.1977 272.812 70.5033 274.526C71.5641 275.934 71.6253 276.24 70.8705 276.24C69.0957 276.24 66.7293 275.158 65.0974 273.649L63.8938 272.547L63.751 273.282C63.4246 275.056 64.3222 279.606 65.3422 281.442C66.5661 283.604 69.8913 283.788 74.5629 281.992C78.1329 280.605 80.8257 277.79 82.0293 274.179C82.5393 272.69 82.5597 270.222 82.1109 268.671C81.7233 267.366 81.0705 266.04 80.8257 266.04C80.7237 266.04 80.3769 266.611 80.0505 267.304Z" fill="black"/>
<path d="M52.1026 295.783C51.7762 296.13 51.7762 296.334 52.1026 296.579C53.1022 297.375 58.7326 297.64 60.8338 296.987C61.9762 296.64 62.4454 296.151 62.0578 295.763C61.7314 295.437 52.4494 295.457 52.1026 295.783Z" fill="black"/>
<path d="M352.879 253.413C341.313 255.106 332.683 264.857 331.725 277.28C331.378 281.911 332.051 286.685 333.622 290.561C337.171 299.374 345.27 305.514 354.266 306.187C359.264 306.575 363.446 305.636 367.628 303.168C369.097 302.311 369.526 302.148 370.403 302.148C371.137 302.148 371.606 302.27 371.974 302.556C372.259 302.78 372.524 302.964 372.586 302.964C372.647 302.964 372.728 299.129 372.769 294.437C372.851 286.501 372.892 285.828 373.3 284.318C374.014 281.707 374.952 279.892 376.666 277.709C376.808 277.525 374.564 277.464 365.507 277.464H354.164L354.205 283.319L354.266 289.194L357.836 289.296L361.406 289.398L361.468 291.071L361.529 292.764L360.856 293.172C359.978 293.702 357.734 294.192 356.164 294.192C350.288 294.172 344.821 289.439 343.332 283.074C342.985 281.544 343.047 277.831 343.455 276.036C344.087 273.302 345.311 271.038 347.208 269.141C350.044 266.305 354.103 264.857 357.775 265.408C360.488 265.816 361.998 267.08 362.753 269.569C363.1 270.691 363.242 270.916 363.467 270.712C363.956 270.304 374.258 259.288 374.32 259.084C374.36 258.982 374.136 258.9 373.81 258.9C372.32 258.9 370.872 258.288 366.935 255.983C362.916 253.637 357.755 252.699 352.879 253.413Z" fill="#094B95"/>
<path d="M279.501 254.127C279.501 254.188 279.766 254.596 280.092 255.004C281.52 256.82 282.744 259.737 283.173 262.368C283.438 264.164 283.438 295.661 283.173 297.456C282.806 299.761 281.969 301.883 280.725 303.76L279.542 305.514L284.315 305.575C286.947 305.596 291.251 305.596 293.883 305.575L298.677 305.514L297.84 304.392C296.718 302.923 295.719 300.781 295.229 298.884C294.903 297.579 294.841 296.273 294.739 289.602C294.658 285.339 294.678 279.769 294.76 277.22L294.903 272.589L296.045 274.466C296.677 275.506 300.39 281.565 304.287 287.95C308.183 294.335 311.59 300.027 311.855 300.598C312.487 301.944 312.467 303.046 311.835 304.311C311.549 304.861 311.325 305.371 311.325 305.453C311.325 305.555 315.588 305.616 320.811 305.616C326.033 305.616 330.297 305.575 330.297 305.514C330.297 305.453 329.889 304.861 329.399 304.188C328.257 302.658 327.543 301.149 326.971 299.129C326.543 297.579 326.523 297.293 326.461 280.422C326.38 261.96 326.4 261.491 327.441 258.656C327.991 257.146 329.175 255.126 329.787 254.616C329.95 254.474 330.093 254.29 330.093 254.188C330.093 254.086 325.911 254.004 320.607 254.004C315.384 254.004 311.121 254.045 311.121 254.086C311.121 254.147 311.61 254.861 312.222 255.698C313.467 257.452 314.201 259.145 314.711 261.471C315.017 262.878 315.058 264.429 315.078 273.935C315.099 279.912 315.017 284.788 314.935 284.747C314.833 284.727 311.141 278.872 306.735 271.773C301.145 262.776 298.636 258.554 298.513 257.942C298.289 256.901 298.452 255.942 299.064 254.922C299.309 254.514 299.493 254.147 299.493 254.086C299.493 254.045 295.005 254.004 289.497 254.004C284.009 254.004 279.501 254.066 279.501 254.127Z" fill="#094B95"/>
<path d="M124.665 254.331C124.665 254.392 125.236 255.167 125.91 256.085C127.766 258.513 129.235 261.124 130.357 263.98C131.866 267.795 143.331 298.048 143.617 298.905C143.923 299.884 143.943 302.148 143.637 303.107C143.494 303.535 143.168 304.168 142.903 304.535C142.638 304.882 142.413 305.269 142.413 305.392C142.413 305.555 145.29 305.616 151.797 305.616C156.958 305.616 161.181 305.575 161.181 305.535C161.181 305.494 160.875 304.882 160.488 304.147C159.672 302.597 159.447 301.21 159.753 299.843C160.141 298.089 173.625 262.736 174.584 260.94C175.665 258.941 176.726 257.289 178.154 255.473L179.174 254.208H169.851H160.528L160.855 254.657C161.936 256.167 162.099 256.718 162.099 258.696L162.079 260.634L157.04 273.874C154.266 281.177 151.94 287.175 151.899 287.236C151.838 287.277 151.756 287.277 151.716 287.236C151.675 287.195 150.206 283.38 148.472 278.79C146.718 274.18 144.453 268.223 143.413 265.53L141.516 260.634L141.495 258.696C141.495 256.881 141.536 256.677 142.168 255.596C142.515 254.943 142.821 254.372 142.821 254.31C142.821 254.249 138.741 254.208 133.743 254.208C128.745 254.208 124.665 254.27 124.665 254.331Z" fill="#094B95"/>
<path d="M181.989 254.331C181.989 254.392 182.315 254.861 182.723 255.392C183.723 256.697 184.947 259.308 185.396 261.042C185.743 262.368 185.763 263.817 185.763 279.912C185.763 296.334 185.743 297.436 185.375 298.782C184.865 300.7 184.029 302.515 182.907 304.107C182.397 304.841 181.989 305.473 181.989 305.514C181.989 305.575 186.293 305.616 191.577 305.616H201.165L200.247 304.372C199.084 302.801 198.227 300.985 197.636 298.945C197.207 297.354 197.187 297.252 197.187 280.32C197.187 267.101 197.248 262.96 197.452 261.879C197.86 259.716 198.819 257.452 200.043 255.738L201.145 254.208H191.577C186.293 254.208 181.989 254.27 181.989 254.331Z" fill="#094B95"/>
<path d="M205.102 255.473C206.224 257.064 206.897 258.37 207.509 260.226L207.999 261.654L208.06 279.076C208.121 298.252 208.142 297.966 206.877 301.006C206.53 301.822 205.796 303.168 205.265 304.005L204.266 305.514L213.772 305.575C218.995 305.596 223.299 305.575 223.36 305.535C223.401 305.473 223.115 305.045 222.687 304.555C221.769 303.474 220.463 300.822 220.015 299.19C219.851 298.517 219.647 297.069 219.586 295.987L219.464 294.009L222.809 289.521C224.645 287.052 226.257 285.033 226.359 285.012C226.604 285.012 234.376 299.129 234.866 300.475C235.437 302.067 235.274 303.556 234.376 304.841C234.172 305.127 234.009 305.433 234.009 305.494C234.009 305.555 238.191 305.616 243.291 305.616C248.391 305.616 252.573 305.555 252.573 305.494C252.573 305.433 252.083 304.8 251.471 304.127C248.513 300.7 248.024 299.904 239.598 284.482C234.845 275.771 234.192 274.466 234.417 274.119C234.56 273.915 236.518 271.242 238.803 268.203C242.883 262.776 246.31 258.492 248.88 255.657L250.166 254.208H240.557C235.274 254.208 230.949 254.229 230.949 254.27C230.949 254.29 231.133 254.678 231.357 255.126C231.847 256.106 231.867 257.126 231.398 258.146C230.99 259.023 219.913 273.976 219.668 273.996C219.566 273.996 219.525 271.222 219.566 267.815C219.647 262.042 219.688 261.573 220.117 260.226C220.729 258.39 221.402 257.064 222.524 255.473L223.421 254.208H213.813H204.205L205.102 255.473Z" fill="#094B95"/>
<path d="M255.51 254.657C257.408 257.309 258.285 259.166 258.795 261.654C259.08 263.103 259.101 265.326 259.04 280.626C258.978 296.559 258.958 298.068 258.611 299.19C258.122 300.883 257.02 303.066 256.041 304.351C255.592 304.943 255.225 305.473 255.225 305.514C255.225 305.575 259.55 305.616 264.813 305.616C270.096 305.616 274.401 305.575 274.401 305.514C274.401 305.453 274.013 304.923 273.544 304.331C272.361 302.883 271.382 300.7 270.912 298.435C270.545 296.661 270.525 295.477 270.525 279.994C270.525 261.736 270.545 261.552 271.79 258.513C272.136 257.676 272.871 256.412 273.422 255.698C273.952 254.984 274.401 254.351 274.401 254.29C274.401 254.249 270.076 254.208 264.792 254.208H255.184L255.51 254.657Z" fill="#094B95"/>
<path d="M378.644 254.29C378.644 254.351 379.093 255.086 379.644 255.922C380.766 257.636 381.786 260.267 382.092 262.205C382.357 263.817 382.52 292.438 382.296 295.518C382.01 299.333 380.909 302.393 379.114 304.413C378.624 304.943 378.236 305.433 378.236 305.494C378.236 305.555 382.643 305.616 388.028 305.616H397.82L397.025 304.596C394.944 301.965 394.006 299.435 393.74 295.661C393.455 291.805 393.475 286.175 393.781 285.869C393.965 285.685 395.617 285.624 399.962 285.624C406.837 285.624 407.816 285.481 410.57 284.115C413.692 282.564 415.528 280.728 417.098 277.627C418.424 274.976 418.69 273.486 418.588 269.141C418.506 265.877 418.445 265.388 417.955 264.021C416.65 260.39 414.018 257.452 410.55 255.738C407.592 254.27 408.408 254.351 392.782 254.27C385.009 254.229 378.644 254.229 378.644 254.29ZM405.634 266.53C406.062 266.734 406.633 267.244 406.919 267.652C407.327 268.264 407.408 268.631 407.408 269.937C407.408 271.814 406.96 272.63 405.572 273.323C404.695 273.772 404.471 273.792 399.106 273.792H393.536V270.059C393.536 267.999 393.598 266.244 393.679 266.163C393.761 266.081 396.311 266.04 399.35 266.081C404.267 266.142 404.94 266.183 405.634 266.53Z" fill="#FB4D00"/>
<path d="M430.501 255.228C431.317 256.554 431.684 258.268 431.46 259.696C431.337 260.573 424.85 278.036 418.689 294.192C416.935 298.782 415.405 301.557 413.345 303.984C412.814 304.596 412.304 305.229 412.223 305.351C412.1 305.555 413.977 305.616 421.301 305.616H430.501L430.175 305.147C428.726 303.127 428.441 300.965 429.297 298.231C429.603 297.293 429.971 296.334 430.154 296.069L430.481 295.62H439.334C444.189 295.62 448.31 295.681 448.494 295.743C448.657 295.804 449.085 296.559 449.452 297.415C450.574 300.088 450.513 302.699 449.289 304.637C449.044 305.065 448.82 305.453 448.82 305.514C448.82 305.575 452.859 305.616 457.796 305.616H466.772L465.568 304.127C464.222 302.475 462.978 300.394 462.202 298.578C461.917 297.905 458.551 289.092 454.716 278.994C449.718 265.775 447.739 260.308 447.657 259.492C447.494 257.799 447.718 256.656 448.514 255.351L449.208 254.208H439.538H429.869L430.501 255.228ZM441.762 277.036C442.965 280.279 444.006 283.115 444.067 283.36C444.169 283.788 444.148 283.788 439.456 283.788C435.682 283.788 434.744 283.727 434.744 283.523C434.744 283.278 438.518 272.793 439.028 271.589C439.13 271.344 439.293 271.14 439.395 271.14C439.497 271.14 440.558 273.792 441.762 277.036Z" fill="#FB4D00"/>
<path d="M458.816 254.31C458.816 254.372 459.53 255.269 460.407 256.289C462.978 259.37 463.529 260.267 471.077 273.486L478.298 286.134V291.234C478.298 296.375 478.135 298.027 477.441 300.088C476.972 301.516 476.013 303.372 475.259 304.29C474.891 304.739 474.524 305.229 474.443 305.351C474.32 305.555 476.279 305.616 483.888 305.616H493.496L492.68 304.413C491.538 302.74 490.334 300.067 489.946 298.333C489.538 296.497 489.477 287.134 489.865 286.012C489.987 285.624 492.129 281.687 494.638 277.26C504.124 260.39 505.267 258.533 507.837 255.738C508.47 255.024 509 254.392 509 254.331C509 254.27 504.879 254.208 499.82 254.208C494.781 254.208 490.64 254.229 490.64 254.249C490.64 254.29 490.864 254.759 491.15 255.31C491.721 256.432 491.823 258.288 491.395 259.431C491.089 260.206 484.051 272.568 483.908 272.568C483.643 272.568 476.462 259.533 476.217 258.615C475.871 257.35 476.034 256.228 476.687 255.065L477.197 254.208H467.996C462.957 254.208 458.816 254.249 458.816 254.31Z" fill="#FB4D00"/>
<path fill-rule="evenodd" clip-rule="evenodd" d="M507.284 204.178H496.721L491.571 230.642H479.908L485.058 204.178H474.715L476.431 195.357H486.73H498.393H509L507.284 204.178ZM448.748 204.178L447.868 208.589H463.272L461.555 217.41H446.151L445.315 221.821H462.832L461.115 230.642H443.598H435.544H431.935L438.801 195.357H442.146H450.464H467.673L465.956 204.178H448.748ZM419.964 212.559C421.46 213.22 422.649 214.146 423.441 215.293C424.277 216.44 424.673 217.851 424.673 219.439C424.673 223.144 423.133 225.967 420.096 227.82C417.015 229.716 413.098 230.642 408.301 230.642H388.011L395.053 195.445H413.67C417.763 195.445 420.932 196.195 423.045 197.65C425.201 199.106 426.258 201.179 426.258 203.869C426.258 205.854 425.686 207.574 424.585 209.074C423.485 210.53 421.945 211.721 419.964 212.559ZM401.259 221.821H408.301C409.533 221.821 410.678 220.851 410.942 219.616C411.206 218.381 410.369 217.41 409.181 217.41H402.139L401.259 221.821ZM410.854 204.178H404.692L403.856 208.589H410.017C411.25 208.589 412.394 207.619 412.658 206.384C412.834 205.149 412.042 204.178 410.854 204.178ZM373.928 204.178L368.778 230.642H357.115L362.264 204.178H351.922L353.638 195.357H363.937H375.6H386.207L384.49 204.178H373.928ZM335.901 204.355C334.229 203.914 332.556 203.693 330.796 203.693C329.168 203.693 327.891 203.914 326.967 204.399C326.043 204.884 325.603 205.413 325.603 206.075C325.603 206.692 325.999 207.222 326.835 207.574C327.671 207.927 328.992 208.324 330.884 208.765C333.173 209.295 335.065 209.868 336.65 210.486C338.234 211.103 339.554 212.029 340.699 213.308C341.843 214.587 342.415 216.264 342.415 218.337C342.415 220.939 341.711 223.232 340.259 225.217C338.806 227.202 336.782 228.746 334.097 229.804C331.412 230.907 328.287 231.436 324.678 231.436C321.642 231.436 318.781 231.128 316.096 230.466C313.411 229.804 311.211 228.966 309.494 227.864L314.072 219.131C317.857 221.292 321.818 222.394 325.911 222.394C327.407 222.394 328.551 222.218 329.388 221.821C330.18 221.468 330.576 220.939 330.576 220.321C330.576 219.704 330.18 219.219 329.344 218.866C328.507 218.513 327.231 218.116 325.471 217.675C323.138 217.057 321.201 216.44 319.661 215.822C318.121 215.205 316.756 214.235 315.612 212.956C314.468 211.676 313.895 209.956 313.895 207.839C313.895 205.193 314.6 202.855 316.008 200.87C317.416 198.885 319.485 197.342 322.17 196.239C324.854 195.136 328.023 194.607 331.632 194.607C334.229 194.607 336.694 194.872 338.938 195.401C341.183 195.93 343.163 196.68 344.792 197.65L340.523 206.295C339.07 205.413 337.574 204.796 335.901 204.355ZM228.689 230.642L231.813 214.499L220.194 230.642H216.717L211.7 214.808L208.619 230.642H197L203.822 195.357H205.582H215.485H215.705L221.603 214.102L235.07 195.357H235.51H245.545H247.129L240.308 230.642H228.689Z" fill="#094B95"/>
<path d="M278.422 239.464C293.006 239.464 304.829 227.616 304.829 213C304.829 198.384 293.006 186.536 278.422 186.536C263.838 186.536 252.015 198.384 252.015 213C252.015 227.616 263.838 239.464 278.422 239.464Z" fill="#FB4D00"/>
<path d="M278.862 221.733L290.877 228.923L287.708 215.338L298.359 206.208L284.363 205.017L278.906 192.226L273.449 205.061L259.453 206.252L270.06 215.382L266.847 228.967L278.862 221.733Z" fill="white"/>
</svg>
