<svg width="512" height="461" viewBox="0 0 512 461" fill="none" xmlns="http://www.w3.org/2000/svg">
<path d="M133.881 230.549C133.758 232.867 134.49 235.144 135.917 236.878C137.345 238.612 139.349 239.663 141.492 239.798H141.933C143.511 239.796 145.054 239.294 146.371 238.355C147.688 237.415 148.722 236.078 149.346 234.51C149.969 232.941 150.155 231.21 149.879 229.528C149.604 227.847 148.879 226.29 147.795 225.049C146.712 223.808 145.316 222.938 143.78 222.546C142.245 222.153 140.637 222.256 139.155 222.842C137.673 223.427 136.381 224.469 135.44 225.84C134.499 227.21 133.949 228.849 133.859 230.553L133.881 230.549Z" fill="#0033AD"/>
<path d="M103.755 228.332C103.24 228.3 102.728 228.435 102.283 228.719C101.839 229.002 101.483 229.422 101.259 229.925C101.035 230.428 100.954 230.992 101.025 231.545C101.097 232.097 101.319 232.615 101.663 233.031C102.006 233.448 102.456 233.745 102.955 233.884C103.455 234.024 103.981 234.001 104.468 233.817C104.956 233.633 105.381 233.297 105.692 232.851C106.003 232.406 106.184 231.87 106.214 231.313C106.234 230.942 106.187 230.571 106.074 230.22C105.961 229.869 105.785 229.546 105.557 229.269C105.328 228.992 105.052 228.767 104.742 228.606C104.433 228.445 104.098 228.352 103.755 228.332Z" fill="#0033AD"/>
<path d="M133.369 179.804C133.827 179.549 134.206 179.153 134.457 178.666C134.708 178.178 134.821 177.621 134.78 177.065C134.739 176.509 134.548 175.978 134.229 175.539C133.91 175.101 133.478 174.774 132.988 174.6C132.498 174.427 131.972 174.414 131.475 174.563C130.978 174.713 130.533 175.018 130.196 175.44C129.859 175.863 129.645 176.384 129.581 176.938C129.518 177.491 129.606 178.053 129.837 178.553C129.992 178.887 130.206 179.184 130.468 179.428C130.73 179.672 131.034 179.858 131.362 179.974C131.69 180.091 132.037 180.136 132.381 180.106C132.725 180.077 133.061 179.975 133.369 179.804Z" fill="#0033AD"/>
<path d="M141.567 195.275C142.279 194.886 142.869 194.277 143.262 193.525C143.655 192.773 143.833 191.913 143.773 191.051C143.714 190.19 143.42 189.368 142.929 188.687C142.438 188.007 141.771 187.499 141.013 187.229C140.255 186.958 139.441 186.937 138.672 187.168C137.903 187.398 137.214 187.87 136.693 188.524C136.172 189.178 135.842 189.985 135.745 190.842C135.647 191.699 135.787 192.568 136.146 193.34C136.384 193.852 136.713 194.309 137.115 194.683C137.516 195.058 137.982 195.343 138.486 195.523C138.989 195.703 139.52 195.773 140.049 195.73C140.578 195.688 141.093 195.533 141.567 195.275Z" fill="#0033AD"/>
<path d="M113.979 205.915C114.529 206.306 115.173 206.512 115.831 206.506C116.488 206.501 117.13 206.284 117.674 205.884C118.218 205.485 118.64 204.919 118.887 204.259C119.134 203.599 119.194 202.875 119.061 202.178C118.927 201.481 118.606 200.843 118.137 200.344C117.668 199.845 117.073 199.507 116.427 199.374C115.781 199.241 115.113 199.319 114.507 199.597C113.902 199.875 113.386 200.341 113.026 200.936C112.543 201.733 112.372 202.705 112.551 203.639C112.73 204.572 113.243 205.391 113.979 205.915Z" fill="#0033AD"/>
<path d="M118.893 226.741C118.096 226.692 117.304 226.9 116.617 227.338C115.929 227.777 115.378 228.426 115.031 229.204C114.684 229.982 114.559 230.853 114.67 231.708C114.781 232.563 115.124 233.363 115.655 234.008C116.186 234.652 116.882 235.112 117.654 235.328C118.426 235.544 119.241 235.508 119.994 235.224C120.748 234.94 121.406 234.42 121.887 233.731C122.367 233.041 122.648 232.213 122.694 231.351C122.754 230.194 122.388 229.059 121.675 228.195C120.962 227.33 119.962 226.807 118.893 226.741Z" fill="#0033AD"/>
<path d="M114.421 256.1C113.834 256.421 113.348 256.923 113.025 257.542C112.702 258.162 112.556 258.871 112.605 259.58C112.655 260.29 112.897 260.967 113.302 261.528C113.707 262.088 114.257 262.506 114.881 262.728C115.506 262.95 116.177 262.967 116.81 262.777C117.444 262.586 118.011 262.197 118.439 261.658C118.868 261.119 119.14 260.454 119.22 259.748C119.3 259.042 119.184 258.326 118.888 257.691C118.692 257.269 118.42 256.893 118.089 256.584C117.758 256.276 117.374 256.041 116.959 255.893C116.544 255.745 116.107 255.688 115.671 255.723C115.235 255.759 114.811 255.887 114.421 256.1Z" fill="#0033AD"/>
<path d="M130.106 217.716C130.892 218.273 131.813 218.565 132.752 218.556C133.692 218.547 134.607 218.237 135.384 217.665C136.16 217.092 136.763 216.284 137.114 215.341C137.466 214.398 137.552 213.364 137.361 212.369C137.169 211.373 136.709 210.462 136.039 209.749C135.369 209.036 134.519 208.555 133.596 208.365C132.673 208.176 131.719 208.286 130.854 208.684C129.989 209.081 129.253 209.747 128.738 210.597C128.395 211.161 128.158 211.793 128.042 212.457C127.925 213.12 127.93 213.802 128.058 214.463C128.185 215.125 128.431 215.752 128.783 216.31C129.134 216.868 129.584 217.346 130.106 217.716Z" fill="#0033AD"/>
<path d="M179.869 194.931C180.538 195.403 181.321 195.65 182.12 195.64C182.918 195.631 183.697 195.365 184.356 194.877C185.015 194.389 185.526 193.701 185.824 192.899C186.122 192.097 186.193 191.217 186.029 190.371C185.865 189.525 185.472 188.75 184.902 188.146C184.331 187.541 183.608 187.133 182.823 186.973C182.038 186.813 181.226 186.909 180.492 187.248C179.757 187.586 179.131 188.154 178.694 188.877C178.403 189.358 178.203 189.896 178.104 190.461C178.006 191.025 178.011 191.605 178.12 192.168C178.23 192.73 178.44 193.264 178.74 193.738C179.04 194.212 179.424 194.617 179.869 194.931Z" fill="#0033AD"/>
<path d="M188.151 179.508C188.583 179.815 189.09 179.976 189.607 179.971C190.124 179.966 190.628 179.795 191.055 179.48C191.482 179.165 191.814 178.72 192.007 178.201C192.201 177.682 192.247 177.112 192.142 176.564C192.036 176.017 191.783 175.515 191.413 175.123C191.044 174.732 190.576 174.467 190.068 174.363C189.56 174.259 189.035 174.321 188.559 174.54C188.083 174.76 187.679 175.127 187.396 175.595C187.017 176.223 186.883 176.987 187.025 177.721C187.167 178.454 187.571 179.097 188.151 179.508Z" fill="#0033AD"/>
<path d="M180.504 222.226C179.445 222.16 178.384 222.32 177.382 222.698C176.38 223.076 175.456 223.664 174.664 224.428C173.064 225.972 172.096 228.14 171.973 230.455C171.85 232.771 172.582 235.045 174.008 236.776C175.434 238.508 177.438 239.555 179.577 239.688C179.732 239.688 179.891 239.688 180.045 239.688C181.604 239.687 183.129 239.199 184.437 238.281C185.745 237.363 186.779 236.055 187.416 234.515C188.052 232.976 188.264 231.269 188.024 229.602C187.785 227.936 187.105 226.379 186.067 225.121C185.364 224.263 184.51 223.565 183.555 223.068C182.6 222.571 181.563 222.284 180.504 222.226Z" fill="#0033AD"/>
<path d="M144.22 217.109C144.891 218.559 145.922 219.777 147.198 220.627C148.474 221.477 149.944 221.925 151.442 221.92C152.824 221.92 154.182 221.537 155.388 220.808C156.594 220.079 157.607 219.027 158.33 217.753C159.054 216.48 159.464 215.027 159.521 213.533C159.578 212.039 159.28 210.555 158.656 209.221C157.981 207.777 156.947 206.566 155.672 205.722C154.396 204.878 152.929 204.435 151.434 204.443C150.056 204.446 148.703 204.829 147.501 205.557C146.299 206.284 145.289 207.332 144.566 208.601C143.844 209.87 143.432 211.317 143.372 212.806C143.311 214.295 143.603 215.776 144.22 217.109Z" fill="#0033AD"/>
<path d="M207.571 205.905C208.158 205.585 208.643 205.083 208.967 204.464C209.29 203.845 209.437 203.136 209.388 202.426C209.339 201.717 209.098 201.039 208.693 200.478C208.288 199.918 207.739 199.5 207.115 199.277C206.491 199.054 205.82 199.036 205.186 199.226C204.553 199.416 203.986 199.804 203.556 200.343C203.127 200.882 202.855 201.546 202.774 202.252C202.693 202.958 202.808 203.674 203.103 204.309C203.5 205.162 204.194 205.808 205.032 206.108C205.87 206.407 206.783 206.334 207.571 205.905Z" fill="#0033AD"/>
<path d="M187.082 208.69C186.243 209.148 185.548 209.864 185.085 210.749C184.622 211.634 184.412 212.647 184.482 213.661C184.551 214.675 184.897 215.644 185.475 216.446C186.053 217.247 186.838 217.845 187.73 218.164C188.622 218.482 189.582 218.508 190.487 218.236C191.392 217.965 192.203 217.409 192.817 216.639C193.43 215.869 193.819 214.919 193.934 213.91C194.048 212.901 193.884 211.877 193.462 210.969C193.181 210.366 192.794 209.828 192.322 209.387C191.849 208.946 191.301 208.61 190.709 208.398C190.116 208.187 189.491 208.103 188.869 208.154C188.246 208.204 187.639 208.386 187.082 208.69Z" fill="#0033AD"/>
<path d="M160.691 178.189C161.348 178.23 162.001 178.059 162.567 177.698C163.134 177.336 163.589 176.802 163.874 176.16C164.16 175.519 164.264 174.801 164.172 174.096C164.08 173.392 163.798 172.732 163.36 172.201C162.922 171.671 162.348 171.292 161.711 171.114C161.075 170.936 160.404 170.967 159.783 171.202C159.162 171.437 158.62 171.865 158.224 172.434C157.829 173.003 157.598 173.685 157.561 174.396C157.512 175.348 157.814 176.283 158.401 176.994C158.988 177.705 159.811 178.135 160.691 178.189Z" fill="#0033AD"/>
<path d="M160.656 200.831C161.594 200.888 162.526 200.643 163.335 200.126C164.144 199.61 164.793 198.846 165.201 197.93C165.609 197.014 165.757 195.988 165.626 194.982C165.495 193.975 165.091 193.033 164.466 192.275C163.84 191.517 163.021 190.976 162.112 190.721C161.202 190.467 160.244 190.51 159.357 190.844C158.47 191.179 157.695 191.791 157.129 192.603C156.564 193.414 156.233 194.389 156.179 195.404C156.108 196.766 156.54 198.103 157.379 199.12C158.219 200.138 159.397 200.753 160.656 200.831Z" fill="#0033AD"/>
<path d="M134.918 253.31C135.757 252.852 136.452 252.135 136.914 251.25C137.377 250.365 137.587 249.351 137.517 248.337C137.447 247.323 137.101 246.354 136.522 245.553C135.944 244.752 135.158 244.155 134.266 243.836C133.374 243.518 132.414 243.494 131.509 243.766C130.603 244.038 129.793 244.594 129.18 245.365C128.567 246.136 128.179 247.086 128.065 248.095C127.951 249.104 128.116 250.128 128.539 251.035C129.106 252.252 130.097 253.175 131.293 253.602C132.49 254.028 133.794 253.923 134.918 253.31Z" fill="#0033AD"/>
<path d="M163.724 208.332C162.739 209.959 162.283 211.895 162.429 213.834C162.575 215.773 163.315 217.604 164.53 219.037C165.746 220.47 167.369 221.423 169.141 221.746C170.914 222.069 172.735 221.743 174.317 220.819C175.899 219.895 177.151 218.427 177.876 216.647C178.6 214.866 178.755 212.875 178.316 210.989C177.877 209.102 176.869 207.428 175.452 206.231C174.035 205.035 172.289 204.383 170.492 204.381C169.149 204.38 167.828 204.741 166.646 205.43C165.465 206.12 164.461 207.117 163.724 208.332Z" fill="#0033AD"/>
<path d="M177.772 244.896C177.124 243.507 176.146 242.33 174.939 241.486C173.731 240.643 172.337 240.163 170.901 240.097C169.464 240.032 168.038 240.381 166.768 241.111C165.499 241.841 164.432 242.924 163.679 244.249C162.925 245.574 162.512 247.092 162.481 248.647C162.451 250.203 162.804 251.739 163.505 253.097C164.206 254.455 165.229 255.586 166.469 256.374C167.709 257.161 169.121 257.576 170.558 257.576C171.823 257.567 173.068 257.24 174.196 256.621C176.103 255.575 177.551 253.755 178.221 251.557C178.891 249.36 178.73 246.965 177.772 244.896Z" fill="#0033AD"/>
<path d="M191.89 244.284C191.104 243.726 190.184 243.433 189.244 243.441C188.305 243.45 187.389 243.759 186.612 244.331C185.835 244.903 185.232 245.711 184.88 246.653C184.527 247.596 184.441 248.63 184.632 249.626C184.823 250.621 185.282 251.533 185.952 252.247C186.621 252.96 187.471 253.442 188.394 253.632C189.317 253.822 190.271 253.712 191.136 253.315C192.001 252.919 192.738 252.253 193.254 251.403C193.943 250.263 194.186 248.873 193.931 247.539C193.675 246.205 192.941 245.034 191.89 244.284Z" fill="#0033AD"/>
<path d="M207.359 231.15C207.404 230.288 207.212 229.431 206.807 228.687C206.401 227.943 205.802 227.346 205.083 226.971C204.364 226.596 203.559 226.46 202.769 226.58C201.979 226.7 201.239 227.071 200.644 227.646C200.049 228.221 199.624 228.974 199.424 229.81C199.224 230.646 199.258 231.527 199.52 232.342C199.783 233.158 200.263 233.87 200.9 234.39C201.537 234.911 202.302 235.215 203.099 235.264C204.168 235.329 205.217 234.933 206.015 234.161C206.814 233.39 207.297 232.307 207.359 231.15Z" fill="#0033AD"/>
<path d="M218.537 228.04C218.021 228.008 217.508 228.142 217.062 228.426C216.616 228.709 216.259 229.13 216.034 229.633C215.809 230.137 215.727 230.701 215.798 231.255C215.87 231.809 216.092 232.328 216.436 232.746C216.78 233.163 217.23 233.461 217.731 233.602C218.231 233.742 218.758 233.719 219.247 233.535C219.735 233.351 220.161 233.014 220.473 232.568C220.784 232.121 220.966 231.585 220.996 231.026C221.035 230.278 220.797 229.543 220.336 228.983C219.876 228.424 219.228 228.085 218.537 228.04Z" fill="#0033AD"/>
<path d="M208.012 256.085C207.462 255.696 206.818 255.491 206.161 255.497C205.503 255.504 204.863 255.721 204.319 256.122C203.776 256.522 203.355 257.088 203.109 257.748C202.862 258.407 202.802 259.131 202.936 259.828C203.07 260.524 203.392 261.162 203.861 261.661C204.33 262.16 204.925 262.497 205.57 262.629C206.216 262.762 206.884 262.685 207.489 262.407C208.094 262.129 208.61 261.663 208.97 261.069C209.21 260.673 209.375 260.231 209.457 259.767C209.538 259.302 209.534 258.825 209.445 258.362C209.357 257.899 209.184 257.46 208.938 257.069C208.692 256.679 208.378 256.344 208.012 256.085Z" fill="#0033AD"/>
<path d="M133.845 282.492C133.413 282.185 132.907 282.024 132.39 282.028C131.873 282.033 131.369 282.203 130.942 282.518C130.514 282.832 130.183 283.277 129.989 283.796C129.795 284.314 129.748 284.883 129.853 285.431C129.957 285.979 130.21 286.48 130.578 286.873C130.947 287.265 131.414 287.53 131.922 287.635C132.43 287.74 132.955 287.679 133.431 287.461C133.907 287.243 134.312 286.877 134.596 286.41C134.784 286.099 134.915 285.751 134.979 285.386C135.043 285.021 135.04 284.646 134.971 284.282C134.901 283.919 134.766 283.573 134.573 283.266C134.38 282.959 134.132 282.696 133.845 282.492Z" fill="#0033AD"/>
<path d="M188.623 282.196C188.161 282.447 187.779 282.842 187.525 283.329C187.27 283.816 187.155 284.373 187.193 284.931C187.231 285.489 187.422 286.022 187.74 286.463C188.058 286.904 188.49 287.233 188.981 287.408C189.472 287.583 190 287.596 190.498 287.447C190.996 287.297 191.442 286.991 191.78 286.567C192.117 286.143 192.331 285.621 192.393 285.065C192.456 284.51 192.365 283.947 192.133 283.447C191.979 283.115 191.765 282.82 191.505 282.577C191.246 282.334 190.944 282.15 190.618 282.033C190.292 281.917 189.948 281.871 189.605 281.899C189.263 281.927 188.929 282.028 188.623 282.196Z" fill="#0033AD"/>
<path d="M158.268 253.654C159.253 252.026 159.709 250.09 159.562 248.151C159.416 246.212 158.677 244.381 157.461 242.948C156.245 241.515 154.622 240.562 152.849 240.239C151.076 239.917 149.254 240.244 147.673 241.168C146.091 242.092 144.839 243.561 144.115 245.342C143.391 247.123 143.237 249.114 143.677 251C144.117 252.887 145.125 254.561 146.543 255.757C147.961 256.953 149.707 257.603 151.504 257.605C152.847 257.61 154.169 257.251 155.35 256.561C156.532 255.87 157.535 254.871 158.268 253.654Z" fill="#0033AD"/>
<path d="M142.123 267.074C141.455 266.601 140.673 266.354 139.875 266.362C139.077 266.37 138.3 266.634 137.641 267.121C136.981 267.607 136.47 268.294 136.172 269.095C135.873 269.896 135.801 270.775 135.964 271.62C136.127 272.465 136.518 273.239 137.087 273.844C137.656 274.449 138.379 274.858 139.162 275.019C139.946 275.18 140.757 275.085 141.491 274.748C142.226 274.41 142.851 273.845 143.289 273.123C143.874 272.153 144.081 270.972 143.862 269.837C143.644 268.703 143.018 267.709 142.123 267.074Z" fill="#0033AD"/>
<path d="M160.961 283.811C160.304 283.77 159.652 283.941 159.085 284.302C158.519 284.663 158.064 285.198 157.778 285.839C157.492 286.479 157.388 287.197 157.48 287.902C157.571 288.606 157.853 289.266 158.291 289.797C158.728 290.328 159.302 290.707 159.938 290.885C160.574 291.063 161.245 291.034 161.866 290.8C162.487 290.565 163.029 290.137 163.425 289.569C163.821 289.001 164.053 288.319 164.091 287.609C164.116 287.137 164.054 286.664 163.911 286.218C163.767 285.772 163.543 285.361 163.253 285.008C162.962 284.655 162.61 284.368 162.217 284.162C161.823 283.957 161.397 283.837 160.961 283.811Z" fill="#0033AD"/>
<path d="M160.996 261.174C160.057 261.112 159.123 261.353 158.311 261.867C157.499 262.38 156.846 263.143 156.435 264.058C156.024 264.973 155.874 266 156.002 267.008C156.131 268.016 156.533 268.96 157.157 269.721C157.782 270.481 158.602 271.024 159.512 271.28C160.422 271.536 161.381 271.495 162.269 271.16C163.157 270.826 163.934 270.213 164.5 269.401C165.066 268.588 165.397 267.612 165.45 266.596C165.523 265.238 165.094 263.905 164.259 262.888C163.424 261.872 162.25 261.255 160.996 261.174Z" fill="#0033AD"/>
<path d="M180.425 266.725C179.712 267.117 179.123 267.728 178.731 268.483C178.339 269.237 178.164 270.1 178.225 270.962C178.287 271.825 178.584 272.648 179.078 273.328C179.573 274.007 180.242 274.513 181.003 274.781C181.763 275.049 182.579 275.066 183.348 274.832C184.118 274.597 184.806 274.121 185.325 273.463C185.844 272.805 186.171 271.995 186.264 271.136C186.358 270.277 186.214 269.407 185.851 268.637C185.611 268.125 185.28 267.67 184.877 267.297C184.475 266.924 184.008 266.641 183.504 266.463C183 266.286 182.469 266.217 181.94 266.262C181.412 266.307 180.897 266.465 180.425 266.725Z" fill="#0033AD"/>
<path d="M274.687 206.115L254.751 261H246.603L269.558 200.779H274.811L274.687 206.115ZM291.396 261L271.419 206.115L271.295 200.779H276.548L299.585 261H291.396ZM290.362 238.707V245.242H256.529V238.707H290.362ZM323.947 261H311.373L311.456 254.506H323.947C328.248 254.506 331.833 253.61 334.7 251.818C337.568 249.998 339.719 247.461 341.153 244.208C342.614 240.926 343.345 237.094 343.345 232.71V229.028C343.345 225.582 342.931 222.521 342.104 219.847C341.277 217.144 340.063 214.869 338.464 213.022C336.865 211.147 334.907 209.727 332.591 208.762C330.302 207.797 327.669 207.314 324.691 207.314H311.125V200.779H324.691C328.634 200.779 332.233 201.441 335.486 202.765C338.74 204.061 341.539 205.949 343.882 208.431C346.254 210.885 348.074 213.863 349.342 217.365C350.61 220.839 351.244 224.755 351.244 229.111V232.71C351.244 237.066 350.61 240.995 349.342 244.497C348.074 247.972 346.24 250.936 343.841 253.39C341.47 255.844 338.602 257.733 335.238 259.056C331.902 260.352 328.138 261 323.947 261ZM315.633 200.779V261H307.651V200.779H315.633ZM384.622 206.115L364.687 261H356.539L379.494 200.779H384.746L384.622 206.115ZM401.332 261L381.355 206.115L381.231 200.779H386.483L409.521 261H401.332ZM400.298 238.707V245.242H366.465V238.707H400.298Z" fill="black" fill-opacity="0.8"/>
</svg>
