<svg width="512" height="461" viewBox="0 0 512 461" fill="none" xmlns="http://www.w3.org/2000/svg">
<path fill-rule="evenodd" clip-rule="evenodd" d="M104.635 181.5H173.753C175.403 181.5 176.926 182.38 177.749 183.807L197.886 218.756C198.93 220.568 198.62 222.856 197.13 224.325L141.702 279.015C139.907 280.787 137.018 280.787 135.223 279.015L79.8697 224.399C78.3456 222.895 78.0602 220.541 79.181 218.717L100.706 183.695C101.544 182.331 103.032 181.5 104.635 181.5ZM164.829 197.103V206.909H145.14V213.708C158.968 214.435 169.343 217.419 169.42 220.995L169.42 228.452C169.343 232.028 158.968 235.012 145.14 235.739V252.424H132.066V235.739C118.237 235.012 107.863 232.028 107.786 228.452L107.786 220.995C107.863 217.419 118.237 214.435 132.066 213.708V206.909H112.377V197.103H164.829ZM138.603 230.616C153.36 230.616 165.695 228.093 168.713 224.724C166.154 221.866 156.894 219.617 145.14 219V226.118C143.033 226.229 140.846 226.287 138.603 226.287C136.36 226.287 134.173 226.229 132.066 226.118V219C120.311 219.617 111.052 221.866 108.492 224.724C111.511 228.093 123.845 230.616 138.603 230.616Z" fill="#009393"/>
<path d="M264.347 200.779H272.288V241.519C272.288 246.041 271.281 249.805 269.268 252.811C267.256 255.816 264.581 258.077 261.244 259.594C257.936 261.083 254.337 261.827 250.449 261.827C246.369 261.827 242.674 261.083 239.365 259.594C236.084 258.077 233.478 255.816 231.548 252.811C229.645 249.805 228.694 246.041 228.694 241.519V200.779H236.594V241.519C236.594 244.663 237.173 247.255 238.331 249.295C239.489 251.335 241.102 252.852 243.17 253.845C245.266 254.837 247.692 255.334 250.449 255.334C253.234 255.334 255.661 254.837 257.729 253.845C259.824 252.852 261.451 251.335 262.609 249.295C263.767 247.255 264.347 244.663 264.347 241.519V200.779ZM316.915 245.779C316.915 244.373 316.695 243.132 316.254 242.057C315.84 240.954 315.096 239.961 314.02 239.079C312.972 238.197 311.511 237.356 309.636 236.556C307.789 235.756 305.445 234.943 302.605 234.116C299.627 233.233 296.938 232.255 294.54 231.179C292.141 230.076 290.086 228.822 288.377 227.415C286.667 226.009 285.358 224.396 284.448 222.576C283.538 220.756 283.083 218.675 283.083 216.331C283.083 213.987 283.565 211.823 284.53 209.837C285.495 207.852 286.874 206.129 288.666 204.667C290.486 203.178 292.651 202.02 295.16 201.193C297.669 200.366 300.468 199.952 303.556 199.952C308.078 199.952 311.911 200.821 315.054 202.558C318.225 204.267 320.638 206.515 322.292 209.3C323.947 212.057 324.774 215.007 324.774 218.151H316.833C316.833 215.89 316.35 213.891 315.385 212.153C314.42 210.389 312.959 209.01 311.001 208.017C309.043 206.997 306.562 206.487 303.556 206.487C300.716 206.487 298.372 206.915 296.525 207.769C294.677 208.624 293.299 209.782 292.389 211.244C291.506 212.705 291.065 214.373 291.065 216.248C291.065 217.517 291.327 218.675 291.851 219.722C292.403 220.743 293.244 221.694 294.374 222.576C295.532 223.459 296.994 224.272 298.758 225.017C300.551 225.761 302.687 226.478 305.169 227.167C308.588 228.132 311.539 229.208 314.02 230.393C316.502 231.579 318.542 232.916 320.142 234.405C321.768 235.867 322.968 237.535 323.74 239.41C324.54 241.257 324.939 243.353 324.939 245.697C324.939 248.151 324.443 250.37 323.45 252.356C322.458 254.341 321.038 256.037 319.19 257.443C317.343 258.849 315.123 259.938 312.531 260.71C309.967 261.455 307.099 261.827 303.928 261.827C301.143 261.827 298.4 261.441 295.698 260.669C293.023 259.897 290.583 258.739 288.377 257.195C286.199 255.651 284.448 253.748 283.124 251.487C281.828 249.199 281.18 246.551 281.18 243.546H289.121C289.121 245.614 289.521 247.392 290.321 248.881C291.12 250.343 292.21 251.556 293.588 252.521C294.994 253.486 296.58 254.203 298.345 254.672C300.137 255.113 301.998 255.334 303.928 255.334C306.713 255.334 309.071 254.948 311.001 254.176C312.931 253.403 314.392 252.301 315.385 250.867C316.405 249.433 316.915 247.737 316.915 245.779ZM351.41 261H338.836L338.919 254.506H351.41C355.711 254.506 359.296 253.61 362.164 251.818C365.031 249.998 367.182 247.461 368.616 244.208C370.077 240.926 370.808 237.094 370.808 232.71V229.028C370.808 225.582 370.394 222.521 369.567 219.847C368.74 217.144 367.527 214.869 365.927 213.022C364.328 211.147 362.37 209.727 360.054 208.762C357.766 207.797 355.132 207.314 352.154 207.314H338.588V200.779H352.154C356.097 200.779 359.696 201.441 362.949 202.765C366.203 204.061 369.002 205.949 371.346 208.431C373.717 210.885 375.537 213.863 376.805 217.365C378.074 220.839 378.708 224.755 378.708 229.111V232.71C378.708 237.066 378.074 240.995 376.805 244.497C375.537 247.972 373.703 250.936 371.304 253.39C368.933 255.844 366.065 257.733 362.701 259.056C359.365 260.352 355.601 261 351.41 261ZM343.097 200.779V261H335.114V200.779H343.097ZM411.796 200.779V261H403.938V200.779H411.796ZM431.153 200.779V207.314H384.622V200.779H431.153Z" fill="black" fill-opacity="0.8"/>
</svg>
