<svg width="512" height="461" viewBox="0 0 512 461" fill="none" xmlns="http://www.w3.org/2000/svg">
<g clip-path="url(#clip0_1977_25061)">
<path d="M133.5 291C166.637 291 193.5 264.137 193.5 231C193.5 197.863 166.637 171 133.5 171C100.363 171 73.5 197.863 73.5 231C73.5 264.137 100.363 291 133.5 291Z" fill="#0388E5"/>
<g clip-path="url(#clip1_1977_25061)">
<path d="M144.233 201.938H118.466L116.329 213.917L139.587 213.945C151.044 213.945 154.422 218.122 154.325 225.039C154.27 228.58 152.74 234.584 152.078 236.534C150.313 241.721 146.687 247.628 133.093 247.614L110.483 247.6L108.353 259.594H134.065C143.137 259.594 146.984 258.529 151.078 256.647C160.136 252.428 165.527 243.464 167.691 231.762C170.897 214.332 166.899 201.938 144.233 201.938Z" fill="white"/>
<path d="M107.347 224.748C100.591 224.748 99.6259 229.161 98.9917 231.831C98.1507 235.317 97.875 236.741 97.875 236.741H124.263C131.018 236.741 131.983 232.329 132.618 229.659C133.459 226.173 133.734 224.748 133.734 224.748H107.347Z" fill="white"/>
</g>
</g>
<path d="M240.937 261H228.363L228.446 254.506H240.937C245.238 254.506 248.823 253.61 251.69 251.818C254.558 249.998 256.709 247.461 258.142 244.208C259.604 240.926 260.335 237.094 260.335 232.71V229.028C260.335 225.582 259.921 222.521 259.094 219.847C258.267 217.144 257.053 214.869 255.454 213.022C253.855 211.147 251.897 209.727 249.581 208.762C247.292 207.797 244.659 207.314 241.681 207.314H228.115V200.779H241.681C245.624 200.779 249.222 201.441 252.476 202.765C255.73 204.061 258.528 205.949 260.872 208.431C263.244 210.885 265.063 213.863 266.332 217.365C267.6 220.839 268.234 224.755 268.234 229.111V232.71C268.234 237.066 267.6 240.995 266.332 244.497C265.063 247.972 263.23 250.936 260.831 253.39C258.46 255.844 255.592 257.733 252.228 259.056C248.892 260.352 245.128 261 240.937 261ZM232.623 200.779V261H224.641V200.779H232.623ZM301.612 206.115L281.676 261H273.528L296.483 200.779H301.736L301.612 206.115ZM318.322 261L298.345 206.115L298.221 200.779H303.473L326.511 261H318.322ZM317.288 238.707V245.242H283.455V238.707H317.288ZM366.672 245.779C366.672 244.373 366.451 243.132 366.01 242.057C365.597 240.954 364.852 239.961 363.777 239.079C362.729 238.197 361.267 237.356 359.392 236.556C357.545 235.756 355.201 234.943 352.361 234.116C349.383 233.233 346.695 232.255 344.296 231.179C341.897 230.076 339.843 228.822 338.133 227.415C336.424 226.009 335.114 224.396 334.204 222.576C333.294 220.756 332.839 218.675 332.839 216.331C332.839 213.987 333.322 211.823 334.287 209.837C335.252 207.852 336.631 206.129 338.423 204.667C340.243 203.178 342.407 202.02 344.916 201.193C347.426 200.366 350.224 199.952 353.312 199.952C357.835 199.952 361.667 200.821 364.811 202.558C367.982 204.267 370.394 206.515 372.049 209.3C373.703 212.057 374.53 215.007 374.53 218.151H366.589C366.589 215.89 366.107 213.891 365.142 212.153C364.176 210.389 362.715 209.01 360.757 208.017C358.8 206.997 356.318 206.487 353.312 206.487C350.472 206.487 348.129 206.915 346.281 207.769C344.434 208.624 343.055 209.782 342.145 211.244C341.263 212.705 340.822 214.373 340.822 216.248C340.822 217.517 341.084 218.675 341.608 219.722C342.159 220.743 343 221.694 344.131 222.576C345.289 223.459 346.75 224.272 348.515 225.017C350.307 225.761 352.444 226.478 354.926 227.167C358.345 228.132 361.295 229.208 363.777 230.393C366.258 231.579 368.299 232.916 369.898 234.405C371.525 235.867 372.724 237.535 373.496 239.41C374.296 241.257 374.696 243.353 374.696 245.697C374.696 248.151 374.199 250.37 373.207 252.356C372.214 254.341 370.794 256.037 368.947 257.443C367.099 258.849 364.88 259.938 362.288 260.71C359.723 261.455 356.856 261.827 353.685 261.827C350.9 261.827 348.156 261.441 345.454 260.669C342.779 259.897 340.339 258.739 338.133 257.195C335.955 255.651 334.204 253.748 332.881 251.487C331.585 249.199 330.937 246.551 330.937 243.546H338.878C338.878 245.614 339.278 247.392 340.077 248.881C340.877 250.343 341.966 251.556 343.345 252.521C344.751 253.486 346.336 254.203 348.101 254.672C349.893 255.113 351.755 255.334 353.685 255.334C356.47 255.334 358.827 254.948 360.757 254.176C362.688 253.403 364.149 252.301 365.142 250.867C366.162 249.433 366.672 247.737 366.672 245.779ZM424.204 226.671V233.165H391.612V226.671H424.204ZM392.853 200.779V261H384.87V200.779H392.853ZM431.153 200.779V261H423.211V200.779H431.153Z" fill="black" fill-opacity="0.8"/>
<defs>
<clipPath id="clip0_1977_25061">
<rect width="120" height="120" fill="white" transform="translate(73.5 171)"/>
</clipPath>
<clipPath id="clip1_1977_25061">
<rect width="70.7812" height="57.6562" fill="white" transform="translate(97.875 201.938)"/>
</clipPath>
</defs>
</svg>
