<svg width="512" height="461" viewBox="0 0 512 461" fill="none" xmlns="http://www.w3.org/2000/svg">
<circle cx="166" cy="231" r="60" fill="#F60102"/>
<path d="M186.153 210.527L133.143 201L161.039 269.571L199.903 223.306L186.153 210.527ZM185.307 214.726L193.42 222.256L171.24 226.181L185.307 214.726ZM166.422 225.398L143.043 206.456L181.246 213.324L166.422 225.398ZM164.748 228.754L160.943 259.537L140.392 209.003L164.748 228.754ZM168.271 230.38L192.83 226.034L164.669 259.563L168.271 230.38Z" fill="white"/>
<path d="M279.319 200.779V261H271.46V200.779H279.319ZM298.676 200.779V207.314H252.145V200.779H298.676ZM307.609 200.779H327.545C332.067 200.779 335.886 201.469 339.002 202.847C342.145 204.226 344.53 206.267 346.157 208.969C347.812 211.643 348.639 214.938 348.639 218.854C348.639 221.611 348.074 224.134 346.943 226.423C345.84 228.684 344.241 230.614 342.145 232.213C340.077 233.785 337.596 234.957 334.7 235.729L332.467 236.597H313.731L313.648 230.104H327.793C330.661 230.104 333.046 229.608 334.949 228.615C336.851 227.595 338.285 226.23 339.25 224.52C340.215 222.811 340.698 220.922 340.698 218.854C340.698 216.538 340.243 214.511 339.333 212.774C338.423 211.037 336.989 209.699 335.031 208.762C333.101 207.797 330.606 207.314 327.545 207.314H315.592V261H307.609V200.779ZM342.807 261L328.165 233.702L336.479 233.661L351.327 260.504V261H342.807ZM364.976 200.779L379.452 223.858L393.928 200.779H403.234L384.209 230.6L403.689 261H394.301L379.452 237.466L364.604 261H355.215L374.696 230.6L355.67 200.779H364.976Z" fill="black" fill-opacity="0.8"/>
</svg>
