<svg xmlns="http://www.w3.org/2000/svg" fill="none" viewBox="0 0 40 40" class="Icon_icon__w6Pjo" preserveAspectRatio=""><rect width="40" height="40" fill="url(#a__6W9oPKoA)" rx="20"/><path fill="#fff" fill-rule="evenodd" d="m27.924 18.615-12.696-7.354a2.125 2.125 0 0 0-2.152 0A2.137 2.137 0 0 0 12 13.131v14.707c0 .78.402 1.479 1.076 1.869.337.195.706.293 1.076.293.369 0 .739-.098 1.076-.293l12.696-7.353A2.137 2.137 0 0 0 29 20.484c0-.78-.402-1.479-1.076-1.869Zm-1.028 1.952-12.697 7.354c-.015.009-.047.028-.095 0s-.048-.065-.048-.083V13.131c0-.018 0-.056.048-.083a.097.097 0 0 1 .049-.015.09.09 0 0 1 .047.015l12.696 7.353c.015.009.048.028.048.083 0 .056-.033.074-.048.083Z" clip-rule="evenodd"/><defs><linearGradient id="a__6W9oPKoA" x1="20" x2="20" y1="0" y2="40" gradientUnits="userSpaceOnUse"><stop stop-color="#FB5E01"/><stop offset="1" stop-color="#FB4F01"/></linearGradient></defs></svg>