<svg xmlns="http://www.w3.org/2000/svg" width="239" height="130" fill="none"><g clip-path="url(#a)"><g fill="#00E5FA" filter="url(#b)"><path d="M217.42 95.98h12.54l.01-.02c.37 0 .71-.21.88-.54.17-.33.14-.73-.07-1.03l-7.49-10.62 7.49-10.59c.21-.3.24-.7.07-1.03a.993.993 0 0 0-.88-.54H200.6l-.064.001a1.054 1.054 0 0 0-.436.119c-.32.18-.52.51-.52.88v1.72c0 .55.45 1 1 1 .51 0 .93-.39.99-.88l9.37 6.116v31.684H26.96V80.615l9.43-6.155c.06.5.48.88.99.88.55 0 1-.45 1-1v-1.72c0-.37-.2-.71-.52-.88a.965.965 0 0 0-.63-.111H8c-.38 0-.72.21-.89.54-.17.33-.15.73.07 1.03l7.49 10.59-7.49 10.62c-.21.3-.24.7-.07 1.03.18.33.52.54.89.54h12.54v.02c.55 0 1-.45 1-1s-.45-1-1-1H9.92l6.78-9.62c.24-.34.24-.81 0-1.15l-6.78-9.6h24.085l-8.3 5.414a1.004 1.004 0 0 0-.745.967v33.24c0 .55.45 1 1 1h185.98c.55 0 1-.45 1-1V80.01c0-.397-.235-.742-.572-.904l-8.428-5.497h24.1l-6.78 9.6c-.24.34-.24.8 0 1.15l6.78 9.62h-10.62c-.55 0-1 .45-1 1s.45 1 1 1Z"/><path d="M34.73 81.01h25.65c.55 0 1-.45 1-1s-.45-1-1-1H34.73c-.55 0-1 .45-1 1s.45 1 1 1Zm59 0h110.65c.55 0 1-.45 1-1s-.45-1-1-1H93.73c-.55 0-1 .45-1 1s.45 1 1 1Z"/></g><g fill="#FBFF2F" filter="url(#c)"><path d="M146.18 10.56c-.21.5.03 1.09.54 1.3v.01c.52.21 1.1-.04 1.31-.54l2.31-5.54c.21-.51-.03-1.1-.54-1.31-.51-.21-1.1.03-1.31.54l-2.31 5.54Zm-6.55 15.67c-.21.5.03 1.09.54 1.3h-.01a1 1 0 0 0 1.31-.54l2.31-5.54a.997.997 0 0 0-1.84-.76l-2.31 5.54Zm15.58-4.88-5.54-2.31c-.51-.21-.75-.8-.54-1.31.21-.51.8-.75 1.3-.54l5.54 2.31c.51.21.75.8.54 1.31-.21.51-.79.75-1.3.54Zm-21.22-8.851 5.54 2.31h.01a.997.997 0 0 0 .76-1.84l-5.54-2.31a.997.997 0 1 0-.77 1.84Z"/></g><g fill="#FFBA00" filter="url(#d)"><path d="M89.85 14.163a1.041 1.041 0 0 1-.01-.144c0-5.16 26.15-5.31 29.14-5.31 3.18 0 6.31.08 9.29.24a.996.996 0 1 1-.11 1.99c-2.94-.16-6.03-.23-9.18-.23-16.059 0-26.143 1.985-27.13 3.383V40.16c0 11.25 12.66 26.71 21.65 34.1.42.35.49.98.14 1.4a.99.99 0 0 1-.77.36l-.02.01c-.22 0-.45-.07-.63-.23-8.65-7.11-22.37-23.07-22.37-35.64V14.163Z"/><path d="M96.59 19.24c5.43 1.07 13.6 1.68 22.39 1.68 4.91 0 9.75-.2 14-.57a.998.998 0 1 0-.17-1.99c-4.19.37-8.98.56-13.83.56-8.67 0-16.69-.59-22.01-1.64-.54-.1-1.06.25-1.17.79-.1.54.25 1.06.79 1.17Zm43.12 111.009H98.25c-.33 0-.64-.17-.83-.44-.18-.28-.22-.62-.1-.93l3.31-8.16a3.605 3.605 0 0 1 3.6-3.39h8.27c.55 0 1 .45 1 1s-.45 1-1 1h-8.27c-.89 0-1.61.72-1.61 1.61 0 .13-.02.26-.07.37l-2.82 6.95h38.5l-2.82-6.95a.971.971 0 0 1-.07-.37c0-.89-.72-1.61-1.61-1.61h-8.27c-.55 0-1-.45-1-1s.45-1 1-1h8.27c1.92 0 3.49 1.5 3.6 3.39l3.31 8.16a.999.999 0 0 1-.93 1.37Zm-14.6-54.22a.99.99 0 0 1-.63-1.76c8.99-7.39 21.65-22.85 21.65-34.1v-13.75c0-.55.45-1 1-1s1 .45 1 1v13.75c0 12.57-13.72 28.53-22.37 35.64-.19.15-.41.23-.63.23l-.02-.01Zm20.78-18.209c.03.53.47.94.99.94v-.01h.06c16-1 27.61-14.24 27.61-31.48v-7.54c0-2.78-2.39-4.99-5.3-4.99h-10.06c-.55 0-1 .45-1 1s.45 1 1 1h10.06c1.75 0 3.31 1.25 3.31 2.99v7.54c0 16.16-10.83 28.56-25.74 29.49-.55.04-.96.51-.93 1.06Zm-54.81.939h-.06c-16-1-27.61-14.24-27.61-31.48v-7.54c0-2.77 2.39-4.99 5.3-4.99h15.73c.55 0 1 .45 1 1s-.45 1-1 1H68.71c-1.75 0-3.31 1.26-3.31 2.99v7.54c0 16.16 10.82 28.56 25.74 29.49.55.04.97.51.93 1.06-.03.53-.47.94-.99.94v-.01Zm24.97 10.001c.18.14.39.21.6.21l.01-.01c.3 0 .59-.13.79-.39a1.001 1.001 0 0 0-.208-1.415c-.522-.412-12.007-9.472-16.562-22.176a.998.998 0 0 0-1.28-.6c-.52.19-.79.76-.6 1.28 4.84 13.51 16.74 22.72 17.25 23.1Z"/></g><g filter="url(#e)"><path fill="#FB4D00" d="M48.67 60.03c-.07 0-.15-.02-.22-.05a.983.983 0 0 1-.63-.67l-1.11-3.96-3.35-2.4a.966.966 0 0 1-.41-.82c0-.33.17-.63.44-.81l3.43-2.29 1.24-3.92c.1-.31.34-.55.65-.65.32-.1.66-.03.91.17l3.23 2.55 4.12-.03c.32.01.63.16.82.42.19.27.23.61.12.92l-1.43 3.86 1.3 3.91c.1.31.05.65-.15.91s-.51.41-.84.4l-4.11-.17-3.31 2.44c-.2.15-.45.21-.69.19h-.01Zm-2.99-7.86 2.46 1.76c.18.13.32.32.38.54l.82 2.91 2.44-1.8a1 1 0 0 1 .63-.19l3.02.12-.95-2.87c-.07-.21-.07-.45 0-.66l1.05-2.83-3.03.02c-.22 0-.44-.07-.62-.21l-2.37-1.88-.91 2.89c-.07.22-.21.4-.39.53l-2.52 1.68-.01-.01Z"/></g><g filter="url(#f)"><path fill="#23FA00" d="M178.77 54.06c-.05-.05-.1-.1-.14-.17a1 1 0 0 1-.1-.92l1.49-3.84-1.24-3.93c-.1-.31-.04-.65.16-.91s.51-.4.84-.39l4.11.23 3.35-2.39c.26-.19.61-.24.91-.13.31.12.54.37.62.68l1.05 3.98 3.31 2.45c.25.2.41.51.4.83-.01.33-.18.63-.46.81l-3.46 2.23-1.3 3.91c-.1.31-.35.55-.67.64-.31.09-.65.02-.91-.19l-3.19-2.6-4.12-.04a.98.98 0 0 1-.67-.27l.02.02Zm2.33-8.08.91 2.89c.07.21.06.45-.02.66l-1.1 2.82 3.03.03c.22 0 .44.08.62.22l2.34 1.91.96-2.87c.07-.21.21-.4.4-.52l2.54-1.64-2.44-1.8c-.17-.14-.31-.32-.37-.54l-.77-2.93-2.46 1.76c-.18.13-.41.2-.63.18l-3.03-.17h.02Z"/></g><g filter="url(#g)"><path fill="#23FA00" d="m90.14 71.76-.73-2.24.83-2.21c.12-.31.07-.66-.11-.93-.19-.27-.49-.43-.83-.43h-2.36l-1.84-1.47a1.006 1.006 0 0 0-1.59.48l-.72 2.24-1.97 1.3c-.28.18-.45.49-.45.82 0 .33.15.64.42.84l1.91 1.38.63 2.28c.09.32.33.57.64.68.07.03.15.04.22.05.25.03.5-.04.7-.19l1.91-1.39 2.36.11a1.018 1.018 0 0 0 1.01-1.32h-.03Zm-3.62-.82c-.23 0-.45.06-.64.19l-1.02.74-.33-1.21c-.06-.22-.19-.41-.38-.55l-1.02-.74 1.05-.69c.19-.13.33-.31.4-.53l.39-1.19.98.78c.18.14.4.23.63.22h1.26l-.44 1.17c-.08.22-.09.45-.02.67l.39 1.19-1.26-.06.01.01Z"/></g><g filter="url(#h)"><path fill="#FB4D00" d="m165.73 9.54.59-2.28 1.89-1.41c.26-.2.42-.51.4-.85a.994.994 0 0 0-.46-.81l-1.99-1.27-.75-2.23a1.05 1.05 0 0 0-.68-.65c-.32-.09-.66-.02-.92.19l-1.82 1.5-2.36.03c-.33 0-.64.17-.82.44-.19.27-.22.62-.1.93l.86 2.2-.7 2.25a.988.988 0 0 0 .33 1.08c.19.16.44.24.69.22l2.35-.14 1.93 1.36c.27.19.62.24.93.12.31-.12.55-.37.63-.69v.01Zm-2.61-2.64a1.04 1.04 0 0 0-.64-.18l-1.25.08.37-1.2c.07-.22.06-.45-.02-.67l-.46-1.17 1.25-.02c.23 0 .45-.08.63-.23l.97-.8.4 1.18c.07.22.22.41.41.53l1.06.68-1.01.75c-.18.14-.32.33-.37.55l-.31 1.22-1.03-.73v.01Z"/></g><g filter="url(#i)"><path fill="#fff" d="M102.477 106.537c-1.785 0-3.445-.186-4.96-.56-1.64-.394-2.927-.913-3.923-1.556a.87.87 0 0 1-.311-1.141l1.162-2.22a.872.872 0 0 1 1.183-.373.872.872 0 0 1 .374 1.182l-.768 1.473c.726.353 1.619.664 2.677.934 1.37.332 2.906.519 4.545.519 1.91 0 3.508-.27 4.877-.83 1.329-.519 2.304-1.245 3.031-2.241.684-.934 1.016-2.013 1.016-3.278 0-.934-.228-1.64-.726-2.179a4.894 4.894 0 0 0-1.909-1.328 23.012 23.012 0 0 0-3.072-.912c-1.079-.25-1.847-.478-2.387-.706-.768-.332-1.224-.934-1.224-1.639 0-.706.415-1.286 1.224-1.701 1.246-.644 3.529-.623 5.583-.104.685.187 1.328.415 1.951.705l1.577-3.174c-.664-.311-1.411-.56-2.262-.768a17.15 17.15 0 0 0-3.839-.415c-1.91 0-3.549.29-4.898.83-1.328.54-2.345 1.307-3.03 2.24-.664.935-.996 2.055-.996 3.341 0 .955.249 1.702.726 2.241a5.101 5.101 0 0 0 1.909 1.349c.81.332 1.868.664 3.113.996.997.249 1.744.477 2.263.705 1.058.436 1.224 1.203 1.224 1.618 0 .706-.436 1.308-1.183 1.64-.56.269-1.287.394-2.283.394-2.407 0-4.753-.643-6.994-1.91-.415-.248-.581-.787-.332-1.203.249-.414.789-.58 1.204-.331 1.971 1.12 4.026 1.68 6.122 1.68.706 0 1.225-.083 1.536-.228l.187.083s-.042-.042-.187-.104c-.436-.187-1.1-.394-2.013-.622-1.328-.353-2.449-.706-3.32-1.058a6.913 6.913 0 0 1-2.574-1.805c-.789-.872-1.183-2.013-1.183-3.403 0-1.64.456-3.112 1.328-4.357.872-1.224 2.158-2.179 3.798-2.863 1.556-.644 3.445-.976 5.562-.976 1.515 0 2.947.146 4.234.457 1.349.311 2.532.768 3.486 1.349.395.228.54.726.333 1.14l-2.366 4.773a.844.844 0 0 1-.54.456.932.932 0 0 1-.706-.083 8.588 8.588 0 0 0-2.324-.975c-1.598-.415-3.528-.457-4.317-.041-.249.124-.291.207-.291.207.602.124 1.287.332 2.263.56a23.34 23.34 0 0 1 3.3.996 6.698 6.698 0 0 1 2.573 1.784c.789.872 1.183 2.013 1.183 3.361 0 1.64-.457 3.092-1.37 4.316-.913 1.245-2.2 2.199-3.798 2.822-1.577.643-3.383.954-5.541.954l.083-.021Zm92.314-.435h-6.454a.877.877 0 0 1-.872-.872c0-.477.394-.871.872-.871h5.728l2.718-13.88a.872.872 0 0 1 .872-.706h5.106l.601-3.112h-16.208l-.602 3.112h4.649c.269 0 .518.125.684.311a.92.92 0 0 1 .187.727l-2.117 10.851a.868.868 0 0 1-1.037.705c-.478-.083-.789-.56-.706-1.037l1.909-9.793h-4.649a.925.925 0 0 1-.684-.312.925.925 0 0 1-.187-.726l.954-4.875a.873.873 0 0 1 .872-.706h18.015a.93.93 0 0 1 .685.311.924.924 0 0 1 .186.727l-.954 4.875a.872.872 0 0 1-.872.706h-5.105l-2.719 13.88a.872.872 0 0 1-.872.706v-.021Zm-16.852 0h-16.147a.877.877 0 0 1-.872-.872c0-.477.395-.871.872-.871h15.42l.602-3.112h-8.613a.93.93 0 0 1-.685-.311.926.926 0 0 1-.186-.727l.456-2.427a.89.89 0 0 1 .872-.726h7.783l.602-3.112h-7.451a.876.876 0 0 1-.685-.332.929.929 0 0 1-.187-.727l.498-2.427a.872.872 0 0 1 .872-.706h8.8l.602-3.112h-14.176l-2.822 14.441a.869.869 0 0 1-1.038.705c-.477-.083-.788-.56-.705-1.037l2.947-15.146a.871.871 0 0 1 .871-.706h15.96c.27 0 .519.125.685.312a.929.929 0 0 1 .187.726l-.955 4.876a.872.872 0 0 1-.871.705h-8.8l-.145.664h7.45c.27 0 .519.124.685.311a.929.929 0 0 1 .187.726l-.955 4.876a.872.872 0 0 1-.871.706h-7.783l-.125.663h8.613c.27 0 .519.125.685.312a.929.929 0 0 1 .187.726l-.955 4.876a.872.872 0 0 1-.872.705l.063.021Zm-29.201 0H137.51a.877.877 0 0 1-.872-.872c0-.477.394-.871.872-.871h11.228c2.511 0 4.503-.456 6.06-1.432 1.432-.871 2.117-2.137 2.117-3.88 0-.705-.166-1.307-.519-1.763-.353-.519-.872-.913-1.577-1.224a.86.86 0 0 1-.519-.81.88.88 0 0 1 .539-.809c.934-.394 1.661-.954 2.2-1.639.499-.684.748-1.452.748-2.344 0-1.204-.436-2.054-1.391-2.697-1.017-.706-2.636-1.058-4.69-1.058h-9.568l-2.906 14.502a.89.89 0 0 1-1.037.685.874.874 0 0 1-.685-1.037l3.051-15.209a.872.872 0 0 1 .871-.705h10.294c2.449 0 4.359.456 5.687 1.37 1.432.954 2.158 2.365 2.158 4.149a5.647 5.647 0 0 1-1.1 3.403 6.703 6.703 0 0 1-1.515 1.452c.353.29.644.602.893.954.56.747.83 1.702.83 2.78 0 2.345-1.017 4.192-2.947 5.374-1.847 1.141-4.13 1.681-6.973 1.681h-.021Zm-21.854 0h-6.455a.876.876 0 0 1-.871-.872c0-.477.394-.871.871-.871h5.728l2.719-13.88a.872.872 0 0 1 .872-.706h5.105l.602-3.112h-16.209l-.602 3.112h4.649c.27 0 .519.125.685.311a.928.928 0 0 1 .187.727l-2.034 10.477a.87.87 0 0 1-1.038.706c-.477-.083-.788-.561-.705-1.038l1.847-9.44h-4.649a.926.926 0 0 1-.685-.311.929.929 0 0 1-.187-.726l.955-4.876a.872.872 0 0 1 .872-.706h18.014c.27 0 .519.125.685.312a.929.929 0 0 1 .187.726l-.955 4.876a.872.872 0 0 1-.872.705h-5.105l-2.719 13.88a.872.872 0 0 1-.871.706h-.021Zm-71.062 0h-6.434a.928.928 0 0 1-.685-.311.929.929 0 0 1-.187-.727l.955-4.979-4.088 5.664a.897.897 0 0 1-.706.374h-1.93a.89.89 0 0 1-.851-.623l-1.723-5.436-1.037 5.353a.872.872 0 0 1-.872.706h-6.392a.877.877 0 0 1-.872-.872c0-.477.394-.871.872-.871h5.707l1.557-8.03a.882.882 0 0 1 .809-.705c.394-.062.768.228.892.602l2.574 8.112h.83l6.164-8.548a.879.879 0 0 1 1.059-.29.88.88 0 0 1 .518.975l-1.515 7.863h4.629l3.424-17.698h-5.147l-7.181 9.98c-.187.27-.519.394-.85.352a.912.912 0 0 1-.707-.601l-3.071-9.731h-5.189l-2.698 13.88c-.083.478-.54.789-1.037.706-.478-.083-.79-.56-.706-1.038l2.823-14.606a.872.872 0 0 1 .871-.706h6.455c.394 0 .85.25.954.623l2.74 8.672 6.413-8.921a.896.896 0 0 1 .706-.374h6.662c.27 0 .518.125.684.312a.927.927 0 0 1 .187.726l-3.777 19.461a.872.872 0 0 1-.872.706h.042Zm92.916-4.876h-3.902a.877.877 0 0 1-.872-.871c0-.478.395-.872.872-.872h3.902c.249 0 .539-.249.602-.519l-4.006-.145a.877.877 0 0 1-.872-.871c0-.477.395-.872.872-.872h3.902c.581 0 1.121.25 1.473.685.353.436.478 1.017.353 1.598-.228 1.099-1.245 1.909-2.324 1.909v-.042Zm.954-7.303h-3.403a.877.877 0 0 1-.872-.872c0-.477.394-.871.872-.871h3.403c.25 0 .54-.25.602-.519l-3.549-.145a.876.876 0 0 1-.871-.871c0-.478.394-.872.871-.872h3.404c.56 0 1.079.228 1.432.643.353.415.519.996.436 1.598-.249 1.141-1.245 1.971-2.325 1.971v-.062Z"/></g><g filter="url(#j)"><path fill="#FB4D00" d="M76.908 110.956c-2.055 0-4.068-.394-5.956-1.183a.884.884 0 0 1-.478-1.162.885.885 0 0 1 1.162-.477 13.504 13.504 0 0 0 5.272 1.058c7.575 0 13.718-6.162 13.718-13.714 0-7.552-6.163-13.714-13.718-13.714-7.554 0-13.718 6.162-13.718 13.714a13.75 13.75 0 0 0 4.773 10.415.866.866 0 0 1 .083 1.245.866.866 0 0 1-1.245.083 15.474 15.474 0 0 1-5.396-11.743C61.405 86.951 68.357 80 76.887 80S92.37 86.95 92.37 95.478c0 8.527-6.953 15.478-15.483 15.478h.021Zm-5.956-5.913 6.184-3.714 6.185 3.693a.88.88 0 0 0 .975-.041.861.861 0 0 0 .333-.913l-1.64-6.972 5.48-4.689a.884.884 0 0 0 .269-.933.87.87 0 0 0-.768-.602l-7.222-.602-2.802-6.577a.88.88 0 0 0-.81-.54.88.88 0 0 0-.809.54l-2.823 6.598-7.201.602a.87.87 0 0 0-.768.601.885.885 0 0 0 .27.934l5.458 4.69-.706 2.987a.883.883 0 1 0 1.723.394l.83-3.527a.874.874 0 0 0-.29-.872l-4.276-3.672 5.645-.477a.831.831 0 0 0 .727-.54l2.22-5.187 2.2 5.167c.125.29.415.498.727.54l5.645.476-4.296 3.673a.919.919 0 0 0-.29.871l1.286 5.478-4.857-2.905a.9.9 0 0 0-.913 0l-6.641 3.983a.881.881 0 0 0-.311 1.204c.166.27.456.436.747.436a.89.89 0 0 0 .456-.125l.063.021Z"/></g></g><defs><filter id="b" width="235.963" height="54.641" x=".997" y="69.609" color-interpolation-filters="sRGB" filterUnits="userSpaceOnUse"><feFlood flood-opacity="0" result="BackgroundImageFix"/><feColorMatrix in="SourceAlpha" result="hardAlpha" values="0 0 0 0 0 0 0 0 0 0 0 0 0 0 0 0 0 0 127 0"/><feOffset dy="4"/><feGaussianBlur stdDeviation="3"/><feComposite in2="hardAlpha" operator="out"/><feColorMatrix values="0 0 0 0 0 0 0 0 0 0.898039 0 0 0 0 0.980392 0 0 0 0.25 0"/><feBlend in2="BackgroundImageFix" result="effect1_dropShadow_54421_11173"/><feBlend in="SourceGraphic" in2="effect1_dropShadow_54421_11173" result="shape"/></filter><filter id="c" width="39.212" height="39.202" x="125.374" y=".403" color-interpolation-filters="sRGB" filterUnits="userSpaceOnUse"><feFlood flood-opacity="0" result="BackgroundImageFix"/><feColorMatrix in="SourceAlpha" result="hardAlpha" values="0 0 0 0 0 0 0 0 0 0 0 0 0 0 0 0 0 0 127 0"/><feOffset dy="4"/><feGaussianBlur stdDeviation="4"/><feComposite in2="hardAlpha" operator="out"/><feColorMatrix values="0 0 0 0 0.984314 0 0 0 0 1 0 0 0 0 0.184314 0 0 0 0.25 0"/><feBlend in2="BackgroundImageFix" result="effect1_dropShadow_54421_11173"/><feBlend in="SourceGraphic" in2="effect1_dropShadow_54421_11173" result="shape"/></filter><filter id="d" width="127.14" height="137.54" x="55.41" y="4.709" color-interpolation-filters="sRGB" filterUnits="userSpaceOnUse"><feFlood flood-opacity="0" result="BackgroundImageFix"/><feColorMatrix in="SourceAlpha" result="hardAlpha" values="0 0 0 0 0 0 0 0 0 0 0 0 0 0 0 0 0 0 127 0"/><feOffset dy="4"/><feGaussianBlur stdDeviation="4"/><feComposite in2="hardAlpha" operator="out"/><feColorMatrix values="0 0 0 0 1 0 0 0 0 0.729412 0 0 0 0 0 0 0 0 0.25 0"/><feBlend in2="BackgroundImageFix" result="effect1_dropShadow_54421_11173"/><feBlend in="SourceGraphic" in2="effect1_dropShadow_54421_11173" result="shape"/></filter><filter id="e" width="31.021" height="31.619" x="34.95" y="40.415" color-interpolation-filters="sRGB" filterUnits="userSpaceOnUse"><feFlood flood-opacity="0" result="BackgroundImageFix"/><feColorMatrix in="SourceAlpha" result="hardAlpha" values="0 0 0 0 0 0 0 0 0 0 0 0 0 0 0 0 0 0 127 0"/><feOffset dy="4"/><feGaussianBlur stdDeviation="4"/><feComposite in2="hardAlpha" operator="out"/><feColorMatrix values="0 0 0 0 0.984314 0 0 0 0 0.301961 0 0 0 0 0 0 0 0 0.25 0"/><feBlend in2="BackgroundImageFix" result="effect1_dropShadow_54421_11173"/><feBlend in="SourceGraphic" in2="effect1_dropShadow_54421_11173" result="shape"/></filter><filter id="f" width="27.069" height="27.626" x="172.461" y="39.553" color-interpolation-filters="sRGB" filterUnits="userSpaceOnUse"><feFlood flood-opacity="0" result="BackgroundImageFix"/><feColorMatrix in="SourceAlpha" result="hardAlpha" values="0 0 0 0 0 0 0 0 0 0 0 0 0 0 0 0 0 0 127 0"/><feOffset dy="4"/><feGaussianBlur stdDeviation="3"/><feComposite in2="hardAlpha" operator="out"/><feColorMatrix values="0 0 0 0 0.137255 0 0 0 0 0.980392 0 0 0 0 0 0 0 0 0.25 0"/><feBlend in2="BackgroundImageFix" result="effect1_dropShadow_54421_11173"/><feBlend in="SourceGraphic" in2="effect1_dropShadow_54421_11173" result="shape"/></filter><filter id="g" width="21.936" height="22.297" x="74.37" y="62.26" color-interpolation-filters="sRGB" filterUnits="userSpaceOnUse"><feFlood flood-opacity="0" result="BackgroundImageFix"/><feColorMatrix in="SourceAlpha" result="hardAlpha" values="0 0 0 0 0 0 0 0 0 0 0 0 0 0 0 0 0 0 127 0"/><feOffset dy="4"/><feGaussianBlur stdDeviation="3"/><feComposite in2="hardAlpha" operator="out"/><feColorMatrix values="0 0 0 0 0.137255 0 0 0 0 0.980392 0 0 0 0 0 0 0 0 0.25 0"/><feBlend in2="BackgroundImageFix" result="effect1_dropShadow_54421_11173"/><feBlend in="SourceGraphic" in2="effect1_dropShadow_54421_11173" result="shape"/></filter><filter id="h" width="25.973" height="26.283" x="150.639" y="-3.998" color-interpolation-filters="sRGB" filterUnits="userSpaceOnUse"><feFlood flood-opacity="0" result="BackgroundImageFix"/><feColorMatrix in="SourceAlpha" result="hardAlpha" values="0 0 0 0 0 0 0 0 0 0 0 0 0 0 0 0 0 0 127 0"/><feOffset dy="4"/><feGaussianBlur stdDeviation="4"/><feComposite in2="hardAlpha" operator="out"/><feColorMatrix values="0 0 0 0 0.984314 0 0 0 0 0.301961 0 0 0 0 0 0 0 0 0.25 0"/><feBlend in2="BackgroundImageFix" result="effect1_dropShadow_54421_11173"/><feBlend in="SourceGraphic" in2="effect1_dropShadow_54421_11173" result="shape"/></filter><filter id="i" width="186.326" height="34.076" x="25" y="82.482" color-interpolation-filters="sRGB" filterUnits="userSpaceOnUse"><feFlood flood-opacity="0" result="BackgroundImageFix"/><feColorMatrix in="SourceAlpha" result="hardAlpha" values="0 0 0 0 0 0 0 0 0 0 0 0 0 0 0 0 0 0 127 0"/><feOffset dy="4"/><feGaussianBlur stdDeviation="3"/><feComposite in2="hardAlpha" operator="out"/><feColorMatrix values="0 0 0 0 0 0 0 0 0 0.898039 0 0 0 0 0.980392 0 0 0 0.25 0"/><feBlend in2="BackgroundImageFix" result="effect1_dropShadow_54421_11173"/><feBlend in="SourceGraphic" in2="effect1_dropShadow_54421_11173" result="shape"/></filter><filter id="j" width="46.965" height="46.956" x="53.405" y="76" color-interpolation-filters="sRGB" filterUnits="userSpaceOnUse"><feFlood flood-opacity="0" result="BackgroundImageFix"/><feColorMatrix in="SourceAlpha" result="hardAlpha" values="0 0 0 0 0 0 0 0 0 0 0 0 0 0 0 0 0 0 127 0"/><feOffset dy="4"/><feGaussianBlur stdDeviation="4"/><feComposite in2="hardAlpha" operator="out"/><feColorMatrix values="0 0 0 0 0.984314 0 0 0 0 0.301961 0 0 0 0 0 0 0 0 0.25 0"/><feBlend in2="BackgroundImageFix" result="effect1_dropShadow_54421_11173"/><feBlend in="SourceGraphic" in2="effect1_dropShadow_54421_11173" result="shape"/></filter><clipPath id="a"><path fill="#fff" d="M0 0h239v130H0z"/></clipPath></defs></svg>