<svg height="120" width="120" xmlns="http://www.w3.org/2000/svg"><path d="M 0 0 L 4 0 L 4 4 L 0 4 Z" fill="#000000" transform="matrix(1,0,0,1,0,0)"/><path d="M 0 0 L 4 0 L 4 4 L 0 4 Z" fill="#000000" transform="matrix(1,0,0,1,4,0)"/><path d="M 0 0 L 4 0 L 4 4 L 0 4 Z" fill="#000000" transform="matrix(1,0,0,1,8,0)"/><path d="M 0 0 L 5 0 L 5 4 L 0 4 Z" fill="#000000" transform="matrix(1,0,0,1,12,0)"/><path d="M 0 0 L 4 0 L 4 4 L 0 4 Z" fill="#000000" transform="matrix(1,0,0,1,17,0)"/><path d="M 0 0 L 4 0 L 4 4 L 0 4 Z" fill="#000000" transform="matrix(1,0,0,1,21,0)"/><path d="M 0 0 L 4 0 L 4 4 L 0 4 Z" fill="#000000" transform="matrix(1,0,0,1,25,0)"/><path d="M 0 0 L 4 0 L 4 4 L 0 4 Z" fill="#FFFFFF" transform="matrix(1,0,0,1,29,0)"/><path d="M 0 0 L 4 0 L 4 4 L 0 4 Z" fill="#FFFFFF" transform="matrix(1,0,0,1,33,0)"/><path d="M 0 0 L 4 0 L 4 4 L 0 4 Z" fill="#FFFFFF" transform="matrix(1,0,0,1,37,0)"/><path d="M 0 0 L 5 0 L 5 4 L 0 4 Z" fill="#000000" transform="matrix(1,0,0,1,41,0)"/><path d="M 0 0 L 4 0 L 4 4 L 0 4 Z" fill="#FFFFFF" transform="matrix(1,0,0,1,46,0)"/><path d="M 0 0 L 4 0 L 4 4 L 0 4 Z" fill="#000000" transform="matrix(1,0,0,1,50,0)"/><path d="M 0 0 L 4 0 L 4 4 L 0 4 Z" fill="#FFFFFF" transform="matrix(1,0,0,1,54,0)"/><path d="M 0 0 L 4 0 L 4 4 L 0 4 Z" fill="#FFFFFF" transform="matrix(1,0,0,1,58,0)"/><path d="M 0 0 L 4 0 L 4 4 L 0 4 Z" fill="#FFFFFF" transform="matrix(1,0,0,1,62,0)"/><path d="M 0 0 L 4 0 L 4 4 L 0 4 Z" fill="#000000" transform="matrix(1,0,0,1,66,0)"/><path d="M 0 0 L 4 0 L 4 4 L 0 4 Z" fill="#000000" transform="matrix(1,0,0,1,70,0)"/><path d="M 0 0 L 5 0 L 5 4 L 0 4 Z" fill="#FFFFFF" transform="matrix(1,0,0,1,74,0)"/><path d="M 0 0 L 4 0 L 4 4 L 0 4 Z" fill="#000000" transform="matrix(1,0,0,1,79,0)"/><path d="M 0 0 L 4 0 L 4 4 L 0 4 Z" fill="#FFFFFF" transform="matrix(1,0,0,1,83,0)"/><path d="M 0 0 L 4 0 L 4 4 L 0 4 Z" fill="#FFFFFF" transform="matrix(1,0,0,1,87,0)"/><path d="M 0 0 L 4 0 L 4 4 L 0 4 Z" fill="#000000" transform="matrix(1,0,0,1,91,0)"/><path d="M 0 0 L 4 0 L 4 4 L 0 4 Z" fill="#000000" transform="matrix(1,0,0,1,95,0)"/><path d="M 0 0 L 4 0 L 4 4 L 0 4 Z" fill="#000000" transform="matrix(1,0,0,1,99,0)"/><path d="M 0 0 L 5 0 L 5 4 L 0 4 Z" fill="#000000" transform="matrix(1,0,0,1,103,0)"/><path d="M 0 0 L 4 0 L 4 4 L 0 4 Z" fill="#000000" transform="matrix(1,0,0,1,108,0)"/><path d="M 0 0 L 4 0 L 4 4 L 0 4 Z" fill="#000000" transform="matrix(1,0,0,1,112,0)"/><path d="M 0 0 L 4 0 L 4 4 L 0 4 Z" fill="#000000" transform="matrix(1,0,0,1,116,0)"/><path d="M 0 0 L 4 0 L 4 4 L 0 4 Z" fill="#000000" transform="matrix(1,0,0,1,0,4)"/><path d="M 0 0 L 4 0 L 4 4 L 0 4 Z" fill="#FFFFFF" transform="matrix(1,0,0,1,4,4)"/><path d="M 0 0 L 4 0 L 4 4 L 0 4 Z" fill="#FFFFFF" transform="matrix(1,0,0,1,8,4)"/><path d="M 0 0 L 5 0 L 5 4 L 0 4 Z" fill="#FFFFFF" transform="matrix(1,0,0,1,12,4)"/><path d="M 0 0 L 4 0 L 4 4 L 0 4 Z" fill="#FFFFFF" transform="matrix(1,0,0,1,17,4)"/><path d="M 0 0 L 4 0 L 4 4 L 0 4 Z" fill="#FFFFFF" transform="matrix(1,0,0,1,21,4)"/><path d="M 0 0 L 4 0 L 4 4 L 0 4 Z" fill="#000000" transform="matrix(1,0,0,1,25,4)"/><path d="M 0 0 L 4 0 L 4 4 L 0 4 Z" fill="#FFFFFF" transform="matrix(1,0,0,1,29,4)"/><path d="M 0 0 L 4 0 L 4 4 L 0 4 Z" fill="#000000" transform="matrix(1,0,0,1,33,4)"/><path d="M 0 0 L 4 0 L 4 4 L 0 4 Z" fill="#FFFFFF" transform="matrix(1,0,0,1,37,4)"/><path d="M 0 0 L 5 0 L 5 4 L 0 4 Z" fill="#000000" transform="matrix(1,0,0,1,41,4)"/><path d="M 0 0 L 4 0 L 4 4 L 0 4 Z" fill="#FFFFFF" transform="matrix(1,0,0,1,46,4)"/><path d="M 0 0 L 4 0 L 4 4 L 0 4 Z" fill="#FFFFFF" transform="matrix(1,0,0,1,50,4)"/><path d="M 0 0 L 4 0 L 4 4 L 0 4 Z" fill="#FFFFFF" transform="matrix(1,0,0,1,54,4)"/><path d="M 0 0 L 4 0 L 4 4 L 0 4 Z" fill="#000000" transform="matrix(1,0,0,1,58,4)"/><path d="M 0 0 L 4 0 L 4 4 L 0 4 Z" fill="#000000" transform="matrix(1,0,0,1,62,4)"/><path d="M 0 0 L 4 0 L 4 4 L 0 4 Z" fill="#000000" transform="matrix(1,0,0,1,66,4)"/><path d="M 0 0 L 4 0 L 4 4 L 0 4 Z" fill="#FFFFFF" transform="matrix(1,0,0,1,70,4)"/><path d="M 0 0 L 5 0 L 5 4 L 0 4 Z" fill="#000000" transform="matrix(1,0,0,1,74,4)"/><path d="M 0 0 L 4 0 L 4 4 L 0 4 Z" fill="#FFFFFF" transform="matrix(1,0,0,1,79,4)"/><path d="M 0 0 L 4 0 L 4 4 L 0 4 Z" fill="#000000" transform="matrix(1,0,0,1,83,4)"/><path d="M 0 0 L 4 0 L 4 4 L 0 4 Z" fill="#FFFFFF" transform="matrix(1,0,0,1,87,4)"/><path d="M 0 0 L 4 0 L 4 4 L 0 4 Z" fill="#000000" transform="matrix(1,0,0,1,91,4)"/><path d="M 0 0 L 4 0 L 4 4 L 0 4 Z" fill="#FFFFFF" transform="matrix(1,0,0,1,95,4)"/><path d="M 0 0 L 4 0 L 4 4 L 0 4 Z" fill="#FFFFFF" transform="matrix(1,0,0,1,99,4)"/><path d="M 0 0 L 5 0 L 5 4 L 0 4 Z" fill="#FFFFFF" transform="matrix(1,0,0,1,103,4)"/><path d="M 0 0 L 4 0 L 4 4 L 0 4 Z" fill="#FFFFFF" transform="matrix(1,0,0,1,108,4)"/><path d="M 0 0 L 4 0 L 4 4 L 0 4 Z" fill="#FFFFFF" transform="matrix(1,0,0,1,112,4)"/><path d="M 0 0 L 4 0 L 4 4 L 0 4 Z" fill="#000000" transform="matrix(1,0,0,1,116,4)"/><path d="M 0 0 L 4 0 L 4 4 L 0 4 Z" fill="#000000" transform="matrix(1,0,0,1,0,8)"/><path d="M 0 0 L 4 0 L 4 4 L 0 4 Z" fill="#FFFFFF" transform="matrix(1,0,0,1,4,8)"/><path d="M 0 0 L 4 0 L 4 4 L 0 4 Z" fill="#000000" transform="matrix(1,0,0,1,8,8)"/><path d="M 0 0 L 5 0 L 5 4 L 0 4 Z" fill="#000000" transform="matrix(1,0,0,1,12,8)"/><path d="M 0 0 L 4 0 L 4 4 L 0 4 Z" fill="#000000" transform="matrix(1,0,0,1,17,8)"/><path d="M 0 0 L 4 0 L 4 4 L 0 4 Z" fill="#FFFFFF" transform="matrix(1,0,0,1,21,8)"/><path d="M 0 0 L 4 0 L 4 4 L 0 4 Z" fill="#000000" transform="matrix(1,0,0,1,25,8)"/><path d="M 0 0 L 4 0 L 4 4 L 0 4 Z" fill="#FFFFFF" transform="matrix(1,0,0,1,29,8)"/><path d="M 0 0 L 4 0 L 4 4 L 0 4 Z" fill="#FFFFFF" transform="matrix(1,0,0,1,33,8)"/><path d="M 0 0 L 4 0 L 4 4 L 0 4 Z" fill="#FFFFFF" transform="matrix(1,0,0,1,37,8)"/><path d="M 0 0 L 5 0 L 5 4 L 0 4 Z" fill="#FFFFFF" transform="matrix(1,0,0,1,41,8)"/><path d="M 0 0 L 4 0 L 4 4 L 0 4 Z" fill="#FFFFFF" transform="matrix(1,0,0,1,46,8)"/><path d="M 0 0 L 4 0 L 4 4 L 0 4 Z" fill="#000000" transform="matrix(1,0,0,1,50,8)"/><path d="M 0 0 L 4 0 L 4 4 L 0 4 Z" fill="#FFFFFF" transform="matrix(1,0,0,1,54,8)"/><path d="M 0 0 L 4 0 L 4 4 L 0 4 Z" fill="#FFFFFF" transform="matrix(1,0,0,1,58,8)"/><path d="M 0 0 L 4 0 L 4 4 L 0 4 Z" fill="#FFFFFF" transform="matrix(1,0,0,1,62,8)"/><path d="M 0 0 L 4 0 L 4 4 L 0 4 Z" fill="#FFFFFF" transform="matrix(1,0,0,1,66,8)"/><path d="M 0 0 L 4 0 L 4 4 L 0 4 Z" fill="#FFFFFF" transform="matrix(1,0,0,1,70,8)"/><path d="M 0 0 L 5 0 L 5 4 L 0 4 Z" fill="#FFFFFF" transform="matrix(1,0,0,1,74,8)"/><path d="M 0 0 L 4 0 L 4 4 L 0 4 Z" fill="#FFFFFF" transform="matrix(1,0,0,1,79,8)"/><path d="M 0 0 L 4 0 L 4 4 L 0 4 Z" fill="#000000" transform="matrix(1,0,0,1,83,8)"/><path d="M 0 0 L 4 0 L 4 4 L 0 4 Z" fill="#FFFFFF" transform="matrix(1,0,0,1,87,8)"/><path d="M 0 0 L 4 0 L 4 4 L 0 4 Z" fill="#000000" transform="matrix(1,0,0,1,91,8)"/><path d="M 0 0 L 4 0 L 4 4 L 0 4 Z" fill="#FFFFFF" transform="matrix(1,0,0,1,95,8)"/><path d="M 0 0 L 4 0 L 4 4 L 0 4 Z" fill="#000000" transform="matrix(1,0,0,1,99,8)"/><path d="M 0 0 L 5 0 L 5 4 L 0 4 Z" fill="#000000" transform="matrix(1,0,0,1,103,8)"/><path d="M 0 0 L 4 0 L 4 4 L 0 4 Z" fill="#000000" transform="matrix(1,0,0,1,108,8)"/><path d="M 0 0 L 4 0 L 4 4 L 0 4 Z" fill="#FFFFFF" transform="matrix(1,0,0,1,112,8)"/><path d="M 0 0 L 4 0 L 4 4 L 0 4 Z" fill="#000000" transform="matrix(1,0,0,1,116,8)"/><path d="M 0 0 L 4 0 L 4 5 L 0 5 Z" fill="#000000" transform="matrix(1,0,0,1,0,12)"/><path d="M 0 0 L 4 0 L 4 5 L 0 5 Z" fill="#FFFFFF" transform="matrix(1,0,0,1,4,12)"/><path d="M 0 0 L 4 0 L 4 5 L 0 5 Z" fill="#000000" transform="matrix(1,0,0,1,8,12)"/><path d="M 0 0 L 5 0 L 5 5 L 0 5 Z" fill="#000000" transform="matrix(1,0,0,1,12,12)"/><path d="M 0 0 L 4 0 L 4 5 L 0 5 Z" fill="#000000" transform="matrix(1,0,0,1,17,12)"/><path d="M 0 0 L 4 0 L 4 5 L 0 5 Z" fill="#FFFFFF" transform="matrix(1,0,0,1,21,12)"/><path d="M 0 0 L 4 0 L 4 5 L 0 5 Z" fill="#000000" transform="matrix(1,0,0,1,25,12)"/><path d="M 0 0 L 4 0 L 4 5 L 0 5 Z" fill="#FFFFFF" transform="matrix(1,0,0,1,29,12)"/><path d="M 0 0 L 4 0 L 4 5 L 0 5 Z" fill="#000000" transform="matrix(1,0,0,1,33,12)"/><path d="M 0 0 L 4 0 L 4 5 L 0 5 Z" fill="#000000" transform="matrix(1,0,0,1,37,12)"/><path d="M 0 0 L 5 0 L 5 5 L 0 5 Z" fill="#000000" transform="matrix(1,0,0,1,41,12)"/><path d="M 0 0 L 4 0 L 4 5 L 0 5 Z" fill="#FFFFFF" transform="matrix(1,0,0,1,46,12)"/><path d="M 0 0 L 4 0 L 4 5 L 0 5 Z" fill="#000000" transform="matrix(1,0,0,1,50,12)"/><path d="M 0 0 L 4 0 L 4 5 L 0 5 Z" fill="#000000" transform="matrix(1,0,0,1,54,12)"/><path d="M 0 0 L 4 0 L 4 5 L 0 5 Z" fill="#FFFFFF" transform="matrix(1,0,0,1,58,12)"/><path d="M 0 0 L 4 0 L 4 5 L 0 5 Z" fill="#000000" transform="matrix(1,0,0,1,62,12)"/><path d="M 0 0 L 4 0 L 4 5 L 0 5 Z" fill="#000000" transform="matrix(1,0,0,1,66,12)"/><path d="M 0 0 L 4 0 L 4 5 L 0 5 Z" fill="#000000" transform="matrix(1,0,0,1,70,12)"/><path d="M 0 0 L 5 0 L 5 5 L 0 5 Z" fill="#000000" transform="matrix(1,0,0,1,74,12)"/><path d="M 0 0 L 4 0 L 4 5 L 0 5 Z" fill="#FFFFFF" transform="matrix(1,0,0,1,79,12)"/><path d="M 0 0 L 4 0 L 4 5 L 0 5 Z" fill="#FFFFFF" transform="matrix(1,0,0,1,83,12)"/><path d="M 0 0 L 4 0 L 4 5 L 0 5 Z" fill="#FFFFFF" transform="matrix(1,0,0,1,87,12)"/><path d="M 0 0 L 4 0 L 4 5 L 0 5 Z" fill="#000000" transform="matrix(1,0,0,1,91,12)"/><path d="M 0 0 L 4 0 L 4 5 L 0 5 Z" fill="#FFFFFF" transform="matrix(1,0,0,1,95,12)"/><path d="M 0 0 L 4 0 L 4 5 L 0 5 Z" fill="#000000" transform="matrix(1,0,0,1,99,12)"/><path d="M 0 0 L 5 0 L 5 5 L 0 5 Z" fill="#000000" transform="matrix(1,0,0,1,103,12)"/><path d="M 0 0 L 4 0 L 4 5 L 0 5 Z" fill="#000000" transform="matrix(1,0,0,1,108,12)"/><path d="M 0 0 L 4 0 L 4 5 L 0 5 Z" fill="#FFFFFF" transform="matrix(1,0,0,1,112,12)"/><path d="M 0 0 L 4 0 L 4 5 L 0 5 Z" fill="#000000" transform="matrix(1,0,0,1,116,12)"/><path d="M 0 0 L 4 0 L 4 4 L 0 4 Z" fill="#000000" transform="matrix(1,0,0,1,0,17)"/><path d="M 0 0 L 4 0 L 4 4 L 0 4 Z" fill="#FFFFFF" transform="matrix(1,0,0,1,4,17)"/><path d="M 0 0 L 4 0 L 4 4 L 0 4 Z" fill="#000000" transform="matrix(1,0,0,1,8,17)"/><path d="M 0 0 L 5 0 L 5 4 L 0 4 Z" fill="#000000" transform="matrix(1,0,0,1,12,17)"/><path d="M 0 0 L 4 0 L 4 4 L 0 4 Z" fill="#000000" transform="matrix(1,0,0,1,17,17)"/><path d="M 0 0 L 4 0 L 4 4 L 0 4 Z" fill="#FFFFFF" transform="matrix(1,0,0,1,21,17)"/><path d="M 0 0 L 4 0 L 4 4 L 0 4 Z" fill="#000000" transform="matrix(1,0,0,1,25,17)"/><path d="M 0 0 L 4 0 L 4 4 L 0 4 Z" fill="#FFFFFF" transform="matrix(1,0,0,1,29,17)"/><path d="M 0 0 L 4 0 L 4 4 L 0 4 Z" fill="#FFFFFF" transform="matrix(1,0,0,1,33,17)"/><path d="M 0 0 L 4 0 L 4 4 L 0 4 Z" fill="#000000" transform="matrix(1,0,0,1,37,17)"/><path d="M 0 0 L 5 0 L 5 4 L 0 4 Z" fill="#FFFFFF" transform="matrix(1,0,0,1,41,17)"/><path d="M 0 0 L 4 0 L 4 4 L 0 4 Z" fill="#FFFFFF" transform="matrix(1,0,0,1,46,17)"/><path d="M 0 0 L 4 0 L 4 4 L 0 4 Z" fill="#FFFFFF" transform="matrix(1,0,0,1,50,17)"/><path d="M 0 0 L 4 0 L 4 4 L 0 4 Z" fill="#FFFFFF" transform="matrix(1,0,0,1,54,17)"/><path d="M 0 0 L 4 0 L 4 4 L 0 4 Z" fill="#000000" transform="matrix(1,0,0,1,58,17)"/><path d="M 0 0 L 4 0 L 4 4 L 0 4 Z" fill="#FFFFFF" transform="matrix(1,0,0,1,62,17)"/><path d="M 0 0 L 4 0 L 4 4 L 0 4 Z" fill="#FFFFFF" transform="matrix(1,0,0,1,66,17)"/><path d="M 0 0 L 4 0 L 4 4 L 0 4 Z" fill="#FFFFFF" transform="matrix(1,0,0,1,70,17)"/><path d="M 0 0 L 5 0 L 5 4 L 0 4 Z" fill="#FFFFFF" transform="matrix(1,0,0,1,74,17)"/><path d="M 0 0 L 4 0 L 4 4 L 0 4 Z" fill="#FFFFFF" transform="matrix(1,0,0,1,79,17)"/><path d="M 0 0 L 4 0 L 4 4 L 0 4 Z" fill="#000000" transform="matrix(1,0,0,1,83,17)"/><path d="M 0 0 L 4 0 L 4 4 L 0 4 Z" fill="#FFFFFF" transform="matrix(1,0,0,1,87,17)"/><path d="M 0 0 L 4 0 L 4 4 L 0 4 Z" fill="#000000" transform="matrix(1,0,0,1,91,17)"/><path d="M 0 0 L 4 0 L 4 4 L 0 4 Z" fill="#FFFFFF" transform="matrix(1,0,0,1,95,17)"/><path d="M 0 0 L 4 0 L 4 4 L 0 4 Z" fill="#000000" transform="matrix(1,0,0,1,99,17)"/><path d="M 0 0 L 5 0 L 5 4 L 0 4 Z" fill="#000000" transform="matrix(1,0,0,1,103,17)"/><path d="M 0 0 L 4 0 L 4 4 L 0 4 Z" fill="#000000" transform="matrix(1,0,0,1,108,17)"/><path d="M 0 0 L 4 0 L 4 4 L 0 4 Z" fill="#FFFFFF" transform="matrix(1,0,0,1,112,17)"/><path d="M 0 0 L 4 0 L 4 4 L 0 4 Z" fill="#000000" transform="matrix(1,0,0,1,116,17)"/><path d="M 0 0 L 4 0 L 4 4 L 0 4 Z" fill="#000000" transform="matrix(1,0,0,1,0,21)"/><path d="M 0 0 L 4 0 L 4 4 L 0 4 Z" fill="#FFFFFF" transform="matrix(1,0,0,1,4,21)"/><path d="M 0 0 L 4 0 L 4 4 L 0 4 Z" fill="#FFFFFF" transform="matrix(1,0,0,1,8,21)"/><path d="M 0 0 L 5 0 L 5 4 L 0 4 Z" fill="#FFFFFF" transform="matrix(1,0,0,1,12,21)"/><path d="M 0 0 L 4 0 L 4 4 L 0 4 Z" fill="#FFFFFF" transform="matrix(1,0,0,1,17,21)"/><path d="M 0 0 L 4 0 L 4 4 L 0 4 Z" fill="#FFFFFF" transform="matrix(1,0,0,1,21,21)"/><path d="M 0 0 L 4 0 L 4 4 L 0 4 Z" fill="#000000" transform="matrix(1,0,0,1,25,21)"/><path d="M 0 0 L 4 0 L 4 4 L 0 4 Z" fill="#FFFFFF" transform="matrix(1,0,0,1,29,21)"/><path d="M 0 0 L 4 0 L 4 4 L 0 4 Z" fill="#000000" transform="matrix(1,0,0,1,33,21)"/><path d="M 0 0 L 4 0 L 4 4 L 0 4 Z" fill="#000000" transform="matrix(1,0,0,1,37,21)"/><path d="M 0 0 L 5 0 L 5 4 L 0 4 Z" fill="#FFFFFF" transform="matrix(1,0,0,1,41,21)"/><path d="M 0 0 L 4 0 L 4 4 L 0 4 Z" fill="#000000" transform="matrix(1,0,0,1,46,21)"/><path d="M 0 0 L 4 0 L 4 4 L 0 4 Z" fill="#000000" transform="matrix(1,0,0,1,50,21)"/><path d="M 0 0 L 4 0 L 4 4 L 0 4 Z" fill="#FFFFFF" transform="matrix(1,0,0,1,54,21)"/><path d="M 0 0 L 4 0 L 4 4 L 0 4 Z" fill="#000000" transform="matrix(1,0,0,1,58,21)"/><path d="M 0 0 L 4 0 L 4 4 L 0 4 Z" fill="#000000" transform="matrix(1,0,0,1,62,21)"/><path d="M 0 0 L 4 0 L 4 4 L 0 4 Z" fill="#000000" transform="matrix(1,0,0,1,66,21)"/><path d="M 0 0 L 4 0 L 4 4 L 0 4 Z" fill="#000000" transform="matrix(1,0,0,1,70,21)"/><path d="M 0 0 L 5 0 L 5 4 L 0 4 Z" fill="#FFFFFF" transform="matrix(1,0,0,1,74,21)"/><path d="M 0 0 L 4 0 L 4 4 L 0 4 Z" fill="#FFFFFF" transform="matrix(1,0,0,1,79,21)"/><path d="M 0 0 L 4 0 L 4 4 L 0 4 Z" fill="#000000" transform="matrix(1,0,0,1,83,21)"/><path d="M 0 0 L 4 0 L 4 4 L 0 4 Z" fill="#FFFFFF" transform="matrix(1,0,0,1,87,21)"/><path d="M 0 0 L 4 0 L 4 4 L 0 4 Z" fill="#000000" transform="matrix(1,0,0,1,91,21)"/><path d="M 0 0 L 4 0 L 4 4 L 0 4 Z" fill="#FFFFFF" transform="matrix(1,0,0,1,95,21)"/><path d="M 0 0 L 4 0 L 4 4 L 0 4 Z" fill="#FFFFFF" transform="matrix(1,0,0,1,99,21)"/><path d="M 0 0 L 5 0 L 5 4 L 0 4 Z" fill="#FFFFFF" transform="matrix(1,0,0,1,103,21)"/><path d="M 0 0 L 4 0 L 4 4 L 0 4 Z" fill="#FFFFFF" transform="matrix(1,0,0,1,108,21)"/><path d="M 0 0 L 4 0 L 4 4 L 0 4 Z" fill="#FFFFFF" transform="matrix(1,0,0,1,112,21)"/><path d="M 0 0 L 4 0 L 4 4 L 0 4 Z" fill="#000000" transform="matrix(1,0,0,1,116,21)"/><path d="M 0 0 L 4 0 L 4 4 L 0 4 Z" fill="#000000" transform="matrix(1,0,0,1,0,25)"/><path d="M 0 0 L 4 0 L 4 4 L 0 4 Z" fill="#000000" transform="matrix(1,0,0,1,4,25)"/><path d="M 0 0 L 4 0 L 4 4 L 0 4 Z" fill="#000000" transform="matrix(1,0,0,1,8,25)"/><path d="M 0 0 L 5 0 L 5 4 L 0 4 Z" fill="#000000" transform="matrix(1,0,0,1,12,25)"/><path d="M 0 0 L 4 0 L 4 4 L 0 4 Z" fill="#000000" transform="matrix(1,0,0,1,17,25)"/><path d="M 0 0 L 4 0 L 4 4 L 0 4 Z" fill="#000000" transform="matrix(1,0,0,1,21,25)"/><path d="M 0 0 L 4 0 L 4 4 L 0 4 Z" fill="#000000" transform="matrix(1,0,0,1,25,25)"/><path d="M 0 0 L 4 0 L 4 4 L 0 4 Z" fill="#FFFFFF" transform="matrix(1,0,0,1,29,25)"/><path d="M 0 0 L 4 0 L 4 4 L 0 4 Z" fill="#000000" transform="matrix(1,0,0,1,33,25)"/><path d="M 0 0 L 4 0 L 4 4 L 0 4 Z" fill="#FFFFFF" transform="matrix(1,0,0,1,37,25)"/><path d="M 0 0 L 5 0 L 5 4 L 0 4 Z" fill="#000000" transform="matrix(1,0,0,1,41,25)"/><path d="M 0 0 L 4 0 L 4 4 L 0 4 Z" fill="#FFFFFF" transform="matrix(1,0,0,1,46,25)"/><path d="M 0 0 L 4 0 L 4 4 L 0 4 Z" fill="#000000" transform="matrix(1,0,0,1,50,25)"/><path d="M 0 0 L 4 0 L 4 4 L 0 4 Z" fill="#FFFFFF" transform="matrix(1,0,0,1,54,25)"/><path d="M 0 0 L 4 0 L 4 4 L 0 4 Z" fill="#000000" transform="matrix(1,0,0,1,58,25)"/><path d="M 0 0 L 4 0 L 4 4 L 0 4 Z" fill="#FFFFFF" transform="matrix(1,0,0,1,62,25)"/><path d="M 0 0 L 4 0 L 4 4 L 0 4 Z" fill="#000000" transform="matrix(1,0,0,1,66,25)"/><path d="M 0 0 L 4 0 L 4 4 L 0 4 Z" fill="#FFFFFF" transform="matrix(1,0,0,1,70,25)"/><path d="M 0 0 L 5 0 L 5 4 L 0 4 Z" fill="#000000" transform="matrix(1,0,0,1,74,25)"/><path d="M 0 0 L 4 0 L 4 4 L 0 4 Z" fill="#FFFFFF" transform="matrix(1,0,0,1,79,25)"/><path d="M 0 0 L 4 0 L 4 4 L 0 4 Z" fill="#000000" transform="matrix(1,0,0,1,83,25)"/><path d="M 0 0 L 4 0 L 4 4 L 0 4 Z" fill="#FFFFFF" transform="matrix(1,0,0,1,87,25)"/><path d="M 0 0 L 4 0 L 4 4 L 0 4 Z" fill="#000000" transform="matrix(1,0,0,1,91,25)"/><path d="M 0 0 L 4 0 L 4 4 L 0 4 Z" fill="#000000" transform="matrix(1,0,0,1,95,25)"/><path d="M 0 0 L 4 0 L 4 4 L 0 4 Z" fill="#000000" transform="matrix(1,0,0,1,99,25)"/><path d="M 0 0 L 5 0 L 5 4 L 0 4 Z" fill="#000000" transform="matrix(1,0,0,1,103,25)"/><path d="M 0 0 L 4 0 L 4 4 L 0 4 Z" fill="#000000" transform="matrix(1,0,0,1,108,25)"/><path d="M 0 0 L 4 0 L 4 4 L 0 4 Z" fill="#000000" transform="matrix(1,0,0,1,112,25)"/><path d="M 0 0 L 4 0 L 4 4 L 0 4 Z" fill="#000000" transform="matrix(1,0,0,1,116,25)"/><path d="M 0 0 L 4 0 L 4 4 L 0 4 Z" fill="#FFFFFF" transform="matrix(1,0,0,1,0,29)"/><path d="M 0 0 L 4 0 L 4 4 L 0 4 Z" fill="#FFFFFF" transform="matrix(1,0,0,1,4,29)"/><path d="M 0 0 L 4 0 L 4 4 L 0 4 Z" fill="#FFFFFF" transform="matrix(1,0,0,1,8,29)"/><path d="M 0 0 L 5 0 L 5 4 L 0 4 Z" fill="#FFFFFF" transform="matrix(1,0,0,1,12,29)"/><path d="M 0 0 L 4 0 L 4 4 L 0 4 Z" fill="#FFFFFF" transform="matrix(1,0,0,1,17,29)"/><path d="M 0 0 L 4 0 L 4 4 L 0 4 Z" fill="#FFFFFF" transform="matrix(1,0,0,1,21,29)"/><path d="M 0 0 L 4 0 L 4 4 L 0 4 Z" fill="#FFFFFF" transform="matrix(1,0,0,1,25,29)"/><path d="M 0 0 L 4 0 L 4 4 L 0 4 Z" fill="#FFFFFF" transform="matrix(1,0,0,1,29,29)"/><path d="M 0 0 L 4 0 L 4 4 L 0 4 Z" fill="#FFFFFF" transform="matrix(1,0,0,1,33,29)"/><path d="M 0 0 L 4 0 L 4 4 L 0 4 Z" fill="#000000" transform="matrix(1,0,0,1,37,29)"/><path d="M 0 0 L 5 0 L 5 4 L 0 4 Z" fill="#000000" transform="matrix(1,0,0,1,41,29)"/><path d="M 0 0 L 4 0 L 4 4 L 0 4 Z" fill="#000000" transform="matrix(1,0,0,1,46,29)"/><path d="M 0 0 L 4 0 L 4 4 L 0 4 Z" fill="#FFFFFF" transform="matrix(1,0,0,1,50,29)"/><path d="M 0 0 L 4 0 L 4 4 L 0 4 Z" fill="#FFFFFF" transform="matrix(1,0,0,1,54,29)"/><path d="M 0 0 L 4 0 L 4 4 L 0 4 Z" fill="#FFFFFF" transform="matrix(1,0,0,1,58,29)"/><path d="M 0 0 L 4 0 L 4 4 L 0 4 Z" fill="#000000" transform="matrix(1,0,0,1,62,29)"/><path d="M 0 0 L 4 0 L 4 4 L 0 4 Z" fill="#FFFFFF" transform="matrix(1,0,0,1,66,29)"/><path d="M 0 0 L 4 0 L 4 4 L 0 4 Z" fill="#FFFFFF" transform="matrix(1,0,0,1,70,29)"/><path d="M 0 0 L 5 0 L 5 4 L 0 4 Z" fill="#000000" transform="matrix(1,0,0,1,74,29)"/><path d="M 0 0 L 4 0 L 4 4 L 0 4 Z" fill="#FFFFFF" transform="matrix(1,0,0,1,79,29)"/><path d="M 0 0 L 4 0 L 4 4 L 0 4 Z" fill="#FFFFFF" transform="matrix(1,0,0,1,83,29)"/><path d="M 0 0 L 4 0 L 4 4 L 0 4 Z" fill="#FFFFFF" transform="matrix(1,0,0,1,87,29)"/><path d="M 0 0 L 4 0 L 4 4 L 0 4 Z" fill="#FFFFFF" transform="matrix(1,0,0,1,91,29)"/><path d="M 0 0 L 4 0 L 4 4 L 0 4 Z" fill="#FFFFFF" transform="matrix(1,0,0,1,95,29)"/><path d="M 0 0 L 4 0 L 4 4 L 0 4 Z" fill="#FFFFFF" transform="matrix(1,0,0,1,99,29)"/><path d="M 0 0 L 5 0 L 5 4 L 0 4 Z" fill="#FFFFFF" transform="matrix(1,0,0,1,103,29)"/><path d="M 0 0 L 4 0 L 4 4 L 0 4 Z" fill="#FFFFFF" transform="matrix(1,0,0,1,108,29)"/><path d="M 0 0 L 4 0 L 4 4 L 0 4 Z" fill="#FFFFFF" transform="matrix(1,0,0,1,112,29)"/><path d="M 0 0 L 4 0 L 4 4 L 0 4 Z" fill="#FFFFFF" transform="matrix(1,0,0,1,116,29)"/><path d="M 0 0 L 4 0 L 4 4 L 0 4 Z" fill="#000000" transform="matrix(1,0,0,1,0,33)"/><path d="M 0 0 L 4 0 L 4 4 L 0 4 Z" fill="#000000" transform="matrix(1,0,0,1,4,33)"/><path d="M 0 0 L 4 0 L 4 4 L 0 4 Z" fill="#000000" transform="matrix(1,0,0,1,8,33)"/><path d="M 0 0 L 5 0 L 5 4 L 0 4 Z" fill="#000000" transform="matrix(1,0,0,1,12,33)"/><path d="M 0 0 L 4 0 L 4 4 L 0 4 Z" fill="#000000" transform="matrix(1,0,0,1,17,33)"/><path d="M 0 0 L 4 0 L 4 4 L 0 4 Z" fill="#FFFFFF" transform="matrix(1,0,0,1,21,33)"/><path d="M 0 0 L 4 0 L 4 4 L 0 4 Z" fill="#000000" transform="matrix(1,0,0,1,25,33)"/><path d="M 0 0 L 4 0 L 4 4 L 0 4 Z" fill="#000000" transform="matrix(1,0,0,1,29,33)"/><path d="M 0 0 L 4 0 L 4 4 L 0 4 Z" fill="#000000" transform="matrix(1,0,0,1,33,33)"/><path d="M 0 0 L 4 0 L 4 4 L 0 4 Z" fill="#000000" transform="matrix(1,0,0,1,37,33)"/><path d="M 0 0 L 5 0 L 5 4 L 0 4 Z" fill="#FFFFFF" transform="matrix(1,0,0,1,41,33)"/><path d="M 0 0 L 4 0 L 4 4 L 0 4 Z" fill="#000000" transform="matrix(1,0,0,1,46,33)"/><path d="M 0 0 L 4 0 L 4 4 L 0 4 Z" fill="#FFFFFF" transform="matrix(1,0,0,1,50,33)"/><path d="M 0 0 L 4 0 L 4 4 L 0 4 Z" fill="#000000" transform="matrix(1,0,0,1,54,33)"/><path d="M 0 0 L 4 0 L 4 4 L 0 4 Z" fill="#FFFFFF" transform="matrix(1,0,0,1,58,33)"/><path d="M 0 0 L 4 0 L 4 4 L 0 4 Z" fill="#FFFFFF" transform="matrix(1,0,0,1,62,33)"/><path d="M 0 0 L 4 0 L 4 4 L 0 4 Z" fill="#000000" transform="matrix(1,0,0,1,66,33)"/><path d="M 0 0 L 4 0 L 4 4 L 0 4 Z" fill="#000000" transform="matrix(1,0,0,1,70,33)"/><path d="M 0 0 L 5 0 L 5 4 L 0 4 Z" fill="#000000" transform="matrix(1,0,0,1,74,33)"/><path d="M 0 0 L 4 0 L 4 4 L 0 4 Z" fill="#FFFFFF" transform="matrix(1,0,0,1,79,33)"/><path d="M 0 0 L 4 0 L 4 4 L 0 4 Z" fill="#000000" transform="matrix(1,0,0,1,83,33)"/><path d="M 0 0 L 4 0 L 4 4 L 0 4 Z" fill="#000000" transform="matrix(1,0,0,1,87,33)"/><path d="M 0 0 L 4 0 L 4 4 L 0 4 Z" fill="#FFFFFF" transform="matrix(1,0,0,1,91,33)"/><path d="M 0 0 L 4 0 L 4 4 L 0 4 Z" fill="#000000" transform="matrix(1,0,0,1,95,33)"/><path d="M 0 0 L 4 0 L 4 4 L 0 4 Z" fill="#FFFFFF" transform="matrix(1,0,0,1,99,33)"/><path d="M 0 0 L 5 0 L 5 4 L 0 4 Z" fill="#000000" transform="matrix(1,0,0,1,103,33)"/><path d="M 0 0 L 4 0 L 4 4 L 0 4 Z" fill="#FFFFFF" transform="matrix(1,0,0,1,108,33)"/><path d="M 0 0 L 4 0 L 4 4 L 0 4 Z" fill="#000000" transform="matrix(1,0,0,1,112,33)"/><path d="M 0 0 L 4 0 L 4 4 L 0 4 Z" fill="#FFFFFF" transform="matrix(1,0,0,1,116,33)"/><path d="M 0 0 L 4 0 L 4 4 L 0 4 Z" fill="#000000" transform="matrix(1,0,0,1,0,37)"/><path d="M 0 0 L 4 0 L 4 4 L 0 4 Z" fill="#FFFFFF" transform="matrix(1,0,0,1,4,37)"/><path d="M 0 0 L 4 0 L 4 4 L 0 4 Z" fill="#000000" transform="matrix(1,0,0,1,8,37)"/><path d="M 0 0 L 5 0 L 5 4 L 0 4 Z" fill="#FFFFFF" transform="matrix(1,0,0,1,12,37)"/><path d="M 0 0 L 4 0 L 4 4 L 0 4 Z" fill="#000000" transform="matrix(1,0,0,1,17,37)"/><path d="M 0 0 L 4 0 L 4 4 L 0 4 Z" fill="#FFFFFF" transform="matrix(1,0,0,1,21,37)"/><path d="M 0 0 L 4 0 L 4 4 L 0 4 Z" fill="#FFFFFF" transform="matrix(1,0,0,1,25,37)"/><path d="M 0 0 L 4 0 L 4 4 L 0 4 Z" fill="#FFFFFF" transform="matrix(1,0,0,1,29,37)"/><path d="M 0 0 L 4 0 L 4 4 L 0 4 Z" fill="#000000" transform="matrix(1,0,0,1,33,37)"/><path d="M 0 0 L 4 0 L 4 4 L 0 4 Z" fill="#FFFFFF" transform="matrix(1,0,0,1,37,37)"/><path d="M 0 0 L 5 0 L 5 4 L 0 4 Z" fill="#000000" transform="matrix(1,0,0,1,41,37)"/><path d="M 0 0 L 4 0 L 4 4 L 0 4 Z" fill="#FFFFFF" transform="matrix(1,0,0,1,46,37)"/><path d="M 0 0 L 4 0 L 4 4 L 0 4 Z" fill="#000000" transform="matrix(1,0,0,1,50,37)"/><path d="M 0 0 L 4 0 L 4 4 L 0 4 Z" fill="#FFFFFF" transform="matrix(1,0,0,1,54,37)"/><path d="M 0 0 L 4 0 L 4 4 L 0 4 Z" fill="#000000" transform="matrix(1,0,0,1,58,37)"/><path d="M 0 0 L 4 0 L 4 4 L 0 4 Z" fill="#FFFFFF" transform="matrix(1,0,0,1,62,37)"/><path d="M 0 0 L 4 0 L 4 4 L 0 4 Z" fill="#FFFFFF" transform="matrix(1,0,0,1,66,37)"/><path d="M 0 0 L 4 0 L 4 4 L 0 4 Z" fill="#FFFFFF" transform="matrix(1,0,0,1,70,37)"/><path d="M 0 0 L 5 0 L 5 4 L 0 4 Z" fill="#FFFFFF" transform="matrix(1,0,0,1,74,37)"/><path d="M 0 0 L 4 0 L 4 4 L 0 4 Z" fill="#000000" transform="matrix(1,0,0,1,79,37)"/><path d="M 0 0 L 4 0 L 4 4 L 0 4 Z" fill="#FFFFFF" transform="matrix(1,0,0,1,83,37)"/><path d="M 0 0 L 4 0 L 4 4 L 0 4 Z" fill="#000000" transform="matrix(1,0,0,1,87,37)"/><path d="M 0 0 L 4 0 L 4 4 L 0 4 Z" fill="#000000" transform="matrix(1,0,0,1,91,37)"/><path d="M 0 0 L 4 0 L 4 4 L 0 4 Z" fill="#000000" transform="matrix(1,0,0,1,95,37)"/><path d="M 0 0 L 4 0 L 4 4 L 0 4 Z" fill="#000000" transform="matrix(1,0,0,1,99,37)"/><path d="M 0 0 L 5 0 L 5 4 L 0 4 Z" fill="#FFFFFF" transform="matrix(1,0,0,1,103,37)"/><path d="M 0 0 L 4 0 L 4 4 L 0 4 Z" fill="#000000" transform="matrix(1,0,0,1,108,37)"/><path d="M 0 0 L 4 0 L 4 4 L 0 4 Z" fill="#FFFFFF" transform="matrix(1,0,0,1,112,37)"/><path d="M 0 0 L 4 0 L 4 4 L 0 4 Z" fill="#000000" transform="matrix(1,0,0,1,116,37)"/><path d="M 0 0 L 4 0 L 4 5 L 0 5 Z" fill="#FFFFFF" transform="matrix(1,0,0,1,0,41)"/><path d="M 0 0 L 4 0 L 4 5 L 0 5 Z" fill="#000000" transform="matrix(1,0,0,1,4,41)"/><path d="M 0 0 L 4 0 L 4 5 L 0 5 Z" fill="#000000" transform="matrix(1,0,0,1,8,41)"/><path d="M 0 0 L 5 0 L 5 5 L 0 5 Z" fill="#000000" transform="matrix(1,0,0,1,12,41)"/><path d="M 0 0 L 4 0 L 4 5 L 0 5 Z" fill="#FFFFFF" transform="matrix(1,0,0,1,17,41)"/><path d="M 0 0 L 4 0 L 4 5 L 0 5 Z" fill="#000000" transform="matrix(1,0,0,1,21,41)"/><path d="M 0 0 L 4 0 L 4 5 L 0 5 Z" fill="#000000" transform="matrix(1,0,0,1,25,41)"/><path d="M 0 0 L 4 0 L 4 5 L 0 5 Z" fill="#FFFFFF" transform="matrix(1,0,0,1,29,41)"/><path d="M 0 0 L 4 0 L 4 5 L 0 5 Z" fill="#000000" transform="matrix(1,0,0,1,33,41)"/><path d="M 0 0 L 4 0 L 4 5 L 0 5 Z" fill="#FFFFFF" transform="matrix(1,0,0,1,37,41)"/><path d="M 0 0 L 5 0 L 5 5 L 0 5 Z" fill="#000000" transform="matrix(1,0,0,1,41,41)"/><path d="M 0 0 L 4 0 L 4 5 L 0 5 Z" fill="#FFFFFF" transform="matrix(1,0,0,1,46,41)"/><path d="M 0 0 L 4 0 L 4 5 L 0 5 Z" fill="#FFFFFF" transform="matrix(1,0,0,1,50,41)"/><path d="M 0 0 L 4 0 L 4 5 L 0 5 Z" fill="#000000" transform="matrix(1,0,0,1,54,41)"/><path d="M 0 0 L 4 0 L 4 5 L 0 5 Z" fill="#000000" transform="matrix(1,0,0,1,58,41)"/><path d="M 0 0 L 4 0 L 4 5 L 0 5 Z" fill="#000000" transform="matrix(1,0,0,1,62,41)"/><path d="M 0 0 L 4 0 L 4 5 L 0 5 Z" fill="#000000" transform="matrix(1,0,0,1,66,41)"/><path d="M 0 0 L 4 0 L 4 5 L 0 5 Z" fill="#000000" transform="matrix(1,0,0,1,70,41)"/><path d="M 0 0 L 5 0 L 5 5 L 0 5 Z" fill="#000000" transform="matrix(1,0,0,1,74,41)"/><path d="M 0 0 L 4 0 L 4 5 L 0 5 Z" fill="#FFFFFF" transform="matrix(1,0,0,1,79,41)"/><path d="M 0 0 L 4 0 L 4 5 L 0 5 Z" fill="#000000" transform="matrix(1,0,0,1,83,41)"/><path d="M 0 0 L 4 0 L 4 5 L 0 5 Z" fill="#FFFFFF" transform="matrix(1,0,0,1,87,41)"/><path d="M 0 0 L 4 0 L 4 5 L 0 5 Z" fill="#FFFFFF" transform="matrix(1,0,0,1,91,41)"/><path d="M 0 0 L 4 0 L 4 5 L 0 5 Z" fill="#000000" transform="matrix(1,0,0,1,95,41)"/><path d="M 0 0 L 4 0 L 4 5 L 0 5 Z" fill="#FFFFFF" transform="matrix(1,0,0,1,99,41)"/><path d="M 0 0 L 5 0 L 5 5 L 0 5 Z" fill="#FFFFFF" transform="matrix(1,0,0,1,103,41)"/><path d="M 0 0 L 4 0 L 4 5 L 0 5 Z" fill="#FFFFFF" transform="matrix(1,0,0,1,108,41)"/><path d="M 0 0 L 4 0 L 4 5 L 0 5 Z" fill="#000000" transform="matrix(1,0,0,1,112,41)"/><path d="M 0 0 L 4 0 L 4 5 L 0 5 Z" fill="#FFFFFF" transform="matrix(1,0,0,1,116,41)"/><path d="M 0 0 L 4 0 L 4 4 L 0 4 Z" fill="#FFFFFF" transform="matrix(1,0,0,1,0,46)"/><path d="M 0 0 L 4 0 L 4 4 L 0 4 Z" fill="#FFFFFF" transform="matrix(1,0,0,1,4,46)"/><path d="M 0 0 L 4 0 L 4 4 L 0 4 Z" fill="#000000" transform="matrix(1,0,0,1,8,46)"/><path d="M 0 0 L 5 0 L 5 4 L 0 4 Z" fill="#000000" transform="matrix(1,0,0,1,12,46)"/><path d="M 0 0 L 4 0 L 4 4 L 0 4 Z" fill="#000000" transform="matrix(1,0,0,1,17,46)"/><path d="M 0 0 L 4 0 L 4 4 L 0 4 Z" fill="#000000" transform="matrix(1,0,0,1,21,46)"/><path d="M 0 0 L 4 0 L 4 4 L 0 4 Z" fill="#FFFFFF" transform="matrix(1,0,0,1,25,46)"/><path d="M 0 0 L 4 0 L 4 4 L 0 4 Z" fill="#000000" transform="matrix(1,0,0,1,29,46)"/><path d="M 0 0 L 4 0 L 4 4 L 0 4 Z" fill="#000000" transform="matrix(1,0,0,1,33,46)"/><path d="M 0 0 L 4 0 L 4 4 L 0 4 Z" fill="#FFFFFF" transform="matrix(1,0,0,1,37,46)"/><path d="M 0 0 L 5 0 L 5 4 L 0 4 Z" fill="#FFFFFF" transform="matrix(1,0,0,1,41,46)"/><path d="M 0 0 L 4 0 L 4 4 L 0 4 Z" fill="#FFFFFF" transform="matrix(1,0,0,1,46,46)"/><path d="M 0 0 L 4 0 L 4 4 L 0 4 Z" fill="#000000" transform="matrix(1,0,0,1,50,46)"/><path d="M 0 0 L 4 0 L 4 4 L 0 4 Z" fill="#FFFFFF" transform="matrix(1,0,0,1,54,46)"/><path d="M 0 0 L 4 0 L 4 4 L 0 4 Z" fill="#000000" transform="matrix(1,0,0,1,58,46)"/><path d="M 0 0 L 4 0 L 4 4 L 0 4 Z" fill="#000000" transform="matrix(1,0,0,1,62,46)"/><path d="M 0 0 L 4 0 L 4 4 L 0 4 Z" fill="#FFFFFF" transform="matrix(1,0,0,1,66,46)"/><path d="M 0 0 L 4 0 L 4 4 L 0 4 Z" fill="#FFFFFF" transform="matrix(1,0,0,1,70,46)"/><path d="M 0 0 L 5 0 L 5 4 L 0 4 Z" fill="#000000" transform="matrix(1,0,0,1,74,46)"/><path d="M 0 0 L 4 0 L 4 4 L 0 4 Z" fill="#FFFFFF" transform="matrix(1,0,0,1,79,46)"/><path d="M 0 0 L 4 0 L 4 4 L 0 4 Z" fill="#FFFFFF" transform="matrix(1,0,0,1,83,46)"/><path d="M 0 0 L 4 0 L 4 4 L 0 4 Z" fill="#000000" transform="matrix(1,0,0,1,87,46)"/><path d="M 0 0 L 4 0 L 4 4 L 0 4 Z" fill="#000000" transform="matrix(1,0,0,1,91,46)"/><path d="M 0 0 L 4 0 L 4 4 L 0 4 Z" fill="#000000" transform="matrix(1,0,0,1,95,46)"/><path d="M 0 0 L 4 0 L 4 4 L 0 4 Z" fill="#000000" transform="matrix(1,0,0,1,99,46)"/><path d="M 0 0 L 5 0 L 5 4 L 0 4 Z" fill="#FFFFFF" transform="matrix(1,0,0,1,103,46)"/><path d="M 0 0 L 4 0 L 4 4 L 0 4 Z" fill="#FFFFFF" transform="matrix(1,0,0,1,108,46)"/><path d="M 0 0 L 4 0 L 4 4 L 0 4 Z" fill="#000000" transform="matrix(1,0,0,1,112,46)"/><path d="M 0 0 L 4 0 L 4 4 L 0 4 Z" fill="#FFFFFF" transform="matrix(1,0,0,1,116,46)"/><path d="M 0 0 L 4 0 L 4 4 L 0 4 Z" fill="#000000" transform="matrix(1,0,0,1,0,50)"/><path d="M 0 0 L 4 0 L 4 4 L 0 4 Z" fill="#000000" transform="matrix(1,0,0,1,4,50)"/><path d="M 0 0 L 4 0 L 4 4 L 0 4 Z" fill="#FFFFFF" transform="matrix(1,0,0,1,8,50)"/><path d="M 0 0 L 5 0 L 5 4 L 0 4 Z" fill="#FFFFFF" transform="matrix(1,0,0,1,12,50)"/><path d="M 0 0 L 4 0 L 4 4 L 0 4 Z" fill="#000000" transform="matrix(1,0,0,1,17,50)"/><path d="M 0 0 L 4 0 L 4 4 L 0 4 Z" fill="#000000" transform="matrix(1,0,0,1,21,50)"/><path d="M 0 0 L 4 0 L 4 4 L 0 4 Z" fill="#000000" transform="matrix(1,0,0,1,25,50)"/><path d="M 0 0 L 4 0 L 4 4 L 0 4 Z" fill="#000000" transform="matrix(1,0,0,1,29,50)"/><path d="M 0 0 L 4 0 L 4 4 L 0 4 Z" fill="#000000" transform="matrix(1,0,0,1,33,50)"/><path d="M 0 0 L 4 0 L 4 4 L 0 4 Z" fill="#000000" transform="matrix(1,0,0,1,37,50)"/><path d="M 0 0 L 5 0 L 5 4 L 0 4 Z" fill="#000000" transform="matrix(1,0,0,1,41,50)"/><path d="M 0 0 L 4 0 L 4 4 L 0 4 Z" fill="#FFFFFF" transform="matrix(1,0,0,1,46,50)"/><path d="M 0 0 L 4 0 L 4 4 L 0 4 Z" fill="#000000" transform="matrix(1,0,0,1,50,50)"/><path d="M 0 0 L 4 0 L 4 4 L 0 4 Z" fill="#000000" transform="matrix(1,0,0,1,54,50)"/><path d="M 0 0 L 4 0 L 4 4 L 0 4 Z" fill="#000000" transform="matrix(1,0,0,1,58,50)"/><path d="M 0 0 L 4 0 L 4 4 L 0 4 Z" fill="#FFFFFF" transform="matrix(1,0,0,1,62,50)"/><path d="M 0 0 L 4 0 L 4 4 L 0 4 Z" fill="#000000" transform="matrix(1,0,0,1,66,50)"/><path d="M 0 0 L 4 0 L 4 4 L 0 4 Z" fill="#FFFFFF" transform="matrix(1,0,0,1,70,50)"/><path d="M 0 0 L 5 0 L 5 4 L 0 4 Z" fill="#FFFFFF" transform="matrix(1,0,0,1,74,50)"/><path d="M 0 0 L 4 0 L 4 4 L 0 4 Z" fill="#FFFFFF" transform="matrix(1,0,0,1,79,50)"/><path d="M 0 0 L 4 0 L 4 4 L 0 4 Z" fill="#FFFFFF" transform="matrix(1,0,0,1,83,50)"/><path d="M 0 0 L 4 0 L 4 4 L 0 4 Z" fill="#000000" transform="matrix(1,0,0,1,87,50)"/><path d="M 0 0 L 4 0 L 4 4 L 0 4 Z" fill="#FFFFFF" transform="matrix(1,0,0,1,91,50)"/><path d="M 0 0 L 4 0 L 4 4 L 0 4 Z" fill="#000000" transform="matrix(1,0,0,1,95,50)"/><path d="M 0 0 L 4 0 L 4 4 L 0 4 Z" fill="#FFFFFF" transform="matrix(1,0,0,1,99,50)"/><path d="M 0 0 L 5 0 L 5 4 L 0 4 Z" fill="#000000" transform="matrix(1,0,0,1,103,50)"/><path d="M 0 0 L 4 0 L 4 4 L 0 4 Z" fill="#000000" transform="matrix(1,0,0,1,108,50)"/><path d="M 0 0 L 4 0 L 4 4 L 0 4 Z" fill="#FFFFFF" transform="matrix(1,0,0,1,112,50)"/><path d="M 0 0 L 4 0 L 4 4 L 0 4 Z" fill="#FFFFFF" transform="matrix(1,0,0,1,116,50)"/><path d="M 0 0 L 4 0 L 4 4 L 0 4 Z" fill="#FFFFFF" transform="matrix(1,0,0,1,0,54)"/><path d="M 0 0 L 4 0 L 4 4 L 0 4 Z" fill="#FFFFFF" transform="matrix(1,0,0,1,4,54)"/><path d="M 0 0 L 4 0 L 4 4 L 0 4 Z" fill="#000000" transform="matrix(1,0,0,1,8,54)"/><path d="M 0 0 L 5 0 L 5 4 L 0 4 Z" fill="#000000" transform="matrix(1,0,0,1,12,54)"/><path d="M 0 0 L 4 0 L 4 4 L 0 4 Z" fill="#000000" transform="matrix(1,0,0,1,17,54)"/><path d="M 0 0 L 4 0 L 4 4 L 0 4 Z" fill="#000000" transform="matrix(1,0,0,1,21,54)"/><path d="M 0 0 L 4 0 L 4 4 L 0 4 Z" fill="#FFFFFF" transform="matrix(1,0,0,1,25,54)"/><path d="M 0 0 L 4 0 L 4 4 L 0 4 Z" fill="#FFFFFF" transform="matrix(1,0,0,1,29,54)"/><path d="M 0 0 L 4 0 L 4 4 L 0 4 Z" fill="#FFFFFF" transform="matrix(1,0,0,1,33,54)"/><path d="M 0 0 L 4 0 L 4 4 L 0 4 Z" fill="#000000" transform="matrix(1,0,0,1,37,54)"/><path d="M 0 0 L 5 0 L 5 4 L 0 4 Z" fill="#FFFFFF" transform="matrix(1,0,0,1,41,54)"/><path d="M 0 0 L 4 0 L 4 4 L 0 4 Z" fill="#FFFFFF" transform="matrix(1,0,0,1,46,54)"/><path d="M 0 0 L 4 0 L 4 4 L 0 4 Z" fill="#FFFFFF" transform="matrix(1,0,0,1,50,54)"/><path d="M 0 0 L 4 0 L 4 4 L 0 4 Z" fill="#FFFFFF" transform="matrix(1,0,0,1,54,54)"/><path d="M 0 0 L 4 0 L 4 4 L 0 4 Z" fill="#FFFFFF" transform="matrix(1,0,0,1,58,54)"/><path d="M 0 0 L 4 0 L 4 4 L 0 4 Z" fill="#FFFFFF" transform="matrix(1,0,0,1,62,54)"/><path d="M 0 0 L 4 0 L 4 4 L 0 4 Z" fill="#FFFFFF" transform="matrix(1,0,0,1,66,54)"/><path d="M 0 0 L 4 0 L 4 4 L 0 4 Z" fill="#FFFFFF" transform="matrix(1,0,0,1,70,54)"/><path d="M 0 0 L 5 0 L 5 4 L 0 4 Z" fill="#000000" transform="matrix(1,0,0,1,74,54)"/><path d="M 0 0 L 4 0 L 4 4 L 0 4 Z" fill="#FFFFFF" transform="matrix(1,0,0,1,79,54)"/><path d="M 0 0 L 4 0 L 4 4 L 0 4 Z" fill="#000000" transform="matrix(1,0,0,1,83,54)"/><path d="M 0 0 L 4 0 L 4 4 L 0 4 Z" fill="#FFFFFF" transform="matrix(1,0,0,1,87,54)"/><path d="M 0 0 L 4 0 L 4 4 L 0 4 Z" fill="#000000" transform="matrix(1,0,0,1,91,54)"/><path d="M 0 0 L 4 0 L 4 4 L 0 4 Z" fill="#FFFFFF" transform="matrix(1,0,0,1,95,54)"/><path d="M 0 0 L 4 0 L 4 4 L 0 4 Z" fill="#000000" transform="matrix(1,0,0,1,99,54)"/><path d="M 0 0 L 5 0 L 5 4 L 0 4 Z" fill="#000000" transform="matrix(1,0,0,1,103,54)"/><path d="M 0 0 L 4 0 L 4 4 L 0 4 Z" fill="#FFFFFF" transform="matrix(1,0,0,1,108,54)"/><path d="M 0 0 L 4 0 L 4 4 L 0 4 Z" fill="#000000" transform="matrix(1,0,0,1,112,54)"/><path d="M 0 0 L 4 0 L 4 4 L 0 4 Z" fill="#FFFFFF" transform="matrix(1,0,0,1,116,54)"/><path d="M 0 0 L 4 0 L 4 4 L 0 4 Z" fill="#000000" transform="matrix(1,0,0,1,0,58)"/><path d="M 0 0 L 4 0 L 4 4 L 0 4 Z" fill="#000000" transform="matrix(1,0,0,1,4,58)"/><path d="M 0 0 L 4 0 L 4 4 L 0 4 Z" fill="#000000" transform="matrix(1,0,0,1,8,58)"/><path d="M 0 0 L 5 0 L 5 4 L 0 4 Z" fill="#FFFFFF" transform="matrix(1,0,0,1,12,58)"/><path d="M 0 0 L 4 0 L 4 4 L 0 4 Z" fill="#FFFFFF" transform="matrix(1,0,0,1,17,58)"/><path d="M 0 0 L 4 0 L 4 4 L 0 4 Z" fill="#FFFFFF" transform="matrix(1,0,0,1,21,58)"/><path d="M 0 0 L 4 0 L 4 4 L 0 4 Z" fill="#000000" transform="matrix(1,0,0,1,25,58)"/><path d="M 0 0 L 4 0 L 4 4 L 0 4 Z" fill="#FFFFFF" transform="matrix(1,0,0,1,29,58)"/><path d="M 0 0 L 4 0 L 4 4 L 0 4 Z" fill="#000000" transform="matrix(1,0,0,1,33,58)"/><path d="M 0 0 L 4 0 L 4 4 L 0 4 Z" fill="#FFFFFF" transform="matrix(1,0,0,1,37,58)"/><path d="M 0 0 L 5 0 L 5 4 L 0 4 Z" fill="#FFFFFF" transform="matrix(1,0,0,1,41,58)"/><path d="M 0 0 L 4 0 L 4 4 L 0 4 Z" fill="#000000" transform="matrix(1,0,0,1,46,58)"/><path d="M 0 0 L 4 0 L 4 4 L 0 4 Z" fill="#000000" transform="matrix(1,0,0,1,50,58)"/><path d="M 0 0 L 4 0 L 4 4 L 0 4 Z" fill="#FFFFFF" transform="matrix(1,0,0,1,54,58)"/><path d="M 0 0 L 4 0 L 4 4 L 0 4 Z" fill="#FFFFFF" transform="matrix(1,0,0,1,58,58)"/><path d="M 0 0 L 4 0 L 4 4 L 0 4 Z" fill="#000000" transform="matrix(1,0,0,1,62,58)"/><path d="M 0 0 L 4 0 L 4 4 L 0 4 Z" fill="#FFFFFF" transform="matrix(1,0,0,1,66,58)"/><path d="M 0 0 L 4 0 L 4 4 L 0 4 Z" fill="#000000" transform="matrix(1,0,0,1,70,58)"/><path d="M 0 0 L 5 0 L 5 4 L 0 4 Z" fill="#FFFFFF" transform="matrix(1,0,0,1,74,58)"/><path d="M 0 0 L 4 0 L 4 4 L 0 4 Z" fill="#FFFFFF" transform="matrix(1,0,0,1,79,58)"/><path d="M 0 0 L 4 0 L 4 4 L 0 4 Z" fill="#FFFFFF" transform="matrix(1,0,0,1,83,58)"/><path d="M 0 0 L 4 0 L 4 4 L 0 4 Z" fill="#000000" transform="matrix(1,0,0,1,87,58)"/><path d="M 0 0 L 4 0 L 4 4 L 0 4 Z" fill="#FFFFFF" transform="matrix(1,0,0,1,91,58)"/><path d="M 0 0 L 4 0 L 4 4 L 0 4 Z" fill="#000000" transform="matrix(1,0,0,1,95,58)"/><path d="M 0 0 L 4 0 L 4 4 L 0 4 Z" fill="#000000" transform="matrix(1,0,0,1,99,58)"/><path d="M 0 0 L 5 0 L 5 4 L 0 4 Z" fill="#000000" transform="matrix(1,0,0,1,103,58)"/><path d="M 0 0 L 4 0 L 4 4 L 0 4 Z" fill="#FFFFFF" transform="matrix(1,0,0,1,108,58)"/><path d="M 0 0 L 4 0 L 4 4 L 0 4 Z" fill="#FFFFFF" transform="matrix(1,0,0,1,112,58)"/><path d="M 0 0 L 4 0 L 4 4 L 0 4 Z" fill="#FFFFFF" transform="matrix(1,0,0,1,116,58)"/><path d="M 0 0 L 4 0 L 4 4 L 0 4 Z" fill="#000000" transform="matrix(1,0,0,1,0,62)"/><path d="M 0 0 L 4 0 L 4 4 L 0 4 Z" fill="#000000" transform="matrix(1,0,0,1,4,62)"/><path d="M 0 0 L 4 0 L 4 4 L 0 4 Z" fill="#000000" transform="matrix(1,0,0,1,8,62)"/><path d="M 0 0 L 5 0 L 5 4 L 0 4 Z" fill="#FFFFFF" transform="matrix(1,0,0,1,12,62)"/><path d="M 0 0 L 4 0 L 4 4 L 0 4 Z" fill="#FFFFFF" transform="matrix(1,0,0,1,17,62)"/><path d="M 0 0 L 4 0 L 4 4 L 0 4 Z" fill="#FFFFFF" transform="matrix(1,0,0,1,21,62)"/><path d="M 0 0 L 4 0 L 4 4 L 0 4 Z" fill="#FFFFFF" transform="matrix(1,0,0,1,25,62)"/><path d="M 0 0 L 4 0 L 4 4 L 0 4 Z" fill="#000000" transform="matrix(1,0,0,1,29,62)"/><path d="M 0 0 L 4 0 L 4 4 L 0 4 Z" fill="#FFFFFF" transform="matrix(1,0,0,1,33,62)"/><path d="M 0 0 L 4 0 L 4 4 L 0 4 Z" fill="#000000" transform="matrix(1,0,0,1,37,62)"/><path d="M 0 0 L 5 0 L 5 4 L 0 4 Z" fill="#000000" transform="matrix(1,0,0,1,41,62)"/><path d="M 0 0 L 4 0 L 4 4 L 0 4 Z" fill="#000000" transform="matrix(1,0,0,1,46,62)"/><path d="M 0 0 L 4 0 L 4 4 L 0 4 Z" fill="#FFFFFF" transform="matrix(1,0,0,1,50,62)"/><path d="M 0 0 L 4 0 L 4 4 L 0 4 Z" fill="#FFFFFF" transform="matrix(1,0,0,1,54,62)"/><path d="M 0 0 L 4 0 L 4 4 L 0 4 Z" fill="#000000" transform="matrix(1,0,0,1,58,62)"/><path d="M 0 0 L 4 0 L 4 4 L 0 4 Z" fill="#FFFFFF" transform="matrix(1,0,0,1,62,62)"/><path d="M 0 0 L 4 0 L 4 4 L 0 4 Z" fill="#000000" transform="matrix(1,0,0,1,66,62)"/><path d="M 0 0 L 4 0 L 4 4 L 0 4 Z" fill="#FFFFFF" transform="matrix(1,0,0,1,70,62)"/><path d="M 0 0 L 5 0 L 5 4 L 0 4 Z" fill="#000000" transform="matrix(1,0,0,1,74,62)"/><path d="M 0 0 L 4 0 L 4 4 L 0 4 Z" fill="#000000" transform="matrix(1,0,0,1,79,62)"/><path d="M 0 0 L 4 0 L 4 4 L 0 4 Z" fill="#000000" transform="matrix(1,0,0,1,83,62)"/><path d="M 0 0 L 4 0 L 4 4 L 0 4 Z" fill="#000000" transform="matrix(1,0,0,1,87,62)"/><path d="M 0 0 L 4 0 L 4 4 L 0 4 Z" fill="#000000" transform="matrix(1,0,0,1,91,62)"/><path d="M 0 0 L 4 0 L 4 4 L 0 4 Z" fill="#FFFFFF" transform="matrix(1,0,0,1,95,62)"/><path d="M 0 0 L 4 0 L 4 4 L 0 4 Z" fill="#000000" transform="matrix(1,0,0,1,99,62)"/><path d="M 0 0 L 5 0 L 5 4 L 0 4 Z" fill="#000000" transform="matrix(1,0,0,1,103,62)"/><path d="M 0 0 L 4 0 L 4 4 L 0 4 Z" fill="#FFFFFF" transform="matrix(1,0,0,1,108,62)"/><path d="M 0 0 L 4 0 L 4 4 L 0 4 Z" fill="#000000" transform="matrix(1,0,0,1,112,62)"/><path d="M 0 0 L 4 0 L 4 4 L 0 4 Z" fill="#FFFFFF" transform="matrix(1,0,0,1,116,62)"/><path d="M 0 0 L 4 0 L 4 4 L 0 4 Z" fill="#000000" transform="matrix(1,0,0,1,0,66)"/><path d="M 0 0 L 4 0 L 4 4 L 0 4 Z" fill="#000000" transform="matrix(1,0,0,1,4,66)"/><path d="M 0 0 L 4 0 L 4 4 L 0 4 Z" fill="#FFFFFF" transform="matrix(1,0,0,1,8,66)"/><path d="M 0 0 L 5 0 L 5 4 L 0 4 Z" fill="#FFFFFF" transform="matrix(1,0,0,1,12,66)"/><path d="M 0 0 L 4 0 L 4 4 L 0 4 Z" fill="#FFFFFF" transform="matrix(1,0,0,1,17,66)"/><path d="M 0 0 L 4 0 L 4 4 L 0 4 Z" fill="#FFFFFF" transform="matrix(1,0,0,1,21,66)"/><path d="M 0 0 L 4 0 L 4 4 L 0 4 Z" fill="#000000" transform="matrix(1,0,0,1,25,66)"/><path d="M 0 0 L 4 0 L 4 4 L 0 4 Z" fill="#000000" transform="matrix(1,0,0,1,29,66)"/><path d="M 0 0 L 4 0 L 4 4 L 0 4 Z" fill="#FFFFFF" transform="matrix(1,0,0,1,33,66)"/><path d="M 0 0 L 4 0 L 4 4 L 0 4 Z" fill="#FFFFFF" transform="matrix(1,0,0,1,37,66)"/><path d="M 0 0 L 5 0 L 5 4 L 0 4 Z" fill="#000000" transform="matrix(1,0,0,1,41,66)"/><path d="M 0 0 L 4 0 L 4 4 L 0 4 Z" fill="#000000" transform="matrix(1,0,0,1,46,66)"/><path d="M 0 0 L 4 0 L 4 4 L 0 4 Z" fill="#FFFFFF" transform="matrix(1,0,0,1,50,66)"/><path d="M 0 0 L 4 0 L 4 4 L 0 4 Z" fill="#000000" transform="matrix(1,0,0,1,54,66)"/><path d="M 0 0 L 4 0 L 4 4 L 0 4 Z" fill="#FFFFFF" transform="matrix(1,0,0,1,58,66)"/><path d="M 0 0 L 4 0 L 4 4 L 0 4 Z" fill="#000000" transform="matrix(1,0,0,1,62,66)"/><path d="M 0 0 L 4 0 L 4 4 L 0 4 Z" fill="#000000" transform="matrix(1,0,0,1,66,66)"/><path d="M 0 0 L 4 0 L 4 4 L 0 4 Z" fill="#000000" transform="matrix(1,0,0,1,70,66)"/><path d="M 0 0 L 5 0 L 5 4 L 0 4 Z" fill="#000000" transform="matrix(1,0,0,1,74,66)"/><path d="M 0 0 L 4 0 L 4 4 L 0 4 Z" fill="#FFFFFF" transform="matrix(1,0,0,1,79,66)"/><path d="M 0 0 L 4 0 L 4 4 L 0 4 Z" fill="#000000" transform="matrix(1,0,0,1,83,66)"/><path d="M 0 0 L 4 0 L 4 4 L 0 4 Z" fill="#000000" transform="matrix(1,0,0,1,87,66)"/><path d="M 0 0 L 4 0 L 4 4 L 0 4 Z" fill="#FFFFFF" transform="matrix(1,0,0,1,91,66)"/><path d="M 0 0 L 4 0 L 4 4 L 0 4 Z" fill="#000000" transform="matrix(1,0,0,1,95,66)"/><path d="M 0 0 L 4 0 L 4 4 L 0 4 Z" fill="#FFFFFF" transform="matrix(1,0,0,1,99,66)"/><path d="M 0 0 L 5 0 L 5 4 L 0 4 Z" fill="#FFFFFF" transform="matrix(1,0,0,1,103,66)"/><path d="M 0 0 L 4 0 L 4 4 L 0 4 Z" fill="#FFFFFF" transform="matrix(1,0,0,1,108,66)"/><path d="M 0 0 L 4 0 L 4 4 L 0 4 Z" fill="#000000" transform="matrix(1,0,0,1,112,66)"/><path d="M 0 0 L 4 0 L 4 4 L 0 4 Z" fill="#000000" transform="matrix(1,0,0,1,116,66)"/><path d="M 0 0 L 4 0 L 4 4 L 0 4 Z" fill="#000000" transform="matrix(1,0,0,1,0,70)"/><path d="M 0 0 L 4 0 L 4 4 L 0 4 Z" fill="#FFFFFF" transform="matrix(1,0,0,1,4,70)"/><path d="M 0 0 L 4 0 L 4 4 L 0 4 Z" fill="#000000" transform="matrix(1,0,0,1,8,70)"/><path d="M 0 0 L 5 0 L 5 4 L 0 4 Z" fill="#FFFFFF" transform="matrix(1,0,0,1,12,70)"/><path d="M 0 0 L 4 0 L 4 4 L 0 4 Z" fill="#000000" transform="matrix(1,0,0,1,17,70)"/><path d="M 0 0 L 4 0 L 4 4 L 0 4 Z" fill="#FFFFFF" transform="matrix(1,0,0,1,21,70)"/><path d="M 0 0 L 4 0 L 4 4 L 0 4 Z" fill="#FFFFFF" transform="matrix(1,0,0,1,25,70)"/><path d="M 0 0 L 4 0 L 4 4 L 0 4 Z" fill="#000000" transform="matrix(1,0,0,1,29,70)"/><path d="M 0 0 L 4 0 L 4 4 L 0 4 Z" fill="#FFFFFF" transform="matrix(1,0,0,1,33,70)"/><path d="M 0 0 L 4 0 L 4 4 L 0 4 Z" fill="#FFFFFF" transform="matrix(1,0,0,1,37,70)"/><path d="M 0 0 L 5 0 L 5 4 L 0 4 Z" fill="#000000" transform="matrix(1,0,0,1,41,70)"/><path d="M 0 0 L 4 0 L 4 4 L 0 4 Z" fill="#FFFFFF" transform="matrix(1,0,0,1,46,70)"/><path d="M 0 0 L 4 0 L 4 4 L 0 4 Z" fill="#000000" transform="matrix(1,0,0,1,50,70)"/><path d="M 0 0 L 4 0 L 4 4 L 0 4 Z" fill="#FFFFFF" transform="matrix(1,0,0,1,54,70)"/><path d="M 0 0 L 4 0 L 4 4 L 0 4 Z" fill="#000000" transform="matrix(1,0,0,1,58,70)"/><path d="M 0 0 L 4 0 L 4 4 L 0 4 Z" fill="#FFFFFF" transform="matrix(1,0,0,1,62,70)"/><path d="M 0 0 L 4 0 L 4 4 L 0 4 Z" fill="#FFFFFF" transform="matrix(1,0,0,1,66,70)"/><path d="M 0 0 L 4 0 L 4 4 L 0 4 Z" fill="#000000" transform="matrix(1,0,0,1,70,70)"/><path d="M 0 0 L 5 0 L 5 4 L 0 4 Z" fill="#FFFFFF" transform="matrix(1,0,0,1,74,70)"/><path d="M 0 0 L 4 0 L 4 4 L 0 4 Z" fill="#000000" transform="matrix(1,0,0,1,79,70)"/><path d="M 0 0 L 4 0 L 4 4 L 0 4 Z" fill="#FFFFFF" transform="matrix(1,0,0,1,83,70)"/><path d="M 0 0 L 4 0 L 4 4 L 0 4 Z" fill="#FFFFFF" transform="matrix(1,0,0,1,87,70)"/><path d="M 0 0 L 4 0 L 4 4 L 0 4 Z" fill="#000000" transform="matrix(1,0,0,1,91,70)"/><path d="M 0 0 L 4 0 L 4 4 L 0 4 Z" fill="#FFFFFF" transform="matrix(1,0,0,1,95,70)"/><path d="M 0 0 L 4 0 L 4 4 L 0 4 Z" fill="#000000" transform="matrix(1,0,0,1,99,70)"/><path d="M 0 0 L 5 0 L 5 4 L 0 4 Z" fill="#000000" transform="matrix(1,0,0,1,103,70)"/><path d="M 0 0 L 4 0 L 4 4 L 0 4 Z" fill="#FFFFFF" transform="matrix(1,0,0,1,108,70)"/><path d="M 0 0 L 4 0 L 4 4 L 0 4 Z" fill="#FFFFFF" transform="matrix(1,0,0,1,112,70)"/><path d="M 0 0 L 4 0 L 4 4 L 0 4 Z" fill="#000000" transform="matrix(1,0,0,1,116,70)"/><path d="M 0 0 L 4 0 L 4 5 L 0 5 Z" fill="#000000" transform="matrix(1,0,0,1,0,74)"/><path d="M 0 0 L 4 0 L 4 5 L 0 5 Z" fill="#FFFFFF" transform="matrix(1,0,0,1,4,74)"/><path d="M 0 0 L 4 0 L 4 5 L 0 5 Z" fill="#000000" transform="matrix(1,0,0,1,8,74)"/><path d="M 0 0 L 5 0 L 5 5 L 0 5 Z" fill="#000000" transform="matrix(1,0,0,1,12,74)"/><path d="M 0 0 L 4 0 L 4 5 L 0 5 Z" fill="#FFFFFF" transform="matrix(1,0,0,1,17,74)"/><path d="M 0 0 L 4 0 L 4 5 L 0 5 Z" fill="#000000" transform="matrix(1,0,0,1,21,74)"/><path d="M 0 0 L 4 0 L 4 5 L 0 5 Z" fill="#000000" transform="matrix(1,0,0,1,25,74)"/><path d="M 0 0 L 4 0 L 4 5 L 0 5 Z" fill="#FFFFFF" transform="matrix(1,0,0,1,29,74)"/><path d="M 0 0 L 4 0 L 4 5 L 0 5 Z" fill="#000000" transform="matrix(1,0,0,1,33,74)"/><path d="M 0 0 L 4 0 L 4 5 L 0 5 Z" fill="#FFFFFF" transform="matrix(1,0,0,1,37,74)"/><path d="M 0 0 L 5 0 L 5 5 L 0 5 Z" fill="#FFFFFF" transform="matrix(1,0,0,1,41,74)"/><path d="M 0 0 L 4 0 L 4 5 L 0 5 Z" fill="#FFFFFF" transform="matrix(1,0,0,1,46,74)"/><path d="M 0 0 L 4 0 L 4 5 L 0 5 Z" fill="#FFFFFF" transform="matrix(1,0,0,1,50,74)"/><path d="M 0 0 L 4 0 L 4 5 L 0 5 Z" fill="#000000" transform="matrix(1,0,0,1,54,74)"/><path d="M 0 0 L 4 0 L 4 5 L 0 5 Z" fill="#FFFFFF" transform="matrix(1,0,0,1,58,74)"/><path d="M 0 0 L 4 0 L 4 5 L 0 5 Z" fill="#000000" transform="matrix(1,0,0,1,62,74)"/><path d="M 0 0 L 4 0 L 4 5 L 0 5 Z" fill="#000000" transform="matrix(1,0,0,1,66,74)"/><path d="M 0 0 L 4 0 L 4 5 L 0 5 Z" fill="#FFFFFF" transform="matrix(1,0,0,1,70,74)"/><path d="M 0 0 L 5 0 L 5 5 L 0 5 Z" fill="#000000" transform="matrix(1,0,0,1,74,74)"/><path d="M 0 0 L 4 0 L 4 5 L 0 5 Z" fill="#FFFFFF" transform="matrix(1,0,0,1,79,74)"/><path d="M 0 0 L 4 0 L 4 5 L 0 5 Z" fill="#000000" transform="matrix(1,0,0,1,83,74)"/><path d="M 0 0 L 4 0 L 4 5 L 0 5 Z" fill="#000000" transform="matrix(1,0,0,1,87,74)"/><path d="M 0 0 L 4 0 L 4 5 L 0 5 Z" fill="#FFFFFF" transform="matrix(1,0,0,1,91,74)"/><path d="M 0 0 L 4 0 L 4 5 L 0 5 Z" fill="#000000" transform="matrix(1,0,0,1,95,74)"/><path d="M 0 0 L 4 0 L 4 5 L 0 5 Z" fill="#000000" transform="matrix(1,0,0,1,99,74)"/><path d="M 0 0 L 5 0 L 5 5 L 0 5 Z" fill="#000000" transform="matrix(1,0,0,1,103,74)"/><path d="M 0 0 L 4 0 L 4 5 L 0 5 Z" fill="#FFFFFF" transform="matrix(1,0,0,1,108,74)"/><path d="M 0 0 L 4 0 L 4 5 L 0 5 Z" fill="#FFFFFF" transform="matrix(1,0,0,1,112,74)"/><path d="M 0 0 L 4 0 L 4 5 L 0 5 Z" fill="#FFFFFF" transform="matrix(1,0,0,1,116,74)"/><path d="M 0 0 L 4 0 L 4 4 L 0 4 Z" fill="#000000" transform="matrix(1,0,0,1,0,79)"/><path d="M 0 0 L 4 0 L 4 4 L 0 4 Z" fill="#FFFFFF" transform="matrix(1,0,0,1,4,79)"/><path d="M 0 0 L 4 0 L 4 4 L 0 4 Z" fill="#000000" transform="matrix(1,0,0,1,8,79)"/><path d="M 0 0 L 5 0 L 5 4 L 0 4 Z" fill="#000000" transform="matrix(1,0,0,1,12,79)"/><path d="M 0 0 L 4 0 L 4 4 L 0 4 Z" fill="#000000" transform="matrix(1,0,0,1,17,79)"/><path d="M 0 0 L 4 0 L 4 4 L 0 4 Z" fill="#FFFFFF" transform="matrix(1,0,0,1,21,79)"/><path d="M 0 0 L 4 0 L 4 4 L 0 4 Z" fill="#FFFFFF" transform="matrix(1,0,0,1,25,79)"/><path d="M 0 0 L 4 0 L 4 4 L 0 4 Z" fill="#000000" transform="matrix(1,0,0,1,29,79)"/><path d="M 0 0 L 4 0 L 4 4 L 0 4 Z" fill="#FFFFFF" transform="matrix(1,0,0,1,33,79)"/><path d="M 0 0 L 4 0 L 4 4 L 0 4 Z" fill="#000000" transform="matrix(1,0,0,1,37,79)"/><path d="M 0 0 L 5 0 L 5 4 L 0 4 Z" fill="#000000" transform="matrix(1,0,0,1,41,79)"/><path d="M 0 0 L 4 0 L 4 4 L 0 4 Z" fill="#FFFFFF" transform="matrix(1,0,0,1,46,79)"/><path d="M 0 0 L 4 0 L 4 4 L 0 4 Z" fill="#000000" transform="matrix(1,0,0,1,50,79)"/><path d="M 0 0 L 4 0 L 4 4 L 0 4 Z" fill="#FFFFFF" transform="matrix(1,0,0,1,54,79)"/><path d="M 0 0 L 4 0 L 4 4 L 0 4 Z" fill="#000000" transform="matrix(1,0,0,1,58,79)"/><path d="M 0 0 L 4 0 L 4 4 L 0 4 Z" fill="#000000" transform="matrix(1,0,0,1,62,79)"/><path d="M 0 0 L 4 0 L 4 4 L 0 4 Z" fill="#000000" transform="matrix(1,0,0,1,66,79)"/><path d="M 0 0 L 4 0 L 4 4 L 0 4 Z" fill="#FFFFFF" transform="matrix(1,0,0,1,70,79)"/><path d="M 0 0 L 5 0 L 5 4 L 0 4 Z" fill="#FFFFFF" transform="matrix(1,0,0,1,74,79)"/><path d="M 0 0 L 4 0 L 4 4 L 0 4 Z" fill="#FFFFFF" transform="matrix(1,0,0,1,79,79)"/><path d="M 0 0 L 4 0 L 4 4 L 0 4 Z" fill="#000000" transform="matrix(1,0,0,1,83,79)"/><path d="M 0 0 L 4 0 L 4 4 L 0 4 Z" fill="#FFFFFF" transform="matrix(1,0,0,1,87,79)"/><path d="M 0 0 L 4 0 L 4 4 L 0 4 Z" fill="#FFFFFF" transform="matrix(1,0,0,1,91,79)"/><path d="M 0 0 L 4 0 L 4 4 L 0 4 Z" fill="#FFFFFF" transform="matrix(1,0,0,1,95,79)"/><path d="M 0 0 L 4 0 L 4 4 L 0 4 Z" fill="#FFFFFF" transform="matrix(1,0,0,1,99,79)"/><path d="M 0 0 L 5 0 L 5 4 L 0 4 Z" fill="#FFFFFF" transform="matrix(1,0,0,1,103,79)"/><path d="M 0 0 L 4 0 L 4 4 L 0 4 Z" fill="#FFFFFF" transform="matrix(1,0,0,1,108,79)"/><path d="M 0 0 L 4 0 L 4 4 L 0 4 Z" fill="#000000" transform="matrix(1,0,0,1,112,79)"/><path d="M 0 0 L 4 0 L 4 4 L 0 4 Z" fill="#FFFFFF" transform="matrix(1,0,0,1,116,79)"/><path d="M 0 0 L 4 0 L 4 4 L 0 4 Z" fill="#000000" transform="matrix(1,0,0,1,0,83)"/><path d="M 0 0 L 4 0 L 4 4 L 0 4 Z" fill="#FFFFFF" transform="matrix(1,0,0,1,4,83)"/><path d="M 0 0 L 4 0 L 4 4 L 0 4 Z" fill="#FFFFFF" transform="matrix(1,0,0,1,8,83)"/><path d="M 0 0 L 5 0 L 5 4 L 0 4 Z" fill="#FFFFFF" transform="matrix(1,0,0,1,12,83)"/><path d="M 0 0 L 4 0 L 4 4 L 0 4 Z" fill="#FFFFFF" transform="matrix(1,0,0,1,17,83)"/><path d="M 0 0 L 4 0 L 4 4 L 0 4 Z" fill="#FFFFFF" transform="matrix(1,0,0,1,21,83)"/><path d="M 0 0 L 4 0 L 4 4 L 0 4 Z" fill="#000000" transform="matrix(1,0,0,1,25,83)"/><path d="M 0 0 L 4 0 L 4 4 L 0 4 Z" fill="#000000" transform="matrix(1,0,0,1,29,83)"/><path d="M 0 0 L 4 0 L 4 4 L 0 4 Z" fill="#FFFFFF" transform="matrix(1,0,0,1,33,83)"/><path d="M 0 0 L 4 0 L 4 4 L 0 4 Z" fill="#FFFFFF" transform="matrix(1,0,0,1,37,83)"/><path d="M 0 0 L 5 0 L 5 4 L 0 4 Z" fill="#FFFFFF" transform="matrix(1,0,0,1,41,83)"/><path d="M 0 0 L 4 0 L 4 4 L 0 4 Z" fill="#FFFFFF" transform="matrix(1,0,0,1,46,83)"/><path d="M 0 0 L 4 0 L 4 4 L 0 4 Z" fill="#000000" transform="matrix(1,0,0,1,50,83)"/><path d="M 0 0 L 4 0 L 4 4 L 0 4 Z" fill="#000000" transform="matrix(1,0,0,1,54,83)"/><path d="M 0 0 L 4 0 L 4 4 L 0 4 Z" fill="#FFFFFF" transform="matrix(1,0,0,1,58,83)"/><path d="M 0 0 L 4 0 L 4 4 L 0 4 Z" fill="#000000" transform="matrix(1,0,0,1,62,83)"/><path d="M 0 0 L 4 0 L 4 4 L 0 4 Z" fill="#000000" transform="matrix(1,0,0,1,66,83)"/><path d="M 0 0 L 4 0 L 4 4 L 0 4 Z" fill="#000000" transform="matrix(1,0,0,1,70,83)"/><path d="M 0 0 L 5 0 L 5 4 L 0 4 Z" fill="#FFFFFF" transform="matrix(1,0,0,1,74,83)"/><path d="M 0 0 L 4 0 L 4 4 L 0 4 Z" fill="#FFFFFF" transform="matrix(1,0,0,1,79,83)"/><path d="M 0 0 L 4 0 L 4 4 L 0 4 Z" fill="#000000" transform="matrix(1,0,0,1,83,83)"/><path d="M 0 0 L 4 0 L 4 4 L 0 4 Z" fill="#000000" transform="matrix(1,0,0,1,87,83)"/><path d="M 0 0 L 4 0 L 4 4 L 0 4 Z" fill="#000000" transform="matrix(1,0,0,1,91,83)"/><path d="M 0 0 L 4 0 L 4 4 L 0 4 Z" fill="#000000" transform="matrix(1,0,0,1,95,83)"/><path d="M 0 0 L 4 0 L 4 4 L 0 4 Z" fill="#000000" transform="matrix(1,0,0,1,99,83)"/><path d="M 0 0 L 5 0 L 5 4 L 0 4 Z" fill="#000000" transform="matrix(1,0,0,1,103,83)"/><path d="M 0 0 L 4 0 L 4 4 L 0 4 Z" fill="#000000" transform="matrix(1,0,0,1,108,83)"/><path d="M 0 0 L 4 0 L 4 4 L 0 4 Z" fill="#000000" transform="matrix(1,0,0,1,112,83)"/><path d="M 0 0 L 4 0 L 4 4 L 0 4 Z" fill="#FFFFFF" transform="matrix(1,0,0,1,116,83)"/><path d="M 0 0 L 4 0 L 4 4 L 0 4 Z" fill="#FFFFFF" transform="matrix(1,0,0,1,0,87)"/><path d="M 0 0 L 4 0 L 4 4 L 0 4 Z" fill="#FFFFFF" transform="matrix(1,0,0,1,4,87)"/><path d="M 0 0 L 4 0 L 4 4 L 0 4 Z" fill="#FFFFFF" transform="matrix(1,0,0,1,8,87)"/><path d="M 0 0 L 5 0 L 5 4 L 0 4 Z" fill="#FFFFFF" transform="matrix(1,0,0,1,12,87)"/><path d="M 0 0 L 4 0 L 4 4 L 0 4 Z" fill="#FFFFFF" transform="matrix(1,0,0,1,17,87)"/><path d="M 0 0 L 4 0 L 4 4 L 0 4 Z" fill="#FFFFFF" transform="matrix(1,0,0,1,21,87)"/><path d="M 0 0 L 4 0 L 4 4 L 0 4 Z" fill="#FFFFFF" transform="matrix(1,0,0,1,25,87)"/><path d="M 0 0 L 4 0 L 4 4 L 0 4 Z" fill="#FFFFFF" transform="matrix(1,0,0,1,29,87)"/><path d="M 0 0 L 4 0 L 4 4 L 0 4 Z" fill="#000000" transform="matrix(1,0,0,1,33,87)"/><path d="M 0 0 L 4 0 L 4 4 L 0 4 Z" fill="#000000" transform="matrix(1,0,0,1,37,87)"/><path d="M 0 0 L 5 0 L 5 4 L 0 4 Z" fill="#000000" transform="matrix(1,0,0,1,41,87)"/><path d="M 0 0 L 4 0 L 4 4 L 0 4 Z" fill="#FFFFFF" transform="matrix(1,0,0,1,46,87)"/><path d="M 0 0 L 4 0 L 4 4 L 0 4 Z" fill="#FFFFFF" transform="matrix(1,0,0,1,50,87)"/><path d="M 0 0 L 4 0 L 4 4 L 0 4 Z" fill="#FFFFFF" transform="matrix(1,0,0,1,54,87)"/><path d="M 0 0 L 4 0 L 4 4 L 0 4 Z" fill="#000000" transform="matrix(1,0,0,1,58,87)"/><path d="M 0 0 L 4 0 L 4 4 L 0 4 Z" fill="#FFFFFF" transform="matrix(1,0,0,1,62,87)"/><path d="M 0 0 L 4 0 L 4 4 L 0 4 Z" fill="#FFFFFF" transform="matrix(1,0,0,1,66,87)"/><path d="M 0 0 L 4 0 L 4 4 L 0 4 Z" fill="#FFFFFF" transform="matrix(1,0,0,1,70,87)"/><path d="M 0 0 L 5 0 L 5 4 L 0 4 Z" fill="#000000" transform="matrix(1,0,0,1,74,87)"/><path d="M 0 0 L 4 0 L 4 4 L 0 4 Z" fill="#000000" transform="matrix(1,0,0,1,79,87)"/><path d="M 0 0 L 4 0 L 4 4 L 0 4 Z" fill="#000000" transform="matrix(1,0,0,1,83,87)"/><path d="M 0 0 L 4 0 L 4 4 L 0 4 Z" fill="#FFFFFF" transform="matrix(1,0,0,1,87,87)"/><path d="M 0 0 L 4 0 L 4 4 L 0 4 Z" fill="#FFFFFF" transform="matrix(1,0,0,1,91,87)"/><path d="M 0 0 L 4 0 L 4 4 L 0 4 Z" fill="#FFFFFF" transform="matrix(1,0,0,1,95,87)"/><path d="M 0 0 L 4 0 L 4 4 L 0 4 Z" fill="#000000" transform="matrix(1,0,0,1,99,87)"/><path d="M 0 0 L 5 0 L 5 4 L 0 4 Z" fill="#FFFFFF" transform="matrix(1,0,0,1,103,87)"/><path d="M 0 0 L 4 0 L 4 4 L 0 4 Z" fill="#FFFFFF" transform="matrix(1,0,0,1,108,87)"/><path d="M 0 0 L 4 0 L 4 4 L 0 4 Z" fill="#FFFFFF" transform="matrix(1,0,0,1,112,87)"/><path d="M 0 0 L 4 0 L 4 4 L 0 4 Z" fill="#000000" transform="matrix(1,0,0,1,116,87)"/><path d="M 0 0 L 4 0 L 4 4 L 0 4 Z" fill="#000000" transform="matrix(1,0,0,1,0,91)"/><path d="M 0 0 L 4 0 L 4 4 L 0 4 Z" fill="#000000" transform="matrix(1,0,0,1,4,91)"/><path d="M 0 0 L 4 0 L 4 4 L 0 4 Z" fill="#000000" transform="matrix(1,0,0,1,8,91)"/><path d="M 0 0 L 5 0 L 5 4 L 0 4 Z" fill="#000000" transform="matrix(1,0,0,1,12,91)"/><path d="M 0 0 L 4 0 L 4 4 L 0 4 Z" fill="#000000" transform="matrix(1,0,0,1,17,91)"/><path d="M 0 0 L 4 0 L 4 4 L 0 4 Z" fill="#000000" transform="matrix(1,0,0,1,21,91)"/><path d="M 0 0 L 4 0 L 4 4 L 0 4 Z" fill="#000000" transform="matrix(1,0,0,1,25,91)"/><path d="M 0 0 L 4 0 L 4 4 L 0 4 Z" fill="#FFFFFF" transform="matrix(1,0,0,1,29,91)"/><path d="M 0 0 L 4 0 L 4 4 L 0 4 Z" fill="#000000" transform="matrix(1,0,0,1,33,91)"/><path d="M 0 0 L 4 0 L 4 4 L 0 4 Z" fill="#000000" transform="matrix(1,0,0,1,37,91)"/><path d="M 0 0 L 5 0 L 5 4 L 0 4 Z" fill="#000000" transform="matrix(1,0,0,1,41,91)"/><path d="M 0 0 L 4 0 L 4 4 L 0 4 Z" fill="#000000" transform="matrix(1,0,0,1,46,91)"/><path d="M 0 0 L 4 0 L 4 4 L 0 4 Z" fill="#000000" transform="matrix(1,0,0,1,50,91)"/><path d="M 0 0 L 4 0 L 4 4 L 0 4 Z" fill="#FFFFFF" transform="matrix(1,0,0,1,54,91)"/><path d="M 0 0 L 4 0 L 4 4 L 0 4 Z" fill="#FFFFFF" transform="matrix(1,0,0,1,58,91)"/><path d="M 0 0 L 4 0 L 4 4 L 0 4 Z" fill="#000000" transform="matrix(1,0,0,1,62,91)"/><path d="M 0 0 L 4 0 L 4 4 L 0 4 Z" fill="#000000" transform="matrix(1,0,0,1,66,91)"/><path d="M 0 0 L 4 0 L 4 4 L 0 4 Z" fill="#000000" transform="matrix(1,0,0,1,70,91)"/><path d="M 0 0 L 5 0 L 5 4 L 0 4 Z" fill="#000000" transform="matrix(1,0,0,1,74,91)"/><path d="M 0 0 L 4 0 L 4 4 L 0 4 Z" fill="#000000" transform="matrix(1,0,0,1,79,91)"/><path d="M 0 0 L 4 0 L 4 4 L 0 4 Z" fill="#000000" transform="matrix(1,0,0,1,83,91)"/><path d="M 0 0 L 4 0 L 4 4 L 0 4 Z" fill="#FFFFFF" transform="matrix(1,0,0,1,87,91)"/><path d="M 0 0 L 4 0 L 4 4 L 0 4 Z" fill="#000000" transform="matrix(1,0,0,1,91,91)"/><path d="M 0 0 L 4 0 L 4 4 L 0 4 Z" fill="#FFFFFF" transform="matrix(1,0,0,1,95,91)"/><path d="M 0 0 L 4 0 L 4 4 L 0 4 Z" fill="#000000" transform="matrix(1,0,0,1,99,91)"/><path d="M 0 0 L 5 0 L 5 4 L 0 4 Z" fill="#000000" transform="matrix(1,0,0,1,103,91)"/><path d="M 0 0 L 4 0 L 4 4 L 0 4 Z" fill="#000000" transform="matrix(1,0,0,1,108,91)"/><path d="M 0 0 L 4 0 L 4 4 L 0 4 Z" fill="#000000" transform="matrix(1,0,0,1,112,91)"/><path d="M 0 0 L 4 0 L 4 4 L 0 4 Z" fill="#FFFFFF" transform="matrix(1,0,0,1,116,91)"/><path d="M 0 0 L 4 0 L 4 4 L 0 4 Z" fill="#000000" transform="matrix(1,0,0,1,0,95)"/><path d="M 0 0 L 4 0 L 4 4 L 0 4 Z" fill="#FFFFFF" transform="matrix(1,0,0,1,4,95)"/><path d="M 0 0 L 4 0 L 4 4 L 0 4 Z" fill="#FFFFFF" transform="matrix(1,0,0,1,8,95)"/><path d="M 0 0 L 5 0 L 5 4 L 0 4 Z" fill="#FFFFFF" transform="matrix(1,0,0,1,12,95)"/><path d="M 0 0 L 4 0 L 4 4 L 0 4 Z" fill="#FFFFFF" transform="matrix(1,0,0,1,17,95)"/><path d="M 0 0 L 4 0 L 4 4 L 0 4 Z" fill="#FFFFFF" transform="matrix(1,0,0,1,21,95)"/><path d="M 0 0 L 4 0 L 4 4 L 0 4 Z" fill="#000000" transform="matrix(1,0,0,1,25,95)"/><path d="M 0 0 L 4 0 L 4 4 L 0 4 Z" fill="#FFFFFF" transform="matrix(1,0,0,1,29,95)"/><path d="M 0 0 L 4 0 L 4 4 L 0 4 Z" fill="#FFFFFF" transform="matrix(1,0,0,1,33,95)"/><path d="M 0 0 L 4 0 L 4 4 L 0 4 Z" fill="#000000" transform="matrix(1,0,0,1,37,95)"/><path d="M 0 0 L 5 0 L 5 4 L 0 4 Z" fill="#FFFFFF" transform="matrix(1,0,0,1,41,95)"/><path d="M 0 0 L 4 0 L 4 4 L 0 4 Z" fill="#000000" transform="matrix(1,0,0,1,46,95)"/><path d="M 0 0 L 4 0 L 4 4 L 0 4 Z" fill="#FFFFFF" transform="matrix(1,0,0,1,50,95)"/><path d="M 0 0 L 4 0 L 4 4 L 0 4 Z" fill="#FFFFFF" transform="matrix(1,0,0,1,54,95)"/><path d="M 0 0 L 4 0 L 4 4 L 0 4 Z" fill="#000000" transform="matrix(1,0,0,1,58,95)"/><path d="M 0 0 L 4 0 L 4 4 L 0 4 Z" fill="#FFFFFF" transform="matrix(1,0,0,1,62,95)"/><path d="M 0 0 L 4 0 L 4 4 L 0 4 Z" fill="#FFFFFF" transform="matrix(1,0,0,1,66,95)"/><path d="M 0 0 L 4 0 L 4 4 L 0 4 Z" fill="#FFFFFF" transform="matrix(1,0,0,1,70,95)"/><path d="M 0 0 L 5 0 L 5 4 L 0 4 Z" fill="#000000" transform="matrix(1,0,0,1,74,95)"/><path d="M 0 0 L 4 0 L 4 4 L 0 4 Z" fill="#FFFFFF" transform="matrix(1,0,0,1,79,95)"/><path d="M 0 0 L 4 0 L 4 4 L 0 4 Z" fill="#000000" transform="matrix(1,0,0,1,83,95)"/><path d="M 0 0 L 4 0 L 4 4 L 0 4 Z" fill="#FFFFFF" transform="matrix(1,0,0,1,87,95)"/><path d="M 0 0 L 4 0 L 4 4 L 0 4 Z" fill="#FFFFFF" transform="matrix(1,0,0,1,91,95)"/><path d="M 0 0 L 4 0 L 4 4 L 0 4 Z" fill="#FFFFFF" transform="matrix(1,0,0,1,95,95)"/><path d="M 0 0 L 4 0 L 4 4 L 0 4 Z" fill="#000000" transform="matrix(1,0,0,1,99,95)"/><path d="M 0 0 L 5 0 L 5 4 L 0 4 Z" fill="#FFFFFF" transform="matrix(1,0,0,1,103,95)"/><path d="M 0 0 L 4 0 L 4 4 L 0 4 Z" fill="#FFFFFF" transform="matrix(1,0,0,1,108,95)"/><path d="M 0 0 L 4 0 L 4 4 L 0 4 Z" fill="#000000" transform="matrix(1,0,0,1,112,95)"/><path d="M 0 0 L 4 0 L 4 4 L 0 4 Z" fill="#000000" transform="matrix(1,0,0,1,116,95)"/><path d="M 0 0 L 4 0 L 4 4 L 0 4 Z" fill="#000000" transform="matrix(1,0,0,1,0,99)"/><path d="M 0 0 L 4 0 L 4 4 L 0 4 Z" fill="#FFFFFF" transform="matrix(1,0,0,1,4,99)"/><path d="M 0 0 L 4 0 L 4 4 L 0 4 Z" fill="#000000" transform="matrix(1,0,0,1,8,99)"/><path d="M 0 0 L 5 0 L 5 4 L 0 4 Z" fill="#000000" transform="matrix(1,0,0,1,12,99)"/><path d="M 0 0 L 4 0 L 4 4 L 0 4 Z" fill="#000000" transform="matrix(1,0,0,1,17,99)"/><path d="M 0 0 L 4 0 L 4 4 L 0 4 Z" fill="#FFFFFF" transform="matrix(1,0,0,1,21,99)"/><path d="M 0 0 L 4 0 L 4 4 L 0 4 Z" fill="#000000" transform="matrix(1,0,0,1,25,99)"/><path d="M 0 0 L 4 0 L 4 4 L 0 4 Z" fill="#FFFFFF" transform="matrix(1,0,0,1,29,99)"/><path d="M 0 0 L 4 0 L 4 4 L 0 4 Z" fill="#000000" transform="matrix(1,0,0,1,33,99)"/><path d="M 0 0 L 4 0 L 4 4 L 0 4 Z" fill="#000000" transform="matrix(1,0,0,1,37,99)"/><path d="M 0 0 L 5 0 L 5 4 L 0 4 Z" fill="#000000" transform="matrix(1,0,0,1,41,99)"/><path d="M 0 0 L 4 0 L 4 4 L 0 4 Z" fill="#000000" transform="matrix(1,0,0,1,46,99)"/><path d="M 0 0 L 4 0 L 4 4 L 0 4 Z" fill="#FFFFFF" transform="matrix(1,0,0,1,50,99)"/><path d="M 0 0 L 4 0 L 4 4 L 0 4 Z" fill="#FFFFFF" transform="matrix(1,0,0,1,54,99)"/><path d="M 0 0 L 4 0 L 4 4 L 0 4 Z" fill="#FFFFFF" transform="matrix(1,0,0,1,58,99)"/><path d="M 0 0 L 4 0 L 4 4 L 0 4 Z" fill="#000000" transform="matrix(1,0,0,1,62,99)"/><path d="M 0 0 L 4 0 L 4 4 L 0 4 Z" fill="#FFFFFF" transform="matrix(1,0,0,1,66,99)"/><path d="M 0 0 L 4 0 L 4 4 L 0 4 Z" fill="#000000" transform="matrix(1,0,0,1,70,99)"/><path d="M 0 0 L 5 0 L 5 4 L 0 4 Z" fill="#000000" transform="matrix(1,0,0,1,74,99)"/><path d="M 0 0 L 4 0 L 4 4 L 0 4 Z" fill="#FFFFFF" transform="matrix(1,0,0,1,79,99)"/><path d="M 0 0 L 4 0 L 4 4 L 0 4 Z" fill="#000000" transform="matrix(1,0,0,1,83,99)"/><path d="M 0 0 L 4 0 L 4 4 L 0 4 Z" fill="#000000" transform="matrix(1,0,0,1,87,99)"/><path d="M 0 0 L 4 0 L 4 4 L 0 4 Z" fill="#000000" transform="matrix(1,0,0,1,91,99)"/><path d="M 0 0 L 4 0 L 4 4 L 0 4 Z" fill="#000000" transform="matrix(1,0,0,1,95,99)"/><path d="M 0 0 L 4 0 L 4 4 L 0 4 Z" fill="#000000" transform="matrix(1,0,0,1,99,99)"/><path d="M 0 0 L 5 0 L 5 4 L 0 4 Z" fill="#000000" transform="matrix(1,0,0,1,103,99)"/><path d="M 0 0 L 4 0 L 4 4 L 0 4 Z" fill="#000000" transform="matrix(1,0,0,1,108,99)"/><path d="M 0 0 L 4 0 L 4 4 L 0 4 Z" fill="#000000" transform="matrix(1,0,0,1,112,99)"/><path d="M 0 0 L 4 0 L 4 4 L 0 4 Z" fill="#000000" transform="matrix(1,0,0,1,116,99)"/><path d="M 0 0 L 4 0 L 4 5 L 0 5 Z" fill="#000000" transform="matrix(1,0,0,1,0,103)"/><path d="M 0 0 L 4 0 L 4 5 L 0 5 Z" fill="#FFFFFF" transform="matrix(1,0,0,1,4,103)"/><path d="M 0 0 L 4 0 L 4 5 L 0 5 Z" fill="#000000" transform="matrix(1,0,0,1,8,103)"/><path d="M 0 0 L 5 0 L 5 5 L 0 5 Z" fill="#000000" transform="matrix(1,0,0,1,12,103)"/><path d="M 0 0 L 4 0 L 4 5 L 0 5 Z" fill="#000000" transform="matrix(1,0,0,1,17,103)"/><path d="M 0 0 L 4 0 L 4 5 L 0 5 Z" fill="#FFFFFF" transform="matrix(1,0,0,1,21,103)"/><path d="M 0 0 L 4 0 L 4 5 L 0 5 Z" fill="#000000" transform="matrix(1,0,0,1,25,103)"/><path d="M 0 0 L 4 0 L 4 5 L 0 5 Z" fill="#FFFFFF" transform="matrix(1,0,0,1,29,103)"/><path d="M 0 0 L 4 0 L 4 5 L 0 5 Z" fill="#000000" transform="matrix(1,0,0,1,33,103)"/><path d="M 0 0 L 4 0 L 4 5 L 0 5 Z" fill="#000000" transform="matrix(1,0,0,1,37,103)"/><path d="M 0 0 L 5 0 L 5 5 L 0 5 Z" fill="#FFFFFF" transform="matrix(1,0,0,1,41,103)"/><path d="M 0 0 L 4 0 L 4 5 L 0 5 Z" fill="#FFFFFF" transform="matrix(1,0,0,1,46,103)"/><path d="M 0 0 L 4 0 L 4 5 L 0 5 Z" fill="#000000" transform="matrix(1,0,0,1,50,103)"/><path d="M 0 0 L 4 0 L 4 5 L 0 5 Z" fill="#000000" transform="matrix(1,0,0,1,54,103)"/><path d="M 0 0 L 4 0 L 4 5 L 0 5 Z" fill="#FFFFFF" transform="matrix(1,0,0,1,58,103)"/><path d="M 0 0 L 4 0 L 4 5 L 0 5 Z" fill="#FFFFFF" transform="matrix(1,0,0,1,62,103)"/><path d="M 0 0 L 4 0 L 4 5 L 0 5 Z" fill="#000000" transform="matrix(1,0,0,1,66,103)"/><path d="M 0 0 L 4 0 L 4 5 L 0 5 Z" fill="#FFFFFF" transform="matrix(1,0,0,1,70,103)"/><path d="M 0 0 L 5 0 L 5 5 L 0 5 Z" fill="#FFFFFF" transform="matrix(1,0,0,1,74,103)"/><path d="M 0 0 L 4 0 L 4 5 L 0 5 Z" fill="#000000" transform="matrix(1,0,0,1,79,103)"/><path d="M 0 0 L 4 0 L 4 5 L 0 5 Z" fill="#000000" transform="matrix(1,0,0,1,83,103)"/><path d="M 0 0 L 4 0 L 4 5 L 0 5 Z" fill="#000000" transform="matrix(1,0,0,1,87,103)"/><path d="M 0 0 L 4 0 L 4 5 L 0 5 Z" fill="#FFFFFF" transform="matrix(1,0,0,1,91,103)"/><path d="M 0 0 L 4 0 L 4 5 L 0 5 Z" fill="#000000" transform="matrix(1,0,0,1,95,103)"/><path d="M 0 0 L 4 0 L 4 5 L 0 5 Z" fill="#FFFFFF" transform="matrix(1,0,0,1,99,103)"/><path d="M 0 0 L 5 0 L 5 5 L 0 5 Z" fill="#FFFFFF" transform="matrix(1,0,0,1,103,103)"/><path d="M 0 0 L 4 0 L 4 5 L 0 5 Z" fill="#FFFFFF" transform="matrix(1,0,0,1,108,103)"/><path d="M 0 0 L 4 0 L 4 5 L 0 5 Z" fill="#000000" transform="matrix(1,0,0,1,112,103)"/><path d="M 0 0 L 4 0 L 4 5 L 0 5 Z" fill="#000000" transform="matrix(1,0,0,1,116,103)"/><path d="M 0 0 L 4 0 L 4 4 L 0 4 Z" fill="#000000" transform="matrix(1,0,0,1,0,108)"/><path d="M 0 0 L 4 0 L 4 4 L 0 4 Z" fill="#FFFFFF" transform="matrix(1,0,0,1,4,108)"/><path d="M 0 0 L 4 0 L 4 4 L 0 4 Z" fill="#000000" transform="matrix(1,0,0,1,8,108)"/><path d="M 0 0 L 5 0 L 5 4 L 0 4 Z" fill="#000000" transform="matrix(1,0,0,1,12,108)"/><path d="M 0 0 L 4 0 L 4 4 L 0 4 Z" fill="#000000" transform="matrix(1,0,0,1,17,108)"/><path d="M 0 0 L 4 0 L 4 4 L 0 4 Z" fill="#FFFFFF" transform="matrix(1,0,0,1,21,108)"/><path d="M 0 0 L 4 0 L 4 4 L 0 4 Z" fill="#000000" transform="matrix(1,0,0,1,25,108)"/><path d="M 0 0 L 4 0 L 4 4 L 0 4 Z" fill="#FFFFFF" transform="matrix(1,0,0,1,29,108)"/><path d="M 0 0 L 4 0 L 4 4 L 0 4 Z" fill="#000000" transform="matrix(1,0,0,1,33,108)"/><path d="M 0 0 L 4 0 L 4 4 L 0 4 Z" fill="#000000" transform="matrix(1,0,0,1,37,108)"/><path d="M 0 0 L 5 0 L 5 4 L 0 4 Z" fill="#FFFFFF" transform="matrix(1,0,0,1,41,108)"/><path d="M 0 0 L 4 0 L 4 4 L 0 4 Z" fill="#FFFFFF" transform="matrix(1,0,0,1,46,108)"/><path d="M 0 0 L 4 0 L 4 4 L 0 4 Z" fill="#FFFFFF" transform="matrix(1,0,0,1,50,108)"/><path d="M 0 0 L 4 0 L 4 4 L 0 4 Z" fill="#000000" transform="matrix(1,0,0,1,54,108)"/><path d="M 0 0 L 4 0 L 4 4 L 0 4 Z" fill="#000000" transform="matrix(1,0,0,1,58,108)"/><path d="M 0 0 L 4 0 L 4 4 L 0 4 Z" fill="#000000" transform="matrix(1,0,0,1,62,108)"/><path d="M 0 0 L 4 0 L 4 4 L 0 4 Z" fill="#000000" transform="matrix(1,0,0,1,66,108)"/><path d="M 0 0 L 4 0 L 4 4 L 0 4 Z" fill="#FFFFFF" transform="matrix(1,0,0,1,70,108)"/><path d="M 0 0 L 5 0 L 5 4 L 0 4 Z" fill="#FFFFFF" transform="matrix(1,0,0,1,74,108)"/><path d="M 0 0 L 4 0 L 4 4 L 0 4 Z" fill="#FFFFFF" transform="matrix(1,0,0,1,79,108)"/><path d="M 0 0 L 4 0 L 4 4 L 0 4 Z" fill="#FFFFFF" transform="matrix(1,0,0,1,83,108)"/><path d="M 0 0 L 4 0 L 4 4 L 0 4 Z" fill="#FFFFFF" transform="matrix(1,0,0,1,87,108)"/><path d="M 0 0 L 4 0 L 4 4 L 0 4 Z" fill="#000000" transform="matrix(1,0,0,1,91,108)"/><path d="M 0 0 L 4 0 L 4 4 L 0 4 Z" fill="#FFFFFF" transform="matrix(1,0,0,1,95,108)"/><path d="M 0 0 L 4 0 L 4 4 L 0 4 Z" fill="#000000" transform="matrix(1,0,0,1,99,108)"/><path d="M 0 0 L 5 0 L 5 4 L 0 4 Z" fill="#FFFFFF" transform="matrix(1,0,0,1,103,108)"/><path d="M 0 0 L 4 0 L 4 4 L 0 4 Z" fill="#000000" transform="matrix(1,0,0,1,108,108)"/><path d="M 0 0 L 4 0 L 4 4 L 0 4 Z" fill="#000000" transform="matrix(1,0,0,1,112,108)"/><path d="M 0 0 L 4 0 L 4 4 L 0 4 Z" fill="#FFFFFF" transform="matrix(1,0,0,1,116,108)"/><path d="M 0 0 L 4 0 L 4 4 L 0 4 Z" fill="#000000" transform="matrix(1,0,0,1,0,112)"/><path d="M 0 0 L 4 0 L 4 4 L 0 4 Z" fill="#FFFFFF" transform="matrix(1,0,0,1,4,112)"/><path d="M 0 0 L 4 0 L 4 4 L 0 4 Z" fill="#FFFFFF" transform="matrix(1,0,0,1,8,112)"/><path d="M 0 0 L 5 0 L 5 4 L 0 4 Z" fill="#FFFFFF" transform="matrix(1,0,0,1,12,112)"/><path d="M 0 0 L 4 0 L 4 4 L 0 4 Z" fill="#FFFFFF" transform="matrix(1,0,0,1,17,112)"/><path d="M 0 0 L 4 0 L 4 4 L 0 4 Z" fill="#FFFFFF" transform="matrix(1,0,0,1,21,112)"/><path d="M 0 0 L 4 0 L 4 4 L 0 4 Z" fill="#000000" transform="matrix(1,0,0,1,25,112)"/><path d="M 0 0 L 4 0 L 4 4 L 0 4 Z" fill="#FFFFFF" transform="matrix(1,0,0,1,29,112)"/><path d="M 0 0 L 4 0 L 4 4 L 0 4 Z" fill="#000000" transform="matrix(1,0,0,1,33,112)"/><path d="M 0 0 L 4 0 L 4 4 L 0 4 Z" fill="#000000" transform="matrix(1,0,0,1,37,112)"/><path d="M 0 0 L 5 0 L 5 4 L 0 4 Z" fill="#000000" transform="matrix(1,0,0,1,41,112)"/><path d="M 0 0 L 4 0 L 4 4 L 0 4 Z" fill="#FFFFFF" transform="matrix(1,0,0,1,46,112)"/><path d="M 0 0 L 4 0 L 4 4 L 0 4 Z" fill="#000000" transform="matrix(1,0,0,1,50,112)"/><path d="M 0 0 L 4 0 L 4 4 L 0 4 Z" fill="#000000" transform="matrix(1,0,0,1,54,112)"/><path d="M 0 0 L 4 0 L 4 4 L 0 4 Z" fill="#FFFFFF" transform="matrix(1,0,0,1,58,112)"/><path d="M 0 0 L 4 0 L 4 4 L 0 4 Z" fill="#000000" transform="matrix(1,0,0,1,62,112)"/><path d="M 0 0 L 4 0 L 4 4 L 0 4 Z" fill="#000000" transform="matrix(1,0,0,1,66,112)"/><path d="M 0 0 L 4 0 L 4 4 L 0 4 Z" fill="#FFFFFF" transform="matrix(1,0,0,1,70,112)"/><path d="M 0 0 L 5 0 L 5 4 L 0 4 Z" fill="#000000" transform="matrix(1,0,0,1,74,112)"/><path d="M 0 0 L 4 0 L 4 4 L 0 4 Z" fill="#FFFFFF" transform="matrix(1,0,0,1,79,112)"/><path d="M 0 0 L 4 0 L 4 4 L 0 4 Z" fill="#000000" transform="matrix(1,0,0,1,83,112)"/><path d="M 0 0 L 4 0 L 4 4 L 0 4 Z" fill="#000000" transform="matrix(1,0,0,1,87,112)"/><path d="M 0 0 L 4 0 L 4 4 L 0 4 Z" fill="#FFFFFF" transform="matrix(1,0,0,1,91,112)"/><path d="M 0 0 L 4 0 L 4 4 L 0 4 Z" fill="#FFFFFF" transform="matrix(1,0,0,1,95,112)"/><path d="M 0 0 L 4 0 L 4 4 L 0 4 Z" fill="#000000" transform="matrix(1,0,0,1,99,112)"/><path d="M 0 0 L 5 0 L 5 4 L 0 4 Z" fill="#FFFFFF" transform="matrix(1,0,0,1,103,112)"/><path d="M 0 0 L 4 0 L 4 4 L 0 4 Z" fill="#FFFFFF" transform="matrix(1,0,0,1,108,112)"/><path d="M 0 0 L 4 0 L 4 4 L 0 4 Z" fill="#000000" transform="matrix(1,0,0,1,112,112)"/><path d="M 0 0 L 4 0 L 4 4 L 0 4 Z" fill="#FFFFFF" transform="matrix(1,0,0,1,116,112)"/><path d="M 0 0 L 4 0 L 4 4 L 0 4 Z" fill="#000000" transform="matrix(1,0,0,1,0,116)"/><path d="M 0 0 L 4 0 L 4 4 L 0 4 Z" fill="#000000" transform="matrix(1,0,0,1,4,116)"/><path d="M 0 0 L 4 0 L 4 4 L 0 4 Z" fill="#000000" transform="matrix(1,0,0,1,8,116)"/><path d="M 0 0 L 5 0 L 5 4 L 0 4 Z" fill="#000000" transform="matrix(1,0,0,1,12,116)"/><path d="M 0 0 L 4 0 L 4 4 L 0 4 Z" fill="#000000" transform="matrix(1,0,0,1,17,116)"/><path d="M 0 0 L 4 0 L 4 4 L 0 4 Z" fill="#000000" transform="matrix(1,0,0,1,21,116)"/><path d="M 0 0 L 4 0 L 4 4 L 0 4 Z" fill="#000000" transform="matrix(1,0,0,1,25,116)"/><path d="M 0 0 L 4 0 L 4 4 L 0 4 Z" fill="#FFFFFF" transform="matrix(1,0,0,1,29,116)"/><path d="M 0 0 L 4 0 L 4 4 L 0 4 Z" fill="#000000" transform="matrix(1,0,0,1,33,116)"/><path d="M 0 0 L 4 0 L 4 4 L 0 4 Z" fill="#FFFFFF" transform="matrix(1,0,0,1,37,116)"/><path d="M 0 0 L 5 0 L 5 4 L 0 4 Z" fill="#000000" transform="matrix(1,0,0,1,41,116)"/><path d="M 0 0 L 4 0 L 4 4 L 0 4 Z" fill="#FFFFFF" transform="matrix(1,0,0,1,46,116)"/><path d="M 0 0 L 4 0 L 4 4 L 0 4 Z" fill="#000000" transform="matrix(1,0,0,1,50,116)"/><path d="M 0 0 L 4 0 L 4 4 L 0 4 Z" fill="#FFFFFF" transform="matrix(1,0,0,1,54,116)"/><path d="M 0 0 L 4 0 L 4 4 L 0 4 Z" fill="#000000" transform="matrix(1,0,0,1,58,116)"/><path d="M 0 0 L 4 0 L 4 4 L 0 4 Z" fill="#000000" transform="matrix(1,0,0,1,62,116)"/><path d="M 0 0 L 4 0 L 4 4 L 0 4 Z" fill="#FFFFFF" transform="matrix(1,0,0,1,66,116)"/><path d="M 0 0 L 4 0 L 4 4 L 0 4 Z" fill="#000000" transform="matrix(1,0,0,1,70,116)"/><path d="M 0 0 L 5 0 L 5 4 L 0 4 Z" fill="#FFFFFF" transform="matrix(1,0,0,1,74,116)"/><path d="M 0 0 L 4 0 L 4 4 L 0 4 Z" fill="#000000" transform="matrix(1,0,0,1,79,116)"/><path d="M 0 0 L 4 0 L 4 4 L 0 4 Z" fill="#FFFFFF" transform="matrix(1,0,0,1,83,116)"/><path d="M 0 0 L 4 0 L 4 4 L 0 4 Z" fill="#000000" transform="matrix(1,0,0,1,87,116)"/><path d="M 0 0 L 4 0 L 4 4 L 0 4 Z" fill="#FFFFFF" transform="matrix(1,0,0,1,91,116)"/><path d="M 0 0 L 4 0 L 4 4 L 0 4 Z" fill="#000000" transform="matrix(1,0,0,1,95,116)"/><path d="M 0 0 L 4 0 L 4 4 L 0 4 Z" fill="#000000" transform="matrix(1,0,0,1,99,116)"/><path d="M 0 0 L 5 0 L 5 4 L 0 4 Z" fill="#000000" transform="matrix(1,0,0,1,103,116)"/><path d="M 0 0 L 4 0 L 4 4 L 0 4 Z" fill="#000000" transform="matrix(1,0,0,1,108,116)"/><path d="M 0 0 L 4 0 L 4 4 L 0 4 Z" fill="#FFFFFF" transform="matrix(1,0,0,1,112,116)"/><path d="M 0 0 L 4 0 L 4 4 L 0 4 Z" fill="#FFFFFF" transform="matrix(1,0,0,1,116,116)"/></svg>