<svg xmlns="http://www.w3.org/2000/svg" viewBox="0 0 75 36" class="Icon_icon__w6Pjo" preserveAspectRatio=""><path fill="#628EBA" d="M37.8 22.5c-9 0-17 4-22.5 10.2l1.2 1.2c5.2-5.9 12.8-9.7 21.1-9.7 8.7 0 16.4 4 21.6 10.2l1.4-1.2C55.1 26.7 47 22.5 37.8 22.5zm.4-21.1c-14.5 0-27.5 6-36.7 15.7L3 18.7C11.7 9.4 24.3 3.5 38.2 3.5c13.7 0 26 5.7 34.8 14.9l1.6-1.6C65.3 7.3 52.5 1.4 38.2 1.4zM20.7 22c0-1.5-.5-2.6-1.5-3.8l-4.6-5.7-2 1.7 4.1 5.1c1.3 1.6 2.1 3.1.4 4.8-2.1 1.7-3.6.8-4.6-.4L7.8 18l-2 1.6 4.8 6c.9 1.1 2.2 2 4.1 2 1.4 0 2.7-.6 3.5-1.3 1.5-1.1 2.5-2.6 2.5-4.3zM33 6.6l-7.4 1.5c-1.1.3-1.3.7-1 1.7l1.6 7.8c.4 1.7 1.3 3.3 4.8 2.6l4.6-.9-.5-2.4-4.5.9c-1.2.3-1.7 0-2-1.1l-.3-1.3 5.8-1.2-.5-2.3-5.7 1.2-.6-2.8 6.3-1.2-.6-2.5zm15.9 3.9l4.1 1.1.6-2.4L49.1 8c-1.6-.4-4.2-.7-5.1 2.3l-1.9 7.4c-.5 1.6 0 1.9 1 2.2l1.1.2 1.3-5.1 5.7 1.5.6-2.3-5.6-1.4.4-1.5c.3-1.3 1.2-1.1 2.3-.8zm16.4 5c-.5-.4-1.1-.4-1.9.2l-10.8 6.9L55 24l8-5.2-1.3 4.2-1-.8-2.2 1.4 2.4 1.9-.6 2.5 2.1 2 3.3-11.6c.5-1.9.4-2 0-2.4l-.4-.5z"/></svg>