<svg baseProfile="basic" xmlns="http://www.w3.org/2000/svg" viewBox="0 0 59 46" class="Icon_icon__w6Pjo" preserveAspectRatio=""><path fill="#628EBA" d="M21.9 3.3C12.8 6.8 5.5 13.2 2.2 20.4c-2 4.6-2.3 9.2-.7 13.3 2.8 7.2 10.9 11.7 21.3 11.7 4.7 0 9.6-.9 14.3-2.7 9.1-3.5 16.5-9.9 19.7-17.1 2-4.6 2.3-9.2.7-13.3C54.7 5.1 46.5.6 36.2.6c-4.7 0-9.6.9-14.3 2.7"/><path fill="#FFF" d="M47.7 27.9c0 1.1-.9 2-1.9 2-1.1 0-1.9-.9-1.9-2s.9-2 1.9-2c1 0 1.9.9 1.9 2"/><path fill="#E3F2FF" d="M40.9 17.9c0-1-.7-1.6-1.7-1.7H25.5c-.7 0-1.2.4-1.5.9-.1.2-.2.3-.2.3L21 23.8s-2.6-5.8-2.7-6l-.2-.4c-.4-.9-1-1.3-1.7-1.3-.6 0-1.2.3-1.7 1.2 0 0-.1.1-.2.4S12 23.8 12 23.8l-2.7-6.1-.1-.2c-.4-.8-.8-1.3-1.7-1.3-.6 0-1.2.3-1.5.9-.2.3-.4.8 0 1.7 0 .1 0 .1.1.3.6 1.4 3.4 7.7 4.1 9.3.1.2.2.3.2.5.4.7.9 1.1 1.5 1.1s1.2-.3 1.6-1.1l.3-.6 2.7-6.1s2.7 6.2 2.8 6.3c.1.1.1.2.2.4.3.6.8 1 1.5 1s1.1-.4 1.5-1c.1-.1.1-.3.3-.5.1-.2 3.9-8.8 3.9-8.8h4.4V28c0 1 .8 1.8 1.7 1.8 1 0 1.7-.8 1.7-1.8v-8.4h4.7c.9 0 1.7-.8 1.7-1.7m11.9 8.9l-.1-.2-5.3-9.3-.2-.3c-.4-.6-.8-.9-1.5-1-.7 0-1.1.4-1.5 1l-.2.3-5.2 9.2-.2.3c-.2.4-.4.7-.4 1.2 0 1 .7 1.7 1.7 1.7.6 0 1.1-.4 1.5-1l.2-.2 4.1-7.3 4.1 7.3.1.2c.4.6.9 1 1.6 1 .9 0 1.7-.7 1.7-1.7 0-.4-.2-.8-.4-1.2"/></svg>