<svg xmlns="http://www.w3.org/2000/svg" viewBox="0 0 75.74 42.1" class="Icon_icon__w6Pjo" preserveAspectRatio=""><path class="cls-1" d="M52.89 41.9c-3.8-2.5-3.5-5.1-.4-8 4.2-4 8.3-8.1 13.1-12.7-4.4-4.4-8.5-8.8-12.8-12.7-3.4-3.1-3.4-5.8.2-8.5h3l17.6 17c2.8 2.7 2.9 5.2.1 8.1-5.6 5.6-11.1 11.3-16.6 17a30.24 30.24 0 00-4.2-.2zm-50.1 0c-3.8-2.5-3.5-5.1-.4-8 4.2-4 8.3-8.1 13.1-12.7-4.4-4.4-8.49-8.8-12.8-12.7-3.4-3.1-3.4-5.8.2-8.5h3l17.6 17c2.8 2.7 2.9 5.2.1 8.1C18 30.7 12.49 36.4 7 42.1a31 31 0 00-4.21-.2z"/><path class="cls-1" d="M27.79 41.9c-3.8-2.5-3.5-5.1-.4-8 4.2-4 8.3-8.1 13.1-12.7-4.4-4.4-8.5-8.8-12.8-12.7-3.4-3.1-3.4-5.8.2-8.5h3l17.6 17c2.8 2.7 2.9 5.2.1 8.1C43 30.7 37.49 36.4 32 42.1a31 31 0 00-4.21-.2z"/></svg>