<svg viewBox="0 0 20 20" xmlns="http://www.w3.org/2000/svg" class="Icon_icon__w6Pjo" preserveAspectRatio=""><g clip-path="url(#clip0_8219_554__diNzh6Ng)"><path d="M7.37 19.68a2.13 2.13 0 01-.808-4.09 2.12 2.12 0 012.308.46c.394.4.616.938.62 1.5a2.13 2.13 0 01-2.12 2.13zm7.4 0a2.13 2.13 0 01-.808-4.09 2.12 2.12 0 012.308.46c.394.4.616.938.62 1.5a2.13 2.13 0 01-2.12 2.13zM.99 4.68a1 1 0 01-.926-1.384A1 1 0 01.28 2.97a1 1 0 01.7-.31h1.21a2 2 0 012 1.6l1.32 6a2 2 0 002 1.6h7.94l1.53-6.13H14.1a1 1 0 01-.69-.31.998.998 0 010-1.42 1 1 0 01.69-.31h2.88a2.07 2.07 0 011.6.78c.19.248.322.535.39.84a2 2 0 010 .92l-1.52 6.13a2 2 0 01-.73 1.11 2 2 0 01-1.25.43H7.53a4.08 4.08 0 01-2.55-.89 4.13 4.13 0 01-1.42-2.31l-1.33-6-1.24-.02zm11.16-2.39l-1.78-.15a.47.47 0 01-.38-.27L9.29.23a.45.45 0 00-.82 0l-.7 1.65a.47.47 0 01-.38.27l-1.78.15a.45.45 0 00-.26.79l1.39 1.17a.44.44 0 01.14.45l-.4 1.72a.45.45 0 00.66.49l1.54-.93a.47.47 0 01.46 0l1.54.92a.45.45 0 00.67-.48l-.4-1.73a.439.439 0 01.14-.45l1.35-1.15a.45.45 0 00-.29-.77v-.04z"/></g><defs><clipPath id="clip0_8219_554__diNzh6Ng"><path fill="#fff" d="M0 0h20v20H0z"/></clipPath></defs></svg>