<svg width="20" height="20" viewBox="0 0 20 20" fill="none" xmlns="http://www.w3.org/2000/svg" class="Icon_icon__w6Pjo" preserveAspectRatio=""><g clip-path="url(#clip0_7212_4015__K7PdcN0q)"><path opacity="0.2" d="M10 0C8.02219 0 6.08879 0.58649 4.4443 1.6853C2.79981 2.78412 1.51809 4.3459 0.761209 6.17317C0.00433284 8.00043 -0.193701 10.0111 0.192152 11.9509C0.578004 13.8907 1.53041 15.6725 2.92894 17.0711C4.32746 18.4696 6.10929 19.422 8.0491 19.8079C9.98891 20.1937 11.9996 19.9957 13.8268 19.2388C15.6541 18.4819 17.2159 17.2002 18.3147 15.5557C19.4135 13.9112 20 11.9778 20 10C20 8.68678 19.7413 7.38642 19.2388 6.17317C18.7363 4.95991 17.9997 3.85752 17.0711 2.92893C16.1425 2.00035 15.0401 1.26375 13.8268 0.761205C12.6136 0.258658 11.3132 0 10 0ZM10 18C8.41775 18 6.87104 17.5308 5.55544 16.6518C4.23985 15.7727 3.21447 14.5233 2.60897 13.0615C2.00347 11.5997 1.84504 9.99113 2.15372 8.43928C2.4624 6.88743 3.22433 5.46197 4.34315 4.34315C5.46197 3.22433 6.88743 2.4624 8.43928 2.15372C9.99113 1.84504 11.5997 2.00346 13.0615 2.60896C14.5233 3.21447 15.7727 4.23984 16.6518 5.55544C17.5308 6.87103 18 8.41775 18 10C18 12.1217 17.1572 14.1566 15.6569 15.6569C14.1566 17.1571 12.1217 18 10 18Z" fill="white"/><path d="M11.5625 13.75C11.5625 13.9986 11.4637 14.2371 11.2879 14.4129C11.1121 14.5887 10.8736 14.6875 10.625 14.6875H9.99998C9.75134 14.6875 9.51288 14.5887 9.33706 14.4129C9.16125 14.2371 9.06247 13.9986 9.06247 13.75V10.5716C8.85397 10.4979 8.67825 10.3528 8.56636 10.162C8.45447 9.97128 8.41361 9.7471 8.451 9.52912C8.4884 9.31114 8.60163 9.1134 8.77071 8.97083C8.93979 8.82826 9.15381 8.75004 9.37497 8.75H9.99998C10.2486 8.75 10.4871 8.84877 10.6629 9.02459C10.8387 9.2004 10.9375 9.43886 10.9375 9.6875V12.8658C11.1203 12.9305 11.2785 13.0502 11.3905 13.2086C11.5024 13.3669 11.5625 13.5561 11.5625 13.75ZM8.59365 6.5625C8.59365 6.31527 8.66696 6.0736 8.80431 5.86804C8.94166 5.66248 9.13689 5.50226 9.36529 5.40765C9.5937 5.31304 9.84503 5.28829 10.0875 5.33652C10.33 5.38475 10.5527 5.5038 10.7275 5.67862C10.9023 5.85343 11.0214 6.07616 11.0696 6.31864C11.1179 6.56111 11.0931 6.81245 10.9985 7.04085C10.9039 7.26926 10.7437 7.46449 10.5381 7.60184C10.3325 7.73919 10.0909 7.8125 9.84365 7.8125C9.51213 7.8125 9.19418 7.6808 8.95976 7.44638C8.72534 7.21196 8.59365 6.89402 8.59365 6.5625Z" fill="white"/></g><defs><clipPath id="clip0_7212_4015__K7PdcN0q"><rect width="20" height="20" fill="white"/></clipPath></defs></svg>