<svg version="1.1" id="Layer_1" x="0px" y="0px" viewBox="0 0 20 18" xmlns="http://www.w3.org/2000/svg" xmlns:bx="https://boxy-svg.com" class="Icon_icon__w6Pjo" preserveAspectRatio=""><style type="text/css">
	.field_st0{fill-rule:evenodd;clip-rule:evenodd;}
</style><path class="field_st0" d="M 17 0 L 3 0 C 1.3 0 0 1.463 0 3.375 L 0 4.5 L 0 4.5 L 0 13.5 L 0 13.5 L 0 14.625 C 0 16.537 1.3 18 3 18 L 17 18 C 18.7 18 20 16.537 20 14.625 L 20 3.375 C 20 1.463 18.7 0 17 0 Z M 2 6.75 L 4 6.75 L 4 11.25 L 2 11.25 L 2 6.75 Z M 9 15.75 L 3 15.75 C 2.4 15.75 2 15.3 2 14.625 L 2 13.5 L 6 13.5 L 6 4.5 L 2 4.5 L 2 3.375 C 2 2.7 2.4 2.25 3 2.25 L 9 2.25 L 9 5.85 C 7.8 6.3 7 7.538 7 9 C 7 10.463 7.8 11.7 9 12.15 L 9 15.75 Z M 10 10.125 C 9.4 10.125 9 9.675 9 9 C 9 8.325 9.4 7.875 10 7.875 C 10.6 7.875 11 8.325 11 9 C 11 9.675 10.6 10.125 10 10.125 Z M 18 11.25 L 16 11.25 L 16 6.75 L 18 6.75 L 18 11.25 Z M 18 4.5 L 14 4.5 L 14 13.5 L 18 13.5 L 18 14.625 C 18 15.3 17.6 15.75 17 15.75 L 11 15.75 L 11 12.15 C 12.2 11.7 13 10.463 13 9 C 13 7.538 12.2 6.3 11 5.85 L 11 2.25 L 17 2.25 C 17.6 2.25 18 2.7 18 3.375 L 18 4.5 Z" bx:origin="0.5 0.388889"/></svg>