<svg viewBox="0 0 41 40" xmlns="http://www.w3.org/2000/svg" class="Icon_icon__w6Pjo" preserveAspectRatio=""><g clip-path="url(#clip0_6370_941__6ZkmBQ2C)"><path d="M20 40c-5.17 0-10.08-1.97-13.82-5.54-.73-.68-1.4-1.43-2-2.22-.81-1.03-1.51-2.15-2.09-3.34-.37-.72-.69-1.46-.96-2.22a20.138 20.138 0 01-.26-12.54c1.25-4.07 3.83-7.7 7.25-10.23C11.59 1.35 15.7 0 20.01 0c4.31 0 8.53 1.39 11.95 3.91 3.43 2.53 6 6.16 7.25 10.23s1.15 8.52-.27 12.54c-.28.76-.63 1.51-1.02 2.22-.58 1.19-1.28 2.31-2.09 3.34-.6.79-1.27 1.54-2 2.22A19.978 19.978 0 0120 40zm.06-2.01c3.77 0 7.38-1.17 10.44-3.37l.25-.18H9.32l.25.18c3.06 2.21 6.67 3.37 10.44 3.37h.05zM4.49 29c.7 1.22 1.54 2.36 2.52 3.37L33 32.4c1.05-1.05 1.89-2.18 2.59-3.4l.09-.15H4.4l.09.15zM20.04 2.03c-3.92 0-7.79 1.31-10.91 3.69s-5.4 5.77-6.43 9.55c-1.03 3.78-.79 7.86.68 11.49l.03.06h33.27l.03-.06c1.47-3.63 1.71-7.71.68-11.49a18.092 18.092 0 00-6.43-9.55c-3.13-2.38-7-3.69-10.92-3.69z"/><path d="M7.75 21.03a1.03 1.03 0 01-1.02-1.02c0-3.55 1.38-6.9 3.9-9.41 2.51-2.51 5.85-3.9 9.41-3.9 2.36 0 4.64.62 6.64 1.79l-1.5 1.5c-1.58-.82-3.34-1.25-5.12-1.25-3.04 0-5.87 1.17-8 3.3s-3.3 4.96-3.3 7.97c0 .36-.19.7-.51.88-.15.09-.32.14-.5.14zm24.58 0a1.03 1.03 0 01-1.02-1.02c0-1.78-.43-3.56-1.25-5.14l1.5-1.5c1.18 2.01 1.79 4.31 1.79 6.64a1.03 1.03 0 01-1.02 1.02zm-12.29 2.79c-1.02 0-1.97-.4-2.69-1.12a3.792 3.792 0 010-5.38c.72-.72 1.68-1.12 2.69-1.12h.12c.59 0 1.17.14 1.69.4l.06.03 6.84-6.84 1.17-1.12c.19-.19.45-.3.72-.3h.01c.34 0 .58.1.77.29.21.2.32.48.31.76-.01.29-.14.56-.36.74l-1.18 1.12-6.85 6.85.04.07c.3.55.46 1.18.46 1.81 0 1.02-.4 1.97-1.12 2.69-.71.72-1.66 1.12-2.68 1.12zm0-5.59c-.47 0-.93.19-1.26.52-.33.33-.52.79-.52 1.26s.19.93.52 1.26c.34.34.78.52 1.26.52.47 0 .93-.19 1.26-.52.33-.33.52-.79.52-1.26l-.02-.13c-.01-.41-.19-.83-.51-1.14-.31-.31-.73-.49-1.17-.51h-.08z"/></g><defs><clipPath id="clip0_6370_941__6ZkmBQ2C"><path fill="#fff" d="M0 0h40.07v40H0z"/></clipPath></defs></svg>