<svg xmlns="http://www.w3.org/2000/svg" width="233" height="40"><path fill="#fff" d="M231.722 13.333h-7.914l-3.833 20h-8.705l3.833-20h-7.702l1.278-6.666H233zm-43.738 0l-.639 3.334h11.494l-1.28 6.666h-11.492l-.638 3.334h13.082l-1.28 6.666h-21.785l5.11-26.666h21.57l-1.28 6.666zm-21.473 6.32c1.124.507 1.992 1.197 2.604 2.071.612.874.918 1.92.918 3.135 0 2.812-1.143 4.928-3.428 6.346-2.286 1.42-5.227 2.128-8.824 2.128h-15.137l5.246-26.6h13.9c3.073 0 5.408.551 7.007 1.653 1.598 1.102 2.398 2.667 2.398 4.693 0 1.495-.412 2.806-1.237 3.933-.824 1.128-1.973 2.008-3.447 2.641zm-13.979 7.014h5.26c.907 0 1.785-.747 1.962-1.667.176-.92-.416-1.667-1.324-1.667h-5.259zm7.157-13.334h-4.601l-.639 3.334h4.601c.908 0 1.787-.746 1.963-1.667.176-.92-.416-1.667-1.324-1.667zm-27.578 0l-3.833 20h-8.705l3.833-20h-7.703l1.278-6.666h24.321l-1.277 6.666zm-28.377.126a14.732 14.732 0 00-3.803-.494c-1.224 0-2.173.178-2.847.532-.675.355-1.012.773-1.012 1.254 0 .482.306.862.918 1.14.612.28 1.617.583 3.016.912 1.698.406 3.129.836 4.29 1.292a7.76 7.76 0 013.016 2.128c.85.963 1.274 2.23 1.274 3.8 0 1.976-.537 3.712-1.611 5.206-1.074 1.495-2.61 2.654-4.608 3.477-2 .823-4.347 1.235-7.044 1.235-2.274 0-4.41-.247-6.407-.74-2-.495-3.648-1.147-4.946-1.958l3.41-6.612c2.822 1.647 5.77 2.47 8.842 2.47 1.124 0 1.986-.139 2.585-.418.6-.278.9-.658.9-1.14 0-.456-.307-.823-.919-1.102-.612-.278-1.58-.582-2.903-.912-1.75-.456-3.198-.918-4.347-1.387-1.149-.468-2.154-1.19-3.016-2.166-.862-.975-1.292-2.26-1.292-3.857 0-2 .53-3.755 1.592-5.263 1.061-1.507 2.591-2.672 4.59-3.496 1.998-.823 4.358-1.235 7.081-1.235 1.948 0 3.766.197 5.452.59 1.686.392 3.14.956 4.365 1.69l-3.185 6.536a11.889 11.889 0 00-3.39-1.482zm-80.07 19.874L26 21.128l-8.671 12.205h-2.61l-3.734-11.98-2.293 11.98H0L5.103 6.667h8.845l4.415 14.163L28.425 6.667h9.035l-5.104 26.666zM80.518 20c0 11.046-8.829 20-19.72 20-10.891 0-19.72-8.954-19.72-20s8.829-20 19.72-20c10.891 0 19.72 8.954 19.72 20zM61.12 26.6l8.987 5.442-2.373-10.27 7.94-6.912-10.46-.896-4.082-9.682-4.091 9.686-10.46.908 7.93 6.903-2.383 10.273z"/></svg>