<svg xmlns="http://www.w3.org/2000/svg" viewBox="0 0 20 16" class="Icon_icon__w6Pjo" preserveAspectRatio=""><path d="M9.042 15.995a3.22 3.22 0 01-2.066-.752l-1.738-1.46c-2.051-1.72-2.78-3.9-2.998-4.757A7.563 7.563 0 00.273 5.615a.934.934 0 01-.278-.667c0-.253.099-.49.278-.668L4.26.315a.948.948 0 01.67-.276.94.94 0 01.67.276l1.426 1.418 2.7.517a3.766 3.766 0 012.34-.788c.436 0 .796.069 1.009.117L14.403.26a.946.946 0 01.67-.275.95.95 0 01.67.275l3.985 3.966c.37.37.37.968 0 1.336l-1.515 1.5a8.669 8.669 0 01-2.499 3.98 2.07 2.07 0 01-.935 1.833l-3.982 2.597a3.208 3.208 0 01-1.755.522zM2.25 4.982a9.327 9.327 0 011.812 3.52c.186.733.766 2.47 2.398 3.84L8.2 13.8c.234.196.534.304.845.304a1.3 1.3 0 00.713-.21l3.982-2.598c.062-.04.077-.1.08-.13a.174.174 0 00-.051-.144C11.703 8.989 11.397 8.645 11 8.242l-.176-.18-.34.338a3.189 3.189 0 01-2.264.932c-.857 0-2.232-.876-2.835-1.477a.935.935 0 01-.278-.668.93.93 0 01.278-.667l2.68-2.667-1.682-.322a.944.944 0 01-.492-.26l-.96-.956zm12.507 4.356a6.808 6.808 0 001.69-3.005.948.948 0 01.25-.431l1.017-1.009-2.644-2.63-1.02 1.011a.945.945 0 01-.863.256l-.693-.144a1.997 1.997 0 00-1.826.544L7.685 6.9c.501.456 1.22.403 1.458.166l.923-.918a.95.95 0 011.31-.03c.093.084.686.34.879.34.348 0 .677-.135.924-.382a.946.946 0 01.67-.275.944.944 0 01.671 1.61 3.2 3.2 0 01-.997.676z"/></svg>