<svg xmlns="http://www.w3.org/2000/svg" width="46" height="56" fill="none"><g filter="url(#a)"><path fill="#FFBA00" d="M15.394 44.005a1.008 1.008 0 0 1-.99-1.15l2.36-15.31H3.994a1.002 1.002 0 0 1-.7-1.71l21.53-21.54c.31-.31.77-.38 1.16-.19.39.2.6.62.54 1.04l-2.36 15.31h12.77c.4 0 .77.24.92.62.16.37.07.8-.22 1.09l-21.53 21.55c-.19.19-.45.29-.71.29Zm-8.99-18.47h11.52c.29 0 .57.13.76.35.19.22.27.51.23.8l-2.07 13.45 17.67-17.66h-11.52c-.29 0-.57-.13-.76-.35-.19-.22-.27-.52-.23-.8l2.07-13.45-17.67 17.66Z"/></g><defs><filter id="a" width="50.933" height="56.006" x="-5" y="0" color-interpolation-filters="sRGB" filterUnits="userSpaceOnUse"><feFlood flood-opacity="0" result="BackgroundImageFix"/><feColorMatrix in="SourceAlpha" result="hardAlpha" values="0 0 0 0 0 0 0 0 0 0 0 0 0 0 0 0 0 0 127 0"/><feOffset dy="4"/><feGaussianBlur stdDeviation="4"/><feComposite in2="hardAlpha" operator="out"/><feColorMatrix values="0 0 0 0 1 0 0 0 0 0.729412 0 0 0 0 0 0 0 0 0.25 0"/><feBlend in2="BackgroundImageFix" result="effect1_dropShadow_54688_1186"/><feBlend in="SourceGraphic" in2="effect1_dropShadow_54688_1186" result="shape"/></filter></defs></svg>