<svg width="16" height="18" viewBox="0 0 16 18" fill="none" xmlns="http://www.w3.org/2000/svg" class="Icon_icon__w6Pjo" preserveAspectRatio=""><path d="M5.8 18.0008C5.65 18.0008 5.5 17.9708 5.36 17.9008C4.96 17.7008 4.74 17.2608 4.82 16.8208L5.67 12.0608H1C0.600004 12.0608 0.250004 11.8308 0.0900036 11.4708C-0.0699964 11.1108 3.57628e-06 10.6908 0.260004 10.3908L9.32 0.330804C9.62 0.000803649 10.1 -0.0991964 10.5 0.100804C10.9 0.300804 11.12 0.740804 11.04 1.1808L10.18 5.9408H14.85C15.24 5.9408 15.6 6.1708 15.76 6.5308C15.92 6.8908 15.85 7.3108 15.59 7.6108L6.54 17.6708C6.35 17.8908 6.07 18.0008 5.8 18.0008ZM3.25 10.0708H6.87C7.17 10.0708 7.45 10.2008 7.64 10.4308C7.83 10.6608 7.91 10.9608 7.86 11.2508L7.41 13.7308L12.63 7.9408H9.01C8.71 7.9408 8.43 7.8108 8.24 7.5808C8.05 7.3508 7.97 7.0508 8.02 6.7608L8.47 4.2808L3.25 10.0708Z" fill="white"/></svg>