<svg xmlns="http://www.w3.org/2000/svg" viewBox="0 0 40 40" class="Icon_icon__w6Pjo" preserveAspectRatio=""><path d="M20 40a19.873 19.873 0 01-14.142-5.858A19.867 19.867 0 010 20C0 14.656 2.08 9.635 5.858 5.858A19.872 19.872 0 0120 0c5.344 0 10.365 2.08 14.142 5.858A19.867 19.867 0 0140 20c0 5.344-2.08 10.365-5.858 14.142A19.868 19.868 0 0120 40zm-2.723-4.105a16.16 16.16 0 005.446 0l2.751-8.24H14.525zm16.994-8.393a15.922 15.922 0 001.688-5.18l-7.056-5.214 2.64-8.355a16.06 16.06 0 00-4.405-3.21L20 10.64l-7.137-5.097a16.045 16.045 0 00-4.406 3.21l2.641 8.355-7.057 5.213a15.96 15.96 0 001.689 5.18l8.728.072-3.383-10.409L20 10.68l8.924 6.485-3.381 10.41zm-6.953 6.864a16.355 16.355 0 004.075-2.966l-3.093.023zM8.608 31.4a16.347 16.347 0 004.073 2.966l-.982-2.943zM5.634 12.68a16.179 16.179 0 00-1.564 4.802l2.499-1.847zm30.292 4.802a16.092 16.092 0 00-1.563-4.802l-.933 2.955zM20 5.878l2.528-1.805a16.095 16.095 0 00-5.055 0zm2.7 17.904l1.67-5.138L20 15.469l-4.37 3.175 1.669 5.138z"/></svg>