<svg xmlns="http://www.w3.org/2000/svg" viewBox="0 0 20 14" class="Icon_icon__w6Pjo" preserveAspectRatio=""><path d="M20 7a9.97 9.97 0 00-2.928-7.07l-1.414 1.414A7.976 7.976 0 0118 7a7.975 7.975 0 01-2.342 5.656l1.414 1.414A9.969 9.969 0 0020 7zm-4 0a5.981 5.981 0 00-1.757-4.242L12.83 4.172A3.987 3.987 0 0114 7a3.987 3.987 0 01-1.171 2.828l1.414 1.414A5.981 5.981 0 0016 7zm-4 0a2 2 0 10-4 0 2 2 0 004 0zM6 7a3.99 3.99 0 011.171-2.828L5.757 2.758A5.981 5.981 0 004 7c0 1.657.671 3.156 1.757 4.242L7.17 9.828A3.987 3.987 0 016 7zM4.343 1.344L2.928-.07A9.969 9.969 0 000 7c0 2.761 1.12 5.26 2.928 7.07l1.415-1.414A7.975 7.975 0 012 7c0-2.209.895-4.208 2.343-5.656z"/></svg>