<svg width="512" height="461" viewBox="0 0 512 461" fill="none" xmlns="http://www.w3.org/2000/svg">
<path d="M0.0371207 114.841C0.0371207 114.841 -2.30011 135.384 36.2334 145.404L53.3894 78.2936L9.15351 62.1553L0.0371207 114.841Z" fill="url(#paint0_linear_4612_582)"/>
<path d="M467.524 78.8205C465.187 90.4073 455.091 97.3447 440.53 97.3569L29.7723 97.6996C14.3784 97.724 4.00183 104.38 0.0371094 114.841L16.1284 21.8532C18.4411 8.46782 29.8456 0.392549 46.4631 0.36808L483.395 0.000976562L467.524 78.8205Z" fill="url(#paint1_linear_4612_582)"/>
<path d="M84.5182 68.0004L90.1832 39.5654H78.9082L80.9432 29.5004H116.473L114.438 39.5654H103.163L97.4982 68.0004H84.5182ZM126.682 68.5504C123.382 68.5504 120.485 67.9821 117.992 66.8454C115.535 65.7087 113.61 64.0954 112.217 62.0054C110.824 59.9154 110.127 57.4587 110.127 54.6354C110.127 51.3354 110.897 48.3837 112.437 45.7804C113.977 43.1771 116.14 41.1237 118.927 39.6204C121.75 38.1171 125.032 37.3654 128.772 37.3654C131.999 37.3654 134.749 37.9337 137.022 39.0704C139.295 40.2071 141.037 41.7654 142.247 43.7454C143.457 45.7254 144.062 48.0171 144.062 50.6204C144.062 51.5371 143.989 52.4354 143.842 53.3154C143.732 54.1954 143.585 55.0387 143.402 55.8454H120.027L121.182 49.8504H137.682L132.512 51.4454C132.805 50.2721 132.787 49.2821 132.457 48.4754C132.164 47.6321 131.65 46.9904 130.917 46.5504C130.184 46.0737 129.285 45.8354 128.222 45.8354C126.719 45.8354 125.527 46.2387 124.647 47.0454C123.767 47.8521 123.125 48.8971 122.722 50.1804C122.355 51.4637 122.172 52.8021 122.172 54.1954C122.172 56.0654 122.667 57.4037 123.657 58.2104C124.684 58.9804 126.169 59.3654 128.112 59.3654C129.249 59.3654 130.385 59.2004 131.522 58.8704C132.659 58.5037 133.704 57.9721 134.657 57.2754L139.827 64.8104C137.774 66.2037 135.629 67.1754 133.392 67.7254C131.192 68.2754 128.955 68.5504 126.682 68.5504ZM143.047 68.0004L144.477 60.8504L163.452 43.0304L165.267 46.9904H147.667L149.482 37.9154H177.147L175.717 45.0654L156.797 62.8854L154.927 58.9254H173.572L171.757 68.0004H143.047ZM187.34 63.8754L190.09 48.3654L201.97 37.9154H217.26L200.65 52.8754L193.445 58.1554L187.34 63.8754ZM175.515 68.0004L183.655 27.1904H196.085L187.945 68.0004H175.515ZM197.46 68.0004L191.3 57.5504L200.155 48.1454L212.035 68.0004H197.46ZM229.747 68.5504C226.447 68.5504 223.568 67.9821 221.112 66.8454C218.655 65.6721 216.748 64.0404 215.392 61.9504C214.072 59.8604 213.412 57.4221 213.412 54.6354C213.412 51.3354 214.218 48.3838 215.832 45.7804C217.445 43.1771 219.663 41.1238 222.487 39.6204C225.31 38.1171 228.537 37.3654 232.167 37.3654C235.503 37.3654 238.382 37.9521 240.802 39.1254C243.258 40.2621 245.147 41.8754 246.467 43.9654C247.823 46.0188 248.502 48.4571 248.502 51.2804C248.502 54.5804 247.695 57.5321 246.082 60.1354C244.468 62.7388 242.25 64.7921 239.427 66.2954C236.64 67.7988 233.413 68.5504 229.747 68.5504ZM230.462 58.8704C231.562 58.8704 232.515 58.5954 233.322 58.0454C234.128 57.4588 234.752 56.6521 235.192 55.6254C235.668 54.5621 235.907 53.3154 235.907 51.8854C235.907 50.6021 235.522 49.4838 234.752 48.5304C233.982 47.5404 232.882 47.0454 231.452 47.0454C230.388 47.0454 229.435 47.3388 228.592 47.9254C227.785 48.4754 227.143 49.2821 226.667 50.3454C226.227 51.3721 226.007 52.6004 226.007 54.0304C226.007 55.4604 226.392 56.6338 227.162 57.5504C227.968 58.4304 229.068 58.8704 230.462 58.8704ZM249.26 68.0004L255.255 37.9154H266.97L265.265 46.4404L264.11 44.0204C265.356 41.6371 267.08 39.9321 269.28 38.9054C271.516 37.8788 274.065 37.3654 276.925 37.3654L274.725 48.3654C274.211 48.2921 273.735 48.2371 273.295 48.2004C272.891 48.1638 272.47 48.1454 272.03 48.1454C269.976 48.1454 268.308 48.6038 267.025 49.5204C265.778 50.4371 264.935 51.9588 264.495 54.0854L261.69 68.0004H249.26ZM303.757 68.5504C301.337 68.5504 299.229 68.0371 297.432 67.0104C295.672 65.9471 294.407 64.3888 293.637 62.3354C292.904 60.2454 292.849 57.6421 293.472 54.5254L296.772 37.9154H309.202L306.177 53.0404C305.847 54.6904 305.92 55.9554 306.397 56.8354C306.874 57.6788 307.735 58.1004 308.982 58.1004C310.375 58.1004 311.53 57.6421 312.447 56.7254C313.4 55.7721 314.06 54.3238 314.427 52.3804L317.342 37.9154H329.772L323.777 68.0004H312.062L313.767 59.5854L315.197 61.8954C313.767 64.2054 312.007 65.8921 309.917 66.9554C307.864 68.0188 305.81 68.5504 303.757 68.5504ZM341.775 68.5504C339.099 68.5504 336.55 68.2938 334.13 67.7804C331.747 67.2304 329.895 66.5704 328.575 65.8004L332.865 57.3304C334.369 58.2471 336.055 58.9438 337.925 59.4204C339.832 59.8604 341.629 60.0804 343.315 60.0804C344.709 60.0804 345.662 59.9521 346.175 59.6954C346.725 59.4021 347 59.0538 347 58.6504C347 58.2104 346.634 57.8988 345.9 57.7154C345.167 57.4954 344.214 57.3121 343.04 57.1654C341.904 57.0188 340.694 56.7988 339.41 56.5054C338.127 56.2121 336.899 55.7904 335.725 55.2404C334.589 54.6538 333.654 53.8471 332.92 52.8204C332.187 51.7938 331.82 50.4371 331.82 48.7504C331.82 46.1471 332.572 44.0204 334.075 42.3704C335.615 40.6838 337.669 39.4371 340.235 38.6304C342.802 37.7871 345.644 37.3654 348.76 37.3654C350.96 37.3654 353.069 37.5671 355.085 37.9704C357.139 38.3371 358.954 38.8871 360.53 39.6204L356.24 48.0904C354.664 47.1738 353.087 46.5688 351.51 46.2754C349.97 45.9821 348.559 45.8354 347.275 45.8354C345.845 45.8354 344.855 46.0004 344.305 46.3304C343.755 46.6238 343.48 46.9538 343.48 47.3204C343.48 47.7604 343.847 48.0904 344.58 48.3104C345.314 48.5304 346.249 48.7321 347.385 48.9154C348.522 49.0621 349.732 49.2821 351.015 49.5754C352.335 49.8321 353.564 50.2538 354.7 50.8404C355.837 51.3904 356.772 52.1788 357.505 53.2054C358.239 54.2321 358.605 55.5888 358.605 57.2754C358.605 59.7688 357.835 61.8588 356.295 63.5454C354.792 65.2321 352.757 66.4971 350.19 67.3404C347.66 68.1471 344.855 68.5504 341.775 68.5504ZM373.259 68.5505C370.839 68.5505 368.731 68.0371 366.934 67.0105C365.174 65.9471 363.909 64.3888 363.139 62.3354C362.406 60.2454 362.351 57.6421 362.974 54.5254L366.274 37.9154L378.704 37.9155L375.679 53.0405C375.349 54.6905 375.422 55.9555 375.899 56.8355C376.376 57.6788 377.237 58.1005 378.484 58.1005C379.877 58.1005 381.032 57.6421 381.949 56.7255C382.902 55.7721 383.562 54.3238 383.929 52.3805L386.844 37.9155H399.274L393.279 68.0005H381.564L383.269 59.5855L384.699 61.8955C383.269 64.2055 381.509 65.8921 379.419 66.9555C377.366 68.0188 375.312 68.5505 373.259 68.5505ZM398.737 68.0005L406.877 27.1905H419.307L411.167 68.0005H398.737Z" fill="white"/>
<path d="M210.505 131.446C247.614 131.446 284.72 131.577 321.824 131.359C332.012 131.298 342.202 131.242 352.393 131.116C353.262 131.103 354.123 131.229 354.988 131.307C359.13 131.668 360.209 134.981 361.038 138.471C369.802 175.175 367.021 214.264 351.449 248.784C347.298 257.988 342.229 266.656 336.626 275.011C332.221 281.58 327.423 287.853 322.171 293.791C318.254 298.22 314.137 302.45 309.768 306.402C301.548 313.84 292.824 320.626 282.651 325.286C277.256 327.76 271.6 329.307 265.714 330.133C259.845 330.959 253.951 330.95 248.065 330.82C215.531 330.116 182.997 330.663 150.463 330.515C133.621 330.442 116.776 330.498 99.9356 330.515C98.1751 330.515 96.4405 330.377 94.78 329.833C91.3283 328.712 89.2373 325.686 89.0416 321.674C88.9851 320.535 89.0025 319.391 89.0025 318.252C89.0025 259.875 89.0025 201.496 89.0025 143.123C89.0025 141.454 89.0373 139.797 89.3633 138.123C90.1502 134.12 93.3323 131.733 97.3708 131.49C98.775 131.403 100.188 131.442 101.596 131.442C137.899 131.442 174.199 131.442 210.502 131.434L210.505 131.446Z" fill="#2F4653"/>
<path d="M359.935 289.801C361.956 289.252 363.6 288.096 365.143 286.862C371.729 281.601 376.624 274.946 380.801 267.695C395.86 241.542 404.729 212.2 406.468 181.925C406.646 178.844 406.663 175.77 406.759 172.692C406.772 172.236 406.654 171.749 407.054 171.253C408.25 171.602 409.328 172.188 410.301 173.049C421.957 183.378 423.93 202.991 422.669 217.49C419.678 251.81 400.729 288.44 370.303 306.159C369.604 306.567 368.895 306.963 368.178 307.346C363.479 309.854 358.596 311.823 353.571 313.51C352.623 313.827 351.676 314.149 350.737 314.466C354.879 314.235 360.609 313.513 367.1 311.38C384.453 305.676 398.277 292.805 407.876 277.567C410.237 273.82 412.354 269.942 414.423 266.03C414.548 265.795 414.674 265.548 414.996 265.478C415.379 265.487 415.536 265.791 415.666 266.091C420.487 277.228 419.243 288.648 412.449 298.712C399.073 318.513 370.807 330.333 347.433 330.429C325.889 330.516 304.348 330.49 282.804 330.485C282.125 330.485 281.095 330.842 280.908 329.885C280.708 328.868 281.808 328.99 282.438 328.703C315.125 313.674 339.856 287.457 355.975 255.44C369.981 227.619 377.02 196.128 374.276 164.985C373.399 155.008 371.547 145.114 368.699 135.511C368.529 134.933 368.29 134.368 368.178 133.777C367.787 131.707 368.399 131.185 370.517 131.394C375.806 131.912 380.476 133.872 384.636 137.146C392.509 143.34 395.53 154.574 397.347 164.016C400.746 181.699 397.273 201.288 393.139 218.589C387.762 241.108 378.684 263.113 365.595 282.262C364.201 284.305 362.587 286.196 361.087 288.162C360.683 288.692 360.317 289.248 359.935 289.791V289.801Z" fill="url(#paint2_linear_4612_582)"/>
<path d="M173.65 215.542C173.615 212.764 172.754 209.969 170.303 208.408C167.917 206.892 164.743 206.922 162.865 209.23C162.713 209.417 162.387 209.735 162.482 210.008C162.578 210.282 163.169 210.216 163.417 210.343C163.843 210.556 164.013 210.982 164 211.438C163.982 211.968 163.978 217.033 163.956 224.015C157.814 223.98 151.667 223.941 145.524 223.906C145.406 222.38 145.364 220.667 145.472 218.807C145.572 217.09 145.794 215.381 146.128 213.695C146.276 212.956 146.445 212.221 146.637 211.495C146.845 210.695 147.423 209.713 147.363 208.874C147.354 208.761 147.328 208.647 147.259 208.56C147.093 208.357 146.776 208.391 146.524 208.457C144.959 208.856 143.437 209.691 142.237 210.774C141.868 211.104 140.881 212.043 139.99 213.643C137.625 217.877 137.439 223.876 137.439 223.876C137.317 227.753 137.164 235.613 141.298 243.773C141.298 243.773 144.194 249.494 148.337 250.902C149.154 251.18 149.376 250.997 149.445 250.902C149.767 250.489 149.076 249.776 148.872 249.458C148.493 248.876 148.172 248.259 147.893 247.62C147.32 246.302 146.937 244.907 146.654 243.503C145.789 239.225 145.228 234.896 145.35 230.527H163.956V246.946C163.956 248.033 164.4 249.081 165.403 249.594C166.009 249.902 166.695 250.011 167.368 250.094C168.547 250.241 169.751 250.319 170.915 250.094C171.598 249.964 172.281 249.715 172.79 249.242C173.612 248.481 173.623 247.446 173.623 246.408C173.623 238.161 173.703 229.914 173.689 221.667C173.689 219.619 173.672 217.577 173.65 215.53V215.542Z" fill="url(#paint3_linear_4612_582)"/>
<path d="M148.158 252.961C140.652 250.766 137.721 242.811 136.117 235.912C135.769 234.408 135.435 232.926 135.235 231.391C134.635 226.753 134.661 221.654 136.165 217.176C135.017 217.432 134.5 218.419 133.83 219.218C131.383 222.14 131.191 225.552 131.074 228.944C130.796 236.907 133.705 242.571 134.352 243.789C135.813 246.524 137.404 248.324 137.874 248.841C139.543 250.688 141.221 251.971 142.508 252.823C141.486 252.571 140.043 252.097 138.499 251.144C137.069 250.262 136.047 249.279 135.378 248.528C134.408 247.289 133.727 246.197 133.283 245.424C132.088 243.355 130.6 240.777 129.844 237.321C129.631 236.352 129.488 235.365 129.105 235.325C128.553 235.268 127.932 237.233 127.797 237.655C127.362 239.025 127.253 240.29 127.258 240.96C127.288 243.568 129.244 248.641 133.917 252.083C133.917 252.083 138.004 255.092 144.994 255.322C145.281 255.331 146.972 255.291 148.228 254.391C148.846 253.949 149.255 253.271 148.158 252.953V252.961Z" fill="url(#paint4_linear_4612_582)"/>
<path d="M136.173 217.15C136.173 217.15 136.169 217.168 136.164 217.177C136.173 217.177 136.182 217.172 136.191 217.168L136.173 217.15Z" fill="url(#paint5_linear_4612_582)"/>
<path d="M136.173 217.149L136.195 217.171L136.282 217.05L136.173 217.149Z" fill="url(#paint6_linear_4612_582)"/>
<path d="M269.731 214.572C269.762 213.615 269.731 212.199 269.388 210.495C269.353 210.312 269.31 209.877 269.089 209.373C268.97 209.099 268.64 208.373 267.87 207.878C267.458 207.617 266.997 207.46 266.511 207.464C266.171 207.464 265.831 207.49 265.498 207.49C265.028 207.49 264.558 207.504 264.089 207.508C263.175 207.517 262.263 207.495 261.355 207.529C260.537 207.559 259.772 207.838 259.189 208.451C258.498 209.177 257.947 210.212 257.033 212.429C256.881 212.794 256.759 213.107 256.677 213.32C256.329 214.072 251.421 224.714 249.565 227.792C249.43 228.023 249.126 228.513 248.752 228.496C248.374 228.513 248.074 228.023 247.939 227.792C246.087 224.71 241.175 214.072 240.828 213.32C240.745 213.107 240.623 212.798 240.47 212.429C239.558 210.212 239.005 209.177 238.314 208.451C237.736 207.838 236.972 207.559 236.15 207.529C235.236 207.499 234.324 207.517 233.416 207.508C232.946 207.508 232.476 207.495 232.007 207.49C231.667 207.49 231.328 207.469 230.994 207.464C230.507 207.464 230.051 207.617 229.633 207.878C228.864 208.373 228.533 209.099 228.416 209.373C228.194 209.877 228.15 210.312 228.116 210.495C227.777 212.203 227.742 213.62 227.772 214.572C227.416 225.523 227.06 236.465 226.699 247.415C226.711 247.598 226.747 247.849 226.846 248.132C227.407 249.736 229.442 250.524 231.007 250.545C232.589 250.566 234.48 249.815 235.15 248.362C235.158 248.345 235.28 248.063 235.345 247.749C235.811 245.519 236.08 227.562 236.18 219.741C240.466 228.522 243.818 235.087 245.37 237.982C245.683 238.577 246.356 239.773 247.595 240.182C247.953 240.303 248.347 240.368 248.752 240.373C249.156 240.373 249.552 240.303 249.908 240.182C251.147 239.773 251.817 238.577 252.134 237.982C253.681 235.087 257.038 228.522 261.324 219.741C261.424 227.565 261.694 245.519 262.159 247.749C262.224 248.063 262.346 248.345 262.354 248.362C263.023 249.815 264.914 250.566 266.497 250.545C268.066 250.524 270.097 249.736 270.658 248.132C270.758 247.849 270.792 247.598 270.806 247.415C270.448 236.465 270.092 225.523 269.731 214.572Z" fill="url(#paint7_linear_4612_582)"/>
<path d="M193.382 240.49C193.478 240.504 193.573 240.521 193.66 240.547C193.66 240.556 193.66 240.559 193.652 240.568C193.577 240.69 193.326 240.62 193.382 240.49Z" fill="white"/>
<path d="M218.161 208.769C217.271 207.643 215.748 207.6 214.284 207.56C212.897 207.522 211.132 207.474 210.028 208.699C209.415 209.383 209.246 210.186 209.194 210.673C209.167 218.754 209.141 226.831 209.115 234.913C209.128 235.704 209.05 237.195 208.249 238.834C207.407 240.564 206.21 241.547 205.907 241.786C205.907 241.786 203.872 243.394 201.212 243.608C200.946 243.629 200.664 243.638 200.664 243.638C200.594 243.638 200.525 243.638 200.455 243.642C200.385 243.642 200.316 243.642 200.246 243.638C200.246 243.638 199.968 243.629 199.699 243.608C197.038 243.389 195.004 241.786 195.004 241.786C194.695 241.542 193.504 240.564 192.661 238.834C191.861 237.195 191.782 235.704 191.796 234.913C191.77 226.831 191.744 218.754 191.718 210.673C191.665 210.186 191.501 209.383 190.882 208.699C189.779 207.474 188.014 207.522 186.627 207.56C185.166 207.6 183.64 207.643 182.749 208.769C182.049 209.652 182.106 210.743 182.162 211.217V236.586C182.162 238.947 182.84 242.072 185.106 245.042C187.648 248.376 191.261 249.863 192.374 250.275C194.63 251.114 196.851 251.35 197.53 251.414C198.708 251.532 199.712 251.537 200.455 251.514C201.199 251.537 202.203 251.532 203.381 251.414C204.059 251.345 206.28 251.111 208.537 250.275C209.649 249.863 213.263 248.376 215.805 245.042C218.065 242.072 218.749 238.947 218.749 236.586V211.217C218.804 210.743 218.861 209.652 218.161 208.769Z" fill="url(#paint8_linear_4612_582)"/>
<path d="M195.457 250.962C195.534 250.976 195.608 250.996 195.678 251.027L195.551 251.105L195.46 250.962H195.457Z" fill="white"/>
<path d="M318.823 220.975C317.597 216.901 315.093 213.312 311.694 210.756C307.838 207.86 303.056 206.343 298.253 206.229C293.449 206.343 288.667 207.86 284.812 210.756C281.408 213.312 278.903 216.901 277.681 220.975C274.183 232.669 279.447 247.588 292.045 250.888C294.079 251.418 296.17 251.645 298.253 251.588C300.339 251.645 302.43 251.418 304.461 250.888C317.059 247.588 322.323 232.669 318.823 220.975ZM309.468 234.029C308.151 239.568 304.473 245.52 298.248 245.585C292.023 245.52 288.345 239.568 287.028 234.029C285.759 228.696 285.994 222.415 288.98 217.654C291.05 214.355 294.57 212.403 298.244 212.377C301.922 212.403 305.439 214.359 307.508 217.654C310.495 222.415 310.729 228.696 309.459 234.029H309.468Z" fill="url(#paint9_linear_4612_582)"/>
<defs>
<linearGradient id="paint0_linear_4612_582" x1="40.6572" y1="119.712" x2="-5.44988" y2="113.691" gradientUnits="userSpaceOnUse">
<stop stop-color="#64DD17"/>
<stop offset="0.898577" stop-color="#3D8311"/>
</linearGradient>
<linearGradient id="paint1_linear_4612_582" x1="11.6793" y1="58.0803" x2="476.491" y2="57.5123" gradientUnits="userSpaceOnUse">
<stop stop-color="#63DB17"/>
<stop offset="0.418403" stop-color="#64DD17"/>
<stop offset="1" stop-color="#5DCE15"/>
</linearGradient>
<linearGradient id="paint2_linear_4612_582" x1="265.119" y1="261.304" x2="426.929" y2="211.634" gradientUnits="userSpaceOnUse">
<stop offset="0.33" stop-color="#9C8837"/>
<stop offset="0.56" stop-color="#F7E59E"/>
<stop offset="0.6" stop-color="#F0DE96"/>
<stop offset="0.67" stop-color="#DECB80"/>
<stop offset="0.75" stop-color="#C0AC5D"/>
<stop offset="0.79" stop-color="#B39F4D"/>
</linearGradient>
<linearGradient id="paint3_linear_4612_582" x1="164.747" y1="233.983" x2="134.947" y2="211.434" gradientUnits="userSpaceOnUse">
<stop offset="0.33" stop-color="#9C8837"/>
<stop offset="0.56" stop-color="#F7E59E"/>
<stop offset="0.6" stop-color="#F0DE96"/>
<stop offset="0.67" stop-color="#DECB80"/>
<stop offset="0.75" stop-color="#C0AC5D"/>
<stop offset="0.79" stop-color="#B39F4D"/>
</linearGradient>
<linearGradient id="paint4_linear_4612_582" x1="153.614" y1="248.689" x2="123.815" y2="226.14" gradientUnits="userSpaceOnUse">
<stop offset="0.33" stop-color="#9C8837"/>
<stop offset="0.56" stop-color="#F7E59E"/>
<stop offset="0.6" stop-color="#F0DE96"/>
<stop offset="0.67" stop-color="#DECB80"/>
<stop offset="0.75" stop-color="#C0AC5D"/>
<stop offset="0.79" stop-color="#B39F4D"/>
</linearGradient>
<linearGradient id="paint5_linear_4612_582" x1="163.473" y1="237.822" x2="132.501" y2="214.375" gradientUnits="userSpaceOnUse">
<stop offset="0.33" stop-color="#9C8837"/>
<stop offset="0.56" stop-color="#F7E59E"/>
<stop offset="0.6" stop-color="#F0DE96"/>
<stop offset="0.67" stop-color="#DECB80"/>
<stop offset="0.75" stop-color="#C0AC5D"/>
<stop offset="0.79" stop-color="#B39F4D"/>
</linearGradient>
<linearGradient id="paint6_linear_4612_582" x1="162.346" y1="236.87" x2="132.705" y2="214.434" gradientUnits="userSpaceOnUse">
<stop offset="0.33" stop-color="#9C8837"/>
<stop offset="0.56" stop-color="#F7E59E"/>
<stop offset="0.6" stop-color="#F0DE96"/>
<stop offset="0.67" stop-color="#DECB80"/>
<stop offset="0.75" stop-color="#C0AC5D"/>
<stop offset="0.79" stop-color="#B39F4D"/>
</linearGradient>
<linearGradient id="paint7_linear_4612_582" x1="275.139" y1="243.181" x2="228.829" y2="218.62" gradientUnits="userSpaceOnUse">
<stop offset="0.33" stop-color="#9C8837"/>
<stop offset="0.56" stop-color="#F7E59E"/>
<stop offset="0.6" stop-color="#F0DE96"/>
<stop offset="0.67" stop-color="#DECB80"/>
<stop offset="0.75" stop-color="#C0AC5D"/>
<stop offset="0.79" stop-color="#B39F4D"/>
</linearGradient>
<linearGradient id="paint8_linear_4612_582" x1="223.257" y1="240.908" x2="176.946" y2="211.912" gradientUnits="userSpaceOnUse">
<stop offset="0.33" stop-color="#9C8837"/>
<stop offset="0.56" stop-color="#F7E59E"/>
<stop offset="0.6" stop-color="#F0DE96"/>
<stop offset="0.67" stop-color="#DECB80"/>
<stop offset="0.75" stop-color="#C0AC5D"/>
<stop offset="0.79" stop-color="#B39F4D"/>
</linearGradient>
<linearGradient id="paint9_linear_4612_582" x1="330.917" y1="247.993" x2="273.334" y2="214.572" gradientUnits="userSpaceOnUse">
<stop offset="0.33" stop-color="#9C8837"/>
<stop offset="0.56" stop-color="#F7E59E"/>
<stop offset="0.6" stop-color="#F0DE96"/>
<stop offset="0.67" stop-color="#DECB80"/>
<stop offset="0.75" stop-color="#C0AC5D"/>
<stop offset="0.79" stop-color="#B39F4D"/>
</linearGradient>
</defs>
</svg>
