<svg xmlns="http://www.w3.org/2000/svg" viewBox="0 0 16 16" class="Icon_icon__w6Pjo" preserveAspectRatio=""><path d="M3 2h2.515L7.293.222a1 1 0 011.414 0L10.485 2H13a1 1 0 011 1v2.515l1.778 1.778a1 1 0 010 1.414L14 10.485V13a1 1 0 01-1 1h-2.515l-1.778 1.778a1 1 0 01-1.414 0L5.515 14H3a1 1 0 01-1-1v-2.515L.222 8.707a1 1 0 010-1.414L2 5.515V3a1 1 0 011-1zm-.657 6L4 9.657V12h2.343L8 13.657 9.657 12H12V9.657L13.657 8 12 6.343V4H9.657L8 2.343 6.343 4H4v2.343zM8 5a3 3 0 110 6 3 3 0 010-6zM7 8a1 1 0 102 0 1 1 0 00-2 0z"/></svg>