<svg xmlns="http://www.w3.org/2000/svg" width="40" height="40" fill="none"><circle cx="20" cy="20" r="19" stroke="#87BC17" stroke-width="2"/><path fill="#87BC17" d="M11.555 10.717c.312-.895 1.578-.895 1.89 0l.12.346a1 1 0 0 0 .924.671l.365.008c.949.02 1.34 1.224.584 1.796l-.291.221a1 1 0 0 0-.353 1.087l.106.35c.274.908-.75 1.652-1.529 1.11l-.3-.209a1 1 0 0 0-1.142 0l-.3.21c-.779.54-1.803-.203-1.529-1.111l.106-.35a1 1 0 0 0-.353-1.087l-.291-.22c-.756-.573-.364-1.778.584-1.797l.365-.008a1 1 0 0 0 .924-.671l.12-.346Zm15 0c.312-.895 1.578-.895 1.89 0l.12.346a1 1 0 0 0 .924.671l.366.008c.947.02 1.339 1.224.583 1.796l-.291.221a1 1 0 0 0-.353 1.087l.106.35c.274.908-.75 1.652-1.529 1.11l-.3-.209a1 1 0 0 0-1.142 0l-.3.21c-.779.54-1.803-.203-1.529-1.111l.106-.35a1 1 0 0 0-.353-1.087l-.291-.22c-.756-.573-.364-1.778.583-1.797l.366-.008a1 1 0 0 0 .924-.671l.12-.346ZM30 22a10 10 0 0 1-20 0h20Z"/></svg>