<svg xmlns="http://www.w3.org/2000/svg" viewBox="0 0 20 20" class="Icon_icon__w6Pjo" preserveAspectRatio=""><path fill-rule="evenodd" clip-rule="evenodd" d="M10 20C4.477 20 0 15.523 0 10S4.477 0 10 0s10 4.477 10 10-4.477 10-10 10zm4.794-3.606a5.99 5.99 0 00-9.585.002 7.954 7.954 0 009.585-.002zM13 9a3 3 0 10-3 3 3 3 0 003-3zm-3-7a8 8 0 00-8 8c0 1.894.661 3.631 1.761 5.002a8.007 8.007 0 012.936-2.275C5.664 11.811 5 10.49 5 9a5 5 0 1110 0c0 1.49-.664 2.812-1.698 3.728a7.996 7.996 0 012.928 2.285A7.962 7.962 0 0018 10a8 8 0 00-8-8z"/></svg>