<svg xmlns="http://www.w3.org/2000/svg" viewBox="0 0 18 20" class="Icon_icon__w6Pjo" preserveAspectRatio=""><path d="M16 6a3.001 3.001 0 00-2-2.83V8c0 .291-.025.576-.073.854A3.001 3.001 0 0016 6zm2 0a5 5 0 01-5 5 5.001 5.001 0 01-3 1.9V14h2a3 3 0 013 3v1h2a1 1 0 110 2H1a1 1 0 110-2h2v-1a3 3 0 013-3h2v-1.1A5 5 0 015 11a5 5 0 01-1-9.9V1a1 1 0 011-1h8a1 1 0 011 1v.1c2.282.463 4 2.481 4 4.9zM2 6c0 1.333.87 2.463 2.073 2.854A5.032 5.032 0 014 8V3.17A3.001 3.001 0 002 6zm10-4H6v6a3 3 0 106 0zm1 15a1 1 0 00-1-1H6a1 1 0 00-1 1v1h8z"/></svg>